<svg xmlns="http://www.w3.org/2000/svg" width="296.5" height="254.975" viewBox="0 0 296.5 254.975"><g transform="translate(170.96 -661.349)"><g transform="translate(-131.481 661.349)" opacity="0.67"><path d="M-5.506,661.669c-19.258,2.232-35.486,15.343-43.283,32.607C-59.149,717.213-55.477,745.39-64,769.206a71.466,71.466,0,0,1-33.625,38.981c-7.574,4.014-16.059,6.8-22.265,12.621-5.495,5.157-8.779,12.4-10.223,20.006-4.251,22.4,8.411,48.434,29.386,60.429,11.232,6.423,24.058,8.927,36.5,9.345,25.707.862,50.819-6.984,70.291-21.957C16.934,880.272,26,869.839,34.041,858.718c17.513-24.23,30.465-52.4,34.23-83.013,4.507-36.642-3.132-85.063-40.054-106.577A55.387,55.387,0,0,0-5.506,661.669Z" transform="translate(155.263 -661.349)" fill="#fff"/><path d="M-134.123,779.565c-1.052-2.407-2.688-5.165-5.233-5.433a4.465,4.465,0,0,0-2.673.652c-3.826,2.2-4.464,7.468-4.059,12.074a50.311,50.311,0,0,0,2.822,12.7,19.367,19.367,0,0,0,3.153,5.967,8.6,8.6,0,0,0,5.734,3.25C-119.681,809.727-131.206,786.235-134.123,779.565Z" transform="translate(146.194 -594.356)" fill="#fff"/></g><g transform="translate(-52.893 788.931)"><g transform="translate(0 55.14)"><path d="M-58.748,848.025c-5.16,0-13.807-.837-18.275-5.956-2.677-3.067-3.486-7.244-2.407-12.412,1.51-7.22-1.1-9.332-4.709-12.254-1.012-.819-2.06-1.667-3.12-2.708-5.1-5-4.363-7.58-2.895-12.726.655-2.305-.384-3.053-1.958-4.185a9.569,9.569,0,0,1-4.57-6.971,12.91,12.91,0,0,1,2.641-10.685,12.507,12.507,0,0,1,9.753-4.156h.081c6.023.029,7.107,4.422,7.979,7.95a10.9,10.9,0,0,0,1.658,4.293,6.1,6.1,0,0,0,3.41,1.8c2.206.606,4.711,1.293,6.55,6.324a21.653,21.653,0,0,1,1.13,8.436c-.057,3.105-.1,5.157,2.844,6.8a18.4,18.4,0,0,1,3.11,2.268l-.483.548a17.6,17.6,0,0,0-2.984-2.176c-3.324-1.852-3.276-4.322-3.219-7.449a20.75,20.75,0,0,0-1.086-8.171c-1.712-4.677-3.92-5.283-6.058-5.87a6.769,6.769,0,0,1-3.773-2.034,11.355,11.355,0,0,1-1.811-4.593c-.894-3.622-1.819-7.366-7.271-7.393h-.078a11.786,11.786,0,0,0-9.2,3.9,12.18,12.18,0,0,0-2.474,10.087,8.929,8.929,0,0,0,4.275,6.5c1.626,1.17,3.029,2.179,2.232,4.98-1.43,5.02-2.082,7.311,2.7,12,1.036,1.016,2.069,1.852,3.07,2.662,3.668,2.97,6.565,5.316,4.964,12.971-1.03,4.932-.277,8.9,2.241,11.782,5.391,6.179,17.306,5.846,20.825,5.6l.051.73C-56.331,847.971-57.425,848.025-58.748,848.025Z" transform="translate(96.895 -775.973)" fill="#124c64"/><g transform="translate(9.999 16.596)"><g transform="translate(3.116)"><path d="M-69.631,820.272q-6.3-12.814-13.309-25.26-2.372-4.22-4.822-8.395a.484.484,0,0,0-.835.489q7.857,13.4,14.924,27.248,1.626,3.19,3.206,6.405c.274.56,1.111.07.837-.488Z" transform="translate(88.668 -786.384)" fill="#124c64"/></g><g transform="translate(0 15.132)"><path d="M-90.161,796.848l10.83,1.122,1.559.163c.619.064.615-.906,0-.969l-10.83-1.122-1.559-.163c-.619-.064-.614.906,0,.969Z" transform="translate(90.623 -795.876)" fill="#124c64"/></g></g><g transform="translate(10.678 5.842)"><g transform="translate(0 18.597)"><path d="M-87.957,795.284a2.129,2.129,0,0,1-2.24-1.991,2.129,2.129,0,0,1,2.24-1.99,2.128,2.128,0,0,1,2.238,1.99A2.128,2.128,0,0,1-87.957,795.284Zm0-3.247a1.4,1.4,0,0,0-1.508,1.256,1.4,1.4,0,0,0,1.508,1.258,1.4,1.4,0,0,0,1.506-1.258A1.4,1.4,0,0,0-87.957,792.037Z" transform="translate(90.197 -791.304)" fill="#124c64"/></g><g transform="translate(4.424 2.817)"><path d="M-85.185,785.884a2.227,2.227,0,0,1-1.116-.3,2.231,2.231,0,0,1-1.043-1.36,2.215,2.215,0,0,1,.223-1.7,2.226,2.226,0,0,1,1.36-1.044,2.226,2.226,0,0,1,1.7.223,2.244,2.244,0,0,1,.821,3.061h0A2.24,2.24,0,0,1-85.185,785.884Zm.006-3.746a1.516,1.516,0,0,0-.394.053,1.5,1.5,0,0,0-.913.7,1.49,1.49,0,0,0-.151,1.141,1.5,1.5,0,0,0,.7.917,1.509,1.509,0,0,0,2.06-.552h0a1.511,1.511,0,0,0-.552-2.06A1.5,1.5,0,0,0-85.179,782.138Z" transform="translate(87.422 -781.405)" fill="#124c64"/></g><g transform="translate(10.794 46.108)"><path d="M-80.726,813.34a2.561,2.561,0,0,1-2.7-2.388,2.562,2.562,0,0,1,2.7-2.39,2.563,2.563,0,0,1,2.7,2.39A2.562,2.562,0,0,1-80.726,813.34Zm0-4.046a1.836,1.836,0,0,0-1.969,1.658,1.834,1.834,0,0,0,1.969,1.655,1.832,1.832,0,0,0,1.967-1.655A1.834,1.834,0,0,0-80.726,809.294Z" transform="translate(83.426 -808.562)" fill="#124c64"/></g><g transform="translate(2.912)"><path d="M-87.171,782.034a1.2,1.2,0,0,1-1.2-1.2,1.2,1.2,0,0,1,1.2-1.2,1.2,1.2,0,0,1,1.2,1.2A1.2,1.2,0,0,1-87.171,782.034Zm0-1.664a.465.465,0,0,0-.465.467.465.465,0,0,0,.465.465.466.466,0,0,0,.465-.465A.466.466,0,0,0-87.171,780.37Z" transform="translate(88.37 -779.638)" fill="#124c64"/></g></g></g><g transform="translate(70.23 61.5)"><path d="M-37.727,845.446c-5.651,0-10.695-.574-12.367-1.766-2.374-1.691-3.392-7.173-2.318-12.48.781-3.855,3.894-13.112,15.925-15.8,7.146-1.6,7.765-4.645,8.621-8.866a35.692,35.692,0,0,1,.905-3.745c1.993-6.356,4.653-6.762,9.957-7.572,2.388-.365,2.712-2.1,3.16-4.5.465-2.5,1.046-5.6,4.42-7.849,4.046-2.686,8.57-3.585,12.1-2.39,3.038,1.028,5.324,3.547,6.609,7.285,1.961,5.7-1.328,9.172-3.969,11.965a13.054,13.054,0,0,0-2.56,3.277c-.529,1.24-.3,2.657-.027,4.3.461,2.8,1.035,6.3-2.61,9.918a12.635,12.635,0,0,1-7.613,3.51c-2.361.4-3.786.644-3.821,3.434-.077,6.356-2.841,16.789-8.527,19C-23.681,844.662-31.119,845.445-37.727,845.446ZM-.64,780.694a15.484,15.484,0,0,0-8.377,2.786c-3.118,2.074-3.644,4.889-4.108,7.374-.445,2.388-.866,4.645-3.767,5.087-5.16.787-7.513,1.148-9.372,7.07a35.38,35.38,0,0,0-.886,3.668c-.875,4.323-1.567,7.736-9.177,9.437-11.611,2.592-14.615,11.514-15.367,15.23-1.125,5.556.177,10.419,2.026,11.739h0c3.419,2.437,22.754,2.05,29.556-.6,5.565-2.162,8-13,8.061-18.324.043-3.4,2.076-3.748,4.43-4.148A12.017,12.017,0,0,0-.4,816.708c3.376-3.357,2.86-6.505,2.4-9.282-.277-1.68-.537-3.266.078-4.706a13.506,13.506,0,0,1,2.7-3.491c2.638-2.786,5.626-5.946,3.81-11.224-1.227-3.566-3.3-5.863-6.152-6.829A9.593,9.593,0,0,0-.64,780.694Z" transform="translate(52.839 -779.962)" fill="#124c64"/><g transform="translate(8.407 17.098)"><path d="M-46.76,839.321c2.482-2.963,5.061-5.849,7.551-8.807q9.278-11.035,18.125-22.421,6.425-8.262,12.609-16.706c.368-.5-.472-.987-.837-.489Q-19.705,805.11-30.8,818.8q-6.9,8.532-14.054,16.858c-.861,1-1.747,1.974-2.594,2.984-.4.473.284,1.162.685.684Z" transform="translate(47.565 -790.688)" fill="#124c64"/></g></g><g transform="translate(31.352)"><path d="M-33.22,868.555l-34.136-.585-.105-.1c-4.55-4.432-14.368-15.97-7.266-27.358a28.857,28.857,0,0,1,10.985-10.223c4.789-2.86,7.679-4.588,5.686-14.267l-.414-2c-3.23-15.538-5.009-24.1,11.38-30.983,12.227-5.136,11.9-9.986,11.478-16.125a31.317,31.317,0,0,1,.067-6.992,21.5,21.5,0,0,1,10.268-15.147,24.175,24.175,0,0,1,20.749-1.916c4.03,1.382,6.831,5.2,7.883,10.762,1.636,8.642-1.245,19.561-6.287,23.846-3.448,2.928-1.927,5.662.179,9.443,2.567,4.612,5.76,10.351,1.97,19.209-3.515,8.216-9.754,10.918-14.766,13.091-5.12,2.217-8.817,3.819-8.221,9.845.182,1.856.446,3.768.724,5.793.18,1.323.367,2.667.531,4.024l-.725.088c-.166-1.35-.349-2.691-.531-4.011-.279-2.032-.542-3.952-.729-5.822-.647-6.557,3.665-8.427,8.659-10.59,5.149-2.23,10.985-4.758,14.385-12.708,3.649-8.525.552-14.092-1.938-18.562-2.1-3.778-3.917-7.041-.013-10.357,4.868-4.138,7.636-14.741,6.043-23.155-.708-3.74-2.567-8.548-7.4-10.205A23.461,23.461,0,0,0-24.9,745.4a20.771,20.771,0,0,0-9.925,14.628,30.959,30.959,0,0,0-.061,6.837c.421,6.176.784,11.509-11.924,16.848-15.834,6.652-14.2,14.51-10.947,30.159l.414,2c2.1,10.19-1.31,12.225-6.029,15.044a28.242,28.242,0,0,0-10.74,9.982c-6.767,10.853,2.587,21.964,7.054,26.346l33.845.58Z" transform="translate(77.228 -741.383)" fill="#124c64"/><g transform="translate(16.065 12.069)"><path d="M-66.269,863.107q2.071-4.782,4.156-9.557,5.129-11.769,10.295-23.523,6.585-14.986,13.249-29.936,6.454-14.464,13.049-28.865c3.1-6.719,6.179-13.461,9.573-20.036.26-.5.523-1.008.791-1.506.295-.55-.54-1.039-.835-.489-3.247,6.061-6.1,12.342-8.992,18.576-4.334,9.348-8.568,18.744-12.775,28.149Q-44.505,811-51.15,826.117q-5.442,12.365-10.842,24.748c-1.683,3.858-3.459,7.692-5.044,11.591-.022.054-.046.108-.07.161-.244.566.59,1.06.837.489Z" transform="translate(67.15 -748.954)" fill="#124c64"/><g transform="translate(8.383 41.15)"><g transform="translate(23.007)"><path d="M-46.992,777l19.95-1.1,2.839-.158c.62-.033.623-1,0-.968q-9.976.552-19.95,1.1l-2.839.158c-.62.033-.623,1,0,.968Z" transform="translate(47.458 -774.767)" fill="#124c64"/></g><g transform="translate(0 51.143)"><path d="M-61.429,809.844l15.766-1.774,2.208-.247c.612-.07.62-1.039,0-.969l-15.766,1.774q-1.1.122-2.208.247c-.612.07-.62,1.039,0,.969Z" transform="translate(61.891 -806.85)" fill="#124c64"/></g></g><g transform="translate(6.666 37.552)"><path d="M-62.922,773.251q2.264,5.086,4.53,10.172,3.6,8.073,7.193,16.143.832,1.872,1.667,3.743c.252.569,1.087.077.835-.489q-2.264-5.086-4.532-10.17-3.594-8.073-7.191-16.144l-1.667-3.743c-.253-.569-1.087-.077-.835.488Z" transform="translate(62.968 -772.51)" fill="#124c64"/></g></g><g transform="translate(49.907 10.531)"><path d="M-43.188,755.44a2.681,2.681,0,0,1-1.522-.458c-1.444-.984-1.621-3.249-.4-5.05a4.482,4.482,0,0,1,2.3-1.777,2.887,2.887,0,0,1,2.547.292,2.88,2.88,0,0,1,1.205,2.262,4.494,4.494,0,0,1-.811,2.788h0a4.489,4.489,0,0,1-2.3,1.778A3.341,3.341,0,0,1-43.188,755.44Zm1.4-6.719a2.609,2.609,0,0,0-.8.132,3.729,3.729,0,0,0-1.913,1.49c-1,1.468-.909,3.277.2,4.033a2.156,2.156,0,0,0,1.911.2,3.757,3.757,0,0,0,1.913-1.49h0a3.754,3.754,0,0,0,.687-2.329,2.158,2.158,0,0,0-.888-1.7A1.95,1.95,0,0,0-41.789,748.721Z" transform="translate(45.92 -747.989)" fill="#124c64"/></g><g transform="translate(52.975 22.751)"><path d="M-42.064,759.521A1.935,1.935,0,0,1-44,757.589a1.936,1.936,0,0,1,1.932-1.934,1.938,1.938,0,0,1,1.934,1.934A1.936,1.936,0,0,1-42.064,759.521Zm0-3.132a1.2,1.2,0,0,0-1.2,1.2,1.2,1.2,0,0,0,1.2,1.2,1.2,1.2,0,0,0,1.2-1.2A1.2,1.2,0,0,0-42.064,756.388Z" transform="translate(43.996 -755.655)" fill="#124c64"/></g><g transform="translate(61.381 61.687)"><path d="M-35.313,786.9a3.415,3.415,0,0,1-3.41-3.411,3.415,3.415,0,0,1,3.41-3.41,3.415,3.415,0,0,1,3.411,3.41A3.415,3.415,0,0,1-35.313,786.9Zm0-6.089a2.682,2.682,0,0,0-2.678,2.678,2.682,2.682,0,0,0,2.678,2.68,2.681,2.681,0,0,0,2.678-2.68A2.681,2.681,0,0,0-35.313,780.812Z" transform="translate(38.723 -780.08)" fill="#124c64"/></g></g></g><g transform="translate(-170.96 715.771)"><g transform="translate(32.899)"><g transform="translate(0.437 0.447)"><rect width="62.344" height="67.316" fill="#25ced1"/></g><path d="M-87.541,762.849h-61.388a3.083,3.083,0,0,0-.848,0,.413.413,0,0,1-.108,0l.4.4v-66.3a3.407,3.407,0,0,0,0-.9.462.462,0,0,1,0-.115l-.4.4H-88.5a3.083,3.083,0,0,0,.848,0,.4.4,0,0,1,.107,0l-.4-.4v64.581c0,.862-.075,1.761,0,2.621,0,.038,0,.077,0,.115a.4.4,0,0,0,.808,0V698.671c0-.862.073-1.761,0-2.621a.919.919,0,0,1,0-.115.409.409,0,0,0-.4-.4h-59.8a19.942,19.942,0,0,0-2.431,0,.824.824,0,0,1-.108,0,.409.409,0,0,0-.4.4v64.581c0,.862-.075,1.761,0,2.621,0,.038,0,.077,0,.115a.409.409,0,0,0,.4.4h59.8a19.968,19.968,0,0,0,2.433,0,.8.8,0,0,1,.107,0A.4.4,0,0,0-87.541,762.849Z" transform="translate(150.322 -695.489)" fill="#124c64"/><g transform="translate(5.074 7.921)"><g transform="translate(0.486 0.478)"><g transform="translate(0 26.226)"><path d="M-128.9,717.941h-5.857a.367.367,0,0,1-.367-.367.366.366,0,0,1,.367-.365h5.857a.366.366,0,0,1,.367.365A.367.367,0,0,1-128.9,717.941Zm-11.713,0h-5.857a.367.367,0,0,1-.367-.367.366.366,0,0,1,.367-.365h5.857a.366.366,0,0,1,.365.365A.366.366,0,0,1-140.611,717.941Z" transform="translate(146.834 -717.209)" fill="#ffcd91"/></g><g transform="translate(12.412)"><path d="M-138.681,707.118a.361.361,0,0,1-.1-.014.367.367,0,0,1-.266-.352v-5.629a.366.366,0,0,1,.367-.365.366.366,0,0,1,.365.365v5.163a.366.366,0,0,1,.067.464l-.121.194A.37.37,0,0,1-138.681,707.118Zm3.18-5.19a.35.35,0,0,1-.193-.054.366.366,0,0,1-.12-.5l.061-.1a.362.362,0,0,1,.5-.12.369.369,0,0,1,.12.505l-.061.1A.365.365,0,0,1-135.5,701.927Z" transform="translate(139.048 -700.757)" fill="#ffcd91"/></g></g><path d="M-121.015,752.009h-25.721l.4.4.265-14.62.419-23.277.1-5.3-.4.4a8.891,8.891,0,0,0,3.837-1.31,9.85,9.85,0,0,0,4.457-7.336l-.389.3,10.577,1.113-.389-.51a23.082,23.082,0,0,0-.548,4.872c-.04,2.8.386,5.866,2.144,8.144a7.653,7.653,0,0,0,4.365,2.734l-.241-.593a46.476,46.476,0,0,0-3.9,7.054,6.164,6.164,0,0,0-.69,2.948c.08.837.241,1.669.391,2.5,1.092,5.988,2.457,11.93,3.784,17.868q.574,2.566,1.157,5.13c.116.505.894.292.78-.215q-1.454-6.358-2.834-12.735c-.646-2.979-1.285-5.962-1.862-8.956-.322-1.671-.925-3.521-.379-5.194a35.486,35.486,0,0,1,4.255-7.988.406.406,0,0,0-.241-.593c-5.87-1.4-6.378-8.227-5.675-13.193.073-.523.158-1.049.279-1.565a.41.41,0,0,0-.391-.51q-5.287-.557-10.577-1.113a.4.4,0,0,0-.389.295,9.106,9.106,0,0,1-4.2,6.922,8.424,8.424,0,0,1-3.317,1.133.412.412,0,0,0-.4.4l-.265,14.621-.419,23.276-.1,5.3a.409.409,0,0,0,.4.4h25.721A.4.4,0,0,0-121.015,752.009Z" transform="translate(147.139 -700.457)" fill="#124c64"/><g transform="translate(30.967 4.009)"><g transform="translate(1.67)"><path d="M-126.276,703.779h19.04a.4.4,0,0,0,0-.807h-19.04a.4.4,0,0,0,0,.807Z" transform="translate(126.665 -702.972)" fill="#124c64"/></g><g transform="translate(5.455 3.923)"><path d="M-123.9,706.241h15.254a.4.4,0,0,0,0-.808H-123.9a.4.4,0,0,0,0,.808Z" transform="translate(124.291 -705.433)" fill="#124c64"/></g><g transform="translate(0 7.848)"><path d="M-127.324,708.7h20.711a.4.4,0,0,0,0-.807h-20.711a.4.4,0,0,0,0,.807Z" transform="translate(127.713 -707.895)" fill="#124c64"/></g><g transform="translate(1.782 11.771)"><path d="M-126.206,711.163h18.928a.4.4,0,0,0,0-.807h-18.928a.4.4,0,0,0,0,.807Z" transform="translate(126.595 -710.356)" fill="#124c64"/></g><g transform="translate(5.567 15.694)"><path d="M-123.831,713.625h15.142a.4.4,0,0,0,0-.808h-15.142a.4.4,0,0,0,0,.808Z" transform="translate(124.221 -712.817)" fill="#124c64"/></g><g transform="translate(0.334 35.963)"><g transform="translate(2.895)"><path d="M-125.3,726.34h17.814a.4.4,0,0,0,0-.808H-125.3a.4.4,0,0,0,0,.808Z" transform="translate(125.687 -725.532)" fill="#124c64"/></g><g transform="translate(0 5.122)"><path d="M-127.114,729.553H-106.4a.4.4,0,0,0,0-.808h-20.709a.4.4,0,0,0,0,.808Z" transform="translate(127.503 -728.745)" fill="#124c64"/></g></g></g></g><g transform="translate(28.084 4.361)"><g transform="translate(0.395 0.402)"><circle cx="3.13" cy="3.13" r="3.13" fill="#fff"/></g><path d="M-126.453,701.756a2.756,2.756,0,0,1-1.789,2.562,2.763,2.763,0,0,1-3.057-.845,2.751,2.751,0,0,1-.22-3.117,2.747,2.747,0,0,1,2.833-1.285,2.762,2.762,0,0,1,2.233,2.685.4.4,0,0,0,.807,0,3.582,3.582,0,0,0-2.3-3.313A3.55,3.55,0,0,0-131.9,699.5a3.571,3.571,0,0,0-.32,4.063,3.578,3.578,0,0,0,3.7,1.663,3.569,3.569,0,0,0,2.868-3.469A.4.4,0,0,0-126.453,701.756Z" transform="translate(132.704 -698.224)" fill="#124c64"/></g></g><g transform="translate(0 61.212)"><g transform="translate(0.404 0.404)"><rect width="44.039" height="27.689" fill="#dcbfff"/></g><path d="M-126.516,761.577h-44.04l.4.4V734.29l-.4.4h44.04l-.4-.4v27.69a.4.4,0,0,0,.807,0V734.29a.41.41,0,0,0-.4-.4h-44.04a.409.409,0,0,0-.4.4v27.69a.409.409,0,0,0,.4.4h44.04A.4.4,0,0,0-126.516,761.577Z" transform="translate(170.96 -733.887)" fill="#124c64"/><g transform="translate(5.452 8.022)"><g transform="translate(3.954)"><path d="M-164.826,739.4h26.021a.242.242,0,0,0,0-.483h-26.021a.242.242,0,0,0,0,.483Z" transform="translate(165.059 -738.919)" fill="#124c64"/></g><g transform="translate(0 3.231)"><path d="M-167.306,741.429h33.927a.242.242,0,0,0,0-.483h-33.927a.242.242,0,0,0,0,.483Z" transform="translate(167.54 -740.946)" fill="#124c64"/></g><g transform="translate(5.399 6.463)"><path d="M-163.919,743.456h23.129a.242.242,0,0,0,0-.483h-23.129a.242.242,0,0,0,0,.483Z" transform="translate(164.153 -742.973)" fill="#124c64"/></g><g transform="translate(1.19 9.694)"><path d="M-166.559,745.483h31.547a.242.242,0,0,0,0-.483h-31.547a.242.242,0,0,0,0,.483Z" transform="translate(166.793 -745)" fill="#124c64"/></g><g transform="translate(10.161 12.925)"><path d="M-160.932,747.51h13.606a.242.242,0,0,0,0-.483h-13.606a.242.242,0,0,0,0,.483Z" transform="translate(161.165 -747.027)" fill="#124c64"/></g><g transform="translate(1.615 16.156)"><path d="M-166.293,749.537h30.7a.242.242,0,0,0,0-.483h-30.7a.242.242,0,0,0,0,.483Z" transform="translate(166.526 -749.054)" fill="#124c64"/></g></g><g transform="translate(19.796 1.913)"><g transform="translate(0.237 0.24)"><path d="M-153.612,737.628A2.391,2.391,0,0,1-156,740.019a2.391,2.391,0,0,1-2.39-2.391,2.389,2.389,0,0,1,2.39-2.39A2.39,2.39,0,0,1-153.612,737.628Z" transform="translate(158.393 -735.238)" fill="#fff"/></g><path d="M-153.766,737.717a2.17,2.17,0,0,1-1.416,2.02,2.169,2.169,0,0,1-2.4-.662,2.162,2.162,0,0,1-.179-2.46,2.164,2.164,0,0,1,2.237-1.011,2.174,2.174,0,0,1,1.755,2.112.242.242,0,0,0,.485,0,2.669,2.669,0,0,0-1.712-2.464,2.648,2.648,0,0,0-2.949.789,2.659,2.659,0,0,0-.234,3.022,2.664,2.664,0,0,0,2.753,1.239,2.66,2.66,0,0,0,2.142-2.586A.242.242,0,0,0-153.766,737.717Z" transform="translate(158.541 -735.087)" fill="#124c64"/></g></g></g><path d="M-129.836,821.89H40.655c2.3,0,4.609.081,6.912,0,.1,0,.2,0,.3,0,.422,0,.422-1.615,0-1.615h-170.49c-2.3,0-4.609-.08-6.912,0-.1,0-.2,0-.3,0-.421,0-.422,1.615,0,1.615Z" transform="translate(24.244 94.398)" fill="#124c64"/><g transform="translate(-106.632 677.372)"><g transform="translate(93.071 14.768)"><path d="M-19.291,680.665s-29.532,24.151-52.931,24.6l4.106,26.72s34.522-4.621,50.326-24.637L-7.2,694.208Z" transform="translate(72.222 -680.665)" fill="#ea526f"/><g transform="translate(6.182 9.449)"><g transform="translate(3.464 24.241)"><path d="M-63.592,703.337l-2.471-1.127a.226.226,0,0,1-.08-.3.228.228,0,0,1,.306-.08l2.469,1.125a.224.224,0,0,1,.08.306.229.229,0,0,1-.3.08Z" transform="translate(66.171 -701.799)" fill="#fff"/></g><g transform="translate(0 17.709)"><path d="M-66.329,698.036a29.452,29.452,0,0,1-1.6,2.512.227.227,0,0,1-.3.08.224.224,0,0,1-.081-.3q.861-1.215,1.6-2.512a.223.223,0,0,1,.384.225Z" transform="translate(68.344 -697.702)" fill="#fff"/></g><g transform="translate(5.721 15.448)"><path d="M-61.984,698.619l-2.662-1.919a.23.23,0,0,1-.08-.3.226.226,0,0,1,.306-.08l2.661,1.918a.229.229,0,0,1,.08.3.224.224,0,0,1-.3.081Z" transform="translate(64.755 -696.283)" fill="#fff"/></g><g transform="translate(12.542 24.481)"><path d="M-59.165,702.222q-.433,1.241-.867,2.482c-.094.269-.524.155-.43-.118q.435-1.241.867-2.484c.094-.269.526-.153.43.12Z" transform="translate(60.476 -701.949)" fill="#fff"/></g><g transform="translate(5.798 30.373)"><path d="M-62.885,707.148l-1.712-1.086a.227.227,0,0,1-.08-.306.225.225,0,0,1,.3-.08l1.712,1.086a.229.229,0,0,1,.08.306.226.226,0,0,1-.3.08Z" transform="translate(64.707 -705.646)" fill="#fff"/></g><g transform="translate(17.837 28.283)"><path d="M-55.948,705.6l-1.1-.845a.242.242,0,0,1-.1-.134.227.227,0,0,1,.022-.171.228.228,0,0,1,.306-.081q.548.423,1.1.845a.253.253,0,0,1,.1.134.231.231,0,0,1-.022.172.226.226,0,0,1-.306.08Z" transform="translate(57.155 -704.335)" fill="#fff"/></g><g transform="translate(14.363 15.848)"><path d="M-57.448,696.869q-.736,1.363-1.473,2.723c-.135.253-.521.029-.384-.225l1.473-2.723c.135-.252.521-.027.384.225Z" transform="translate(59.334 -696.534)" fill="#fff"/></g><g transform="translate(20.959 21.126)"><path d="M-52.416,700.291h-2.565a.223.223,0,0,1,0-.446h2.565a.223.223,0,0,1,0,.446Z" transform="translate(55.196 -699.845)" fill="#fff"/></g><g transform="translate(22.608 10.632)"><path d="M-54.161,695.588l.183-2.1a.229.229,0,0,1,.223-.222.223.223,0,0,1,.223.222l-.183,2.1a.23.23,0,0,1-.223.223.225.225,0,0,1-.223-.223Z" transform="translate(54.161 -693.262)" fill="#fff"/></g><g transform="translate(28.821 15.9)"><path d="M-46.543,698.421l-3.571-1.408c-.265-.105-.15-.537.118-.43l3.572,1.408c.263.1.148.536-.12.43Z" transform="translate(50.264 -696.566)" fill="#fff"/></g><g transform="translate(31.048 23.546)"><path d="M-48.028,701.637a11.239,11.239,0,0,0-.4,1.784.225.225,0,0,1-.274.156.228.228,0,0,1-.156-.274,11.431,11.431,0,0,1,.4-1.785c.084-.273.516-.156.43.12Z" transform="translate(48.867 -701.363)" fill="#fff"/></g><g transform="translate(32.288 6.907)"><path d="M-48.089,693.319a16.838,16.838,0,0,1,.4-2.235.223.223,0,0,1,.43.118,15.9,15.9,0,0,0-.389,2.117.229.229,0,0,1-.223.223.226.226,0,0,1-.223-.223Z" transform="translate(48.09 -690.925)" fill="#fff"/></g><g transform="translate(38.601 15.914)"><path d="M-40.491,697.42a21.973,21.973,0,0,1-3.477-.41c-.282-.056-.163-.486.118-.43a21.254,21.254,0,0,0,3.359.4c.287.01.289.456,0,.445Z" transform="translate(44.129 -696.575)" fill="#fff"/></g><g transform="translate(39.297 8.619)"><path d="M-41.6,692.378l-1.714,1.549a.228.228,0,0,1-.316,0,.225.225,0,0,1,0-.316l1.714-1.549a.228.228,0,0,1,.316,0,.227.227,0,0,1,0,.316Z" transform="translate(43.693 -691.999)" fill="#fff"/></g><g transform="translate(41.627)"><path d="M-40.431,687.309l-1.637-.282a.226.226,0,0,1-.156-.274.23.23,0,0,1,.276-.156l1.637.282a.224.224,0,0,1,.155.274.227.227,0,0,1-.274.156Z" transform="translate(42.231 -686.592)" fill="#fff"/></g><g transform="translate(49.1 6.126)"><path d="M-36.869,690.658q-.112.856-.226,1.71a.23.23,0,0,1-.223.223.224.224,0,0,1-.223-.223q.115-.854.226-1.71a.23.23,0,0,1,.223-.223c.108,0,.239.1.223.223Z" transform="translate(37.543 -690.435)" fill="#fff"/></g></g></g><g transform="translate(0 87.947)"><g transform="translate(0 42.531)"><g transform="translate(26.692 11.133)"><path d="M-113.862,770.316l16.515,7.875,4.2-9.913-16.867-8.042Z" transform="translate(113.862 -760.235)" fill="#fff"/><g transform="translate(2.945 3.251)"><path d="M-109.1,762.473a2.036,2.036,0,0,0-2.715.961,2.038,2.038,0,0,0,.963,2.715,2.036,2.036,0,0,0,2.713-.961A2.035,2.035,0,0,0-109.1,762.473Z" transform="translate(112.015 -762.274)" fill="#ea526f"/><path d="M-105.591,762.616a1.9,1.9,0,0,0-2.528.9,1.9,1.9,0,0,0,.9,2.528,1.9,1.9,0,0,0,2.528-.9A1.9,1.9,0,0,0-105.591,762.616Z" transform="translate(114.22 -762.181)" fill="#ea526f"/><path d="M-104.361,765.991a1.836,1.836,0,0,0-2.449.867,1.838,1.838,0,0,0,.869,2.449,1.835,1.835,0,0,0,2.447-.867A1.836,1.836,0,0,0-104.361,765.991Z" transform="translate(115.002 -760.172)" fill="#ea526f"/><path d="M-107.151,769.534a2.129,2.129,0,0,1-.6.746l-3.5-1.667a2.147,2.147,0,0,1,.2-.936,2.156,2.156,0,0,1,2.874-1.017A2.157,2.157,0,0,1-107.151,769.534Z" transform="translate(112.472 -759.794)" fill="#ea526f"/><path d="M-105.335,771.231a2.216,2.216,0,0,1,.126-.352,2.237,2.237,0,0,1,2.981-1.057,2.219,2.219,0,0,1,.751.59l-.936,2.213Z" transform="translate(115.984 -757.919)" fill="#ea526f"/><path d="M-99.564,765.739a1.869,1.869,0,0,1,0,.472l-.424,1a1.9,1.9,0,0,1-2.278.505,1.9,1.9,0,0,1-.9-2.535,1.9,1.9,0,0,1,.735-.81Z" transform="translate(117.164 -761.027)" fill="#ea526f"/></g></g><path d="M-130.266,785.4l15.428-31.8,18.463,9.83-8.235,14.435-7.573-3.1Z" transform="translate(130.809 -753.04)" fill="#fff"/><g transform="translate(9.278 20.317)"><g transform="translate(0 2.151)"><line x1="3.411" y1="4.07" transform="translate(0.32 0.348)" fill="#263238"/><path d="M-121.291,772l-2.992-3.568-.419-.5c-.276-.328.2-.805.473-.474q1.494,1.784,2.991,3.568l.419.5c.276.327-.2.8-.472.472Z" transform="translate(124.786 -767.346)" fill="#124c64"/></g><g transform="translate(3.016)"><line x1="3.411" y1="4.07" transform="translate(0.32 0.348)" fill="#263238"/><path d="M-119.4,770.651q-1.5-1.784-2.991-3.569l-.421-.5c-.276-.328.2-.8.473-.474q1.494,1.784,2.991,3.568l.421.5c.274.328-.2.8-.473.474Z" transform="translate(122.894 -765.996)" fill="#124c64"/></g><g transform="translate(8.07 1.911)"><g transform="translate(0 0.29)"><path d="M-118.986,767.7a34.015,34.015,0,0,0-.037,3.445,21.306,21.306,0,0,0,.261,2.849,6.325,6.325,0,0,0,.744,2.329,1.173,1.173,0,0,0,1.433.56,1.151,1.151,0,0,0,.91-1.141,5.3,5.3,0,0,0-.5-2.181,18.491,18.491,0,0,0-1.264-2.471,32.49,32.49,0,0,0-2.168-3.22c-.263-.341.319-.674.577-.338a32.36,32.36,0,0,1,2.06,3.038,20.138,20.138,0,0,1,1.379,2.662,6.149,6.149,0,0,1,.591,2.45,1.849,1.849,0,0,1-.923,1.663,2.033,2.033,0,0,1-2.042,0,3.5,3.5,0,0,1-1.167-1.962,14.709,14.709,0,0,1-.485-2.944,32.663,32.663,0,0,1-.037-4.739C-119.627,767.272-118.957,767.268-118.986,767.7Z" transform="translate(119.724 -767.377)" fill="#124c64"/></g><g transform="translate(0.016)"><path d="M-112.556,773.707l-6.168-5.211-.878-.743c-.33-.279.145-.751.473-.473l6.166,5.211.878.743c.33.277-.145.749-.472.474Z" transform="translate(119.714 -767.195)" fill="#124c64"/></g></g></g><g transform="translate(12.258 0.016)"><path d="M-111.574,757.778a7.386,7.386,0,0,1-9.735,3.126,7.442,7.442,0,0,1-1.263-.781l3.163-6.517Z" transform="translate(123.122 -753.056)" fill="#124c64"/><path d="M-110.888,758.265a8.026,8.026,0,0,1-11.76,2.546.58.58,0,0,1-.2-.764q1.583-3.259,3.163-6.517a.565.565,0,0,1,.762-.2l7.835,4.172c.634.338.072,1.3-.563.963l-7.835-4.172.764-.2-3.161,6.517-.2-.763a6.942,6.942,0,0,0,5.777,1.274,6.938,6.938,0,0,0,4.457-3.419C-111.5,757.074-110.54,757.635-110.888,758.265Z" transform="translate(122.917 -753.261)" fill="#124c64"/></g><path d="M-130.545,785.334q6.769-13.953,13.54-27.908.942-1.944,1.887-3.89c.312-.646,1.275-.081.963.563q-6.769,13.955-13.54,27.908-.944,1.944-1.887,3.891c-.314.646-1.275.08-.963-.564Z" transform="translate(130.607 -753.251)" fill="#124c64"/><g transform="translate(25.639 9.843)"><path d="M-105.247,760.26q-3.608,6.327-7.218,12.651l-1.017,1.784a.558.558,0,0,1-.963-.563q3.608-6.325,7.218-12.651l1.017-1.784a.558.558,0,0,1,.963.563Z" transform="translate(114.523 -759.426)" fill="#124c64"/></g></g><path d="M-83.4,806.16s5.732-1.71,12.259-11.97,27.113-39,27.113-39L-76.95,726.571l-14.849,53.6-10.014,1.164-5.763,17.409S-89.39,810.042-83.4,806.16Z" transform="translate(144.289 -726.571)" fill="#31d9e7"/><g transform="translate(36.154 53.577)"><path d="M-96.412,760.533c-1.577,4.857-4.355,14.846-6.552,20.757-2.219-1.207-4.612-2.719-4.612-2.719l5.763-17.409Z" transform="translate(108.136 -759.971)" fill="#2ab9c4"/><path d="M-95.667,760.891c-2.23,6.9-4.035,13.948-6.552,20.757a.566.566,0,0,1-.819.333q-2.346-1.286-4.61-2.72a.57.57,0,0,1-.257-.63q2.518-7.611,5.037-15.221.361-1.1.724-2.189a.586.586,0,0,1,.539-.41l5.4-.628c.711-.081.7,1.035,0,1.116l-5.4.626.537-.41q-2.518,7.611-5.037,15.221-.361,1.1-.724,2.19l-.257-.63q2.262,1.427,4.61,2.719l-.818.333c2.516-6.808,4.32-13.854,6.55-20.757C-96.523,759.915-95.445,760.205-95.667,760.891Z" transform="translate(107.927 -760.18)" fill="#124c64"/></g><g transform="translate(36.153 2.254)"><path d="M-101.067,780.646q-2.881,8.7-5.761,17.409l-.257-.63A69.508,69.508,0,0,0-93.1,804.22c2.627.9,6.045,2.012,8.8,1.024a16.919,16.919,0,0,0,4.181-2.3c3.743-2.74,6.557-6.542,9.042-10.406,1.636-2.543,3.333-5.045,5.039-7.543,4.381-6.413,8.846-12.767,13.328-19.109q4.187-5.92,8.4-11.82l.086.676-9.429-8.683L-68.782,732.12l-3.47-3.195c-.528-.486.261-1.274.789-.787q4.715,4.34,9.431,8.683,7.566,6.965,15.133,13.934l3.469,3.195a.562.562,0,0,1,.088.676c-7.051,9.847-14.054,19.732-20.9,29.719-1.844,2.689-3.681,5.385-5.457,8.119-2.465,3.792-5.058,7.508-8.559,10.429a22.455,22.455,0,0,1-4.776,2.964c-2.5,1.215-5.243.869-7.9.182a62.051,62.051,0,0,1-16.706-7.649.568.568,0,0,1-.257-.63q2.881-8.706,5.761-17.409c.225-.679,1.3-.389,1.076.3Z" transform="translate(107.927 -727.985)" fill="#124c64"/></g><g transform="translate(64.961 6.68)"><g transform="translate(11.741 89.976)"><g transform="translate(3.953)"><path d="M-69.252,805.5l.131-18.3-10.757.4-.133,18.686Z" transform="translate(80.012 -787.204)" fill="#fff"/><g transform="translate(0.061)"><path d="M-78.587,797.869a2.037,2.037,0,0,0,2.021,2.052,2.037,2.037,0,0,0,2.052-2.021,2.037,2.037,0,0,0-2.023-2.052A2.036,2.036,0,0,0-78.587,797.869Z" transform="translate(80.796 -782.069)" fill="#ea526f"/><path d="M-79.973,794.508a1.9,1.9,0,0,0,1.883,1.91,1.9,1.9,0,0,0,1.91-1.883,1.9,1.9,0,0,0-1.883-1.91A1.9,1.9,0,0,0-79.973,794.508Z" transform="translate(79.973 -783.983)" fill="#ea526f"/><path d="M-77.45,791.911a1.837,1.837,0,0,0,1.824,1.851,1.837,1.837,0,0,0,1.849-1.824,1.837,1.837,0,0,0-1.824-1.851A1.837,1.837,0,0,0-77.45,791.911Z" transform="translate(81.472 -785.491)" fill="#ea526f"/><path d="M-73,793.211a2.143,2.143,0,0,1,.929.226l-.027,3.874a2.13,2.13,0,0,1-.933.212,2.155,2.155,0,0,1-2.141-2.171A2.156,2.156,0,0,1-73,793.211Z" transform="translate(82.827 -783.635)" fill="#ea526f"/><path d="M-72.227,790.44a2.056,2.056,0,0,1-.373.035,2.236,2.236,0,0,1-2.221-2.251,2.241,2.241,0,0,1,.215-.931l2.4-.089Z" transform="translate(83.034 -787.204)" fill="#ea526f"/><path d="M-79.921,787.662a1.947,1.947,0,0,1,.427-.2l1.087-.04a1.9,1.9,0,0,1,1.424,1.849,1.9,1.9,0,0,1-1.916,1.887,1.88,1.88,0,0,1-1.044-.322Z" transform="translate(79.991 -787.075)" fill="#ea526f"/></g></g><g transform="translate(0 15.902)"><path d="M-81.3,797.522l16.847,2.8.256,14.714-1.135-2.266,1.923,3.841,8.708,16.57-27.436-15.364Z" transform="translate(82.699 -796.976)" fill="#fff"/><g transform="translate(17.594 13.917)"><g transform="translate(0 7.699)"><g transform="translate(1.8 2.818)"><line x1="3.826" y2="2.887" transform="translate(0.335 0.338)" fill="#263238"/><path d="M-66,813.133q-1.674,1.265-3.349,2.527l-.477.36a.334.334,0,0,1-.458-.12.341.341,0,0,1,.12-.458q1.674-1.265,3.349-2.527l.477-.36a.338.338,0,0,1,.458.119.342.342,0,0,1-.12.458Z" transform="translate(70.325 -812.507)" fill="#124c64"/></g><line x1="3.826" y2="2.887" transform="translate(0.335 0.338)" fill="#263238"/><path d="M-67.124,811.367l-3.349,2.527-.477.359a.337.337,0,0,1-.459-.12.344.344,0,0,1,.121-.458l3.348-2.527.478-.36a.338.338,0,0,1,.458.12.345.345,0,0,1-.12.459Z" transform="translate(71.454 -810.739)" fill="#124c64"/></g><g transform="translate(1.939)"><g transform="translate(0.275 2.83)"><path d="M-69.746,810.915a30.882,30.882,0,0,0,3.12.193A20.336,20.336,0,0,0-64.038,811a5.519,5.519,0,0,0,2.114-.563,1.03,1.03,0,0,0,.545-1.244,1.009,1.009,0,0,0-.963-.832,4.806,4.806,0,0,0-2.013.37,16.719,16.719,0,0,0-2.235,1.006,29.08,29.08,0,0,0-2.987,1.8c-.355.245-.69-.335-.338-.579a29.085,29.085,0,0,1,2.817-1.706,18.636,18.636,0,0,1,2.46-1.127,5.691,5.691,0,0,1,2.243-.435,1.718,1.718,0,0,1,1.492.859,1.887,1.887,0,0,1-.03,1.9,3.056,3.056,0,0,1-1.813,1,13.108,13.108,0,0,1-2.729.316,29.394,29.394,0,0,1-4.271-.186C-70.168,811.533-70.175,810.864-69.746,810.915Z" transform="translate(70.065 -807.685)" fill="#124c64"/></g><path d="M-63.979,806.487q-2.5,2.666-5,5.332l-.7.743c-.295.314-.767-.16-.473-.474q2.5-2.666,5-5.332l.7-.743c.295-.316.767.16.473.474Z" transform="translate(70.238 -805.91)" fill="#124c64"/></g></g><g transform="translate(0 11.434)"><path d="M-81.685,804.7a7.582,7.582,0,0,1,6.958,7.491,18.2,18.2,0,0,1-.942,4.98l-6.472-3.608Z" transform="translate(82.699 -804.144)" fill="#124c64"/><path d="M-81.477,804.354a7.955,7.955,0,0,1,6.786,4.867,8.674,8.674,0,0,1,.662,4.5,35.747,35.747,0,0,1-.894,3.811.563.563,0,0,1-.819.333q-3.235-1.8-6.472-3.608a.549.549,0,0,1-.276-.481l.456-8.863c.037-.714,1.153-.719,1.116,0l-.458,8.863-.276-.481,6.474,3.608-.819.333c.255-1.074.622-2.112.805-3.207a7.787,7.787,0,0,0-.392-4.057,6.848,6.848,0,0,0-5.892-4.5C-82.19,805.42-82.194,804.3-81.477,804.354Z" transform="translate(82.491 -804.352)" fill="#124c64"/></g><g transform="translate(0.003)"><g transform="translate(0.84)"><path d="M-81.263,797.188l14.722,2.445,2.125.354c.708.116.408,1.191-.3,1.074l-14.72-2.445-2.127-.354c-.706-.116-.406-1.192.3-1.074Z" transform="translate(81.963 -797.179)" fill="#124c64"/></g><g transform="translate(0 20.282)"><path d="M-54.78,826.305l-23.988-13.434-3.448-1.93a.558.558,0,0,1,.563-.963l23.988,13.434,3.448,1.93a.558.558,0,0,1-.563.963Z" transform="translate(82.49 -809.903)" fill="#124c64"/></g></g></g></g><path d="M-56.885,824.476l-20.757.181L-89.5,731.094l39.487,1.343Z" transform="translate(90.066 -730.564)" fill="#95f7ff"/><g transform="translate(7.89 5.693)"><path d="M-70.94,735.03c-.875,4.044-3.658,8.122-7.586,9.646a11.459,11.459,0,0,1-5.976.474c-.708-.113-.408-1.188.3-1.076a9.618,9.618,0,0,0,8.457-2.5,14.176,14.176,0,0,0,3.348-5.519,11.545,11.545,0,0,0,.386-1.318c.153-.7,1.227-.4,1.076.3Z" transform="translate(84.907 -734.333)" fill="#124c64"/></g><g transform="translate(15.662 13.814)"><path d="M-74.139,814.556q-1-12.64-2-25.28-1.583-20.026-3.163-40.053l-.732-9.26c-.056-.716,1.058-.713,1.116,0q1,12.64,2,25.281,1.581,20.026,3.163,40.052.366,4.632.73,9.26c.057.716-1.058.712-1.114,0Z" transform="translate(80.031 -739.427)" fill="#124c64"/></g><g transform="translate(11.21 88.386)"><path d="M-60.692,786.556l-.371,4.969-20.757.181-.653-5.15Z" transform="translate(83.033 -785.999)" fill="#31d9e7"/><path d="M-59.925,786.763q-.187,2.484-.371,4.97a.569.569,0,0,1-.558.556l-18.178.159-2.579.022a.575.575,0,0,1-.558-.558q-.325-2.575-.652-5.15a.56.56,0,0,1,.558-.557h21.78a.558.558,0,0,1,0,1.114h-21.78l.558-.558q.325,2.575.652,5.15l-.558-.558,18.179-.158,2.578-.022-.556.558q.184-2.487.37-4.97C-60.988,786.052-59.872,786.048-59.925,786.763Z" transform="translate(82.824 -786.207)" fill="#124c64"/></g><path d="M-56.676,825.231l-18.154.159-2.6.022a.575.575,0,0,1-.558-.558q-.588-4.653-1.18-9.309Q-80.588,804.366-82,793.189q-1.714-13.522-3.427-27.042-1.483-11.686-2.963-23.368-.483-3.823-.969-7.647a30.162,30.162,0,0,1-.465-3.676,1.492,1.492,0,0,0-.021-.164c-.091-.711,1.027-.7,1.116,0q.588,4.656,1.18,9.31,1.418,11.179,2.834,22.357L-81.294,790q1.483,11.683,2.963,23.366.483,3.823.969,7.647l.3,2.409a5.145,5.145,0,0,1,.161,1.267.651.651,0,0,0,.021.164l-.558-.558,18.155-.158,2.6-.022a.557.557,0,0,1,0,1.114Z" transform="translate(89.856 -730.761)" fill="#124c64"/></g></g><g transform="translate(62.966 36.742)"><path d="M-46.936,754.728c.064-1.283.116-2.573.143-3.88.467-22.648-5.9-44.657-13.48-53.033-2.441-2.694-4.848-3.477-7.357-2.822-11.8,3.083-22.5,25.016-23.121,54.947-.025,1.307-.027,2.6-.018,3.883Z" transform="translate(91.306 -694.256)" fill="#ea526f"/><path d="M-67.579,694.65c4.014-.958,7.052,1.672,9.314,4.7a42.712,42.712,0,0,1,5.037,9.294,99.354,99.354,0,0,1,6.563,27.65,122.179,122.179,0,0,1,.485,18.629.567.567,0,0,1-.558.558l-14.789-.3q-11.8-.244-23.6-.486l-5.447-.113a.557.557,0,0,1,0-1.114l14.79.3,23.6.486,5.445.112-.556.558a119.638,119.638,0,0,0-2.281-30.181c-1.605-7.707-3.9-15.621-8.022-22.4-2.056-3.384-5.176-7.7-9.686-6.619-.7.166-.995-.909-.3-1.076Z" transform="translate(91.108 -694.449)" fill="#124c64"/><g transform="translate(5.285 9.387)"><g transform="translate(29 7.468)"><path d="M-67.864,708.469l-1.707-3.112c-.137-.252.247-.477.386-.225l1.707,3.112c.137.252-.247.477-.386.225Z" transform="translate(69.6 -705.023)" fill="#fff"/></g><g transform="translate(23.727 9.636)"><path d="M-71.229,706.718l-1.263,1.852a.227.227,0,0,1-.3.081.226.226,0,0,1-.08-.306l1.261-1.854a.228.228,0,0,1,.3-.08.227.227,0,0,1,.081.306Z" transform="translate(72.908 -706.382)" fill="#fff"/></g><g transform="translate(23.902 0.77)"><path d="M-71.373,704.419q-.7-1.631-1.4-3.263a.233.233,0,0,1,.08-.306.224.224,0,0,1,.3.08l1.4,3.265a.229.229,0,0,1-.081.3.222.222,0,0,1-.3-.08Z" transform="translate(72.798 -700.821)" fill="#fff"/></g><g transform="translate(17.832 7.607)"><path d="M-74.518,705.557l-1.865.156a.225.225,0,0,1-.223-.223.227.227,0,0,1,.223-.223l1.865-.156a.226.226,0,0,1,.223.223.227.227,0,0,1-.223.223Z" transform="translate(76.606 -705.11)" fill="#fff"/></g><g transform="translate(18.287)"><path d="M-75.365,702.23l-.923-1.559a.224.224,0,0,1,.386-.226q.461.782.923,1.561a.223.223,0,0,1-.386.225Z" transform="translate(76.321 -700.338)" fill="#fff"/></g><g transform="translate(16.323 12.892)"><path d="M-76.259,708.7a9.88,9.88,0,0,1-.882,2.415c-.132.255-.516.029-.384-.226a9.512,9.512,0,0,0,.835-2.307c.062-.281.493-.162.43.118Z" transform="translate(77.552 -708.425)" fill="#fff"/></g><g transform="translate(34.141 40.731)"><path d="M-64.924,728.075l-1.417-1.851a.222.222,0,0,1,.08-.3.228.228,0,0,1,.3.08l1.419,1.851a.224.224,0,0,1-.08.3.229.229,0,0,1-.306-.08Z" transform="translate(66.375 -725.889)" fill="#fff"/></g><g transform="translate(32.44 35.291)"><path d="M-65.491,722.857l-1.572,1.851a.224.224,0,0,1-.316,0,.228.228,0,0,1,0-.316l1.572-1.851a.224.224,0,0,1,.316,0,.228.228,0,0,1,0,.316Z" transform="translate(67.442 -722.476)" fill="#fff"/></g><g transform="translate(20.622 46.186)"><path d="M-72.9,729.691l-1.572,1.851a.224.224,0,0,1-.316,0,.228.228,0,0,1,0-.316l1.572-1.851a.225.225,0,0,1,.316,0,.228.228,0,0,1,0,.316Z" transform="translate(74.856 -729.31)" fill="#fff"/></g><g transform="translate(27.599 41.183)"><path d="M-68.958,726.508l-1.1,1.7a.228.228,0,0,1-.3.08.227.227,0,0,1-.081-.306l1.1-1.7a.23.23,0,0,1,.306-.08.227.227,0,0,1,.08.306Z" transform="translate(70.479 -726.173)" fill="#fff"/></g><g transform="translate(3.393 46.262)"><path d="M-84.143,729.693l-1.1,1.7a.227.227,0,0,1-.3.081.225.225,0,0,1-.08-.306l1.1-1.7a.227.227,0,0,1,.3-.08.224.224,0,0,1,.08.3Z" transform="translate(85.664 -729.358)" fill="#fff"/></g><g transform="translate(11.904 46.11)"><path d="M-79.89,729.425l.311,2a.231.231,0,0,1-.156.274.224.224,0,0,1-.274-.156q-.155-1-.311-2a.228.228,0,0,1,.156-.274.224.224,0,0,1,.274.155Z" transform="translate(80.324 -729.263)" fill="#fff"/></g><g transform="translate(16.414 41.57)"><path d="M-77.049,726.638l.124,2.023a.224.224,0,0,1-.223.223.228.228,0,0,1-.223-.223l-.124-2.023a.226.226,0,0,1,.223-.223.227.227,0,0,1,.223.223Z" transform="translate(77.495 -726.415)" fill="#fff"/></g><g transform="translate(31.044 46.195)"><path d="M-67.907,729.426l.866,1.833a.23.23,0,0,1-.081.306.225.225,0,0,1-.3-.081q-.433-.916-.864-1.833a.229.229,0,0,1,.08-.3.223.223,0,0,1,.3.08Z" transform="translate(68.318 -729.317)" fill="#fff"/></g><g transform="translate(22.804 36.839)"><path d="M-73.167,727.4a19.544,19.544,0,0,0-.316-3.671c-.051-.281.379-.4.43-.118a20.129,20.129,0,0,1,.332,3.789.223.223,0,0,1-.446,0Z" transform="translate(73.487 -723.448)" fill="#fff"/></g><g transform="translate(7.752 38.99)"><path d="M-80.758,728.424a16.138,16.138,0,0,0-2.115-3.238c-.185-.217.129-.534.314-.316a16.579,16.579,0,0,1,2.187,3.328c.126.257-.258.483-.386.225Z" transform="translate(82.929 -724.797)" fill="#fff"/></g><g transform="translate(0 41.832)"><path d="M-87.325,726.8q-.01,1.057-.021,2.114a.223.223,0,0,1-.446,0q.012-1.057.021-2.114a.223.223,0,0,1,.446,0Z" transform="translate(87.792 -726.58)" fill="#fff"/></g></g></g><g transform="translate(102.77 0.555)"><path d="M-65.789,717.344a45.245,45.245,0,0,0,45.246,45.244A45.244,45.244,0,0,0,24.7,717.344,45.245,45.245,0,0,0-20.543,672.1,45.247,45.247,0,0,0-65.789,717.344Zm50.495,9.895a4.859,4.859,0,0,1,4.859-4.859,4.86,4.86,0,0,1,4.859,4.859,4.86,4.86,0,0,1-4.859,4.86A4.859,4.859,0,0,1-15.294,727.238Zm-.314-18.86a4.86,4.86,0,0,1,4.86-4.859,4.86,4.86,0,0,1,4.859,4.859,4.86,4.86,0,0,1-4.859,4.859A4.86,4.86,0,0,1-15.608,708.378Zm-9.018,0a4.86,4.86,0,0,1-4.86,4.859,4.86,4.86,0,0,1-4.859-4.859,4.86,4.86,0,0,1,4.859-4.859A4.86,4.86,0,0,1-24.626,708.378ZM-34.9,727.238a4.86,4.86,0,0,1,4.859-4.859,4.86,4.86,0,0,1,4.86,4.859,4.86,4.86,0,0,1-4.86,4.86A4.86,4.86,0,0,1-34.9,727.238Z" transform="translate(66.345 -671.542)" fill="#ffcd91"/><g transform="translate(50.181 31.424)"><path d="M-33.545,696.874a4.349,4.349,0,0,0,2.828,4.044,4.355,4.355,0,0,0,4.814-1.329,4.341,4.341,0,0,0,.352-4.923,4.334,4.334,0,0,0-4.475-2.024,4.355,4.355,0,0,0-3.52,4.232.557.557,0,0,1-1.114,0,5.489,5.489,0,0,1,3.526-5.074,5.442,5.442,0,0,1,6.058,1.62,5.472,5.472,0,0,1,.488,6.225,5.482,5.482,0,0,1-5.67,2.549,5.472,5.472,0,0,1-4.4-5.319A.557.557,0,0,1-33.545,696.874Z" transform="translate(34.659 -691.462)" fill="#124c64"/></g><g transform="translate(31.442 31.424)"><path d="M-45.3,696.874a4.347,4.347,0,0,0,2.828,4.044,4.356,4.356,0,0,0,4.814-1.329,4.341,4.341,0,0,0,.352-4.923,4.335,4.335,0,0,0-4.476-2.024,4.355,4.355,0,0,0-3.518,4.232.558.558,0,0,1-1.116,0,5.493,5.493,0,0,1,3.528-5.074,5.442,5.442,0,0,1,6.058,1.62,5.472,5.472,0,0,1,.488,6.225,5.482,5.482,0,0,1-5.67,2.549,5.473,5.473,0,0,1-4.4-5.319A.558.558,0,0,1-45.3,696.874Z" transform="translate(46.414 -691.462)" fill="#124c64"/></g><g transform="translate(30.884 50.284)"><path d="M-45.648,708.705a4.347,4.347,0,0,0,2.828,4.044,4.352,4.352,0,0,0,4.814-1.329,4.338,4.338,0,0,0,.352-4.921,4.336,4.336,0,0,0-4.476-2.026,4.357,4.357,0,0,0-3.518,4.232.558.558,0,0,1-1.116,0,5.493,5.493,0,0,1,3.528-5.074,5.44,5.44,0,0,1,6.058,1.621,5.47,5.47,0,0,1,.488,6.224,5.48,5.48,0,0,1-5.67,2.549,5.471,5.471,0,0,1-4.4-5.32A.558.558,0,0,1-45.648,708.705Z" transform="translate(46.764 -703.293)" fill="#124c64"/></g><g transform="translate(50.493 50.284)"><path d="M-33.349,708.705a4.349,4.349,0,0,0,2.83,4.044,4.35,4.35,0,0,0,4.813-1.329,4.335,4.335,0,0,0,.352-4.921,4.335,4.335,0,0,0-4.475-2.026,4.357,4.357,0,0,0-3.52,4.232.557.557,0,0,1-1.114,0,5.489,5.489,0,0,1,3.526-5.074,5.443,5.443,0,0,1,6.059,1.621,5.47,5.47,0,0,1,.486,6.224,5.48,5.48,0,0,1-5.67,2.549,5.471,5.471,0,0,1-4.4-5.32A.557.557,0,0,1-33.349,708.705Z" transform="translate(34.463 -703.293)" fill="#124c64"/></g><g transform="translate(14.533 14.563)"><path d="M-55.905,712.123a30.449,30.449,0,0,0,19.864,28.353A30.452,30.452,0,0,0-2.566,731.4,30.413,30.413,0,0,0,.058,696.528a30.428,30.428,0,0,0-31.777-13.969,30.455,30.455,0,0,0-23.814,24.792,30.854,30.854,0,0,0-.371,4.773.558.558,0,0,1-1.116,0,31.6,31.6,0,0,1,20.4-29.327,31.535,31.535,0,0,1,35.024,9.482,31.548,31.548,0,0,1,2.613,36,31.579,31.579,0,0,1-32.888,14.511,31.527,31.527,0,0,1-24.788-25.9,32.924,32.924,0,0,1-.365-4.768A.558.558,0,0,1-55.905,712.123Z" transform="translate(57.021 -680.885)" fill="#124c64"/></g><g transform="translate(8.696 8.731)"><path d="M-59.567,714.3A36.345,36.345,0,0,0-35.855,748.14,36.348,36.348,0,0,0,4.137,737.263,36.3,36.3,0,0,0,7.2,695.627a36.33,36.33,0,0,0-37.992-16.6,36.341,36.341,0,0,0-28.324,29.548,36.937,36.937,0,0,0-.448,5.72.558.558,0,0,1-1.116,0,37.493,37.493,0,0,1,24.391-34.868A37.431,37.431,0,0,1,5.02,690.655,37.443,37.443,0,0,1,8.16,733.53a37.476,37.476,0,0,1-39.1,17.14,37.413,37.413,0,0,1-29.3-30.66,38.941,38.941,0,0,1-.442-5.713A.558.558,0,0,1-59.567,714.3Z" transform="translate(60.683 -677.226)" fill="#124c64"/></g><g transform="translate(45.263)"><path d="M-.169,692.536a45.08,45.08,0,0,0-27.106-18.565,45.434,45.434,0,0,0-9.93-1.108.557.557,0,0,1,0-1.114A46.14,46.14,0,0,1-5.5,684.5a46.871,46.871,0,0,1,6.289,7.47c.4.6-.561,1.154-.963.564Z" transform="translate(37.744 -671.749)" fill="#124c64"/></g><g transform="translate(0 45.263)"><path d="M-65.024,700.682a45.122,45.122,0,0,0,29.3,41.968,45.248,45.248,0,0,0,15.391,2.719.558.558,0,0,1,0,1.114,46.032,46.032,0,0,1-26.481-8.428,46.22,46.22,0,0,1-16.459-21.407,46.1,46.1,0,0,1-2.861-15.967.557.557,0,0,1,1.114,0Z" transform="translate(66.138 -700.143)" fill="#124c64"/></g></g><g transform="translate(54.508 36.827)"><g transform="translate(49.488 14.357)"><path d="M-59.276,724.073s21.611-7.725,24.433-11.541c2.367-3.2-7.535,1.846-7.535,1.846s7.392-2.914,7.134-4.6-8.227,2.482-8.227,2.482,8.3-3.87,7.677-5.158-8.806,3.14-8.806,3.14,8.485-3.845,7.786-5.369-9.019,3.038-9.019,3.038,4.829-3.451,3.829-4.334-10.456,6.59-19.783,9.644S-59.276,724.073-59.276,724.073Z" transform="translate(65.369 -703.509)" fill="#e7ba8c"/><g transform="translate(20.899 2.88)"><g transform="translate(2.102 4.418)"><path d="M-44.525,708.919q-2.8,1.588-5.747,2.893a.461.461,0,0,1-.611-.159.449.449,0,0,1,.159-.611q2.944-1.305,5.748-2.893a.446.446,0,0,1,.45.77Z" transform="translate(50.94 -708.087)" fill="#cca47f"/></g><g transform="translate(1.191 2.228)"><path d="M-45.033,707.532a55.678,55.678,0,0,0-5.822,3.246c-.485.309-.933-.462-.45-.77a55.8,55.8,0,0,1,5.82-3.246c.515-.249.969.52.451.77Z" transform="translate(51.512 -706.713)" fill="#cca47f"/></g><path d="M-45.694,706.15q-2.905,1.664-5.889,3.193c-.51.261-.963-.509-.451-.77q2.982-1.528,5.89-3.195a.447.447,0,0,1,.45.772Z" transform="translate(52.259 -705.316)" fill="#cca47f"/></g></g><path d="M-67.113,694.848S-88.142,705.8-95.161,726.01c-6.724,19.36,24.839,26.357,61.45,3.536l-9.211-13.607-31.783,3.494" transform="translate(96.617 -694.298)" fill="#ea526f"/><path d="M-66.628,695.535a60.061,60.061,0,0,0-10.443,7.21c-6.907,5.748-12.936,12.85-16.426,21.2-1.231,2.946-2.265,6.137-1.612,9.357a10.479,10.479,0,0,0,4.2,6.328c5.834,4.275,14.156,4.295,21.012,3.474,12.887-1.542,25.177-7.049,36.11-13.837l-.2.762q-4.605-6.8-9.211-13.607l.481.276-27.847,3.064-3.936.432c-.713.078-.706-1.038,0-1.116l27.847-3.062,3.936-.432a.554.554,0,0,1,.481.276l9.211,13.607a.566.566,0,0,1-.2.764c-10.327,6.41-21.769,11.592-33.83,13.585-7.421,1.226-16.115,1.565-22.9-2.249a12.664,12.664,0,0,1-5.549-5.83,12.709,12.709,0,0,1-.41-8.3,41.8,41.8,0,0,1,6.362-12.909,62.34,62.34,0,0,1,8.87-10.1,64.035,64.035,0,0,1,13.491-9.858c.636-.333,1.2.63.563.963Z" transform="translate(96.413 -694.503)" fill="#124c64"/><g transform="translate(24.788 15.106)"><path d="M-75.938,704.813q-1.707,3.988-3.418,7.977c-.159.375-.32.749-.48,1.124a.562.562,0,0,1-.764.2.57.57,0,0,1-.2-.762q1.707-3.991,3.416-7.978c.161-.375.32-.749.481-1.122a.561.561,0,0,1,.764-.2.573.573,0,0,1,.2.764Z" transform="translate(80.864 -703.979)" fill="#124c64"/></g><g transform="translate(5.982 6.812)"><g transform="translate(47.526 25.167)"><path d="M-60.909,714.9l-1.521,2.2a.229.229,0,0,1-.306.081.227.227,0,0,1-.08-.306l1.521-2.2a.229.229,0,0,1,.3-.08.226.226,0,0,1,.081.306Z" transform="translate(62.847 -714.563)" fill="#fff"/></g><g transform="translate(42.697 18.955)"><path d="M-65.849,712.959q.536-1.09,1.073-2.184a.226.226,0,0,1,.306-.08.227.227,0,0,1,.08.3q-.538,1.093-1.073,2.186a.228.228,0,0,1-.306.08.23.23,0,0,1-.08-.306Z" transform="translate(65.876 -710.667)" fill="#fff"/></g><g transform="translate(40.167 27.975)"><path d="M-65.159,716.652l-1.881,2.788c-.159.238-.545.014-.384-.225l1.879-2.788c.159-.237.547-.014.386.225Z" transform="translate(67.463 -716.325)" fill="#fff"/></g><g transform="translate(31.633 19.761)"><path d="M-70.407,713.716l-2.34-2.166c-.21-.2.105-.512.316-.316l2.34,2.168c.21.194-.105.51-.316.314Z" transform="translate(72.817 -711.172)" fill="#fff"/></g><g transform="translate(31.223 28.3)"><path d="M-70.847,716.91l-1.848,2.345a.225.225,0,0,1-.316,0,.228.228,0,0,1,0-.316l1.848-2.345a.224.224,0,0,1,.316,0,.228.228,0,0,1,0,.316Z" transform="translate(73.074 -716.529)" fill="#fff"/></g><g transform="translate(25.466 34.945)"><path d="M-74.491,723.455q-1.066-1.186-2.135-2.37c-.191-.214.124-.529.316-.316q1.066,1.186,2.135,2.37c.191.214-.124.529-.316.316Z" transform="translate(76.685 -720.697)" fill="#fff"/></g><g transform="translate(34.617 33.73)"><path d="M-70.355,720.158a6.538,6.538,0,0,1-.153,2.082c-.065.279-.5.161-.43-.12a6.11,6.11,0,0,0,.137-1.962.224.224,0,0,1,.223-.223.228.228,0,0,1,.223.223Z" transform="translate(70.945 -719.935)" fill="#fff"/></g><g transform="translate(23.872 21.614)"><path d="M-75.126,715.2a26.924,26.924,0,0,0-2.487-2.487c-.215-.19.1-.5.316-.316a27.119,27.119,0,0,1,2.487,2.487c.19.215-.126.532-.316.316Z" transform="translate(77.685 -712.335)" fill="#fff"/></g><g transform="translate(19.076 29.34)"><path d="M-77.482,717.624l-2.94.974c-.273.089-.391-.341-.118-.43l2.94-.974c.273-.091.391.339.118.43Z" transform="translate(80.694 -717.181)" fill="#fff"/></g><g transform="translate(15.32 21.746)"><path d="M-81.54,712.7q-.536,1.327-1.068,2.651a.229.229,0,0,1-.274.156.224.224,0,0,1-.156-.274l1.068-2.651a.229.229,0,0,1,.274-.156.226.226,0,0,1,.156.274Z" transform="translate(83.05 -712.418)" fill="#fff"/></g><g transform="translate(15.636 36.842)"><path d="M-80.907,724.589a20.045,20.045,0,0,1-1.913-2.365.226.226,0,0,1,.081-.306.227.227,0,0,1,.3.081,19.554,19.554,0,0,0,1.843,2.276c.2.209-.118.524-.316.314Z" transform="translate(82.852 -721.887)" fill="#fff"/></g><g transform="translate(8.615 31.733)"><path d="M-84.337,719.061l-2.539,2.114a.226.226,0,0,1-.314,0,.224.224,0,0,1,0-.316l2.538-2.114a.23.23,0,0,1,.316,0,.224.224,0,0,1,0,.316Z" transform="translate(87.256 -718.683)" fill="#fff"/></g><g transform="translate(7.245 20.521)"><path d="M-86.222,715.4a21.463,21.463,0,0,0-1.856-3.424c-.159-.241.226-.464.384-.226a21.552,21.552,0,0,1,1.857,3.426c.112.26-.273.488-.386.225Z" transform="translate(88.116 -711.649)" fill="#fff"/></g><g transform="translate(0 29.815)"><path d="M-90.487,717.817q-.88,1.66-1.76,3.321c-.135.253-.52.029-.386-.226q.88-1.659,1.76-3.321c.134-.253.52-.029.386.226Z" transform="translate(92.66 -717.479)" fill="#fff"/></g><g transform="translate(3.989 36.221)"><path d="M-89.237,724.025a10.814,10.814,0,0,1-.912-2.251.223.223,0,0,1,.43-.118,10.208,10.208,0,0,0,.867,2.144c.137.252-.249.478-.386.225Z" transform="translate(90.158 -721.498)" fill="#fff"/></g><g transform="translate(0.271 20.355)"><path d="M-91.556,713.911q-.454-1.016-.909-2.031a.231.231,0,0,1,.08-.306.224.224,0,0,1,.3.08q.457,1.016.91,2.032a.229.229,0,0,1-.08.3.226.226,0,0,1-.306-.08Z" transform="translate(92.49 -711.545)" fill="#fff"/></g><g transform="translate(15.216 10.233)"><path d="M-81.274,708.515q-.9-1.495-1.808-2.987a.223.223,0,0,1,.384-.226q.906,1.495,1.809,2.989c.15.245-.236.47-.386.225Z" transform="translate(83.115 -705.195)" fill="#fff"/></g><g transform="translate(7.706 12.185)"><path d="M-84.813,706.83a11.531,11.531,0,0,1-2.732.839.229.229,0,0,1-.274-.156.225.225,0,0,1,.156-.274,11.131,11.131,0,0,0,2.625-.792.229.229,0,0,1,.3.08.222.222,0,0,1-.08.3Z" transform="translate(87.827 -706.42)" fill="#fff"/></g><g transform="translate(12.885 4.188)"><path d="M-84.432,703.182q-.072-.777-.145-1.556a.226.226,0,0,1,.223-.223.228.228,0,0,1,.223.223q.074.779.145,1.556a.225.225,0,0,1-.223.223.228.228,0,0,1-.223-.223Z" transform="translate(84.577 -701.403)" fill="#fff"/></g><g transform="translate(17.824 5.43)"><path d="M-78.815,702.6q-1.169.775-2.337,1.548c-.241.158-.464-.228-.226-.386l2.337-1.546c.241-.159.464.226.226.384Z" transform="translate(81.48 -702.182)" fill="#fff"/></g><g transform="translate(18.131)"><path d="M-80.851,700.617q-.213-.782-.427-1.564a.223.223,0,0,1,.43-.12c.142.521.285,1.044.427,1.565a.223.223,0,0,1-.43.118Z" transform="translate(81.286 -698.776)" fill="#fff"/></g></g></g><g transform="translate(154.9)"><path d="M-23.09,675.46a1.032,1.032,0,0,0,.98.877c.872.046,1.71-.249,1.473-1.46s-3.081-2.27-3.646-1.728a2.6,2.6,0,0,0-1.97-.864c-1.065.145-1.081.722-1.081.722a2,2,0,0,0-1.682-1.108c-1.186-.026-1.125.784-1.125.784a2.1,2.1,0,0,0-2.163-1.258c-1.53.23-1.337,2.869-.44,3.73s2.229.108,2.543-1.006a1.517,1.517,0,0,0,1.164,1.817c1.478.363,1.937-.677,2.021-1.526,0,0,.764,1.937,1.927,2.192S-22.859,676.456-23.09,675.46Z" transform="translate(33.437 -671.401)" fill="#e7ba8c"/><g transform="translate(2.418 0.499)"><g transform="translate(6.297 1.189)"><path d="M-27.258,675.516c.432-.247.368-.813.226-1.213a3.342,3.342,0,0,0-.837-1.274c-.309-.3.164-.775.472-.473a3.963,3.963,0,0,1,1.062,1.726,1.549,1.549,0,0,1-.585,1.812.335.335,0,0,1-.338-.579Z" transform="translate(27.969 -672.459)" fill="#cca47f"/></g><g transform="translate(2.575 0.74)"><path d="M-30.138,675.052a1.756,1.756,0,0,0,.5-2.374.341.341,0,0,1,.12-.458.338.338,0,0,1,.458.12,2.86,2.86,0,0,1,.276,1.94,2.11,2.11,0,0,1-1.014,1.35c-.378.206-.716-.373-.336-.579Z" transform="translate(30.304 -672.178)" fill="#cca47f"/></g><path d="M-31.19,671.877a3.266,3.266,0,0,1-.107,2.959.334.334,0,0,1-.577-.336,2.563,2.563,0,0,0,.107-2.284.342.342,0,0,1,.12-.458.336.336,0,0,1,.458.12Z" transform="translate(31.919 -671.714)" fill="#cca47f"/></g></g><g transform="translate(69.664 3.754)"><g transform="translate(0 15.253)"><circle cx="7.54" cy="7.54" r="7.54" transform="translate(0 1.263)" fill="#124c64"/><circle cx="6.811" cy="6.811" r="6.811" transform="translate(19.603 9.632) rotate(-45)" fill="#124c64"/></g><path d="M-78.016,686.458a4.165,4.165,0,0,1,2.423.776V684.74c0-3.955,2.842-7.191,6.316-7.191h5.224c3.475,0,6.317,3.236,6.317,7.191v8.1c0,3.955-2.842,7.191-6.317,7.191h-3.021v4.363a3.263,3.263,0,0,1-3.252,3.254H-72.4a3.263,3.263,0,0,1-3.252-3.254V694.257c0-.1.008-.2.018-.292a4.16,4.16,0,0,1-2.382.746,4.143,4.143,0,0,1-4.159-4.127A4.143,4.143,0,0,1-78.016,686.458Z" transform="translate(89.716 -671.503)" fill="#e7ba8c"/><g transform="translate(10.921 16.779)"><path d="M-77.359,687.129a2.505,2.505,0,0,0,0-.268c0-.041,0-.083-.01-.124l-.006-.069c-.011-.105.011.069,0-.014a3.465,3.465,0,0,0-.07-.339c-.016-.059-.033-.118-.053-.175-.01-.032-.022-.065-.033-.1s-.053-.116-.014-.035a2.505,2.505,0,0,0-.212-.384c-.016-.021-.088-.108-.022-.032-.022-.027-.045-.054-.069-.081a1.649,1.649,0,0,0-.169-.166c-.018-.016-.115-.088-.037-.032-.032-.022-.062-.045-.094-.065a1.908,1.908,0,0,0-.23-.129s-.078-.034-.029-.013-.046-.018-.056-.021c-.049-.019-.1-.035-.151-.049s-.108-.029-.163-.04l-.057-.011c-.013,0-.135-.021-.057-.011a3.565,3.565,0,0,0-.824,0,.337.337,0,0,1-.335-.335.343.343,0,0,1,.335-.335,2.668,2.668,0,0,1,2.394.8,2.982,2.982,0,0,1,.625,1.661,2.563,2.563,0,0,1,.011.367.344.344,0,0,1-.335.335.338.338,0,0,1-.335-.335Z" transform="translate(80.055 -684.282)" fill="#cca47f"/></g><g transform="translate(17.429 12.795)"><g transform="translate(4.094 1.911)"><path d="M-73.4,684.159a1.178,1.178,0,0,0,1.178,1.178,1.178,1.178,0,0,0,1.178-1.178,1.178,1.178,0,0,0-1.178-1.178A1.178,1.178,0,0,0-73.4,684.159Z" transform="translate(73.404 -682.981)" fill="#030226"/><path d="M-68.566,683.985a1,1,0,0,0,1,1.006,1,1,0,0,0,1.006-1.006,1,1,0,0,0-1.006-1A1,1,0,0,0-68.566,683.985Z" transform="translate(76.278 -682.981)" fill="#030226"/></g><g transform="translate(0 4.491)"><path d="M-75.972,687.528a2.928,2.928,0,0,0,2.928,2.927,2.927,2.927,0,0,0,2.927-2.927,2.927,2.927,0,0,0-2.927-2.928A2.929,2.929,0,0,0-75.972,687.528Z" transform="translate(75.972 -684.6)" fill="#d37a9b"/><path d="M-66.339,685.039a2.23,2.23,0,0,1,.518.062v3.037a6.211,6.211,0,0,1-.11,1.32,2.62,2.62,0,0,1-.408.038,2.227,2.227,0,0,1-2.227-2.229A2.227,2.227,0,0,1-66.339,685.039Z" transform="translate(80.372 -684.339)" fill="#d37a9b"/></g><g transform="translate(8.835 1.587)"><path d="M-69.816,682.95a29.534,29.534,0,0,0,1.691,3.045.345.345,0,0,1-.121.458,7.269,7.269,0,0,1-1.691.934.337.337,0,0,1-.411-.233.343.343,0,0,1,.234-.413,6.638,6.638,0,0,0,1.532-.867l-.121.459a29.381,29.381,0,0,1-1.69-3.045c-.187-.386.391-.727.577-.338Z" transform="translate(70.43 -682.778)" fill="#cca47f"/></g><g transform="translate(3.42)"><path d="M-71.847,682.4q-.739.325-1.481.647a.359.359,0,0,1-.257.035.344.344,0,0,1-.2-.155.337.337,0,0,1,.121-.458l1.479-.647a.356.356,0,0,1,.258-.034.338.338,0,0,1,.2.153.338.338,0,0,1-.12.458Z" transform="translate(73.827 -681.782)" fill="#cca47f"/></g><g transform="translate(11.914 0.473)"><path d="M-67.14,682.991c-.371-.078-.743-.164-1.111-.257a.337.337,0,0,1-.234-.411.342.342,0,0,1,.413-.233c.368.091.74.177,1.111.255a.337.337,0,0,1,.233.411.341.341,0,0,1-.411.234Z" transform="translate(68.498 -682.079)" fill="#cca47f"/></g></g><path d="M-78.323,677.268c4.242-4.277,10.389-4.618,16.11-1.183s5.6,9.059,5.254,9.861a1.414,1.414,0,0,1-1.087.956,10.446,10.446,0,0,1-3-.368,13.929,13.929,0,0,1-7.452-4.926s.389.714-1.165,4.019c-1.165,2.479-4.129,4.012-5.642,4.645a3.447,3.447,0,0,0-.8-.88,3.783,3.783,0,0,0-2.17-.681,4.474,4.474,0,0,0-2.67.928C-82.108,687.392-82.226,681.2-78.323,677.268Z" transform="translate(90.024 -673.756)" fill="#124c64"/><g transform="translate(24.647 21.678)"><path d="M-67.149,687.679a2.178,2.178,0,0,1-1.408,2.015,2.155,2.155,0,0,1-2.369-.618,2.209,2.209,0,0,1-.518-1.4.335.335,0,0,1,.67,0,1.492,1.492,0,0,0,1.478,1.478,1.494,1.494,0,0,0,1.479-1.478.334.334,0,0,1,.668,0Z" transform="translate(71.444 -687.355)" fill="#cca47f"/></g><g transform="translate(12.176 31.326)"><rect width="12.015" height="5.853" rx="1.499" transform="translate(0 0.135) rotate(-0.641)" fill="#fff"/><rect width="12.015" height="5.853" rx="1.499" transform="translate(0 0.135) rotate(-0.641)" fill="none" stroke="#124c64" stroke-miterlimit="10" stroke-width="1"/><g transform="translate(1.834 0.019)"><line y2="5.856" transform="translate(8.502)" fill="none" stroke="#124c64" stroke-miterlimit="10" stroke-width="1"/><line y2="5.856" transform="translate(6.377)" fill="none" stroke="#124c64" stroke-miterlimit="10" stroke-width="1"/><line y2="5.856" transform="translate(4.251)" fill="none" stroke="#124c64" stroke-miterlimit="10" stroke-width="1"/><line y2="5.856" transform="translate(2.126)" fill="none" stroke="#124c64" stroke-miterlimit="10" stroke-width="1"/><line y2="5.856" fill="none" stroke="#124c64" stroke-miterlimit="10" stroke-width="1"/></g></g></g></g><g transform="translate(-126.561 684.898)"><g transform="translate(0 197.381)"><path d="M-120.4,801.725h-21.815a.893.893,0,0,1-.893-.893.892.892,0,0,1,.893-.891H-120.4a.892.892,0,0,1,.893.891A.893.893,0,0,1-120.4,801.725Z" transform="translate(143.108 -799.941)" fill="#124c64"/><g transform="translate(25.088)"><path d="M-121.024,801.725h-5.453a.893.893,0,0,1-.893-.893.892.892,0,0,1,.893-.891h5.453a.892.892,0,0,1,.893.891A.893.893,0,0,1-121.024,801.725Z" transform="translate(127.37 -799.941)" fill="#124c64"/></g><g transform="translate(33.632)"><path d="M-118.117,801.725h-3a.893.893,0,0,1-.893-.893.892.892,0,0,1,.893-.891h3a.892.892,0,0,1,.893.891A.893.893,0,0,1-118.117,801.725Z" transform="translate(122.01 -799.941)" fill="#124c64"/></g></g><g transform="translate(196.396 145.903)"><path d="M-12.392,769.433h-6.622a.893.893,0,0,1-.893-.893.893.893,0,0,1,.893-.893h6.622a.893.893,0,0,1,.893.893A.893.893,0,0,1-12.392,769.433Z" transform="translate(19.907 -767.648)" fill="#124c64"/></g><g transform="translate(219.297 120.722)"><path d="M-.325,762.284a.894.894,0,0,1-.631-.261L-5.28,757.7a.9.9,0,0,1-.261-.631.891.891,0,0,1,.261-.631l4.323-4.323a.894.894,0,0,1,.631-.261h0a.894.894,0,0,1,.631.261l4.323,4.323a.893.893,0,0,1,0,1.261L.306,762.022A.894.894,0,0,1-.325,762.284Zm-3.062-5.216,3.062,3.061,3.062-3.061-3.062-3.062Z" transform="translate(5.541 -751.852)" fill="#124c64"/></g><g transform="translate(53.423 7.163)"><path d="M-103.679,692.445a5.923,5.923,0,0,1-5.916-5.914,5.923,5.923,0,0,1,5.916-5.916,5.923,5.923,0,0,1,5.914,5.916A5.922,5.922,0,0,1-103.679,692.445Zm0-10.045a4.134,4.134,0,0,0-4.13,4.13,4.134,4.134,0,0,0,4.13,4.129,4.134,4.134,0,0,0,4.129-4.129A4.134,4.134,0,0,0-103.679,682.4Z" transform="translate(109.595 -680.615)" fill="#124c64"/></g><g transform="translate(245.83 99.351)"><g transform="translate(0)"><path d="M16.483,744.718a.892.892,0,0,1-.631-.261l-4.487-4.487a.893.893,0,1,1,1.263-1.263l4.487,4.487a.893.893,0,0,1-.631,1.524Z" transform="translate(-11.104 -738.445)" fill="#124c64"/></g><g transform="translate(0)"><path d="M12,744.718a.893.893,0,0,1-.631-1.524l4.487-4.487a.893.893,0,0,1,1.263,1.263l-4.487,4.487A.9.9,0,0,1,12,744.718Z" transform="translate(-11.104 -738.445)" fill="#124c64"/></g></g><g transform="translate(187.505 89.659)"><g transform="translate(0)"><path d="M-20.105,738.637a.9.9,0,0,1-.631-.261l-4.487-4.487a.9.9,0,0,1,0-1.262.9.9,0,0,1,1.263,0l4.487,4.487a.9.9,0,0,1,0,1.262A.9.9,0,0,1-20.105,738.637Z" transform="translate(25.485 -732.365)" fill="#124c64"/></g><g transform="translate(0)"><path d="M-24.593,738.637a.9.9,0,0,1-.631-.261.9.9,0,0,1,0-1.262l4.487-4.487a.9.9,0,0,1,1.263,0,.9.9,0,0,1,0,1.262l-4.487,4.487A.892.892,0,0,1-24.593,738.637Z" transform="translate(25.485 -732.365)" fill="#124c64"/></g></g><g transform="translate(29.256)"><path d="M-119.376,682.393a.889.889,0,0,1-.631-.261l-4.487-4.486a.9.9,0,0,1,0-1.263.892.892,0,0,1,1.263,0l4.487,4.487a.893.893,0,0,1,0,1.261A.886.886,0,0,1-119.376,682.393Z" transform="translate(124.755 -676.122)" fill="#124c64"/><g transform="translate(0 0.001)"><path d="M-123.864,682.393a.888.888,0,0,1-.631-.261.893.893,0,0,1,0-1.261l4.487-4.487a.9.9,0,0,1,1.263,0,.9.9,0,0,1,0,1.263l-4.487,4.487A.891.891,0,0,1-123.864,682.393Z" transform="translate(124.755 -676.122)" fill="#124c64"/></g></g></g></g></svg>