<svg xmlns="http://www.w3.org/2000/svg" width="454" height="360.224" viewBox="0 0 454 360.224"><g transform="translate(191.529 -898.916)"><path d="M-112.681,1153.213c-50.692-23.861-91.484-160.493-5.944-217.126s181.78-20.2,202.372,11.088,32.362,58.826,68.91,54.256c41.188-5.148,102.374,96.436,2.872,151.78Z" transform="translate(19.702 6.359)" fill="#ffcd91" opacity="0.34"/><path d="M7.5,915.454c-47.8-1.93-29.7,74.454,25.743,70.89S46.706,917.038,7.5,915.454Z" transform="translate(144.668 13.923)" fill="#ffcd91" opacity="0.34"/><g transform="translate(108.709 987.868)"><g transform="translate(0)"><g transform="translate(0 63.773)"><path d="M15.438,1065.086c-5.968,0-15.968-.968-21.136-6.888-3.1-3.547-4.032-8.378-2.784-14.355,1.746-8.35-1.27-10.793-5.446-14.174-1.171-.948-2.384-1.927-3.608-3.131-5.9-5.778-5.046-8.767-3.35-14.718.76-2.666-.442-3.531-2.262-4.84a11.073,11.073,0,0,1-5.288-8.063,14.938,14.938,0,0,1,3.057-12.358,14.463,14.463,0,0,1,11.28-4.807h.094c6.965.033,8.219,5.114,9.226,9.195.485,1.964.944,3.816,1.919,4.965A7.044,7.044,0,0,0,1.081,998c2.554.7,5.45,1.5,7.576,7.314a25.014,25.014,0,0,1,1.309,9.757c-.066,3.591-.111,5.964,3.289,7.86a21.288,21.288,0,0,1,3.6,2.624l-.559.634a20.36,20.36,0,0,0-3.451-2.517c-3.844-2.142-3.789-5-3.722-8.616a24,24,0,0,0-1.256-9.451c-1.98-5.409-4.535-6.11-7.006-6.788a7.83,7.83,0,0,1-4.364-2.352c-1.1-1.3-1.586-3.249-2.1-5.312-1.032-4.189-2.1-8.52-8.407-8.551h-.09a13.626,13.626,0,0,0-10.636,4.512A14.094,14.094,0,0,0-27.6,998.778a10.331,10.331,0,0,0,4.945,7.515c1.881,1.353,3.5,2.52,2.583,5.76-1.654,5.806-2.408,8.455,3.127,13.881,1.2,1.175,2.393,2.142,3.551,3.079,4.242,3.433,7.592,6.147,5.741,15-1.193,5.7-.321,10.288,2.592,13.625,6.234,7.146,20.013,6.761,24.086,6.479l.059.844C18.233,1065.023,16.968,1065.086,15.438,1065.086Z" transform="translate(28.683 -981.753)" fill="#124c64"/><g transform="translate(11.564 19.194)"><g transform="translate(3.604)"><path d="M1.561,1031.358q-7.284-14.82-15.391-29.217-2.743-4.879-5.577-9.707a.56.56,0,0,0-.966.564q9.085,15.5,17.259,31.514,1.883,3.692,3.71,7.41c.317.647,1.283.081.966-.564Z" transform="translate(20.455 -992.164)" fill="#124c64"/></g><g transform="translate(0 17.501)"><path d="M-21.875,1002.781q6.264.647,12.526,1.3l1.8.188c.715.074.71-1.047,0-1.121q-6.264-.65-12.526-1.3l-1.8-.188c-.715-.074-.712,1.047,0,1.121Z" transform="translate(22.41 -1001.656)" fill="#124c64"/></g></g><g transform="translate(12.35 6.757)"><g transform="translate(0 21.508)"><path d="M-19.4,1001.688a2.461,2.461,0,0,1-2.589-2.3,2.461,2.461,0,0,1,2.589-2.3,2.461,2.461,0,0,1,2.59,2.3A2.461,2.461,0,0,1-19.4,1001.688Zm0-3.757a1.62,1.62,0,0,0-1.742,1.455,1.62,1.62,0,0,0,1.742,1.455,1.621,1.621,0,0,0,1.744-1.455A1.621,1.621,0,0,0-19.4,997.93Z" transform="translate(21.984 -997.084)" fill="#124c64"/></g><g transform="translate(5.116 3.259)"><path d="M-16.622,992.365a2.583,2.583,0,0,1-1.292-.345,2.576,2.576,0,0,1-1.2-1.573,2.57,2.57,0,0,1,.256-1.965,2.577,2.577,0,0,1,1.575-1.208,2.574,2.574,0,0,1,1.964.258,2.6,2.6,0,0,1,.949,3.54h0A2.592,2.592,0,0,1-16.622,992.365Zm.007-4.333a1.762,1.762,0,0,0-.455.061,1.725,1.725,0,0,0-1.056.813,1.714,1.714,0,0,0-.175,1.32,1.724,1.724,0,0,0,.811,1.058,1.745,1.745,0,0,0,2.382-.636h0a1.748,1.748,0,0,0-.638-2.382A1.734,1.734,0,0,0-16.615,988.033Z" transform="translate(19.209 -987.185)" fill="#124c64"/></g><g transform="translate(12.482 53.327)"><path d="M-12.089,1019.868a2.963,2.963,0,0,1-3.125-2.762,2.964,2.964,0,0,1,3.125-2.764,2.961,2.961,0,0,1,3.121,2.764A2.961,2.961,0,0,1-12.089,1019.868Zm0-4.679a2.122,2.122,0,0,0-2.277,1.917,2.121,2.121,0,0,0,2.277,1.914,2.119,2.119,0,0,0,2.275-1.914A2.12,2.12,0,0,0-12.089,1015.188Z" transform="translate(15.214 -1014.342)" fill="#124c64"/></g><g transform="translate(3.368)"><path d="M-18.771,988.189a1.387,1.387,0,0,1-1.386-1.387,1.387,1.387,0,0,1,1.386-1.385,1.386,1.386,0,0,1,1.385,1.385A1.387,1.387,0,0,1-18.771,988.189Zm0-1.925a.539.539,0,0,0-.54.538.54.54,0,0,0,.54.54.539.539,0,0,0,.538-.54A.539.539,0,0,0-18.771,986.264Z" transform="translate(20.157 -985.418)" fill="#124c64"/></g></g></g><g transform="translate(81.227 71.128)"><g transform="translate(0)"><path d="M32.852,1061.479c-6.536,0-12.371-.664-14.3-2.043-2.745-1.956-3.923-8.3-2.681-14.434.9-4.458,4.5-15.166,18.418-18.273,8.265-1.846,8.979-5.372,9.971-10.254a40.694,40.694,0,0,1,1.045-4.331c2.306-7.351,5.384-7.821,11.516-8.757,2.764-.422,3.138-2.426,3.656-5.2.538-2.889,1.208-6.483,5.113-9.078,4.679-3.108,9.912-4.146,13.99-2.764,3.512,1.189,6.158,4.1,7.644,8.426,2.268,6.589-1.536,10.609-4.591,13.839a15.127,15.127,0,0,0-2.961,3.789c-.614,1.436-.343,3.075-.033,4.974.535,3.243,1.2,7.279-3.016,11.47-3.1,3.088-6.267,3.628-8.805,4.062-2.731.465-4.381.745-4.419,3.971-.09,7.349-3.287,19.418-9.862,21.975C49.095,1060.572,40.494,1061.477,32.852,1061.479Zm42.893-74.891a17.89,17.89,0,0,0-9.689,3.223c-3.606,2.4-4.215,5.655-4.751,8.529-.514,2.762-1,5.371-4.358,5.883-5.966.911-8.689,1.328-10.837,8.175a41.073,41.073,0,0,0-1.025,4.244c-1.012,5-1.812,8.947-10.614,10.913-13.431,3-16.9,13.319-17.773,17.615-1.3,6.427.2,12.052,2.343,13.579h0c3.955,2.817,26.317,2.371,34.184-.691,6.434-2.5,9.246-15.039,9.324-21.193.048-3.933,2.4-4.335,5.122-4.8,2.423-.415,5.437-.927,8.35-3.826,3.907-3.883,3.308-7.524,2.78-10.736-.319-1.943-.619-3.778.092-5.443a15.616,15.616,0,0,1,3.121-4.038c3.049-3.223,6.506-6.877,4.406-12.981-1.42-4.124-3.813-6.781-7.115-7.9A11.045,11.045,0,0,0,75.745,986.588Z" transform="translate(-15.374 -985.742)" fill="#124c64"/></g><g transform="translate(9.722 19.775)"><path d="M21.578,1052.715c2.872-3.427,5.856-6.764,8.734-10.188q10.733-12.76,20.965-25.93,7.431-9.555,14.584-19.322c.426-.583-.546-1.141-.968-.566q-12.025,16.438-24.851,32.265-7.981,9.87-16.254,19.5c-1,1.154-2.023,2.282-3,3.449-.461.549.328,1.346.791.793Z" transform="translate(-20.647 -996.468)" fill="#124c64"/></g></g><g transform="translate(36.262)"><g transform="translate(0)"><path d="M41.883,1094.245,2.4,1093.567l-.122-.116c-5.262-5.125-16.617-18.47-8.4-31.642,4.207-6.748,8.918-9.561,12.7-11.823,5.538-3.308,8.883-5.306,6.578-16.5l-.479-2.316C8.942,1013.2,6.885,1003.3,25.841,995.337c14.139-5.94,13.758-11.549,13.273-18.649a36.33,36.33,0,0,1,.077-8.086,24.865,24.865,0,0,1,11.877-17.519c7.074-4.307,15.6-5.094,24-2.216,4.663,1.6,7.9,6.018,9.119,12.447,1.892,9.993-1.44,22.624-7.273,27.58-3.986,3.387-2.227,6.547.208,10.922,2.968,5.334,6.661,11.971,2.279,22.216-4.065,9.5-11.282,12.627-17.08,15.14-5.92,2.565-10.2,4.418-9.508,11.387.212,2.146.516,4.359.837,6.7.21,1.53.426,3.084.616,4.651l-.841.1c-.19-1.563-.4-3.112-.614-4.639-.321-2.351-.625-4.571-.841-6.735-.749-7.581,4.239-9.744,10.015-12.246,5.953-2.579,12.7-5.5,16.637-14.7,4.218-9.86.636-16.3-2.242-21.47-2.432-4.368-4.53-8.142-.015-11.978,5.631-4.784,8.831-17.047,6.988-26.778-.819-4.325-2.968-9.886-8.558-11.8-8.156-2.795-16.424-2.033-23.284,2.139a24.028,24.028,0,0,0-11.479,16.918,35.689,35.689,0,0,0-.068,7.908c.485,7.143.907,13.311-13.791,19.486C7.856,1003.811,9.744,1012.9,13.509,1031l.479,2.316c2.424,11.785-1.516,14.139-6.975,17.4-3.706,2.214-8.319,4.971-12.419,11.543-7.826,12.554,2.992,25.4,8.158,30.472l39.143.671Z" transform="translate(9.015 -947.163)" fill="#124c64"/></g><g transform="translate(18.58 13.958)"><g transform="translate(0)"><path d="M2.083,1086.759q2.395-5.531,4.806-11.055,5.929-13.612,11.9-27.2,7.619-17.332,15.323-34.623,7.464-16.729,15.094-33.384c3.58-7.771,7.144-15.568,11.07-23.173q.454-.874.916-1.744c.341-.634-.627-1.2-.966-.564-3.756,7.008-7.058,14.274-10.4,21.485-5.011,10.811-9.908,21.676-14.775,32.556q-7.8,17.437-15.485,34.925-6.294,14.3-12.541,28.623c-1.945,4.462-4,8.894-5.832,13.406-.026.063-.053.125-.081.186-.284.654.682,1.226.968.566Z" transform="translate(-1.063 -954.734)" fill="#124c64"/></g><g transform="translate(9.696 47.592)"><g transform="translate(26.608)"><path d="M21.294,983.126l23.074-1.276,3.284-.183c.717-.039.721-1.16,0-1.119l-23.074,1.276-3.284.183c-.717.039-.723,1.16,0,1.119Z" transform="translate(-20.754 -980.547)" fill="#124c64"/></g><g transform="translate(0 59.15)"><path d="M6.857,1016.093l18.234-2.052,2.554-.288c.708-.079.715-1.2,0-1.119q-9.118,1.026-18.236,2.05l-2.552.288c-.708.079-.717,1.2,0,1.121Z" transform="translate(-6.322 -1012.63)" fill="#124c64"/></g></g><g transform="translate(7.708 43.431)"><path d="M5.3,979.147q2.622,5.882,5.242,11.765,4.159,9.337,8.317,18.671.965,2.166,1.928,4.329c.293.656,1.259.089.968-.566q-2.622-5.882-5.242-11.765-4.159-9.334-8.317-18.669l-1.928-4.329c-.293-.658-1.259-.088-.968.564Z" transform="translate(-5.244 -978.29)" fill="#124c64"/></g></g><g transform="translate(57.721 12.18)"><path d="M25.454,962.386a3.1,3.1,0,0,1-1.761-.529c-1.67-1.138-1.875-3.758-.459-5.841a5.188,5.188,0,0,1,2.657-2.056,3.19,3.19,0,0,1,4.34,2.954,5.2,5.2,0,0,1-.938,3.225h0a5.188,5.188,0,0,1-2.657,2.056A3.853,3.853,0,0,1,25.454,962.386Zm1.615-7.771a3.067,3.067,0,0,0-.92.151,4.326,4.326,0,0,0-2.212,1.726c-1.156,1.7-1.051,3.791.232,4.665a2.494,2.494,0,0,0,2.211.23,4.346,4.346,0,0,0,2.212-1.724h0a4.329,4.329,0,0,0,.793-2.694A2.5,2.5,0,0,0,28.359,955,2.261,2.261,0,0,0,27.069,954.615Z" transform="translate(-22.293 -953.769)" fill="#124c64"/></g><g transform="translate(61.269 26.313)"><path d="M26.452,965.906a2.236,2.236,0,1,1,2.236-2.234A2.238,2.238,0,0,1,26.452,965.906Zm0-3.623a1.388,1.388,0,1,0,1.388,1.388A1.39,1.39,0,0,0,26.452,962.283Z" transform="translate(-24.217 -961.435)" fill="#124c64"/></g><g transform="translate(70.991 71.345)"><path d="M33.434,993.749a3.945,3.945,0,1,1,3.944-3.945A3.948,3.948,0,0,1,33.434,993.749Zm0-7.043a3.1,3.1,0,1,0,3.1,3.1A3.1,3.1,0,0,0,33.434,986.706Z" transform="translate(-29.49 -985.86)" fill="#124c64"/></g></g></g></g><g transform="translate(-15.075 986.949)"><g transform="translate(68.189 41.027)"><path d="M-56.49,1022.528c3.839,0,10.273-.623,13.6-4.43,1.991-2.283,2.594-5.391,1.79-9.235-1.123-5.372.819-6.943,3.5-9.119.752-.61,1.532-1.241,2.321-2.013,3.792-3.719,3.245-5.64,2.153-9.469-.487-1.716.286-2.271,1.457-3.114a7.122,7.122,0,0,0,3.4-5.188,9.606,9.606,0,0,0-1.967-7.95,9.307,9.307,0,0,0-7.255-3.092h-.061c-4.482.022-5.288,3.291-5.937,5.915a8.138,8.138,0,0,1-1.233,3.2,4.535,4.535,0,0,1-2.537,1.34c-1.643.452-3.5.962-4.873,4.707a16.082,16.082,0,0,0-.843,6.276c.042,2.31.072,3.839-2.117,5.057a13.675,13.675,0,0,0-2.314,1.687l.36.409a13.135,13.135,0,0,1,2.222-1.62c2.472-1.377,2.437-3.216,2.395-5.542a15.419,15.419,0,0,1,.808-6.08c1.272-3.479,2.917-3.931,4.506-4.366a5.032,5.032,0,0,0,2.808-1.515,8.459,8.459,0,0,0,1.348-3.416c.666-2.694,1.353-5.481,5.409-5.5h.059a8.767,8.767,0,0,1,6.842,2.9A9.07,9.07,0,0,1-28.8,979.87a6.644,6.644,0,0,1-3.182,4.834c-1.209.87-2.255,1.622-1.661,3.7,1.066,3.737,1.551,5.441-2.011,8.931-.771.756-1.539,1.379-2.284,1.982-2.729,2.209-4.884,3.955-3.693,9.652.767,3.669.206,6.619-1.669,8.765-4.01,4.6-12.874,4.349-15.494,4.167l-.039.544C-58.289,1022.487-57.475,1022.528-56.49,1022.528Z" transform="translate(58.837 -968.917)" fill="#124c64"/><g transform="translate(6.768 12.348)"><path d="M-55.125,1000.83q4.685-9.536,9.9-18.8,1.764-3.139,3.586-6.245a.361.361,0,0,1,.623.363q-5.846,9.973-11.1,20.273-1.209,2.376-2.386,4.768c-.2.417-.826.052-.621-.363Z" transform="translate(55.166 -975.615)" fill="#124c64"/><g transform="translate(6.616 11.26)"><path d="M-42.015,982.445l-8.059.835-1.16.12c-.461.048-.457-.673,0-.721l8.059-.835,1.16-.12c.461-.048.457.673,0,.721Z" transform="translate(51.578 -981.722)" fill="#124c64"/></g></g><g transform="translate(10.736 4.347)"><g transform="translate(8.717 13.837)"><path d="M-48.286,980.26a1.584,1.584,0,0,1,1.667-1.48,1.584,1.584,0,0,1,1.667,1.48,1.584,1.584,0,0,1-1.667,1.481A1.584,1.584,0,0,1-48.286,980.26Zm.546,0a1.043,1.043,0,0,0,1.121.937,1.043,1.043,0,0,0,1.121-.937,1.042,1.042,0,0,0-1.121-.935A1.042,1.042,0,0,0-47.74,980.26Z" transform="translate(48.286 -978.78)" fill="#124c64"/></g><g transform="translate(5.426 2.096)"><path d="M-49.85,974.912h0a1.673,1.673,0,0,1,.612-2.277,1.653,1.653,0,0,1,1.263-.166,1.66,1.66,0,0,1,1.012.778,1.645,1.645,0,0,1,.166,1.263,1.655,1.655,0,0,1-.776,1.012,1.654,1.654,0,0,1-.83.223A1.669,1.669,0,0,1-49.85,974.912Zm.883-1.8a1.122,1.122,0,0,0-.409,1.532h0a1.122,1.122,0,0,0,1.532.409,1.123,1.123,0,0,0,.522-.682,1.114,1.114,0,0,0-.112-.85,1.115,1.115,0,0,0-.68-.522,1.135,1.135,0,0,0-.293-.039A1.1,1.1,0,0,0-48.967,973.109Z" transform="translate(50.071 -972.412)" fill="#124c64"/></g><g transform="translate(0 34.307)"><path d="M-53.014,991.66A1.906,1.906,0,0,1-51,989.883a1.906,1.906,0,0,1,2.01,1.777A1.907,1.907,0,0,1-51,993.438,1.907,1.907,0,0,1-53.014,991.66Zm.546,0A1.363,1.363,0,0,0-51,992.892a1.363,1.363,0,0,0,1.464-1.232A1.365,1.365,0,0,0-51,990.427,1.365,1.365,0,0,0-52.468,991.66Z" transform="translate(53.014 -989.883)" fill="#124c64"/></g><g transform="translate(8.099)"><path d="M-48.621,972.165a.893.893,0,0,1,.892-.89.892.892,0,0,1,.891.89.893.893,0,0,1-.891.892A.893.893,0,0,1-48.621,972.165Zm.544,0a.349.349,0,0,0,.348.349.349.349,0,0,0,.347-.349.349.349,0,0,0-.347-.347A.349.349,0,0,0-48.077,972.165Z" transform="translate(48.621 -971.275)" fill="#124c64"/></g></g></g><g transform="translate(0 45.759)"><path d="M-73.707,1018.515c-4.231-1.645-6.287-9.408-6.344-14.137-.026-2.076-1.086-2.257-2.843-2.555a9.393,9.393,0,0,1-5.666-2.613c-2.71-2.7-2.284-5.293-1.941-7.378a5.8,5.8,0,0,0-.02-3.2,9.738,9.738,0,0,0-1.9-2.437c-1.965-2.078-4.412-4.665-2.954-8.9a8.1,8.1,0,0,1,4.917-5.421c2.624-.889,5.99-.221,9,1.777,2.511,1.67,2.943,3.982,3.289,5.841.334,1.785.573,3.075,2.351,3.346,3.945.6,5.926.905,7.408,5.634a26.17,26.17,0,0,1,.675,2.786c.636,3.14,1.1,5.409,6.414,6.6a14.8,14.8,0,0,1,11.849,11.755c.8,3.949.041,8.027-1.726,9.286-1.243.887-5,1.315-9.2,1.315C-65.318,1020.206-70.853,1019.625-73.707,1018.515Zm-16.58-46.129c-2.126.719-3.665,2.428-4.578,5.081-1.351,3.927.872,6.278,2.834,8.352a10,10,0,0,1,2.01,2.6,6.264,6.264,0,0,1,.059,3.5c-.339,2.067-.725,4.408,1.788,6.906a8.948,8.948,0,0,0,5.371,2.461c1.752.3,3.265.555,3.3,3.086.05,3.96,1.858,12.024,6,13.634,5.061,1.971,19.449,2.257,21.992.444h0c1.377-.983,2.345-4.6,1.508-8.735a14.267,14.267,0,0,0-11.435-11.331c-5.662-1.265-6.176-3.805-6.827-7.021a26.518,26.518,0,0,0-.66-2.731c-1.383-4.406-3.134-4.674-6.973-5.26-2.159-.328-2.472-2.008-2.8-3.785-.345-1.849-.737-3.944-3.057-5.487A11.524,11.524,0,0,0-88,972.028,7.115,7.115,0,0,0-90.287,972.386Z" transform="translate(95.822 -971.484)" fill="#124c64"/><g transform="translate(11.255 12.721)"><path d="M-61.163,1014.57c-1.847-2.2-3.767-4.353-5.618-6.554q-6.9-8.211-13.487-16.682-4.782-6.148-9.383-12.43c-.273-.376.352-.736.623-.365q7.735,10.575,15.988,20.758,5.133,6.35,10.456,12.543c.64.743,1.3,1.469,1.93,2.22.295.354-.212.866-.511.51Z" transform="translate(89.718 -978.384)" fill="#124c64"/></g></g><g transform="translate(15.293)"><path d="M-59.973,1041.287l25.4-.437.077-.076c3.387-3.3,10.692-11.881,5.408-20.354a21.466,21.466,0,0,0-8.173-7.607c-3.564-2.128-5.714-3.415-4.231-10.616l.308-1.49c2.4-11.56,3.728-17.928-8.468-23.052-9.1-3.822-8.85-7.43-8.538-12a23.49,23.49,0,0,0-.05-5.2,16,16,0,0,0-7.64-11.271,17.99,17.99,0,0,0-15.439-1.425c-3,1.027-5.081,3.872-5.865,8.007-1.217,6.429.926,14.554,4.677,17.744,2.566,2.177,1.434,4.211-.133,7.026-1.91,3.431-4.285,7.7-1.466,14.29,2.614,6.114,7.257,8.125,10.987,9.742,3.809,1.65,6.562,2.841,6.117,7.325-.136,1.381-.332,2.8-.538,4.311-.135.984-.273,1.984-.4,2.992l.54.066c.124-1,.26-2,.4-2.985.206-1.512.4-2.941.54-4.331.483-4.878-2.727-6.27-6.442-7.88-3.831-1.659-8.175-3.54-10.7-9.454-2.714-6.344-.409-10.485,1.444-13.813,1.563-2.81,2.913-5.238.009-7.7-3.623-3.079-5.682-10.968-4.5-17.227.527-2.784,1.91-6.361,5.507-7.594a17.457,17.457,0,0,1,14.978,1.375,15.464,15.464,0,0,1,7.386,10.885,23.094,23.094,0,0,1,.044,5.087c-.313,4.594-.584,8.562,8.872,12.535,11.781,4.95,10.566,10.795,8.145,22.44l-.31,1.49c-1.56,7.581.975,9.1,4.488,11.195a21,21,0,0,1,7.991,7.426c5.033,8.075-1.925,16.342-5.249,19.6l-25.183.433Z" transform="translate(87.527 -946.664)" fill="#124c64"/><g transform="translate(7.339 8.979)"><g transform="translate(2.275)"><path d="M-44.237,1036.47q-1.54-3.556-3.092-7.111-3.816-8.756-7.661-17.5-4.9-11.148-9.856-22.272-4.8-10.763-9.711-21.477c-2.3-5-4.6-10.017-7.122-14.91q-.29-.561-.588-1.121c-.219-.407.4-.773.621-.363,2.415,4.51,4.541,9.183,6.691,13.822,3.225,6.956,6.375,13.946,9.506,20.944q5.019,11.217,9.963,22.469,4.049,9.2,8.066,18.413c1.252,2.87,2.574,5.723,3.752,8.625.017.04.035.079.053.12.183.42-.439.789-.623.363Z" transform="translate(82.313 -951.535)" fill="#124c64"/></g><g transform="translate(0 30.618)"><path d="M-66.244,969.8l-14.844-.82-2.113-.116c-.461-.026-.463-.747,0-.721l14.845.82,2.111.118c.463.024.465.745,0,.719Z" transform="translate(83.547 -968.142)" fill="#124c64"/><g transform="translate(20.707 38.054)"><path d="M-58.6,991.008l-11.731-1.318-1.643-.186c-.455-.05-.461-.771,0-.719L-60.24,990.1l1.643.186c.455.05.461.771,0,.719Z" transform="translate(72.315 -988.782)" fill="#124c64"/></g></g><g transform="translate(25.393 27.941)"><path d="M-59.154,967.242q-1.687,3.783-3.372,7.568l-5.35,12.012-1.241,2.784c-.188.422-.809.057-.621-.363l3.37-7.568,5.352-12.012,1.241-2.786c.188-.422.809-.055.621.365Z" transform="translate(69.774 -966.69)" fill="#124c64"/></g></g><g transform="translate(18.052 7.835)"><path d="M-75.418,956.334a3.34,3.34,0,0,1-1.707-1.322h0a3.353,3.353,0,0,1-.6-2.076,2.14,2.14,0,0,1,.9-1.681,2.144,2.144,0,0,1,1.9-.218,3.339,3.339,0,0,1,1.707,1.322,2.7,2.7,0,0,1-.293,3.757,1.992,1.992,0,0,1-1.134.341A2.488,2.488,0,0,1-75.418,956.334Zm-1.108-4.629a1.611,1.611,0,0,0-.66,1.268,2.8,2.8,0,0,0,.511,1.733h0a2.785,2.785,0,0,0,1.423,1.108,1.6,1.6,0,0,0,1.421-.148,2.171,2.171,0,0,0,.151-3,2.805,2.805,0,0,0-1.423-1.11,1.978,1.978,0,0,0-.594-.1A1.45,1.45,0,0,0-76.526,951.7Z" transform="translate(77.736 -950.914)" fill="#124c64"/></g><g transform="translate(18.006 16.928)"><path d="M-77.761,957.284a1.44,1.44,0,0,1,1.438-1.438,1.44,1.44,0,0,1,1.438,1.438,1.44,1.44,0,0,1-1.438,1.438A1.44,1.44,0,0,1-77.761,957.284Zm.546,0a.893.893,0,0,0,.892.894.893.893,0,0,0,.892-.894.893.893,0,0,0-.892-.892A.893.893,0,0,0-77.215,957.284Z" transform="translate(77.761 -955.846)" fill="#124c64"/></g><g transform="translate(9.553 45.898)"><path d="M-82.346,974.1a2.542,2.542,0,0,1,2.539-2.539A2.542,2.542,0,0,1-77.27,974.1a2.542,2.542,0,0,1-2.537,2.537A2.542,2.542,0,0,1-82.346,974.1Zm.546,0a1.993,1.993,0,0,0,1.993,1.991,1.992,1.992,0,0,0,1.991-1.991,1.993,1.993,0,0,0-1.991-1.993A1.993,1.993,0,0,0-81.8,974.1Z" transform="translate(82.346 -971.559)" fill="#124c64"/></g></g></g><g transform="translate(-191.529 929.706)"><g transform="translate(0 165.804)"><g transform="translate(14.554)"><path d="M-182.759,1007.3h21.425a.877.877,0,0,0,.878-.878.877.877,0,0,0-.878-.876h-21.425a.875.875,0,0,0-.876.876A.876.876,0,0,0-182.759,1007.3Z" transform="translate(183.635 -1005.547)" fill="#124c64"/></g><g transform="translate(5.983)"><path d="M-187.408,1007.3h5.356a.877.877,0,0,0,.878-.878.877.877,0,0,0-.878-.876h-5.356a.876.876,0,0,0-.876.876A.877.877,0,0,0-187.408,1007.3Z" transform="translate(188.284 -1005.547)" fill="#124c64"/></g><path d="M-190.651,1007.3h2.946a.877.877,0,0,0,.876-.878.877.877,0,0,0-.876-.876h-2.946a.877.877,0,0,0-.878.876A.877.877,0,0,0-190.651,1007.3Z" transform="translate(191.529 -1005.547)" fill="#124c64"/></g><g transform="translate(137.36 55.242)"><path d="M-116.15,947.331h6.5a.877.877,0,0,0,.876-.876.875.875,0,0,0-.876-.876h-6.5a.875.875,0,0,0-.876.876A.877.877,0,0,0-116.15,947.331Z" transform="translate(117.026 -945.579)" fill="#124c64"/></g><g transform="translate(112.879 30.509)"><path d="M-125.8,942.153l-4.246-4.246a.875.875,0,0,1,0-1.239l4.246-4.248a.876.876,0,0,1,.619-.256h0a.876.876,0,0,1,.619.256l4.248,4.248a.876.876,0,0,1,.256.619.876.876,0,0,1-.256.62l-4.248,4.246a.876.876,0,0,1-.619.256A.876.876,0,0,1-125.8,942.153Zm.619-7.872-3.007,3.007,3.007,3.007,3.007-3.007Z" transform="translate(130.305 -932.164)" fill="#124c64"/></g><g transform="translate(349.486 7.228)"><path d="M-1.971,925.345a5.809,5.809,0,1,1,5.809,5.809A5.814,5.814,0,0,1-1.971,925.345Zm1.752,0a4.057,4.057,0,1,0,4.058-4.056A4.061,4.061,0,0,0-.219,925.345Z" transform="translate(1.971 -919.537)" fill="#124c64"/></g><g transform="translate(90.906 9.519)"><path d="M-141.346,926.94a.877.877,0,0,0,.619-.258l4.406-4.406a.875.875,0,0,0,0-1.239.874.874,0,0,0-1.239,0l-4.408,4.406a.876.876,0,0,0,0,1.239A.87.87,0,0,0-141.346,926.94Z" transform="translate(142.223 -920.779)" fill="#124c64"/><path d="M-136.939,926.94a.873.873,0,0,0,.619-.258.875.875,0,0,0,0-1.239l-4.406-4.406a.874.874,0,0,0-1.239,0,.876.876,0,0,0,0,1.239l4.408,4.406A.873.873,0,0,0-136.939,926.94Z" transform="translate(142.223 -920.779)" fill="#124c64"/></g><g transform="translate(148.189)"><path d="M-110.276,921.775a.87.87,0,0,0,.619-.256l4.406-4.406a.877.877,0,0,0,0-1.241.876.876,0,0,0-1.239,0l-4.406,4.406a.875.875,0,0,0,0,1.239A.87.87,0,0,0-110.276,921.775Z" transform="translate(111.153 -915.616)" fill="#124c64"/><g transform="translate(0 0)"><path d="M-105.869,921.775a.867.867,0,0,0,.619-.256.875.875,0,0,0,0-1.239l-4.406-4.406a.875.875,0,0,0-1.239,0,.875.875,0,0,0,0,1.239l4.406,4.406A.873.873,0,0,0-105.869,921.775Z" transform="translate(111.153 -915.617)" fill="#124c64"/></g></g><g transform="translate(378.68 0.193)"><g transform="translate(0)"><path d="M14.74,921.881a.871.871,0,0,0,.619-.256l4.408-4.408a.876.876,0,1,0-1.239-1.239l-4.408,4.408a.876.876,0,0,0,.619,1.5Z" transform="translate(-13.864 -915.721)" fill="#124c64"/></g><g transform="translate(0)"><path d="M19.148,921.881a.876.876,0,0,0,.619-1.5l-4.408-4.408a.877.877,0,0,0-1.239,1.241l4.408,4.406A.868.868,0,0,0,19.148,921.881Z" transform="translate(-13.864 -915.721)" fill="#124c64"/></g></g></g><g transform="translate(6.365 898.916)"><g transform="translate(0.579 0.593)"><rect width="82.674" height="89.267" fill="#95f7ff"/></g><path d="M-83.614,988.241H-2.208a4.1,4.1,0,0,1,1.125,0,.535.535,0,0,0,.144,0l-.537.536V900.856a4.628,4.628,0,0,1,0-1.195.52.52,0,0,0,0-.151l.537.535H-82.347a4.1,4.1,0,0,1-1.125,0,.521.521,0,0,0-.142,0l.535-.535v85.639c0,1.143.1,2.336,0,3.475,0,.05,0,.1,0,.153a.535.535,0,0,1-1.069,0V903.136c0-1.141-.1-2.336,0-3.475,0-.05,0-.1,0-.151a.542.542,0,0,1,.535-.535H-4.308a26.122,26.122,0,0,1,3.225,0,1.256,1.256,0,0,0,.144,0,.544.544,0,0,1,.535.535v85.639c0,1.143.1,2.336,0,3.475a1.413,1.413,0,0,0,0,.153.544.544,0,0,1-.535.535H-80.248a26.474,26.474,0,0,1-3.225,0,1.224,1.224,0,0,0-.142,0A.536.536,0,0,1-83.614,988.241Z" transform="translate(84.193 -898.916)" fill="#495abf"/><g transform="translate(7.1 10.504)"><g transform="translate(34.831)"><g transform="translate(10.257 0.634)"><g transform="translate(0 34.778)"><path d="M-55.887,924.3a.486.486,0,0,1,.485-.485h7.767a.485.485,0,0,1,.485.485.487.487,0,0,1-.485.487H-55.4A.487.487,0,0,1-55.887,924.3Zm15.533,0a.487.487,0,0,1,.487-.485H-32.1a.487.487,0,0,1,.487.485.489.489,0,0,1-.487.487h-7.766A.489.489,0,0,1-40.354,924.3Z" transform="translate(55.887 -923.82)" fill="#f3c4d2"/></g><g transform="translate(2.544)"><path d="M-50.137,913.161l-.159-.258a.485.485,0,0,1,.087-.616v-6.846a.485.485,0,0,1,.485-.485.485.485,0,0,1,.485.485v7.463a.486.486,0,0,1-.352.466.468.468,0,0,1-.133.019A.49.49,0,0,1-50.137,913.161Zm-4.217-6.883-.081-.127a.489.489,0,0,1,.159-.671.481.481,0,0,1,.669.159l.079.129a.488.488,0,0,1-.157.669.487.487,0,0,1-.256.072A.482.482,0,0,1-54.354,906.279Z" transform="translate(54.507 -904.957)" fill="#f3c4d2"/></g></g><path d="M-60.919,972.977h34.106l-.535.535-.35-19.39-.557-30.865-.125-7.034.535.535a11.763,11.763,0,0,1-5.089-1.737,13.067,13.067,0,0,1-5.911-9.729l.516.393-14.027,1.477.516-.677a30.581,30.581,0,0,1,.726,6.46c.053,3.715-.511,7.778-2.843,10.8a10.146,10.146,0,0,1-5.787,3.625l.319-.785a61.69,61.69,0,0,1,5.179,9.353,8.181,8.181,0,0,1,.914,3.909c-.107,1.11-.319,2.214-.52,3.309-1.447,7.941-3.256,15.822-5.019,23.7q-.761,3.4-1.534,6.8c-.153.671-1.185.387-1.032-.284q1.928-8.435,3.757-16.888c.857-3.953,1.7-7.908,2.471-11.877.426-2.216,1.226-4.67.5-6.886-1.222-3.752-3.5-7.3-5.644-10.594a.54.54,0,0,1,.319-.787c7.784-1.857,8.459-10.909,7.526-17.495-.1-.693-.208-1.392-.369-2.074a.545.545,0,0,1,.516-.678l14.027-1.475a.532.532,0,0,1,.516.393c.511,3.756,2.22,7.214,5.568,9.178a11.165,11.165,0,0,0,4.4,1.5.546.546,0,0,1,.535.535l.35,19.388.557,30.867.127,7.034a.544.544,0,0,1-.537.535H-60.919A.535.535,0,0,1-60.919,972.977Z" transform="translate(61.45 -904.613)" fill="#495abf"/></g><g transform="translate(0 5.317)"><g transform="translate(0.442)"><path d="M-54.336,908.566H-79.586a.535.535,0,0,1,0-1.069h25.249a.535.535,0,0,1,0,1.069Z" transform="translate(80.102 -907.497)" fill="#495abf"/><g transform="translate(0 5.203)"><path d="M-59.357,911.388H-79.586a.535.535,0,0,1,0-1.069h20.229a.535.535,0,0,1,0,1.069Z" transform="translate(80.102 -910.319)" fill="#495abf"/></g><g transform="translate(0 10.406)"><path d="M-52.122,914.21H-79.586a.535.535,0,0,1,0-1.069h27.464a.535.535,0,0,1,0,1.069Z" transform="translate(80.102 -913.141)" fill="#495abf"/></g><g transform="translate(0 15.609)"><path d="M-54.484,917.032h-25.1a.535.535,0,0,1,0-1.069h25.1a.535.535,0,0,1,0,1.069Z" transform="translate(80.102 -915.963)" fill="#495abf"/></g><g transform="translate(0 20.811)"><path d="M-59.5,919.856H-79.586a.536.536,0,0,1,0-1.071H-59.5a.536.536,0,0,1,0,1.071Z" transform="translate(80.102 -918.785)" fill="#495abf"/></g></g><g transform="translate(0 47.691)"><path d="M-56.2,934.433H-79.826a.535.535,0,0,1,0-1.069H-56.2a.535.535,0,0,1,0,1.069Z" transform="translate(80.342 -933.364)" fill="#495abf"/><g transform="translate(0 6.792)"><path d="M-52.362,938.117H-79.826a.535.535,0,0,1,0-1.069h27.464a.535.535,0,0,1,0,1.069Z" transform="translate(80.342 -937.048)" fill="#495abf"/></g></g></g></g><g transform="translate(37.23 5.784)"><g transform="translate(0.536 0.532)"><circle cx="4.15" cy="4.15" r="4.15" fill="#fff"/></g><path d="M-62.929,906.736a3.654,3.654,0,0,0,2.373,3.4,3.658,3.658,0,0,0,4.052-1.121,3.646,3.646,0,0,0,.293-4.134,3.642,3.642,0,0,0-3.756-1.7,3.66,3.66,0,0,0-2.963,3.558.536.536,0,0,1-1.071,0,4.755,4.755,0,0,1,3.055-4.392,4.708,4.708,0,0,1,5.232,1.4,4.735,4.735,0,0,1,.426,5.387,4.741,4.741,0,0,1-4.91,2.205,4.735,4.735,0,0,1-3.8-4.6A.536.536,0,0,1-62.929,906.736Z" transform="translate(64 -902.053)" fill="#495abf"/></g></g><g transform="translate(-172.662 1123.095)"><ellipse cx="212.959" cy="26.664" rx="212.959" ry="26.664" fill="#dcbfff"/></g><g transform="translate(-134.986 995.41)"><g transform="translate(42.307 39.258)"><path d="M-102.969,972.811c-15.214,20.607-31.079,44.519-34.942,70.361-.048.393.579.52.669.131a153.572,153.572,0,0,1,6.729-20.69c10-2.753,19.821-5.013,25.074-14.943,5.358-10.2,4.677-23.512,3.658-34.63C-101.852,972.444-102.659,972.414-102.969,972.811Z" transform="translate(137.913 -972.547)" fill="#7ac4e2"/><g transform="translate(7.523 6.491)"><path d="M-133.805,1019.449c6.836-15.338,15.61-30.74,26.765-43.352.074-.085.192.037.122.124-7.3,8.982-12.851,18.765-18.269,28.719,5.037-5.115,10.559-9.7,15.33-15.118.094-.107.242.046.153.153-4.738,5.686-9.915,11.864-16.086,16.073q-2.486,4.58-5.019,9.18c.415-.23.843-.439,1.268-.647.074-.037.14.074.065.111-.47.24-.937.49-1.421.7-.8,1.449-1.595,2.9-2.421,4.346C-133.5,1020.055-133.949,1019.773-133.805,1019.449Z" transform="translate(133.833 -976.067)" fill="#263238"/><path d="M-131.023,1000.274a89.981,89.981,0,0,0,11.68-7.8c.1-.081.245.057.144.142a61.71,61.71,0,0,1-11.656,7.941C-131.043,1000.658-131.209,1000.381-131.023,1000.274Z" transform="translate(136.136 -962.243)" fill="#263238"/></g></g><g transform="translate(39.452)"><path d="M-138.365,1057.3c.03.313.562.308.555-.026.079-8.509.007-17.057.136-25.607,2.179-4.4,6.859-6.835,10.113-10.36a45.3,45.3,0,0,0,6.069-8.451,60.693,60.693,0,0,0,7.041-23.476c.9-9.1-2.555-39.14-6.392-38.1-1.991.54-8.429,15.417-10.138,20.336a141.969,141.969,0,0,0-6.057,24.938C-140.148,1016.58-139.888,1037.143-138.365,1057.3Z" transform="translate(139.462 -951.254)" fill="#7ac4e2"/><g transform="translate(0.959 5.253)"><path d="M-138.865,1018.181l.037-.033c.466-10.767,2.893-21.641,5.164-32.084,2.447-11.25,5.306-21.844,11.1-31.879.107-.186.384-.022.288.168a118.414,118.414,0,0,0-8.914,24.47c.389-.607.859-1.182,1.263-1.755.159-.225.531-.015.374.219a15.939,15.939,0,0,1-1.809,2.555.145.145,0,0,1-.076.033c-1.993,8.042-3.424,16.267-4.648,24.473.092-.105.181-.216.273-.317.063-.068.168.018.124.1-.151.273-.321.542-.487.813-.618,4.167-1.189,8.322-1.764,12.443,7.415-6.339,13.748-13.809,17.321-23.015.017-.042.085-.026.07.018-3.5,9.548-9.016,18.037-17.51,23.83q-.232,1.665-.466,3.324c-.033.23-.4.17-.4-.053,0-.981.05-1.964.089-2.946A.229.229,0,0,1-138.865,1018.181Z" transform="translate(138.942 -954.103)" fill="#263238"/><path d="M-136.993,992.325c5.667-8.457,10.961-16.671,15.107-26.018.046-.105.225-.029.184.078-3.494,9.288-8.387,18.7-15.008,26.16A.182.182,0,0,1-136.993,992.325Z" transform="translate(140.562 -943.848)" fill="#263238"/><path d="M-132.907,970.862c2.347-4.152,4.823-8.2,7.032-12.43.063-.118.225-.015.175.1a64.715,64.715,0,0,1-6.846,12.541A.21.21,0,0,1-132.907,970.862Z" transform="translate(144.007 -950.494)" fill="#263238"/><path d="M-133.4,966.13a.037.037,0,0,1,0,.074A.037.037,0,0,1-133.4,966.13Z" transform="translate(143.586 -943.955)" fill="#263238"/></g></g><g transform="translate(11.024 12.864)"><path d="M-131.116,1026.8a86.585,86.585,0,0,1-1.989,16.765c.088.607.175,1.211.264,1.836a79.949,79.949,0,0,0,3-18.689.573.573,0,0,0,.026-.577l0-.019a123.8,123.8,0,0,0-1.879-25.321c-2.635-15.64-8.392-30.649-19.3-42.372a.778.778,0,0,0-1.2.249c-4.4,11.191-2.867,24.545.883,35.71a65.327,65.327,0,0,0,8.649,16.96C-138.926,1016.6-134.156,1021.053-131.116,1026.8Z" transform="translate(154.881 -958.231)" fill="#7ac4e2"/><g transform="translate(4.743 5.319)"><path d="M-151.876,961.226c10.336,16.778,17.53,36.667,18.409,56.485.015.35-.575.444-.625.085-.245-1.781-.516-3.545-.8-5.3l-.018-.007c-4.276-4.1-8.667-8.417-11.73-13.536-.053-.089.077-.2.147-.113,3.721,4.252,7.192,8.608,11.394,12.4-.741-4.381-1.617-8.693-2.657-12.943-.277-.317-.546-.642-.817-.961-.179-.21.12-.516.306-.306l.249.275a149.491,149.491,0,0,0-5.406-17.159c-2.631-3.14-5.572-5.852-7.489-9.633a.079.079,0,0,1,.136-.079c1.541,2.163,3.033,4.338,4.781,6.344.7.8,1.462,1.547,2.183,2.327a131.921,131.921,0,0,0-8.463-17.64A.232.232,0,0,1-151.876,961.226Z" transform="translate(152.309 -961.116)" fill="#263238"/><path d="M-150.828,972.427c3.343,4.5,7.15,8.787,10.255,13.435.09.133-.105.269-.216.166-3.99-3.745-7.367-8.857-10.264-13.47C-151.144,972.414-150.924,972.3-150.828,972.427Z" transform="translate(153.35 -951.621)" fill="#263238"/><path d="M-145.04,980.268l.142.142a.108.108,0,0,1-.153.153l-.142-.142A.108.108,0,0,1-145.04,980.268Z" transform="translate(158.285 -944.986)" fill="#263238"/></g></g><g transform="translate(0 49.533)"><path d="M-160.856,979.132c.83,8.63,5.371,18.94,10.907,25.592a27.166,27.166,0,0,0,8.846,6.9c3.831,1.9,7.841,4.078,11.805,5.634a77.441,77.441,0,0,1,4.18,14.847c.127-.433.254-.883.383-1.316-2.544-21.852-16.685-40.53-34.774-52.521A.878.878,0,0,0-160.856,979.132Z" transform="translate(160.861 -978.12)" fill="#7ac4e2"/><g transform="translate(6.209 7.203)"><path d="M-157.449,982.293c-.127-.112.046-.343.184-.24a74.015,74.015,0,0,1,23.048,28.406c.131.3-.278.56-.45.262-.841-1.473-1.7-2.906-2.57-4.314l-.011,0c-4.13-.776-8.038-3.682-11.1-6.44-.083-.076.041-.2.124-.124a25.427,25.427,0,0,0,5.223,3.671c1.683.854,3.5,1.392,5.247,2.078-1.53-2.43-3.125-4.759-4.79-7.017a48.181,48.181,0,0,1-12.408-6.975c-.116-.087-.013-.278.116-.2a123.87,123.87,0,0,0,11.532,6.165,103.157,103.157,0,0,0-8.142-9.493c-1.4-.741-2.826-1.484-4.185-2.277-.111-.064-.039-.254.089-.212a15.023,15.023,0,0,1,3.212,1.578C-153.966,985.512-155.647,983.882-157.449,982.293Z" transform="translate(157.493 -982.027)" fill="#263238"/><path d="M-157.182,986.271a5.165,5.165,0,0,1,.7.5c.066.057-.018.144-.087.112a4.857,4.857,0,0,1-.726-.411C-157.423,986.391-157.307,986.192-157.182,986.271Z" transform="translate(157.612 -978.461)" fill="#263238"/></g></g><g transform="translate(14.789 88.794)"><g transform="translate(0 6.959)"><path d="M-103.274,1058.281h-49.565l4-45.136.878-9.955h39.805l.878,9.955Z" transform="translate(152.839 -1003.189)" fill="#ffa06d"/><path d="M-109.107,1013.144h-41.562l.878-9.955h39.805Z" transform="translate(154.67 -1003.189)" fill="#ff8a5b"/></g><rect width="44.548" height="9.851" transform="translate(2.509)" fill="#ffcd91"/></g></g><g transform="translate(-153.978 956.792)"><g transform="translate(105.41 89.667)"><g transform="translate(46.18 74.69)"><path d="M-64.733,1146.946c3-1.1,70.776-55.264,72.055-58.963.494-1.4-6.82-11.732-16.011-23.964-1.984-2.642-4.049-5.358-6.163-8.1-13.7-17.847-28.645-36.463-28.645-36.463l-45.443,36.1,29.9,35.469,6.556,7.792s-16.674,32.344-17.64,36.551S-67.733,1148.047-64.733,1146.946Z" transform="translate(88.941 -1019.453)" fill="#ffcd91"/><path d="M-73.267,1130.26c3-1.1,70.776-55.265,72.055-58.963.592-1.709-10.325-16.6-22.174-32.067l-44.19,35.107,6.556,7.792s-16.674,32.344-17.64,36.551S-76.267,1131.361-73.267,1130.26Z" transform="translate(97.475 -1002.767)" fill="#fff"/><g transform="translate(18.241 44.566)"><path d="M-73.267,1126.552c3-1.1,70.776-55.264,72.055-58.963.494-1.4-6.82-11.731-16.011-23.964l-43.8,34.8s-16.674,32.344-17.64,36.551S-76.267,1127.653-73.267,1126.552Z" transform="translate(79.234 -1043.625)" fill="#ea526f"/><g transform="translate(0 15.378)"><g transform="translate(2.951)"><path d="M-76.4,1111.648c11.14-9.36,56.946-46.055,68.668-54.459.094-.07.144-.007.055.07-10.837,9.517-56.939,45.841-68.574,54.575C-76.5,1112.018-76.638,1111.845-76.4,1111.648Z" transform="translate(78.226 -1047.585)" fill="#263238"/><path d="M-77.414,1080.377a11.682,11.682,0,0,1,9.014-2.657,11.321,11.321,0,0,1,7.388,4.036c.052.07-.072.172-.138.111a13.5,13.5,0,0,0-16.149-1.346A.092.092,0,0,1-77.414,1080.377Z" transform="translate(77.447 -1030.33)" fill="#263238"/><path d="M-71.008,1067.427c4.5-3.7,11.053-6.306,16.849-4.845.225.057.142.374-.048.413a80.509,80.509,0,0,0-16.431,5.054A.366.366,0,0,1-71.008,1067.427Z" transform="translate(82.767 -1043.357)" fill="#263238"/><path d="M-72.317,1069.691c4.5-3.7,11.051-6.305,16.849-4.845.225.057.14.374-.05.413a80.564,80.564,0,0,0-16.431,5.053A.365.365,0,0,1-72.317,1069.691Z" transform="translate(81.661 -1041.447)" fill="#263238"/><path d="M-73.628,1071.955c4.5-3.7,11.051-6.305,16.849-4.845.225.057.14.374-.05.413a80.564,80.564,0,0,0-16.431,5.053A.365.365,0,0,1-73.628,1071.955Z" transform="translate(80.555 -1039.537)" fill="#263238"/><path d="M-74.94,1074.219c4.5-3.7,11.051-6.305,16.849-4.845.225.057.142.374-.05.413a80.571,80.571,0,0,0-16.431,5.053A.366.366,0,0,1-74.94,1074.219Z" transform="translate(79.449 -1037.627)" fill="#263238"/><path d="M-44.594,1053.091c5.114-4.062,11.436,3.877,6.315,7.948S-49.716,1057.16-44.594,1053.091Z" transform="translate(103.565 -1051.966)" fill="#fff"/></g><path d="M-73.259,1068.646c4.985,1.2,10.315.208,15.343-.138a.712.712,0,0,0,.525-1.021.154.154,0,0,0,.037-.243,30.549,30.549,0,0,0-13.424-8.326c-3-.848-7.4-.395-8.171,3.354C-79.683,1065.816-76.169,1067.942-73.259,1068.646Zm-3.221-3.6c-3.5-5.31,4-5.076,6.187-4.364a33,33,0,0,1,4.113,1.74,91.28,91.28,0,0,1,7.946,4.69c-2.48.019-4.936.251-7.412.361C-68.6,1067.608-74.55,1067.973-76.48,1065.048Z" transform="translate(79.047 -1046.408)" fill="#263238"/><path d="M-52.828,1055.273c-2.73-2.684-6.63-.619-8.656,1.755a30.535,30.535,0,0,0-6.53,14.385.153.153,0,0,0,.166.181.712.712,0,0,0,1,.557c4.371-2.506,9.357-4.643,12.83-8.415C-51.986,1061.532-50.247,1057.812-52.828,1055.273ZM-60.992,1067c-2.122,1.285-4.292,2.458-6.364,3.82a91.335,91.335,0,0,1,4-8.317,32.851,32.851,0,0,1,2.452-3.732c1.423-1.809,7.528-6.173,7.568.186C-53.315,1062.46-58.465,1065.465-60.992,1067Z" transform="translate(88.353 -1050.244)" fill="#263238"/></g></g></g><path d="M-113.705,1020.313c3.114,23.61,61.3,91.764,68.019,99.581l1.532,1.779,48.128-36.986-.555-.714-42.381-55.493,126.414,12.714-32.744-36.912s-3.894,2.246-11.988,1.064c-27.9-4.084-106.053-26.99-120.885-26.392C-97.3,979.741-116.563,998.651-113.705,1020.313Z" transform="translate(113.989 -978.942)" fill="#37474f"/><path d="M-81.491,994.634a56.368,56.368,0,0,1,4.371,5.6c1.5,1.964,3.02,3.909,4.515,5.874l.044.059c-.265-.575-.525-1.154-.8-1.724-.944-1.956-1.7-3.977-2.817-5.846a.1.1,0,0,1,.175-.107c1.149,1.857,2.48,3.621,3.462,5.575.463.92.9,1.849,1.307,2.8.223.516.454,1.036.653,1.562a7.644,7.644,0,0,1,.277.756c.669.913,1.331,1.829,1.975,2.762,1.427,2.067,2.686,4.252,4.132,6.3.077.111-.1.212-.177.109-1.462-1.928-3.1-3.726-4.587-5.64-1.512-1.949-2.948-3.951-4.364-5.968-1.383-1.969-2.738-3.956-4.117-5.927a59.036,59.036,0,0,1-4.169-6.088C-81.651,994.654-81.557,994.567-81.491,994.634Z" transform="translate(141.297 -965.723)" fill="#263238"/></g><g transform="translate(117.959)"><g transform="translate(16.997 48.93)"><g transform="translate(0 0.654)"><path d="M28.19,970.21C21.255,997.4,7.47,1029.857,1.8,1035.041c-7.177,6.56-53.9,17.781-56.223,17.976-5.749.441-16.245-41.114-10.118-41.85,9.327-1.119,43.17-2.148,45.246-4.178,2.153-2.126,16.849-19.77,32.006-39.744C23.169,953.443,32.493,953.342,28.19,970.21Z" transform="translate(124.59 -957.201)" fill="#f7a9a0"/><g transform="translate(0 53.323)"><path d="M-23.142,1026.5c-.691.33-10.509,4.976-16.549,6.571-4.506,1.189-17.57,4.266-19.373-.564-1.233-3.293,6.235-6.007,11.475-8.044,2.76-1.073,6.195-3.852,5.431-5.629-1.333-3.1-8.442-.188-13.133,2.388-9.069,4.984-21.21,14.055-26.566,9.384-2.023-1.764.45-4.832,4.032-7.81-5.778,3.433-11.921,6.215-14.246,4.344-1.335-1.066-1.364-2.487-.568-4.089-1.772.529-3.322.38-4.377-.791-1.8-1.98-.835-4.818,1.261-7.7a2.21,2.21,0,0,1-1.656-1.145c-3.776-6.069,16.252-22.755,23.074-24.2,20.072-4.264,41.083-2.878,41.083-2.878C-25.565,992.791-23.126,1026.487-23.142,1026.5Z" transform="translate(97.963 -986.123)" fill="#f7a9a0"/><g transform="translate(2.047 5.2)"><path d="M-60.976,997.676a33.886,33.886,0,0,0-13.437,4.8c-5.138,3.219-8.59,7.047-12.93,10.881-.112.1.039.28.155.181,2.067-1.823,10.618-8.656,12.821-10.2a32.265,32.265,0,0,1,13.405-5.583C-60.908,997.75-60.925,997.669-60.976,997.676Z" transform="translate(104.842 -981.577)" fill="#263238"/><path d="M-58.07,993.035c-5.28,1.309-10.69,2.629-15.618,4.995-5.393,2.587-9.67,6.914-13.872,11.075q-3.783,3.747-7.4,7.662c-.1.109.044.289.153.181q6.4-6.452,13.179-12.511a42.688,42.688,0,0,1,14.34-8.564c3.029-1.071,6.134-1.91,9.235-2.743C-57.994,993.112-58.011,993.02-58.07,993.035Z" transform="translate(98.42 -985.494)" fill="#263238"/><path d="M-61.928,988.944c-5.122.924-9.591,1.713-14.169,4.336-6.06,3.472-11.975,9.425-14.051,11.536-2.292,2.332-4.5,4.738-6.68,7.179-.089.1.081.256.173.156a169.772,169.772,0,0,1,15.917-15.024,33.692,33.692,0,0,1,8.829-5.442,60.564,60.564,0,0,1,9.985-2.707A.018.018,0,0,0-61.928,988.944Z" transform="translate(96.852 -988.944)" fill="#263238"/></g></g></g><g transform="translate(67.964)"><path d="M-61.1,1009.425-47.907,1055s38.92-10.107,46.168-17.557,21.228-46.474,25.52-65.449-5.36-18.734-14.508-6.925-31.909,40.416-33.157,41.018S-61.1,1009.425-61.1,1009.425Z" transform="translate(61.1 -956.844)" fill="#25ced1"/><path d="M-48.454,1010.935c-1.6-5.374-3.247-10.74-4.648-16.173-.8-3.088-1.611-6.173-2.378-9.268-.03-.116.168-.183.206-.066,1.822,5.33,3.634,10.681,5.212,16.094,1.567,5.385,3.182,10.76,4.681,16.167.852,3.073,1.608,6.161,2.273,9.287.013.061-.085.1-.109.035C-45.217,1021.736-46.843,1016.346-48.454,1010.935Z" transform="translate(65.838 -932.784)" fill="#124c64"/><path d="M-52.273,985.158c.1,0,.218-.022.319-.026a3.229,3.229,0,0,0,0,.378,17.5,17.5,0,0,0,1.134,5.964A18.667,18.667,0,0,0-47.7,996.7a12.979,12.979,0,0,0,4.8,3.663,18.915,18.915,0,0,0,5.9,1.486,33.976,33.976,0,0,0,4.864.127l.363-.015c.3-.011.6-.022.9-.048,2.046-.118,4.087-.352,6.13-.6a115.835,115.835,0,0,1,12.259-1.235,22.876,22.876,0,0,1,6.13.618,11.321,11.321,0,0,1,4.145,1.958l-.079.177a11.191,11.191,0,0,0-4.115-1.943,22.907,22.907,0,0,0-6.073-.592,119.981,119.981,0,0,0-12.244,1.265c-2.041.249-4.084.485-6.128.618-.2.007-.393.029-.6.037l-.348.013a33.2,33.2,0,0,1-5.24-.1,19.287,19.287,0,0,1-5.988-1.5,13.532,13.532,0,0,1-4.923-3.732,18.607,18.607,0,0,1-3.177-5.308,17.835,17.835,0,0,1-.852-2.979,20.3,20.3,0,0,1-.3-3.088A2.985,2.985,0,0,1-52.273,985.158Zm12.858,5.172a21.7,21.7,0,0,0,2.347,5.7,22.016,22.016,0,0,0,3.757,4.893c.378.365.769.714,1.174,1.049a1.912,1.912,0,0,0,.343.249,18.06,18.06,0,0,0,3.558,2.225,31.436,31.436,0,0,0,5.833,2.024c3.979,1,8.072,1.58,11.868,3.156a19.872,19.872,0,0,1,3.6,1.89.654.654,0,0,1,.1-.149,20.572,20.572,0,0,0-3.619-1.917c-3.826-1.589-7.933-2.181-11.9-3.184a30.5,30.5,0,0,1-5.791-2.028,19.142,19.142,0,0,1-3.3-2.03,2.7,2.7,0,0,1-.328-.251,17.657,17.657,0,0,1-1.368-1.2,21.452,21.452,0,0,1-3.713-4.853,21.658,21.658,0,0,1-2.316-5.645,23.077,23.077,0,0,1-.616-6.071.213.213,0,0,1,.011-.1,1.839,1.839,0,0,0-.291.024l0,.074A22.5,22.5,0,0,0-39.415,990.33Z" transform="translate(68.542 -933.863)" fill="#fff"/><path d="M-54.659,1050.468l1.315,4.534s38.928-10.113,46.173-17.55S14.059,990.974,18.351,972c3.14-13.874-1.182-17.482-7.3-13.8C-5.521,981-36.759,1024.256-54.659,1050.468Z" transform="translate(66.534 -956.847)" opacity="0.1"/></g></g><g transform="translate(131.146 48.556)"><path d="M47.257,1060.379c-.218.221-82.49-17.8-83.252-18.758-1.066-1.349,13.638-63.213,29.151-81.675,3.879-4.617,16.228-4.3,21.756.361C42.3,983.4,48.037,1059.581,47.257,1060.379Z" transform="translate(36.05 -956.644)" fill="#25ced1"/></g><g transform="translate(92.364 50.698)"><g transform="translate(0 0.729)"><path d="M14.137,963.657c17.058,13.121,62.016,66.17,52.619,78.757-9.465,12.677-73.808,8.4-92.6,2.979-5.592-1.611,8.754-37.178,14.72-38.94,4.967-1.466,32.855,6.1,33.356,4.488.568-1.825-5.607-13.586-15.572-35.076C-4.829,951.085,6.6,957.86,14.137,963.657Z" transform="translate(82.371 -958.201)" fill="#ffa06d"/><g transform="translate(0 37.456)"><g transform="translate(0.398)"><path d="M-16.511,983.145c-12.884.33-16.141,2.393-27.163-3.1-7.233-3.608-12.64-.536-7.727,6.283,8.038,11.153,24.752,14.219,30.852,13.614Z" transform="translate(59.888 -978.517)" fill="#ffcd91"/><g transform="translate(0 4.545)"><path d="M21.969,987.655S6.517,982.138-7.25,981.132c-9.519-.7-30.4.1-46.627,23.513-3.848,5.555-5.395,16.2,4.187,9.41,6.805-4.821,9.665-9.936,14.134-12.019,0,0-.36,13.772,5.356,17.412a124.6,124.6,0,0,0,15.611,8.444,26.359,26.359,0,0,0,1.842-2.78s5.658,2.9,15,.422Z" transform="translate(56.869 -980.981)" fill="#ffcd91"/></g><g transform="translate(13.229 5.48)"><path d="M-22.494,981.489c-4,3.007-12.367,9.519-17.36,17.229-5.544,8.562-13.918,26.551-7.555,30.579,4.666,2.954,8.468-3.634,8.468-3.634s-1.9,8.166,2.9,9.912c4.371,1.591,7.008-3.68,7.008-3.68s-.3,5.15,4.209,5.872c5.42.868,5.155-10.068,11.405-13.934C-12.013,1022.965-22.494,981.489-22.494,981.489Z" transform="translate(49.694 -981.489)" fill="#ffcd91"/><g transform="translate(10.65 21.563)"><path d="M-34.7,993.2c-3.3,3.444-8.78,13.186-9.215,22.41-.009.21.142.33.192.14a100.064,100.064,0,0,1,9.1-22.5C-34.593,993.2-34.665,993.161-34.7,993.2Z" transform="translate(43.917 -993.185)" fill="#263238"/><g transform="translate(9.835 5.847)"><path d="M-30.722,996.374c-2.539,3.263-7.74,13.557-7.861,22.919,0,.21.159.319.2.127a107.353,107.353,0,0,1,7.745-23C-30.613,996.371-30.688,996.332-30.722,996.374Z" transform="translate(38.583 -996.356)" fill="#263238"/></g></g></g></g><path d="M-35.39,992.359c-3.9,1.888-6.241,4.344-9.307,7.321a57.135,57.135,0,0,1-4.733,4.224c-1.523,1.18-3.761,2.955-5.776,1.834-1.123-.625-1.344-2.061-1.311-3.228a16.621,16.621,0,0,1,1.482-5.042c.03-.061-.074-.114-.105-.053a23.74,23.74,0,0,0-1.777,4.567,5.538,5.538,0,0,0,.159,3.265c.977,2.163,3.695,2.019,5.483,1.084a18.318,18.318,0,0,0,2.972-2.1c.9-.736,1.764-1.516,2.609-2.314,1.733-1.641,3.37-3.381,5.083-5.041a54.283,54.283,0,0,1,5.306-4.392C-35.236,992.433-35.313,992.323-35.39,992.359Z" transform="translate(57.085 -966.844)" fill="#263238"/><path d="M-47.621,1008.223a130.055,130.055,0,0,1,6.305-15.78.059.059,0,0,0-.1-.065c-2.7,3.562-6.5,12.467-7.277,15.245-.761,2.745-1.586,6.232-1.115,9.075.708,4.288,3.687,4.629,4.773,4.666a5.634,5.634,0,0,0,3.551-1.2,11.357,11.357,0,0,0,2.8-3.656c.033-.066-.057-.133-.1-.066-1.206,1.934-3.4,4.012-5.78,4.091a3.96,3.96,0,0,1-2.889-.992,5.119,5.119,0,0,1-1.256-3.341A23.763,23.763,0,0,1-47.621,1008.223Z" transform="translate(63.11 -966.844)" fill="#263238"/></g></g><g transform="translate(65.399)"><path d="M-8.186,1007.208l-12.941,45.043s80.53,4.591,85-10.033-34.446-62.532-50.583-75.689c-18.7-15.247-19.709-8.842-13.619,6.407C6.04,988.9,17.019,1011.7,17.019,1011.7Z" transform="translate(22.023 -957.806)" fill="#25ced1"/><path d="M10.226,1000.84a19.037,19.037,0,0,0,5.9-1.482,32.97,32.97,0,0,0,4.331-2.224,2.264,2.264,0,0,0,.319-.188c.262-.146.524-.306.771-.466,1.729-1.075,3.416-2.253,5.087-3.444,1.949-1.381,3.881-2.819,5.859-4.172a1.665,1.665,0,0,1,.144.175c-1.976,1.366-3.909,2.806-5.857,4.2-1.67,1.208-3.357,2.384-5.1,3.475-.159.1-.319.2-.494.3-.1.059-.2.131-.319.19a35.88,35.88,0,0,1-4.637,2.4,18.935,18.935,0,0,1-5.988,1.527,11.759,11.759,0,0,1-1.438.029c-.044-.1-.088-.19-.131-.291A13.655,13.655,0,0,0,10.226,1000.84ZM-5.355,963.153a17.306,17.306,0,0,0-2.471-1.759c.029.146.057.277.1.435A16.132,16.132,0,0,1-5.558,963.4a17.955,17.955,0,0,1,3.837,4.709,31.961,31.961,0,0,1,2.456,5.6c.684,1.934,1.28,3.911,1.934,5.857a43.034,43.034,0,0,0,2.354,5.712,22.8,22.8,0,0,0,3.488,5.087,22.093,22.093,0,0,0,4.781,3.91,22.3,22.3,0,0,0,5.64,2.515,14.242,14.242,0,0,0,1.527.348,3.3,3.3,0,0,0,.407.074,19.361,19.361,0,0,0,4.2.247,29.924,29.924,0,0,0,6.09-.988c2.021-.509,4.012-1.134,6.018-1.687-.044-.057-.087-.1-.131-.16-1.976.524-3.953,1.134-5.944,1.643a30.293,30.293,0,0,1-6.047.973,18.1,18.1,0,0,1-3.866-.218,2.1,2.1,0,0,1-.407-.072,13.494,13.494,0,0,1-1.787-.393,22.084,22.084,0,0,1-5.568-2.5A21.59,21.59,0,0,1,8.7,990.187a23.353,23.353,0,0,1-3.429-5.044,41.192,41.192,0,0,1-2.327-5.682c-.653-1.934-1.235-3.91-1.917-5.857a32.661,32.661,0,0,0-2.471-5.655,19.109,19.109,0,0,0-1.744-2.572A18.271,18.271,0,0,0-5.355,963.153Zm-5.363,44.169c0,.625.015,1.237.059,1.862.015.057.015.129.028.2a24.036,24.036,0,0,0,.669,4.054,21.979,21.979,0,0,0,2.31,5.714,20.547,20.547,0,0,0,3.881,4.781c3.038,2.821,6.7,4.783,10.074,7.108a29.757,29.757,0,0,1,4.724,3.9,18.61,18.61,0,0,1,2.4,3.051,1.652,1.652,0,0,1,.234.35,16.936,16.936,0,0,1,.872,1.584,21.651,21.651,0,0,1,1.8,5.843,23.063,23.063,0,0,1,.334,3.866h.262a22.015,22.015,0,0,0-.348-3.91,22.088,22.088,0,0,0-1.846-5.9c-.218-.464-.465-.916-.726-1.366-.074-.116-.146-.247-.218-.363a19.8,19.8,0,0,0-2.6-3.315,29.973,29.973,0,0,0-4.766-3.908c-3.387-2.327-7.036-4.289-10.059-7.065a20.234,20.234,0,0,1-3.866-4.738,22.193,22.193,0,0,1-2.31-5.667,24,24,0,0,1-.712-4.187c0-.072-.015-.146-.015-.2-.044-.568-.059-1.119-.059-1.687a20.968,20.968,0,0,1,.175-2.7l-.1-.03A24.77,24.77,0,0,0-10.718,1007.322Zm-3.9,18.736a10.993,10.993,0,0,0,3.969,4.681,23.176,23.176,0,0,0,5.551,2.7,120.612,120.612,0,0,0,11.932,3.081c1.991.466,3.982.961,5.946,1.542.289.087.581.173.872.277a1.493,1.493,0,0,1,.348.116,34.562,34.562,0,0,1,4.521,1.786,18.823,18.823,0,0,1,5.013,3.431,13.242,13.242,0,0,1,3.256,5.087,2.355,2.355,0,0,1,.1.319c.1-.013.2-.013.321-.028l-.131-.393a13.5,13.5,0,0,0-3.343-5.19,19.17,19.17,0,0,0-5.1-3.488,36.64,36.64,0,0,0-4.854-1.888c-.118-.029-.249-.074-.365-.1l-.566-.173c-1.962-.6-3.968-1.077-5.974-1.541a121.977,121.977,0,0,1-11.9-3.037,22.954,22.954,0,0,1-5.507-2.66,10.794,10.794,0,0,1-3.91-4.593,12.346,12.346,0,0,1-.944-5.973,15.843,15.843,0,0,1,1.86-5.8c.857-1.656,1.888-3.241,2.891-4.825.029-.059.074-.116.1-.175a40.111,40.111,0,0,0,2.369-4.2l-.088-.015a39.077,39.077,0,0,1-2.3,4.012,1.5,1.5,0,0,1-.116.175c-1.032,1.626-2.094,3.241-2.994,4.956a15.733,15.733,0,0,0-1.9,5.857A12.56,12.56,0,0,0-14.614,1026.058Z" transform="translate(26.674 -954.778)" fill="#fff"/><g transform="translate(0 30.267)"><path d="M28.362,994.865a92.249,92.249,0,0,0-12.423-4.777A89.418,89.418,0,0,0,3.1,987.249c-2.476-.387-4.963-.655-7.452-.938a.059.059,0,0,0-.011.118,114.856,114.856,0,0,1,12.948,2.723q6.363,1.659,12.655,3.549c2.375.714,4.716,1.539,7.065,2.332A.089.089,0,0,0,28.362,994.865Z" transform="translate(36.12 -964.024)" fill="#124c64"/><path d="M-13.929,993.2c.407.039,22.8,3.536,23.551,3.745-.142-.306-5.819-10.966-6.663-12.524-.085-.157-.16-.313-.243-.47-.509-.673-1.021-1.342-1.5-2.037q-.926-1.333-1.842-2.675c-.02-.026.02-.059.041-.031.651.861,1.305,1.722,1.952,2.589.3.4.584.809.868,1.221-.566-1.106-1.119-2.218-1.672-3.333-.881-1.781-1.705-3.584-2.524-5.395-.026-.059.061-.094.09-.039,1.672,3.107,3.44,6.158,5.122,9.259S11.3,998.008,11.265,998c-.033.039-24.752-4.382-25.235-4.5A.154.154,0,0,1-13.929,993.2Z" transform="translate(27.954 -974.222)" fill="#124c64"/><path d="M-10.563,1010.2c1.412-5.022,2.788-10.057,4.388-15.028.909-2.825,1.8-5.654,2.74-8.47.035-.107.223-.061.2.05-1.219,5.1-2.454,10.207-3.907,15.247-1.445,5.015-2.848,10.043-4.358,15.039q-1.289,4.261-2.832,8.435a.054.054,0,0,1-.1-.027C-13.39,1020.3-11.988,1015.258-10.563,1010.2Z" transform="translate(27.664 -963.743)" fill="#124c64"/><path d="M-21.611,1012.076c.566-1.414,1.241-3.431,1.864-4.819.164-.367.431-.341.313.035-.4,1.265-.671,2.658-1.06,3.953,1.126.037,2.253.05,3.379.1,1.3.055,2.605.118,3.907.168q3.827.152,7.655.223,7.752.146,15.507-.039a299.66,299.66,0,0,0,31.016-2.187c2.876-.369,5.747-.793,8.6-1.305a83.931,83.931,0,0,0,8.38-1.8c.074-.022.111.105.037.135A47.664,47.664,0,0,1,50.8,1008.7q-3.852.832-7.749,1.44c-5.172.795-10.384,1.314-15.6,1.693q-15.517,1.126-31.1.94-4.358-.047-8.717-.2c-1.464-.05-2.931-.1-4.4-.179S-21.707,1012.315-21.611,1012.076Z" transform="translate(21.613 -947.077)" fill="#124c64"/></g></g></g><g transform="translate(0 96.032)"><g transform="translate(43.116 58.686)"><rect width="95.098" height="4.259" fill="#c7c7c7"/><path d="M-83.8,1014.225v4.259h64.643l-3.259-4.259Z" transform="translate(83.796 -1014.225)" fill="#a6a6a6"/></g><path d="M-6.784,1045.341H-99.466l-7.716-62.947H-14.5Z" transform="translate(107.182 -982.395)" fill="#c7c7c7"/><path d="M-71.731,1002.046a5.523,5.523,0,0,1-5.542,5.642,5.764,5.764,0,0,1-5.741-5.642,5.524,5.524,0,0,1,5.544-5.64A5.761,5.761,0,0,1-71.731,1002.046Z" transform="translate(127.571 -970.573)" fill="#fff"/></g><g transform="translate(142.02)"><g transform="translate(13.335 33.029)"><g transform="translate(0.009)"><path d="M-14.033,981.305c3.767-.05,11.165-7.524,13.868-13.619.184-.42-.782-4.58-1.715-9.69-.553-3.1-1.1-6.573-1.366-9.773l-19.668,6.556a51.168,51.168,0,0,1,2.966,12.13,7.152,7.152,0,0,1-.028,1.326c0,.061-.013.135-.011.219C-20.183,970.982-19.931,981.383-14.033,981.305Z" transform="translate(22.914 -948.222)" fill="#ffcd91"/></g><path d="M-19.967,968.018a1.641,1.641,0,0,0-.017.219,12.79,12.79,0,0,0,2.078-.064c11.392-1.215,13.022-15.358,13.241-19.694l-18.254,6.079a51.627,51.627,0,0,1,2.983,12.137A8.72,8.72,0,0,1-19.967,968.018Z" transform="translate(22.919 -948.005)" fill="#263238"/></g><path d="M.228,938.264c3.713,6.481,4.626,27.44.7,33.055-5.7,8.144-17.314,11.448-24.811,4.075-7.266-7.146-7.97-34.483-3.368-39.822C-20.473,927.709-5.26,928.692.228,938.264Z" transform="translate(30.152 -930.307)" fill="#ffcd91"/><g transform="translate(1.057 19.429)"><path d="M-19.455,943.912a18.317,18.317,0,0,1-1.809-.489,3.029,3.029,0,0,1-1.75-.85.965.965,0,0,1,.068-1.176,2.392,2.392,0,0,1,2.386-.426,3.516,3.516,0,0,1,2.133,1.364A1.03,1.03,0,0,1-19.455,943.912Z" transform="translate(34.975 -940.846)" fill="#263238"/><path d="M-28.294,944.622a17.622,17.622,0,0,0,1.774-.6,3.039,3.039,0,0,0,1.691-.962.966.966,0,0,0-.144-1.169,2.392,2.392,0,0,0-2.41-.269,3.509,3.509,0,0,0-2.039,1.5A1.029,1.029,0,0,0-28.294,944.622Z" transform="translate(29.579 -940.359)" fill="#263238"/><path d="M-19.786,951.446c-.313.356-.616.835-1.125.916a3.723,3.723,0,0,1-1.541-.241.05.05,0,0,0-.055.077,1.9,1.9,0,0,0,1.846.631,1.5,1.5,0,0,0,1.016-1.329C-19.631,951.416-19.742,951.394-19.786,951.446Z" transform="translate(35.536 -931.926)" fill="#263238"/><g transform="translate(5.717 0.585)"><path d="M-18.244,955.99a4.8,4.8,0,0,1-3.042,2.375,5.968,5.968,0,0,1-1.72.208,1.532,1.532,0,0,1-.332-.013c-.1,0-.2-.009-.312-.024a.352.352,0,0,1-.308-.293v-.011a.646.646,0,0,1,0-.146l0-.009-.007-.124c-.111-1.084-.129-2.742-.129-2.742-.382.229-2.334,1.29-2.345.721-.072-4.714-.151-9.956.773-14.661a.13.13,0,0,1,.258.017c.249,4.526-.3,9.067-.122,13.619a8.446,8.446,0,0,1,2.212-.857c.157.031-.022,3.2.068,3.687a.137.137,0,0,0,.013.05c1.84.1,3.173-.557,4.851-1.914C-18.287,955.785-18.167,955.872-18.244,955.99Z" transform="translate(26.478 -941.163)" fill="#263238"/></g><g transform="translate(9.787 15.375)"><path d="M-24.27,951.207a5.708,5.708,0,0,0,2.412,1.595,2.576,2.576,0,0,0,1.563-.018c1.1-.382,1.053-1.416.78-2.284a6.146,6.146,0,0,0-.6-1.315A7.4,7.4,0,0,1-24.27,951.207Z" transform="translate(24.27 -949.185)" fill="#263238"/><path d="M-22.962,952.2a2.576,2.576,0,0,0,1.563-.018c1.1-.382,1.053-1.416.78-2.284A2.655,2.655,0,0,0-22.962,952.2Z" transform="translate(25.374 -948.583)" fill="#ff9abb"/></g><g transform="translate(12.553 5.124)"><path d="M-22.75,944.508c.006-.054.116.055.122.112.1,1.4.459,2.987,1.77,3.315.041.011.044.081,0,.079C-22.425,947.963-22.875,945.852-22.75,944.508Z" transform="translate(22.77 -942.892)" fill="#263238"/><path d="M-21.662,943.651c2.227-.409,2.882,4.075.819,4.453C-22.874,948.478-23.528,943.994-21.662,943.651Z" transform="translate(22.774 -943.625)" fill="#263238"/></g><g transform="translate(1.479 6.122)"><path d="M-26.74,944.855c-.018-.052-.1.081-.088.138.258,1.381.321,3.005-.865,3.66-.035.02-.02.089.024.076C-26.17,948.277-26.275,946.122-26.74,944.855Z" transform="translate(29.675 -943.595)" fill="#263238"/><path d="M-27.3,944.17c-2.257.173-1.744,4.675.348,4.513C-24.9,948.524-25.413,944.024-27.3,944.17Z" transform="translate(28.777 -944.166)" fill="#263238"/></g></g><path d="M3.375,959.284l-.015,0c-1.141.157-3.108-3.612-3.757-3.643a2.806,2.806,0,0,1-1.936-.972c-.16-.441-1.047-7.828-2.255-11.473s-5.225-6.348-8.911-5.638-5.446,4.347-8.086,4.342c-2.659-.018-3.831-2.539-5.435-1.991-1.587.557-2.793,3.562-3.046,6.11.347-4.807,1.265-8.745,2.736-10.454,6.788-7.862,22-6.871,27.488,2.7C2.411,942.178,3.624,951.384,3.375,959.284Z" transform="translate(30.224 -930.307)" fill="#263238"/><g transform="translate(29.816 18.775)"><path d="M-13.976,947.051s3.217-7.482,6.519-6.466,1.829,11.2-1.385,13.217a3.616,3.616,0,0,1-5.138-.922Z" transform="translate(13.98 -940.491)" fill="#ffcd91"/><path d="M-8.761,942.121c.053-.017.081.059.037.089-2.236,1.5-3.053,4.025-3.466,6.558a2,2,0,0,1,2.813-1.141c.074.033.033.146-.039.146a2.224,2.224,0,0,0-2.24,1.256A10.879,10.879,0,0,0-12.4,951.2c-.068.242-.487.206-.455-.063l.009-.061C-13.557,947.982-12.039,943.126-8.761,942.121Z" transform="translate(14.79 -939.117)" fill="#263238"/></g></g></g><g transform="translate(0 105.908)"><g transform="translate(0 100.052)"><path d="M-171.063,1066.521c1.108,3,55.493,70.6,59.2,71.863,1.4.489,11.709-6.857,23.911-16.088,2.636-1.993,5.345-4.067,8.085-6.189,17.8-13.754,36.369-28.763,36.369-28.763l-36.247-45.325-35.371,30.012-7.771,6.582s-32.4-16.569-36.608-17.522S-172.172,1063.523-171.063,1066.521Z" transform="translate(171.162 -1042.018)" fill="#ffcd91"/><path d="M-171.063,1057.867c1.108,3,55.493,70.6,59.2,71.863,1.711.586,16.571-10.378,32-22.277l-35.249-44.077-7.771,6.582s-32.4-16.569-36.608-17.522S-172.172,1054.869-171.063,1057.867Z" transform="translate(171.162 -1033.364)" fill="#fff"/><g transform="translate(0 18.371)"><path d="M-171.063,1057.867c1.108,3,55.493,70.6,59.2,71.863,1.4.489,11.709-6.857,23.911-16.088l-34.936-43.684s-32.4-16.569-36.608-17.522S-172.172,1054.869-171.063,1057.867Z" transform="translate(171.162 -1051.735)" fill="#ea526f"/><g transform="translate(3.317)"><g transform="translate(0 3.058)"><path d="M-169.1,1054.71c9.4,11.106,46.238,56.8,54.68,68.489.068.1.007.146-.07.057-9.554-10.806-46.024-56.791-54.8-68.4C-169.469,1054.614-169.3,1054.474-169.1,1054.71Z" transform="translate(169.363 -1052.842)" fill="#263238"/><path d="M-160.955,1053.674a11.679,11.679,0,0,1,2.686,9,11.314,11.314,0,0,1-4.012,7.4c-.07.052-.171-.072-.111-.138a13.5,13.5,0,0,0,1.294-16.153A.091.091,0,0,1-160.955,1053.674Z" transform="translate(175.228 -1053.641)" fill="#263238"/><path d="M-147.211,1060.036c3.711,4.484,6.342,11.031,4.9,16.833-.055.225-.374.142-.413-.048a80.494,80.494,0,0,0-5.107-16.414A.366.366,0,0,1-147.211,1060.036Z" transform="translate(187.5 -1048.36)" fill="#263238"/><path d="M-149.479,1058.731c3.711,4.486,6.34,11.031,4.9,16.835-.055.225-.374.142-.413-.05A80.5,80.5,0,0,0-150.1,1059.1.366.366,0,0,1-149.479,1058.731Z" transform="translate(185.587 -1049.459)" fill="#263238"/><path d="M-151.747,1057.429c3.711,4.484,6.34,11.031,4.9,16.833-.055.225-.374.142-.413-.048a80.5,80.5,0,0,0-5.107-16.414A.366.366,0,0,1-151.747,1057.429Z" transform="translate(183.673 -1050.559)" fill="#263238"/><path d="M-154.015,1056.124c3.711,4.486,6.34,11.031,4.9,16.835-.055.225-.374.142-.413-.05a80.611,80.611,0,0,0-5.107-16.414A.366.366,0,0,1-154.015,1056.124Z" transform="translate(181.76 -1051.659)" fill="#263238"/><path d="M-130.837,1086.4c4.08,5.1-3.84,11.449-7.926,6.34S-134.922,1081.294-130.837,1086.4Z" transform="translate(194.222 -1027.591)" fill="#fff"/></g><path d="M-146.275,1057.788c-1.189,4.989-.177,10.318.188,15.343a.708.708,0,0,0,1.021.52.153.153,0,0,0,.243.039,30.552,30.552,0,0,0,8.284-13.453c.837-3.005.371-7.393-3.379-8.158C-143.465,1051.355-145.582,1054.877-146.275,1057.788Zm3.588-3.232c5.3-3.52,5.089,3.982,4.382,6.172a33,33,0,0,1-1.726,4.119,91.587,91.587,0,0,1-4.665,7.963c-.028-2.482-.267-4.935-.387-7.412C-145.222,1062.447-145.607,1056.5-142.687,1054.556Z" transform="translate(188.367 -1051.982)" fill="#263238"/><path d="M-129.365,1078.157c2.675-2.738.6-6.632-1.783-8.651a30.538,30.538,0,0,0-14.4-6.484.154.154,0,0,0-.181.168.71.71,0,0,0-.553,1c2.518,4.364,4.672,9.342,8.455,12.8C-135.622,1079.018-131.894,1080.746-129.365,1078.157Zm-11.748-8.127c-1.292-2.117-2.472-4.283-3.84-6.352a91.616,91.616,0,0,1,8.33,3.973,32.823,32.823,0,0,1,3.739,2.439c1.814,1.416,6.2,7.507-.162,7.568C-136.551,1077.694-139.573,1072.552-141.113,1070.03Z" transform="translate(188.76 -1042.67)" fill="#263238"/></g></g></g><g transform="translate(57.932)"><path d="M-139.74,1110.976l37.722,50.893,127.29-88.325,12.273-8.522s3.475,2.338,8.708,5.232c7.266,4.016,17.915,9.1,27.336,10.49,15.8,2.338,42.187,2.087,55.506-15.723,11.217-15,5.125-34.562,5.125-34.562l-17.351-7.451S75.809,988.8,49.212,987.768c-11.3-.448-27.746,8.112-42.98,17.058S-139.74,1110.976-139.74,1110.976Z" transform="translate(139.74 -987.751)" fill="#37474f"/><path d="M-43.582,1041.863s3.475,2.338,8.708,5.232c9.248-11.073,28.83-31.182,29.423-31.9Z" transform="translate(220.867 -964.592)" fill="#263238"/><path d="M-8.687,1000.667c2.454,1.705,4.829,3.516,7.249,5.266,2.382,1.72,4.842,3.337,7.106,5.216,2.3,1.91,4.484,3.951,6.654,6.01,1.047.994,2.085,1.995,3.1,3.024a28.266,28.266,0,0,1,2.955,3.208c.077.109-.079.238-.181.172a33.3,33.3,0,0,1-3.289-2.677c-1.15-.966-2.286-1.947-3.429-2.921-2.207-1.875-4.456-3.7-6.659-5.581-2.187-1.87-4.215-3.914-6.379-5.806-2.319-2.028-4.764-3.914-7.172-5.832C-8.781,1000.711-8.737,1000.632-8.687,1000.667Z" transform="translate(250.251 -976.861)" fill="#263238"/><path d="M-134.824,1053.615c2.45,2.644,4.714,5.487,7,8.274s4.567,5.612,6.829,8.437c4.524,5.651,9.086,11.276,13.533,16.99,2.443,3.138,4.853,6.3,7.124,9.567.1.146-.131.31-.247.181-4.867-5.35-9.316-11.06-13.831-16.708s-9.029-11.328-13.466-17.052c-2.428-3.132-4.93-6.25-7.163-9.524C-135.137,1053.646-134.929,1053.5-134.824,1053.615Z" transform="translate(143.681 -932.217)" fill="#263238"/><path d="M-78.239,1070.288c6.333-4.991,12.9-9.7,19.466-14.384,6.534-4.657,13.063-9.329,19.694-13.846,1.9-1.3,3.824-2.567,5.741-3.842s3.909-2.449,5.784-3.771c.109-.075.206.105.1.181-1.722,1.235-3.348,2.62-5.042,3.9-1.615,1.222-3.219,2.462-4.849,3.667-3.18,2.354-6.392,4.665-9.6,6.984q-9.754,7.052-19.674,13.883c-3.757,2.575-7.5,5.162-11.337,7.613C-78.183,1070.823-78.456,1070.46-78.239,1070.288Z" transform="translate(191.561 -948.371)" fill="#263238"/><path d="M-100.319,1054.49c5.852-4.851,12.126-9.211,18.258-13.7,6.206-4.537,12.379-9.115,18.606-13.618l18.54-13.4c5.99-4.331,11.951-8.732,18.278-12.565,3.462-2.1,7.013-4.043,10.664-5.795a69.806,69.806,0,0,1,11.022-4.5.1.1,0,0,1,.076.19c-3.12,1.742-6.394,3.208-9.55,4.888q-4.679,2.492-9.215,5.243c-6.281,3.807-12.213,8.132-18.171,12.417-12.373,8.9-24.722,17.834-37.183,26.61-6.973,4.91-13.8,10.094-21.046,14.608C-100.267,1055.01-100.527,1054.663-100.319,1054.49Z" transform="translate(172.935 -985.086)" fill="#263238"/></g></g></g></g></svg>