<svg xmlns="http://www.w3.org/2000/svg" width="85" height="91" viewBox="0 0 85 91">
  <g id="Grupo_987226" data-name="Grupo 987226" transform="translate(-180 -2338)">
    <rect id="Rectángulo_33822" data-name="Rectángulo 33822" width="85" height="91" rx="11" transform="translate(180 2338)" fill="#0ce6ea"/>
    <g id="vector_tool" data-name="vector tool" transform="translate(190 2430.734)">
      <path id="path14" d="M2.01-74.212A1.518,1.518,0,0,0,.492-72.7,1.518,1.518,0,0,0,2.01-71.181a1.513,1.513,0,0,0,1.072-.445A1.513,1.513,0,0,0,3.523-72.7,1.513,1.513,0,0,0,2.01-74.212" transform="translate(1.857 1.97)" fill="#ff6e33"/>
      <path id="path16" d="M1.243-65.167H4.585v-3.342H1.243v3.342" transform="translate(4.691 23.491)" fill="#ff6e33"/>
      <path id="path18" d="M9.724-74.246H6.382V-70.9H9.724v-3.342" transform="translate(24.083 1.842)" fill="#ff6e33"/>
      <path id="path20" d="M13.848-74.212A1.513,1.513,0,0,0,12.335-72.7a1.513,1.513,0,0,0,.442,1.073,1.513,1.513,0,0,0,1.072.445A1.518,1.518,0,0,0,15.366-72.7a1.518,1.518,0,0,0-1.518-1.513" transform="translate(46.548 1.97)" fill="#ff6e33"/>
      <path id="path22" d="M11.516-65.167h3.342v-3.342H11.516v3.342" transform="translate(43.457 23.491)" fill="#ff6e33"/>
      <path id="path24" d="M17.921-59.872A1.174,1.174,0,0,1,16.746-58.7a1.174,1.174,0,0,1-1.174-1.174V-72.283L4.077-49.847a17.08,17.08,0,0,1,6,12.254H23.415a17.07,17.07,0,0,1,6-12.254L17.916-72.283v12.411" transform="translate(15.385 9.249)" fill="#ff6e33"/>
      <path id="path26" d="M6.614-64.524h-1.7a.229.229,0,0,0-.229.229v2.9a.229.229,0,0,0,.229.229H23.531a.229.229,0,0,0,.229-.229v-2.9a.229.229,0,0,0-.229-.229H6.614" transform="translate(17.679 38.529)" fill="#ff6e33"/>
      <path id="path28" d="M60.4-69.211a1.513,1.513,0,0,1-1.072-.445,1.513,1.513,0,0,1-.442-1.073A1.513,1.513,0,0,1,60.4-72.242a1.518,1.518,0,0,1,1.518,1.513A1.518,1.518,0,0,1,60.4-69.211ZM58.329-45.028v3.341H54.987v-3.341ZM44.8-40.593a17.071,17.071,0,0,0-6,12.254H25.458a17.08,17.08,0,0,0-6-12.254L30.957-63.029v12.411a1.174,1.174,0,0,0,1.174,1.174,1.174,1.174,0,0,0,1.174-1.174V-63.029ZM41.2-26a.229.229,0,0,1,.229.229v2.9a.229.229,0,0,1-.229.229H22.579a.229.229,0,0,1-.229-.229v-2.9A.229.229,0,0,1,22.579-26ZM30.456-72.4H33.8v3.342H30.456ZM9.285-45.033v3.342H5.943v-3.342ZM3.867-69.211a1.518,1.518,0,0,1-1.082-.453,1.518,1.518,0,0,1-.436-1.089,1.518,1.518,0,0,1,1.518-1.513A1.513,1.513,0,0,1,5.38-70.753a1.513,1.513,0,0,1-.433,1.089A1.513,1.513,0,0,1,3.867-69.211ZM60.4-74.572a3.857,3.857,0,0,0-3.661,2.688H36.156V-73.56a1.174,1.174,0,0,0-1.174-1.174h-5.7A1.174,1.174,0,0,0,28.1-73.56v1.676H7.528a3.862,3.862,0,0,0-3.661-2.688A3.867,3.867,0,0,0,0-70.753a3.867,3.867,0,0,0,3.866,3.866,3.862,3.862,0,0,0,3.662-2.688h13.9A25.658,25.658,0,0,0,6.487-47.362H4.774A1.174,1.174,0,0,0,3.6-46.188v5.7a1.174,1.174,0,0,0,1.174,1.155h5.685A1.174,1.174,0,0,0,11.633-40.5v-5.7a1.174,1.174,0,0,0-1.174-1.155H8.836A23.3,23.3,0,0,1,28.1-69.163v1.308a1.174,1.174,0,0,0,1.174,1.174h.931L16.932-40.8a1.17,1.17,0,0,0,.387,1.508,14.894,14.894,0,0,1,5.776,10.955h-.477a2.583,2.583,0,0,0-2.578,2.578v2.9a2.583,2.583,0,0,0,2.578,2.578H41.235a2.583,2.583,0,0,0,2.578-2.578v-2.9a2.583,2.583,0,0,0-2.578-2.578h-.072a14.7,14.7,0,0,1,5.781-10.955,1.174,1.174,0,0,0,.387-1.508L34.05-66.7h.931a1.174,1.174,0,0,0,1.174-1.174v-1.308a23.3,23.3,0,0,1,19.266,21.82H53.8a1.174,1.174,0,0,0-1.174,1.174v5.7A1.179,1.179,0,0,0,53.8-39.309h5.7a1.174,1.174,0,0,0,1.174-1.174v-5.7A1.174,1.174,0,0,0,59.5-47.362H57.761A25.658,25.658,0,0,0,42.824-69.536h13.9a3.857,3.857,0,0,0,3.661,2.688,3.871,3.871,0,0,0,3.867-3.867,3.871,3.871,0,0,0-3.867-3.862" transform="translate(0 0)" fill="#171a1c"/>
    </g>
  </g>
</svg>
