<svg xmlns="http://www.w3.org/2000/svg" width="432.876" height="402" viewBox="0 0 432.876 402"><g transform="translate(-101.346 -714.26)"><g transform="translate(140.151 714.26)" opacity="0.15"><path d="M478.136,1007.461c5.121-29.858-7.405-59.96-29.866-79.243-29.839-25.619-73.71-32.5-105.677-55.751A111.69,111.69,0,0,1,298.924,804.9c-2.692-13.12-3.135-27.071-9.137-38.936-5.317-10.508-14.728-18.615-25.5-24.128-31.716-16.223-76.329-8.684-103.541,17.5-14.57,14.016-23.964,32.152-30.062,50.626-12.594,38.167-11.873,79.276,2.022,115.06,7.755,19.971,19.411,38.162,32.554,55.1,28.636,36.915,65.189,68.726,109.434,87.831,52.968,22.87,128.937,32.7,177.431-13.2C465.7,1041.9,475.134,1024.965,478.136,1007.461Z" transform="translate(-121.731 -697.04)" fill="#ffcd91"/><path d="M216.334,736.915c4.072-.52,8.928-1.759,10.447-5.46a6.976,6.976,0,0,0,.2-4.295c-1.614-6.7-9.238-9.975-16.322-11.395a78.789,78.789,0,0,0-20.287-1.354,30.23,30.23,0,0,0-10.335,2.107c-3.267,1.428-6.223,3.956-7.4,7.169C164.752,745.312,205.049,738.358,216.334,736.915Z" transform="translate(-76.645 -714.26)" fill="#ffcd91"/></g><g transform="translate(163.724 769.513)"><g transform="translate(326.559 244.944)"><g transform="translate(15.025)"><path d="M314.459,873.768h22.124a.9.9,0,1,0,0-1.808H314.459a.9.9,0,1,0,0,1.808Z" transform="translate(-313.555 -871.959)" fill="#124c64"/></g><g transform="translate(6.175)"><path d="M309.812,873.768h5.53a.9.9,0,1,0,0-1.808h-5.53a.9.9,0,1,0,0,1.808Z" transform="translate(-308.906 -871.959)" fill="#124c64"/></g><path d="M306.566,873.768h3.042a.9.9,0,1,0,0-1.808h-3.042a.9.9,0,1,0,0,1.808Z" transform="translate(-305.662 -871.959)" fill="#124c64"/></g><g transform="translate(47.965 57.037)"><path d="M160.215,775.057h6.714a.9.9,0,1,0,0-1.808h-6.714a.9.9,0,0,0,0,1.808Z" transform="translate(-159.311 -773.248)" fill="#124c64"/></g><g transform="translate(22.688 31.5)"><path d="M150.682,770.147l-4.384-4.384a.9.9,0,0,1,0-1.279l4.384-4.384a.9.9,0,0,1,.64-.267h0a.905.905,0,0,1,.64.265l4.384,4.386a.9.9,0,0,1,0,1.279l-4.384,4.384a.905.905,0,0,1-1.279,0Zm.64-8.128-3.1,3.1,3.1,3.1,3.1-3.1Z" transform="translate(-146.033 -759.833)" fill="#124c64"/></g><g transform="translate(257.833 61.154)"><path d="M269.559,794.542a6,6,0,1,1,6,6A6.006,6.006,0,0,1,269.559,794.542Zm1.81,0a4.188,4.188,0,1,0,4.188-4.188A4.193,4.193,0,0,0,271.369,794.542Z" transform="translate(-269.559 -788.544)" fill="#124c64"/></g><g transform="translate(0 9.828)"><path d="M135.018,754.809a.911.911,0,0,0,.641-.265l4.55-4.552a.9.9,0,0,0-1.279-1.279l-4.552,4.55a.905.905,0,0,0,.64,1.546Z" transform="translate(-134.114 -748.448)" fill="#124c64"/><path d="M139.569,754.809a.905.905,0,0,0,.64-1.546l-4.55-4.55a.905.905,0,0,0-1.281,1.279l4.552,4.552A.907.907,0,0,0,139.569,754.809Z" transform="translate(-134.114 -748.448)" fill="#124c64"/></g><g transform="translate(59.146)"><path d="M166.09,749.646a.9.9,0,0,0,.64-.266l4.55-4.55A.9.9,0,1,0,170,743.551l-4.55,4.55a.906.906,0,0,0,.64,1.546Z" transform="translate(-165.184 -743.286)" fill="#124c64"/><path d="M170.639,749.646a.906.906,0,0,0,.64-1.546l-4.55-4.55a.9.9,0,0,0-1.279,1.279l4.55,4.55A.9.9,0,0,0,170.639,749.646Z" transform="translate(-165.184 -743.286)" fill="#124c64"/></g><g transform="translate(282.978 74.891)"><g transform="translate(0)"><path d="M286.3,791.089a.91.91,0,0,0,.64-.265l4.55-4.552a.9.9,0,0,0-1.279-1.279l-4.55,4.55a.905.905,0,0,0,.64,1.546Z" transform="translate(-285.394 -784.729)" fill="#124c64"/></g><path d="M290.849,791.089a.905.905,0,0,0,.64-1.546l-4.55-4.55a.9.9,0,1,0-1.279,1.279l4.55,4.552A.907.907,0,0,0,290.849,791.089Z" transform="translate(-285.394 -784.729)" fill="#124c64"/></g></g><g transform="translate(110.25 1078.12)"><ellipse cx="211.986" cy="14.244" rx="211.986" ry="14.244" fill="#e9cec2"/></g><g transform="translate(120.381 860.32)"><g transform="translate(29.114)"><path d="M438.315,803.908v185.64c0,7.135-5.286,12.92-11.806,12.92H138.445c-6.52,0-11.806-5.785-11.806-12.92V803.908c0-7.135,5.286-12.92,11.806-12.92H426.508C433.028,790.988,438.315,796.771,438.315,803.908Z" transform="translate(-126.639 -790.988)" fill="#25ced1"/><g transform="translate(13.847 14.281)"><path d="M417.9,806.742V961.58a8.15,8.15,0,0,1-8.047,8.25H141.961a7.94,7.94,0,0,1-5.987-2.737,8.323,8.323,0,0,1-2.062-5.513V806.742a8.153,8.153,0,0,1,8.048-8.252H409.85a7.845,7.845,0,0,1,4.072,1.135A8.29,8.29,0,0,1,417.9,806.742Z" transform="translate(-133.913 -798.49)" fill="#fceade"/></g></g><g transform="translate(0 204.124)"><path d="M481.248,898.218v1.176a28.358,28.358,0,0,1-4.628,15.671,23.848,23.848,0,0,1-19.832,11.1H135.8a23.851,23.851,0,0,1-19.832-11.1,28.358,28.358,0,0,1-4.628-15.671v-1.176Z" transform="translate(-111.345 -898.218)" fill="#a1f0f1"/></g><g transform="translate(168.123 214.226)"><g transform="translate(12.49)"><path d="M213.294,907.4a3.55,3.55,0,1,1-3.535-3.87A3.713,3.713,0,0,1,213.294,907.4Z" transform="translate(-206.224 -903.525)" fill="#ea526f"/></g><path d="M206.735,907.4a3.55,3.55,0,1,1-3.537-3.87A3.714,3.714,0,0,1,206.735,907.4Z" transform="translate(-199.663 -903.525)" fill="#ea526f"/><g transform="translate(24.979)"><path d="M219.855,907.4a3.549,3.549,0,1,1-3.535-3.87A3.713,3.713,0,0,1,219.855,907.4Z" transform="translate(-212.785 -903.525)" fill="#ea526f"/></g><g transform="translate(148.98)"><path d="M285,907.4a3.55,3.55,0,1,1-3.535-3.87A3.713,3.713,0,0,1,285,907.4Z" transform="translate(-277.925 -903.525)" fill="#ea526f"/></g><g transform="translate(161.468)"><path d="M291.557,907.4a3.55,3.55,0,1,1-3.535-3.87A3.713,3.713,0,0,1,291.557,907.4Z" transform="translate(-284.485 -903.525)" fill="#ea526f"/></g></g><g transform="translate(143.494 204.124)"><path d="M186.725,898.218v.27c0,2.119,1.3,3.838,2.9,3.838h75.514c1.6,0,2.9-1.719,2.9-3.838v-.27Z" transform="translate(-186.725 -898.218)" fill="#ffcd91"/></g></g><g transform="translate(171.288 946.296)"><path d="M179.52,907.4c-14.268-.689-27.043-5.231-35.306-3.662s-8.126-19.78.162-26.139c6.166-4.728-2.928-14.157-2.855-21.771-.55-1.1-1.963-8.753,3.828-14.426,6.3-6.168,12.76-6.417,19.261-3.221,4.272,1.531,8.418,5.677,9.689,16.154,2.195,18.044,9.474,15.288,20.49,30.185C201.229,893.225,193.786,908.085,179.52,907.4Z" transform="translate(-138.088 -836.153)" fill="#12263f"/></g><g transform="translate(150.617 990.444)"><path d="M150.874,862.012l-2.035,2.854-2,2.846q-2,2.853-3.963,5.732c-2.619,3.842-5.2,7.715-7.717,11.707-1.256,2-2.494,4.022-3.7,6.143-.6,1.066-1.2,2.145-1.786,3.308-.293.577-.584,1.184-.874,1.827a23.033,23.033,0,0,0-.866,2.2l-.027.08-.029.088-.053.179-.107.358-.107.419c-.034.141-.07.3-.089.388-.044.213-.088.443-.129.695s-.08.527-.112.86a9.667,9.667,0,0,0-.038,1.26l.011.221.008.112.011.129c.01.088.017.166.029.261s.029.2.046.3a7.129,7.129,0,0,0,.508,1.709,6.453,6.453,0,0,0,.3.607c.063.11.129.221.2.327.03.049.074.114.116.177l.131.183c.091.122.179.234.282.356s.227.255.346.377c.061.061.122.122.185.179s.137.126.206.187c.143.122.291.238.442.348a6.814,6.814,0,0,0,1,.6c.175.084.354.16.535.229s.348.122.525.173l.265.07c.091.021.179.04.255.055.162.032.324.057.487.078.078.01.171.019.238.025l.213.015c.145.008.287.011.43.01s.247-.006.371-.013l.183-.013.171-.019c.1-.011.206-.026.306-.042s.211-.036.289-.053.169-.036.253-.057.173-.044.238-.063c.137-.038.287-.086.409-.128a7.714,7.714,0,0,0,1.108-.489c.147-.078.259-.143.379-.215l.158-.1.147-.1.137-.091.124-.088c.086-.059.152-.11.228-.168.284-.213.5-.4.7-.577.4-.35.7-.655.984-.946.558-.581,1.013-1.108,1.447-1.628.86-1.034,1.614-2.026,2.349-3.021q.548-.748,1.076-1.494l.527-.752.539-.788a6.271,6.271,0,0,0-10.319-7.129l-.07.1-.44.632-.466.657c-.314.436-.63.87-.948,1.294-.634.851-1.279,1.681-1.894,2.408-.3.36-.607.7-.849.944-.118.12-.223.217-.257.247-.017.013-.017.01.038-.032l.053-.04.084-.057.057-.036.067-.042c.057-.036.108-.065.19-.109a4.742,4.742,0,0,1,.716-.312c.089-.03.2-.069.306-.1l.187-.047q.1-.026.2-.046c.061-.011.154-.03.236-.044s.169-.025.253-.034l.145-.015.156-.013c.107-.006.206-.01.318-.01s.249,0,.375.008l.188.013.209.023q.22.026.434.069l.228.051c.08.017.16.038.24.061.162.046.306.1.474.158s.327.131.485.208a5.916,5.916,0,0,1,.91.541c.137.1.272.2.4.314.063.055.129.114.187.169s.112.1.166.158c.108.108.211.223.31.339s.169.206.249.314c.038.053.076.107.114.162l.1.152c.061.093.118.186.171.282.114.208.183.345.257.512a5.374,5.374,0,0,1,.392,1.3q.017.1.029.194l.017.156.011.133.006.112a3.648,3.648,0,0,1-.006.4c-.006.046-.006.038,0,.006s.015-.084.03-.152c.01-.048.01-.031.01-.031l0,0,.019-.055.008-.029,0-.013.008-.025c.076-.225.225-.6.405-1s.388-.832.617-1.279c.451-.887.965-1.82,1.5-2.751,1.07-1.871,2.235-3.765,3.427-5.654,2.393-3.781,4.915-7.55,7.481-11.292q1.927-2.81,3.891-5.6l1.97-2.783,1.974-2.755.042-.059A6.365,6.365,0,1,0,150.883,862Z" transform="translate(-127.229 -859.344)" fill="#e7ba8c"/></g><g transform="translate(171.764 983.792)"><g transform="translate(0 1.017)"><path d="M140.158,923.536c-.253,1.582-.242,2.794.23,3.5.678,1.018,6.166,2.081,13.093,2.753.43.042.87.084,1.312.122,1.462.128,2.973.238,4.508.327.358.019.716.04,1.076.057,11.694.594,24.3-.091,25.05-3.7,1.443-6.956-2.692-17.469-1.74-28.312.385-4.375,4.039-12.992,4.374-18.412.512-8.252.655-15.984-.508-17.94-.815-1.369-4.342-2.572-8.146-3.5-1.176-.287-2.379-.552-3.537-.786-3.946-.8-7.359-1.26-7.359-1.26s-10.15.529-17.053,2.288a23.941,23.941,0,0,0-3.373,1.093c-.145.061-.284.122-.419.185-.474.223-.916.43-1.329.63-6.569,3.175-5.671,3.775-5.168,7.675.742,5.736,1.346,5.389-.171,10.379-.122.4-.259.843-.409,1.323-.377,1.184-.841,2.619-1.416,4.394a16.219,16.219,0,0,0-.811,3.819q-.023.308-.023.594c-.038,5.951,6.008,5.463,6.008,12.971a54.571,54.571,0,0,1-2.115,13.4c-.051.2-.1.392-.152.584-.619,2.347-1.224,4.489-1.624,6.293C140.335,922.548,140.234,923.06,140.158,923.536Z" transform="translate(-138.338 -856.384)" fill="#106384"/></g><g transform="translate(34.876 12.592)"><path d="M156.663,866.306c.1,2.225,2.387,3.172,4.167,3.569-.1-.225-.2-.457-.286-.691-1.517-.406-3.211-1.234-3.288-2.9a3.332,3.332,0,0,1,2.214-3.173c0-.213.008-.428.017-.641A4.017,4.017,0,0,0,156.663,866.306Z" transform="translate(-156.659 -862.465)" fill="#39a4ce"/></g><g transform="translate(29.115 1.588)"><path d="M156.357,864.8a5.809,5.809,0,0,0,3.51-1.176,2.682,2.682,0,0,0,1.138-1.944c.228-2.229-2.037-4.789-2.132-4.9a.3.3,0,0,0-.445.4c.023.025,2.187,2.473,1.984,4.441a2.08,2.08,0,0,1-.9,1.523,5.4,5.4,0,0,1-5.448.569.3.3,0,0,0-.27.533A6.124,6.124,0,0,0,156.357,864.8Z" transform="translate(-153.633 -856.684)" fill="#39a4ce"/></g><g transform="translate(10.011 3.821)"><path d="M148.653,866.021a16.558,16.558,0,0,0,2.06-.126.3.3,0,0,0-.08-.59c-.042.006-4.211.554-5.831-.762a1.531,1.531,0,0,1-.6-1.129c-.2-2.838,3.562-4.978,3.6-5a.3.3,0,0,0-.291-.52c-.169.1-4.131,2.351-3.9,5.562a2.122,2.122,0,0,0,.82,1.55A7.179,7.179,0,0,0,148.653,866.021Z" transform="translate(-143.597 -857.857)" fill="#39a4ce"/></g><g transform="translate(41.779 22.969)"><path d="M162.152,909.519l.034,0a.3.3,0,0,0,.263-.329c-.015-.13-1.437-13.024-1.565-20.336-.126-7.285,3.229-20.433,3.263-20.565a.3.3,0,0,0-.213-.362.3.3,0,0,0-.364.213c-.034.133-3.409,13.358-3.282,20.723.129,7.34,1.553,20.264,1.569,20.393A.3.3,0,0,0,162.152,909.519Z" transform="translate(-160.285 -867.916)" fill="#39a4ce"/></g><g transform="translate(7.769 48.063)"><path d="M149.062,893.328a29.633,29.633,0,0,0,14.9-4.5,43.192,43.192,0,0,0,9.067-7.232.3.3,0,0,0-.444-.4,42.587,42.587,0,0,1-8.943,7.125c-4.968,2.96-12.617,5.97-20.835,3.489a.3.3,0,1,0-.171.571A22.175,22.175,0,0,0,149.062,893.328Z" transform="translate(-142.419 -881.099)" fill="#39a4ce"/></g><g transform="translate(11.035 60.98)"><path d="M150.267,892.422a22.312,22.312,0,0,0,6.786-1.152,29.113,29.113,0,0,0,6.173-2.838.3.3,0,0,0-.324-.5c-.1.065-10.034,6.419-18.351,2.758a.3.3,0,0,0-.24.545A14.7,14.7,0,0,0,150.267,892.422Z" transform="translate(-144.135 -887.884)" fill="#39a4ce"/></g><g transform="translate(10.063 12.756)"><path d="M151.1,870.691a17.45,17.45,0,0,0,8.435-2.339,25,25,0,0,0,6.556-5.313.3.3,0,1,0-.461-.379,24.893,24.893,0,0,1-6.4,5.182c-5.189,2.886-10.293,3.031-15.168.43a.3.3,0,1,0-.28.525A15.368,15.368,0,0,0,151.1,870.691Z" transform="translate(-143.624 -862.551)" fill="#39a4ce"/></g><g transform="translate(37.685 3.063)"><path d="M170.172,878.9c.512-8.252.655-15.984-.508-17.94-.815-1.369-4.342-2.572-8.146-3.5C153.218,868.888,161.773,884.572,170.172,878.9Z" transform="translate(-158.135 -857.459)" fill="#e7ba8c"/></g><g transform="translate(2.484 5.212)"><path d="M139.819,876.642c4.477-5.012,5.26-13.571,5.34-18.054-6.569,3.175-5.671,3.775-5.168,7.675C140.732,872,141.336,871.652,139.819,876.642Z" transform="translate(-139.643 -858.588)" fill="#e7ba8c"/></g><g transform="translate(13.122)"><path d="M145.231,859.155c.76,4.076,1.426,11.728,7.841,11.728,6.246,0,14.448-10.141,16.571-12.756a52.726,52.726,0,0,1-7.708-2.277S152.132,857.394,145.231,859.155Z" transform="translate(-145.231 -855.85)" fill="#e7ba8c"/></g><g transform="translate(0 16.449)"><path d="M144.46,865.093a4.623,4.623,0,0,1,1.829,2.539,3.178,3.178,0,0,1-1.056,2.789c-.874.927-1.664,1.666-2.3,2.26-2.1,1.968-3.061,2.869-1.631,5.459a1.472,1.472,0,0,1,.051,1.561,3.25,3.25,0,0,1-2.844,1.15l-.152-.008q-.023.308-.023.594l.156.008c.061,0,.122,0,.181,0a3.706,3.706,0,0,0,3.19-1.435,2.04,2.04,0,0,0-.038-2.161c-1.2-2.183-.575-2.775,1.515-4.736.642-.6,1.435-1.346,2.322-2.286a3.733,3.733,0,0,0,1.209-3.31,5.357,5.357,0,0,0-2.214-3.027Z" transform="translate(-138.338 -864.491)" fill="#39a4ce"/></g><g transform="translate(23.14 21.176)"><path d="M164.8,877.962a7.934,7.934,0,0,1-4.255-1.262,5.625,5.625,0,0,0-4.525-.826c-.089.015-.179.03-.266.044h0a4.458,4.458,0,0,1-5.182-3.737,4.261,4.261,0,0,1,3.457-5.109,4.816,4.816,0,0,1,4.277,1.287c3.265,2.844,4.6,2.638,6.3,2.378a10.4,10.4,0,0,1,2.031-.168c1.334.046,2.233,1.331,2.189,3.128-.055,2.132-1.426,4.268-3.948,4.268Zm-.1-6.638c-1.774.272-3.307.508-6.779-2.516a4.25,4.25,0,0,0-3.765-1.152,3.644,3.644,0,0,0-2.992,4.42,3.84,3.84,0,0,0,4.508,3.253h0c.082-.013.164-.027.246-.042a6.188,6.188,0,0,1,4.928.895,7.335,7.335,0,0,0,3.969,1.186h.063a3.492,3.492,0,0,0,3.356-3.687c.03-1.224-.457-2.479-1.612-2.517-.08,0-.158,0-.234,0A10.714,10.714,0,0,0,164.691,871.324Z" transform="translate(-150.494 -866.974)" fill="#39a4ce"/></g><g transform="translate(2.878 25.449)"><path d="M141.91,884.5a5.765,5.765,0,0,1-2-5.01.3.3,0,0,1,.2-.236c.029-.01,2.819-1.028,3.314-5.115a5.776,5.776,0,0,1,4.5-4.755,4.556,4.556,0,0,1,5.069,1.8c2.3,3.466,3.1,3.963,9.632,5.911,2.869.855,4.553,3.031,4.4,5.678-.16,2.707-2.412,5.8-7.085,6.615a18.659,18.659,0,0,1-3.162.257C151.295,889.637,145.043,887.572,141.91,884.5Zm6.143-14.536a5.176,5.176,0,0,0-4.047,4.245c-.47,3.9-2.857,5.233-3.533,5.536a5.191,5.191,0,0,0,1.854,4.329c3.581,3.516,11.759,5.722,17.5,4.725,4.354-.758,6.448-3.592,6.592-6.065.139-2.357-1.382-4.3-3.971-5.073-6.413-1.911-7.5-2.431-9.96-6.151a3.782,3.782,0,0,0-3.251-1.69A5.081,5.081,0,0,0,148.053,869.96Z" transform="translate(-139.85 -869.219)" fill="#39a4ce"/></g><g transform="translate(10.011 46.81)"><path d="M143.6,883.573a.3.3,0,0,1,.188-.289c.377-.151,9.255-3.665,12.115-2.665a.3.3,0,0,1,.2.259c.015.209.354,5.18-2.067,7.873a4.983,4.983,0,0,1-3.689,1.66c-.093,0-.183,0-.274,0C143.976,890.415,143.6,883.644,143.6,883.573Zm.613.185a9.011,9.011,0,0,0,.868,3.019,5.266,5.266,0,0,0,5.246,3.038,4.408,4.408,0,0,0,3.265-1.462c1.989-2.21,1.963-6.274,1.926-7.228C152.9,880.474,145.535,883.246,144.21,883.758Z" transform="translate(-143.597 -880.44)" fill="#39a4ce"/></g><g transform="translate(29.569 54.591)"><path d="M157.094,898.727c-1.826-.128-2.991-.925-3.192-2.185-.246-1.534,1.028-3.2,3.1-4.045,1.957-.8,1.966-2.286,1.976-3.857a4.181,4.181,0,0,1,.838-3.126,3.76,3.76,0,0,1,4.354-.52,2.676,2.676,0,0,1,1.106,3.3c-.906,3.082,1.15,4.171,1.237,4.216h0a.29.29,0,0,1,.158.206.3.3,0,0,1-.065.253c-.206.242-4.961,5.774-9.185,5.774C157.311,898.739,157.2,898.735,157.094,898.727Zm7.611-10.6a2.1,2.1,0,0,0-.838-2.616,3.141,3.141,0,0,0-3.63.428,3.716,3.716,0,0,0-.662,2.709c-.01,1.618-.021,3.453-2.347,4.4-2.022.828-2.909,2.338-2.737,3.4.154.963,1.119,1.576,2.646,1.685,3.52.247,7.778-4.186,8.793-5.3C165.27,892.335,163.884,890.913,164.7,888.123Z" transform="translate(-153.871 -884.528)" fill="#39a4ce"/></g><g transform="translate(1.82 59.762)"><path d="M139.294,895.65a6.083,6.083,0,0,0,.885,1.875,2.676,2.676,0,0,0,2.09,1.252,1.805,1.805,0,0,0,.3-.023c1.165-.187,2.174-1.424,2.84-3.482.836-2.585.731-4.618-.314-6.042a5.478,5.478,0,0,0-3.731-1.987c-.051.2-.1.392-.152.584a4.984,4.984,0,0,1,3.406,1.757c.923,1.262,1,3.114.225,5.5-.594,1.837-1.435,2.93-2.366,3.078a1.948,1.948,0,0,1-1.818-.994,6.44,6.44,0,0,1-1.07-3.052C139.471,894.662,139.37,895.174,139.294,895.65Z" transform="translate(-139.294 -887.244)" fill="#39a4ce"/></g><g transform="translate(12.912 67.681)"><path d="M145.841,896.791l.015.017a9.837,9.837,0,0,0,1.5,1.338c.43.042.87.084,1.312.122a9.591,9.591,0,0,1-2.351-1.841,2.858,2.858,0,0,1-.457-2.454c.4-.944,1.626-1.571,3.657-1.86,5.389-.767,6.67,2.528,6.864,3.164a7.889,7.889,0,0,1-3.206,3.318c.358.019.716.04,1.076.057a9.647,9.647,0,0,0,2.709-3.187.3.3,0,0,0,.032-.211c-.011-.046-1.089-4.651-7.561-3.729-2.254.32-3.64,1.068-4.121,2.22A3.434,3.434,0,0,0,145.841,896.791Z" transform="translate(-145.121 -891.404)" fill="#39a4ce"/></g></g><g transform="translate(167.421 1040.548)"><path d="M138.38,906.972c-.247-6.727-1.384-13.361-2.324-20.018a107.8,107.8,0,0,1,12.8,6.074h0c2.41,1.456,4.578,2.739,6.166,3.632,2.423,1.359,5.517,1.494,8.549,1.075a41.682,41.682,0,0,0,11.576-3.727s19.025-8.623,22.594-8.336c2.774.223-12.153,15.806-24.5,22.187a22.429,22.429,0,0,1-6.111,2.739c-12.08,3.843-23.43.375-28.714-1.8C138.416,908.19,138.4,907.581,138.38,906.972Z" transform="translate(-136.056 -885.665)" fill="#ea526f"/></g><g transform="translate(101.346 1029.866)"><g transform="translate(0 59.575)"><g transform="translate(22.609)"><path d="M124.384,913.02l-1.613,10.2-9.549.665,1-12.538Z" transform="translate(-113.222 -911.35)" fill="#f49d8b"/></g><g transform="translate(0 7.421)"><g transform="translate(0 2.606)"><path d="M101.683,933.409l34.153-.03a4.752,4.752,0,0,0,.449-1.9c.209-2.89-.716-7.5-1.169-10.405-.055-.341-.1-.657-.139-.944a10.1,10.1,0,0,1-.1-1.186,1.742,1.742,0,0,0-2.1-1.965c-3.453,3.392-7.371-1.687-9.655-.019,0,0-.982.708-3.693,3.149s-7.319,4.057-11.243,5.7c-5.065,2.123-6.5,4.24-6.781,5.7A2.664,2.664,0,0,0,101.683,933.409Z" transform="translate(-101.346 -916.617)" fill="#ffcd91"/></g><g transform="translate(0 17.472)"><path d="M101.683,926.352l34.153-.03a4.752,4.752,0,0,0,.449-1.9l-34.884.03A2.664,2.664,0,0,0,101.683,926.352Z" transform="translate(-101.346 -924.426)" fill="#ffa06d"/></g><g transform="translate(14.023)"><g transform="translate(4.055 3.296)"><path d="M114.029,918.087s-.611-1.489-1.966-1.015-1.216,2.713-1.216,2.713S111.661,921.816,114.029,918.087Z" transform="translate(-110.842 -916.979)" fill="#fff"/></g><g transform="translate(5.085 5.12)"><path d="M113.964,923.937a.563.563,0,0,0,.562-.563,7.192,7.192,0,0,0-2.216-5.3.563.563,0,0,0-.729.859,6.055,6.055,0,0,1,1.82,4.445A.562.562,0,0,0,113.964,923.937Z" transform="translate(-111.383 -917.937)" fill="#fff"/></g><g transform="translate(0 4.735)"><path d="M109.276,919.7a.559.559,0,0,0,.373-.143c.714-.634,2.814-.756,3.967-.681a.563.563,0,0,0,.072-1.123c-.354-.023-3.493-.187-4.788.963a.564.564,0,0,0,.375.984Z" transform="translate(-108.712 -917.735)" fill="#fff"/></g><g transform="translate(5.218 1.432)"><path d="M111.746,919.379l.287.289-.032-.006-.008.036-.232,1.159c.008,0,.049.011.129.023a7.836,7.836,0,0,0,1.081.057h.227a22.013,22.013,0,0,0,2.5-.211,5.51,5.51,0,0,0,2.688-1.045,2.507,2.507,0,0,0,.824-1.106,1,1,0,0,0,.034-.107,1.741,1.741,0,0,0-.445-1.717,2.391,2.391,0,0,0-1.765-.752h-.046a4.882,4.882,0,0,0-2.037.539,12.33,12.33,0,0,0-2.3,1.487c-.061.047-.12.093-.175.141-.287.236-.529.451-.706.615-.16.147-.268.253-.318.3Zm1.222.341c-.156,0-.291,0-.407-.008.238-.221.55-.489.9-.767v0a13.232,13.232,0,0,1,1.43-.988,6.2,6.2,0,0,1,1.3-.6,2.669,2.669,0,0,1,.794-.137h.029a1.179,1.179,0,0,1,.9.373.532.532,0,0,1,.171.472.788.788,0,0,1-.027.107c-.183.524-1.036,1.142-2.528,1.346-.249.034-.484.063-.7.088A17.587,17.587,0,0,1,112.968,919.72Z" transform="translate(-111.453 -916)" fill="#fff"/></g><g transform="translate(1.762)"><path d="M112.469,921l.52-1.1c-1.123-.529-2.2-1.928-2.13-2.773.017-.2.1-.459.634-.611a.676.676,0,0,1,.666.076c.588.455.775,1.995.754,2.857l1.22.032c.006-.291.036-2.876-1.228-3.855a2.11,2.11,0,0,0-3.261,1.4C109.522,918.526,111.036,920.325,112.469,921Z" transform="translate(-109.637 -915.248)" fill="#fff"/></g></g><g transform="translate(29.357 6.122)"><path d="M118.417,931.713h1.015a7.5,7.5,0,0,1-1.841-5.467,9.633,9.633,0,0,1,3.59-6.838c-.055-.341-.1-.657-.139-.944a10.47,10.47,0,0,0-4.264,7.742A8.279,8.279,0,0,0,118.417,931.713Z" transform="translate(-116.767 -918.464)" fill="#ffa06d"/></g><g transform="translate(15.963 6.463)"><path d="M112.428,920.3a.562.562,0,0,0,.135-1.108l-2.134-.527a.562.562,0,1,0-.27,1.091l2.134.529A.559.559,0,0,0,112.428,920.3Z" transform="translate(-109.731 -918.643)" fill="#fff"/></g><g transform="translate(13.831 7.704)"><path d="M111.308,920.949a.563.563,0,0,0,.135-1.11l-2.134-.527a.563.563,0,0,0-.27,1.093l2.134.527A.557.557,0,0,0,111.308,920.949Z" transform="translate(-108.611 -919.295)" fill="#fff"/></g><g transform="translate(11.699 8.899)"><path d="M110.188,921.576a.563.563,0,0,0,.133-1.11l-2.134-.527a.563.563,0,0,0-.268,1.093l2.134.527A.535.535,0,0,0,110.188,921.576Z" transform="translate(-107.491 -919.922)" fill="#fff"/></g><g transform="translate(9.373 10.004)"><path d="M108.968,922.155a.562.562,0,0,0,.133-1.108l-2.134-.527a.562.562,0,1,0-.27,1.091l2.134.529A.552.552,0,0,0,108.968,922.155Z" transform="translate(-106.269 -920.503)" fill="#fff"/></g><g transform="translate(6.851 10.946)"><path d="M107.643,922.652a.563.563,0,0,0,.133-1.11l-2.134-.527a.562.562,0,1,0-.27,1.091l2.134.529A.555.555,0,0,0,107.643,922.652Z" transform="translate(-104.944 -920.998)" fill="#fff"/></g></g></g><g transform="translate(22.25)"><path d="M173.137,900.176c-11.542-6.107-31.819-18.292-40.36-20.022-14.9-3.019-19.742,63.462-19.742,63.462l11.951,1.167s11.18-28.655,12.067-39.7c0,0,15.549,14.945,47.046,15.57Z" transform="translate(-113.034 -880.054)" fill="#ea526f"/></g><g transform="translate(21.531 60.151)"><path d="M126.838,913.217a6.229,6.229,0,0,1-1.728,3.63l-12.392-1.23s-.276-2.821.35-3.965Z" transform="translate(-112.656 -911.652)" fill="#124c64"/></g><g transform="translate(32.753 17.073)"><path d="M118.9,934.1a.345.345,0,0,0,.331-.248c.03-.1,2.985-9.914,5.766-18.556,2.454-7.63,5.022-21.728,5.621-25.12a44.075,44.075,0,0,0,11.646,9.472A73.893,73.893,0,0,0,156,905.73a92.329,92.329,0,0,0,15.926,3.819.348.348,0,1,0,.086-.691,91.9,91.9,0,0,1-15.8-3.792c-7.936-2.65-18.806-7.561-25.533-15.912a.348.348,0,0,0-.358-.12.353.353,0,0,0-.257.278c-.029.171-2.956,17.148-5.73,25.771-2.783,8.65-5.737,18.471-5.768,18.57a.35.35,0,0,0,.234.434A.358.358,0,0,0,118.9,934.1Z" transform="translate(-118.551 -889.022)" fill="#124c64"/></g></g><g transform="translate(175.155 952.165)"><g transform="translate(12.438 20.117)"><path d="M148.412,866.185c6.586,8.867,14.513-1.734,14.4-4.1a40.9,40.9,0,0,1-3.5-12.282l-12.665,7.079c.1.388.2.779.3,1.169a53.447,53.447,0,0,1,1.211,5.637A20.163,20.163,0,0,1,148.412,866.185Z" transform="translate(-146.653 -849.804)" fill="#e7ba8c"/><g transform="translate(0.297 3.065)"><path d="M148.02,862.234c6.809-2.758,10.184-10.82,10.184-10.82L146.809,856.6A53.447,53.447,0,0,1,148.02,862.234Z" transform="translate(-146.809 -851.414)" fill="#d9a573"/></g></g><g transform="translate(2.374 15.469)"><path d="M146.8,849.586s-1.588-3.147-4.165-1.953-1.226,10.188,3.866,9.076Z" transform="translate(-141.366 -847.362)" fill="#d9a573"/></g><g transform="translate(2.777 22.293)"><path d="M146.273,860.033a4.544,4.544,0,1,1,4.392-4.692A4.551,4.551,0,0,1,146.273,860.033ZM146,851.627a3.866,3.866,0,1,0,3.99,3.737A3.872,3.872,0,0,0,146,851.627Z" transform="translate(-141.578 -850.947)" fill="#fff"/></g><g transform="translate(2.894 0.166)"><path d="M164.208,860.321c-.853,3.807-9.558,9.41-13.664,8.206-2.492-.729-4.877-2.589-6.743-7.213l-.029-.074c-.11-.272-.213-.542-.312-.811-.181-.482-.343-.956-.485-1.412-.032-.107-.067-.213-.1-.318-.084-.284-.16-.56-.225-.826-.084-.327-.152-.641-.206-.937-.859-4.788-1.923-10.154,2.024-13.809s10.668-5.484,15.24-1.757c0,0,3.474,3.326,4.376,10.3S164.827,857.573,164.208,860.321Z" transform="translate(-141.639 -839.323)" fill="#e7ba8c"/></g><g transform="translate(17.152 0.484)"><path d="M149.129,840.91s3.328,7.2,5.724,8.395,3.737-2.73,3.737-2.73S152.55,835.683,149.129,840.91Z" transform="translate(-149.129 -839.49)" fill="#12263f"/></g><g transform="translate(7.82)"><path d="M144.227,842.687s5.107,5.614,10.314,3.423.957-6.191.957-6.191S144.889,837.174,144.227,842.687Z" transform="translate(-144.227 -839.236)" fill="#12263f"/></g><g transform="translate(0 0.707)"><path d="M149.314,841.639s-1.588,8.4-7.06,7.744.891-9.605,4.468-9.767S149.314,841.639,149.314,841.639Z" transform="translate(-140.119 -839.608)" fill="#12263f"/></g><g transform="translate(13.632 22.697)"><path d="M147.769,852.789a1.5,1.5,0,0,1-.209.021.273.273,0,0,1-.015-.546,1.746,1.746,0,0,0,1.458-.948.273.273,0,1,1,.493.234A2.252,2.252,0,0,1,147.769,852.789Z" transform="translate(-147.28 -851.159)" fill="#d9a573"/></g><g transform="translate(10.948 18.946)"><path d="M146.738,853.238a4.022,4.022,0,0,1-.6.053.273.273,0,1,1,.01-.546,3.42,3.42,0,0,0,3.525-3.3.273.273,0,1,1,.544.036A3.848,3.848,0,0,1,146.738,853.238Z" transform="translate(-145.87 -849.189)" fill="#232323"/></g><g transform="translate(9.478 13.476)"><path d="M147.055,852.8a2.605,2.605,0,0,0,.518-.089.327.327,0,1,0-.177-.63,1.946,1.946,0,0,1-1.54-.223c.771-1.546.727-5.062.725-5.22a.327.327,0,0,0-.655.01c.017,1.093-.09,4.142-.769,5.115a.325.325,0,0,0,.049.43A2.666,2.666,0,0,0,147.055,852.8Z" transform="translate(-145.098 -846.315)" fill="#1b3431"/></g><g transform="translate(4.133 19.358)"><path d="M143.185,852.131c-.11-.272-.213-.542-.312-.811-.181-.482-.343-.956-.485-1.412-.032-.107-.067-.213-.1-.318.08-.017.16-.034.24-.048,1.8-.339,3.367-.025,3.5.7C146.166,850.941,144.9,851.775,143.185,852.131Z" transform="translate(-142.29 -849.405)" fill="#d9a573"/></g><g transform="translate(15.317 16.442)"><path d="M154.685,848.709c.137.723-1.211,1.584-3.008,1.923s-3.366.027-3.5-.7,1.211-1.584,3.01-1.923S154.55,847.983,154.685,848.709Z" transform="translate(-148.165 -847.873)" fill="#d9a573"/></g><g transform="translate(1.033 10.674)"><g transform="translate(10.019)"><path d="M145.935,849.575a4.429,4.429,0,1,1,4.723,4.116A4.434,4.434,0,0,1,145.935,849.575Zm.653-.044a3.775,3.775,0,1,0,3.506-4.024A3.778,3.778,0,0,0,146.588,849.531Z" transform="translate(-145.924 -844.843)" fill="#fff"/></g><g transform="translate(0 1.995)"><path d="M140.672,850.625a4.429,4.429,0,1,1,4.721,4.114A4.435,4.435,0,0,1,140.672,850.625Zm.651-.046a3.775,3.775,0,1,0,3.508-4.024A3.781,3.781,0,0,0,141.323,850.579Z" transform="translate(-140.661 -845.891)" fill="#fff"/></g><g transform="translate(8.211 4.861)"><path d="M145.529,848.558a1.09,1.09,0,0,1,1.481-.352l.312-.575a1.727,1.727,0,0,0-2.347.577Z" transform="translate(-144.975 -847.397)" fill="#fff"/></g><g transform="translate(17.885 0.289)"><path d="M150.524,847.5a.437.437,0,0,0,.331-.188c.042-.046.685-.733,3.752-1.451a.437.437,0,1,0-.2-.851c-3.529.822-4.192,1.666-4.289,1.827a.435.435,0,0,0,.148.6A.43.43,0,0,0,150.524,847.5Z" transform="translate(-150.057 -844.995)" fill="#fff"/></g><g transform="translate(0.009 5.699)"><path d="M141.016,849.169a.32.32,0,0,0,.187-.074,4.085,4.085,0,0,1,1.694-.607.327.327,0,0,0-.088-.647,4.784,4.784,0,0,0-2.025.752.326.326,0,0,0,.232.577Z" transform="translate(-140.666 -847.837)" fill="#fff"/></g></g><g transform="translate(11.91 7.869)"><path d="M146.475,844.872a3.737,3.737,0,0,1,3.16-1.492c1.127.086,1.159,1.19-.1,1.4a4.073,4.073,0,0,0-2.117.843A.6.6,0,0,1,146.475,844.872Z" transform="translate(-146.375 -843.37)" fill="#1b3431"/></g><g transform="translate(2.992 9.984)"><path d="M145.752,845a3.739,3.739,0,0,0-3.493-.149c-1.005.516-.605,1.546.64,1.247a4.077,4.077,0,0,1,2.279-.044A.6.6,0,0,0,145.752,845Z" transform="translate(-141.691 -844.481)" fill="#1b3431"/></g><g transform="translate(23.46 9.508)"><path d="M152.443,846.645s1.136-3.055,4.173-2.292,3.417,10.784-2.324,10.624Z" transform="translate(-152.443 -844.231)" fill="#e7ba8c"/></g><g transform="translate(23.821 17.808)"><path d="M157.918,848.591c-.131.209-.194.417-.327.626a3.869,3.869,0,1,1-2.41.535c.788-.373.859-.733.83-1.083a4.543,4.543,0,1,0,5.709,4.241A4.615,4.615,0,0,0,157.918,848.591Z" transform="translate(-152.633 -848.591)" fill="#fff"/></g><g transform="translate(25.405 12.262)"><path d="M153.466,849.722a.268.268,0,0,0,.246.291.3.3,0,0,0,.057,0,.27.27,0,0,0,.234-.244,5.47,5.47,0,0,1,.617-1.942c.628.4,1.138.773,1.146.779a.26.26,0,0,0,.2.05.283.283,0,0,0,.181-.1.27.27,0,0,0-.057-.377c-.023-.017-.533-.4-1.176-.8a3.279,3.279,0,0,1,1.511-1.173.269.269,0,0,0-.188-.5C153.755,846.623,153.475,849.6,153.466,849.722Z" transform="translate(-153.464 -845.677)" fill="#1b3431"/></g><g transform="translate(13.486 13.858)"><path d="M148.579,847.561c.129.645-.067,1.23-.436,1.3s-.773-.39-.9-1.037.067-1.23.436-1.3S148.452,846.914,148.579,847.561Z" transform="translate(-147.203 -846.516)" fill="#1b3431"/></g><g transform="translate(6.278 15.457)"><path d="M144.8,848.4c.128.645-.069,1.23-.438,1.3s-.773-.392-.9-1.039.067-1.23.436-1.3S144.666,847.754,144.8,848.4Z" transform="translate(-143.417 -847.356)" fill="#1b3431"/></g></g><g transform="translate(149.255 1018.239)"><g transform="translate(14.323 29.781)"><path d="M134.229,892.775l52.852,5.69a.214.214,0,0,0,.236-.19h0a2.988,2.988,0,0,0-2.652-3.289l-50.093-5.393a.214.214,0,0,0-.236.19l-.3,2.756A.213.213,0,0,0,134.229,892.775Z" transform="translate(-134.037 -889.59)" fill="#1b3a5b"/></g><path d="M126.526,875.81l3.592,28.609a1.658,1.658,0,0,0,1.468,1.441l40.636,4.374a1.655,1.655,0,0,0,1.822-1.852l-3.592-28.611a1.656,1.656,0,0,0-1.468-1.441l-40.636-4.375A1.658,1.658,0,0,0,126.526,875.81Z" transform="translate(-126.513 -873.946)" fill="#12263f"/><g transform="translate(16.568 15.178)"><path d="M145.065,885.416c-.322,2.5-4.9,5.178-4.9,5.178s-4.59-3.666-4.919-6.234c-.358-2.785,2.833-3.284,4.909-.99C142.223,881.521,145.415,882.707,145.065,885.416Z" transform="translate(-135.216 -881.919)" fill="#1b3a5b"/></g><g transform="translate(40.863 4.211)"><path d="M147.979,876.158l3.664,31.95,1.182.127a1.655,1.655,0,0,0,1.822-1.852l-3.592-28.611a1.656,1.656,0,0,0-1.468-1.441Z" transform="translate(-147.979 -876.158)" fill="#1b3a5b"/></g></g><g transform="translate(147.876 1037.175)"><g transform="translate(0 29.763)"><g transform="translate(23.456 5.615)"><path d="M139.977,904.6s4.34-.693,5.688-2.119l2.827,9.031-10.38,2.134S138.237,906.024,139.977,904.6Z" transform="translate(-138.111 -902.478)" fill="#f49d8b"/></g><path d="M125.789,929.321l13.419-29.786a4.579,4.579,0,0,1,1.831.354c2.6.948,6.261,3.563,8.62,5.1.274.181.533.346.769.491a9.379,9.379,0,0,0,1,.554c2.067.933,1,1.6,1,1.6-4.314,1.683-1.53,8.092-3.883,9.43,0,0-1,.581-4.194,1.987s-6.409,4.8-9.385,7.573c-3.838,3.588-6.25,4.009-7.63,3.682A2.551,2.551,0,0,1,125.789,929.321Z" transform="translate(-125.789 -899.528)" fill="#ffcd91"/><g transform="translate(17.671 10.903)"><g transform="translate(3.372 4.959)"><path d="M139.285,907.861a1.458,1.458,0,0,1,.52,1.913c-.672,1.1-2.606.556-2.606.556S135.571,909.233,139.285,907.861Z" transform="translate(-136.843 -907.861)" fill="#fff"/></g><g transform="translate(0 2.926)"><path d="M135.083,907.191a.5.5,0,0,1,.6-.386,6.434,6.434,0,0,1,4.23,2.939.5.5,0,0,1-.889.476,5.424,5.424,0,0,0-3.552-2.429A.5.5,0,0,1,135.083,907.191Z" transform="translate(-135.072 -906.793)" fill="#fff"/></g><g transform="translate(2.532 6.299)"><path d="M136.413,912.643a.505.505,0,0,1,.194-.3c.691-.506,1.192-2.323,1.344-3.347a.5.5,0,1,1,1,.148c-.046.314-.493,3.093-1.744,4.011a.507.507,0,0,1-.706-.107A.514.514,0,0,1,136.413,912.643Z" transform="translate(-136.402 -908.565)" fill="#fff"/></g><g transform="translate(3.838)"><path d="M138.586,911.966c.051-.034.166-.11.324-.221.177-.125.411-.3.672-.5.051-.04.1-.082.156-.126a11.038,11.038,0,0,0,1.736-1.732,4.4,4.4,0,0,0,.855-1.683l.008-.04a2.154,2.154,0,0,0-.326-1.688,1.557,1.557,0,0,0-1.422-.712c-.032,0-.067,0-.1.008a2.261,2.261,0,0,0-1.123.514,4.919,4.919,0,0,0-1.422,2.161,19.1,19.1,0,0,0-.655,2.145c-.015.069-.03.135-.044.2a7.193,7.193,0,0,0-.152.959c-.006.072-.006.11-.006.118l1.06.013h.032l0-.029.2.307Zm.177-3.053c.063-.187.131-.388.207-.6.461-1.268,1.163-1.9,1.656-1.961a.579.579,0,0,1,.1,0,.478.478,0,0,1,.381.24,1.052,1.052,0,0,1,.158.857l-.006.025a2.393,2.393,0,0,1-.27.67,5.657,5.657,0,0,1-.767,1.026,11.777,11.777,0,0,1-1.135,1.064h0c-.308.257-.6.48-.841.647.017-.1.04-.223.07-.358A15.146,15.146,0,0,1,138.763,908.913Z" transform="translate(-137.088 -905.256)" fill="#fff"/></g><g transform="translate(4.133 5.854)"><path d="M137.243,909.5l1.064-.248a3.377,3.377,0,0,0,2.029,2.387c.183.025.421,0,.655-.44a.6.6,0,0,0,.059-.6c-.287-.6-1.6-1.055-2.362-1.2l.2-1.074c.257.048,2.526.508,3.147,1.8a1.891,1.891,0,0,1-1.843,2.595C138.857,912.549,137.565,910.886,137.243,909.5Z" transform="translate(-137.243 -908.331)" fill="#fff"/></g></g><path d="M125.789,929.321l13.419-29.786a4.579,4.579,0,0,1,1.831.354l-13.706,30.421A2.551,2.551,0,0,1,125.789,929.321Z" transform="translate(-125.789 -899.528)" fill="#ffa06d"/><g transform="translate(12.05 2.162)"><path d="M132.119,901.549l.4-.885a7.171,7.171,0,0,0,4.049,3.75,9.209,9.209,0,0,0,7.373-.451c.274.181.533.346.769.491a10.022,10.022,0,0,1-8.427.685A7.939,7.939,0,0,1,132.119,901.549Z" transform="translate(-132.119 -900.664)" fill="#ffa06d"/></g><g transform="translate(16.604 17.915)"><path d="M134.935,909.257a.538.538,0,0,1,1.02.318l-.377,2.067a.538.538,0,1,1-1.058-.192l.377-2.069A.518.518,0,0,1,134.935,909.257Z" transform="translate(-134.511 -908.939)" fill="#fff"/></g><g transform="translate(18.985 16.763)"><path d="M136.186,908.652a.538.538,0,0,1,1.02.318l-.375,2.069a.539.539,0,0,1-1.06-.194l.377-2.067A.565.565,0,0,1,136.186,908.652Z" transform="translate(-135.762 -908.334)" fill="#fff"/></g><g transform="translate(14.683 19.288)"><path d="M133.926,909.977a.542.542,0,0,1,.588-.308.536.536,0,0,1,.432.626l-.375,2.069a.539.539,0,0,1-1.06-.192l.377-2.069A.562.562,0,0,1,133.926,909.977Z" transform="translate(-133.502 -909.661)" fill="#fff"/></g><g transform="translate(12.806 20.681)"><path d="M132.94,910.708a.539.539,0,0,1,1.02.318l-.377,2.069a.538.538,0,1,1-1.058-.192l.377-2.069A.566.566,0,0,1,132.94,910.708Z" transform="translate(-132.516 -910.392)" fill="#fff"/></g><g transform="translate(10.931 22.276)"><path d="M131.955,911.548a.538.538,0,0,1,1.02.318l-.377,2.067a.538.538,0,1,1-1.058-.192l.375-2.069A.525.525,0,0,1,131.955,911.548Z" transform="translate(-131.531 -911.23)" fill="#fff"/></g><g transform="translate(9.119 24.106)"><path d="M131,912.508a.538.538,0,0,1,1.02.318l-.375,2.069a.539.539,0,1,1-1.06-.192l.377-2.069A.567.567,0,0,1,131,912.508Z" transform="translate(-130.579 -912.192)" fill="#fff"/></g></g><g transform="translate(29.93)"><path d="M192.815,887.274s12.04-6.5,19.015-1.475c12.754,9.185-8.888,26.856-33.644,35.485s-32.793,7.451-32.793,7.451-5.38-1.479-3.47-10.2c0,0,14.269-5.425,21.7-11.107S176.1,894.782,192.815,887.274Z" transform="translate(-141.512 -883.893)" fill="#ea526f"/></g><g transform="translate(36.428 10.953)"><path d="M145.275,911.162a.343.343,0,0,0,.169-.046c.124-.068,12.415-6.986,17.485-11.146,4.079-3.349,13.021-9.628,13.112-9.691a.348.348,0,1,0-.4-.569c-.089.063-9.054,6.358-13.152,9.722-5.024,4.121-17.262,11.009-17.384,11.077a.349.349,0,0,0,.171.653Z" transform="translate(-144.925 -889.647)" fill="#124c64"/></g><g transform="translate(31.126 5.958)"><path d="M142.317,918.244c5.191-1.247,15.771-6.1,28.3-12.983,9.371-5.146,20.178-11.723,21.766-14,.857-1.234,1.072-2.24.642-3-.645-1.131-2.5-1.247-3.348-1.239a.376.376,0,0,0-.373.4h0a.377.377,0,0,0,.377.35c.832-.006,2.279.137,2.69.858.343.6-.141,1.525-.605,2.193-1.279,1.839-10.325,7.632-21.511,13.775-9.63,5.288-22.074,11.458-28.116,12.91Z" transform="translate(-142.14 -887.023)" fill="#124c64"/></g><g transform="translate(28.757 33.286)"><path d="M144.418,901.579c.584,4.582,1.772,8.747,4.361,11.941,0,0-2.216,1.6-4.241.451-1.546-.874-4.527-8.031-3.39-11.852C142.44,901.414,143.558,901.166,144.418,901.579Z" transform="translate(-140.895 -901.379)" fill="#124c64"/></g></g><g transform="translate(186.359 1040.692)"><line y1="4.814" fill="#f49d8b"/></g><g transform="translate(194.711 989.268)"><path d="M191.4,901.086c-.074-1.072-.2-2.075-.339-3.046-.284-1.944-.655-3.758-1.072-5.534s-.872-3.5-1.363-5.195-1.015-3.367-1.551-5.024q-1.639-4.957-3.533-9.739c-.64-1.6-1.274-3.189-1.953-4.765-.339-.788-.678-1.576-1.028-2.364l-.535-1.18-.272-.592-.289-.617a7.5,7.5,0,0,0-13.82,5.795l.034.093,1.675,4.532c.558,1.531,1.133,3.055,1.677,4.588,1.1,3.059,2.187,6.116,3.2,9.162s1.959,6.076,2.747,9.023c.2.739.371,1.466.543,2.183s.322,1.422.447,2.1c.063.337.12.67.171.992-.489.141-1,.276-1.517.407-1.462.377-3,.72-4.557,1.047s-3.147.634-4.742.94c-3.2.6-6.436,1.165-9.687,1.729l-4.887.845-.354.061c.453,3.8,1.093,7.576,1.4,11.387,1.683-.01,3.364-.046,5.05-.086,3.4-.1,6.811-.276,10.245-.552,1.719-.135,3.444-.3,5.185-.5s3.5-.442,5.311-.754c.906-.16,1.826-.337,2.783-.552a31.492,31.492,0,0,0,3.055-.828c.562-.188,1.148-.4,1.839-.708.343-.152.718-.335,1.142-.573a11.039,11.039,0,0,0,1.485-1c.152-.122.291-.236.464-.394l.246-.229c.086-.084.181-.181.268-.274l.133-.141.065-.072.076-.086c.1-.114.194-.232.287-.35s.2-.266.3-.409l.148-.219c.049-.074.1-.147.15-.24.1-.177.206-.356.3-.541l.07-.139.076-.16c.048-.109.1-.215.141-.326s.088-.219.128-.329.084-.244.122-.367.074-.253.108-.381l.048-.19.027-.116.124-.615c.019-.1.042-.211.055-.3l.042-.282c.027-.187.055-.381.076-.562l.049-.523.023-.261.015-.245A27.043,27.043,0,0,0,191.4,901.086Z" transform="translate(-150.392 -858.727)" fill="#e7ba8c"/></g><g transform="translate(220.552 1031.121)"><g transform="translate(0 0.503)"><path d="M172,884.44a.352.352,0,0,1-.246-.1c-2.785-2.61-7.386-2.644-7.432-2.644a.36.36,0,1,1,0-.719c.2,0,4.93.032,7.925,2.838a.362.362,0,0,1-.247.624Z" transform="translate(-163.967 -880.977)" fill="#f17781"/></g><g transform="translate(1.376)"><path d="M165.05,882.042a.359.359,0,0,1-.314-.183.363.363,0,0,1,.135-.491c1.831-1.039,5.29-.537,5.437-.514a.36.36,0,1,1-.107.712c-.034-.006-3.36-.487-4.974.428A.349.349,0,0,1,165.05,882.042Z" transform="translate(-164.69 -880.713)" fill="#f17781"/></g></g><g transform="translate(216.603 893.917)"><g transform="translate(0 45.094)"><path d="M182.329,864.994c-2.4,0-4.955-.44-6.71-1.824a6.647,6.647,0,0,1-2.364-5.69c.076-3.744-.765-4.245-2.61-5.341-.394-.234-.83-.495-1.308-.813-2.924-1.955-2.8-3.271-2.562-5.894.109-1.171-.367-1.418-1.232-1.871a5.888,5.888,0,0,1-2.871-2.806,5.549,5.549,0,0,1-.291-5.087,6.663,6.663,0,0,1,4.965-3.257c2.952-.529,3.868,1.493,4.612,3.126a5.3,5.3,0,0,0,1.156,1.871,2.321,2.321,0,0,0,1.9.244c1.363-.177,3.061-.394,5.09,2.1,1.017,1.247.828,3.143.662,4.816-.116,1.152-.225,2.241.168,2.6a.9.9,0,0,0,.784.118l.091.508a1.353,1.353,0,0,1-1.226-.247c-.582-.539-.466-1.7-.333-3.034.158-1.574.335-3.356-.546-4.437-1.85-2.271-3.326-2.081-4.626-1.915a2.761,2.761,0,0,1-2.286-.354,5.579,5.579,0,0,1-1.3-2.058c-.739-1.622-1.5-3.3-4.049-2.833a6.16,6.16,0,0,0-4.6,2.979,5.059,5.059,0,0,0,.291,4.624,5.36,5.36,0,0,0,2.648,2.579c.885.463,1.647.862,1.508,2.378-.236,2.57-.333,3.632,2.334,5.416.468.314.9.567,1.285.8,1.9,1.131,2.945,1.751,2.863,5.8a6.165,6.165,0,0,0,2.166,5.273c3.08,2.425,8.831,1.774,11.441,1.093l.131.5A21.682,21.682,0,0,1,182.329,864.994Z" transform="translate(-161.892 -832.326)" fill="#124c64"/><g transform="translate(6.971 7.419)"><g transform="translate(0.137 0.465)"><path d="M178.737,852.17q-5.954-8.044-12.539-15.59c-.289-.333-.771.152-.483.484q6.51,7.481,12.432,15.452c.259.35.853.01.59-.345Z" transform="translate(-165.627 -836.467)" fill="#124c64"/></g><path d="M172.073,836.552q-.22,3.287-.44,6.575l-.061.927.341-.341-6.031.5c-.436.036-.44.722,0,.685l6.031-.5a.353.353,0,0,0,.343-.343l.44-6.575.063-.927c.029-.44-.655-.438-.685,0Z" transform="translate(-165.555 -836.223)" fill="#124c64"/></g></g><g transform="translate(3.124)"><path d="M208.589,886.245l-.1,0-21.838-.1-.061-.036a16.621,16.621,0,0,1-2.048-1.422c-6.021-4.921-4.978-12.2-4.058-18.615.175-1.226.343-2.385.457-3.508.375-3.63-1.961-4.6-5.191-5.941-3.181-1.321-7.14-2.966-9.373-7.97-2.412-5.4-.3-9.048,1.251-11.709,1.372-2.366,2.281-3.927.122-5.684-2.861-2.33-4.6-7.523-4.137-12.347.388-4.07,2.206-7.169,5.113-8.73a12.439,12.439,0,0,1,11.719-.141,14.825,14.825,0,0,1,8.01,10.519,18.419,18.419,0,0,1,.044,4.26c-.265,3.712-.474,6.644,7.253,9.756,10.413,4.194,9.284,9.406,7.232,18.869l-.263,1.214c-1.256,5.852.567,6.9,3.588,8.625a18.055,18.055,0,0,1,6.971,6.221c4.521,6.95-1.719,13.976-4.611,16.676Zm-21.8-.624,21.594.107c2.829-2.661,8.724-9.385,4.456-15.946a17.62,17.62,0,0,0-6.8-6.053c-3-1.719-5.17-2.962-3.836-9.183l.263-1.216c2.058-9.486,3.09-14.247-6.92-18.278-8.075-3.251-7.843-6.507-7.574-10.274a18.02,18.02,0,0,0-.04-4.142A14.279,14.279,0,0,0,180.21,810.5a11.927,11.927,0,0,0-11.243.133c-2.751,1.473-4.472,4.43-4.845,8.323-.447,4.664,1.213,9.667,3.95,11.9,2.5,2.037,1.34,4.034,0,6.345-1.572,2.709-3.527,6.078-1.226,11.239,2.149,4.816,5.842,6.35,9.1,7.7,3.177,1.319,5.92,2.459,5.507,6.472-.118,1.135-.284,2.3-.461,3.529-.9,6.284-1.921,13.405,3.874,18.141A15.909,15.909,0,0,0,186.791,885.621Z" transform="translate(-163.534 -808.637)" fill="#124c64"/><g transform="translate(6.165 7.948)"><g transform="translate(1.933)"><path d="M200.818,881.889q-1.316-2.9-2.637-5.808-3.249-7.15-6.522-14.29-4.175-9.1-8.395-18.183-4.08-8.766-8.248-17.492c-1.97-4.1-3.931-8.212-6.088-12.216q-.248-.463-.5-.919a.343.343,0,0,0-.592.345c2.056,3.678,3.868,7.5,5.7,11.29q4.117,8.515,8.094,17.1,4.275,9.157,8.484,18.343,3.441,7.5,6.857,15l2.182,4.8c.339.748.628,1.555,1.03,2.273.017.03.029.067.044.1.181.4.771.053.592-.346Z" transform="translate(-167.788 -812.813)" fill="#124c64"/></g><g transform="translate(0 24.998)"><path d="M181.544,826.711l-12.653-.67-1.789-.1c-.44-.025-.438.661,0,.683l12.655.672,1.787.1c.44.023.44-.662,0-.685Z" transform="translate(-166.772 -825.945)" fill="#124c64"/><g transform="translate(12.787 30.548)"><path d="M190.058,843.745l-14.252-1.536-1.989-.215c-.438-.046-.434.638,0,.685l14.252,1.536,1.989.215c.436.047.434-.638,0-.685Z" transform="translate(-173.489 -841.992)" fill="#124c64"/></g></g><g transform="translate(21.626 22.812)"><path d="M186.654,824.973l-2.873,6.181q-2.279,4.9-4.555,9.8l-1.058,2.277c-.185.4.405.746.59.346l2.873-6.181q2.279-4.9,4.555-9.8l1.058-2.277c.185-.4-.406-.746-.59-.346Z" transform="translate(-178.132 -824.796)" fill="#124c64"/></g></g><g transform="translate(15.296 7.026)"><path d="M174.222,816.922a2.7,2.7,0,0,1-2.126-1.19h0a2.612,2.612,0,0,1-.489-1.972,1.742,1.742,0,0,1,.748-1.152,2.373,2.373,0,0,1,3.1.91,2.612,2.612,0,0,1,.489,1.972,1.708,1.708,0,0,1-1.721,1.432Zm-1.7-1.489a1.868,1.868,0,0,0,2.395.777,1.222,1.222,0,0,0,.522-.815,2.106,2.106,0,0,0-.4-1.578,1.866,1.866,0,0,0-2.395-.776,1.221,1.221,0,0,0-.522.815,2.105,2.105,0,0,0,.4,1.578Z" transform="translate(-171.569 -812.328)" fill="#124c64"/></g><g transform="translate(15.258 14.448)"><path d="M172.8,818.648a1.211,1.211,0,1,1,1.253-1.211A1.233,1.233,0,0,1,172.8,818.648Zm0-1.906a.695.695,0,1,0,.735.695A.716.716,0,0,0,172.8,816.743Z" transform="translate(-171.549 -816.227)" fill="#124c64"/></g><g transform="translate(8.058 38.102)"><path d="M169.954,832.871a2.111,2.111,0,1,1,2.189-2.109A2.152,2.152,0,0,1,169.954,832.871Zm0-3.7a1.593,1.593,0,1,0,1.671,1.591A1.633,1.633,0,0,0,169.954,829.171Z" transform="translate(-167.767 -828.653)" fill="#124c64"/></g></g></g><g transform="translate(289.23 922.746)"><g transform="translate(0 52.631)"><path d="M236.457,920.207c-4.925,0-13.179-.8-17.445-5.684-2.555-2.928-3.328-6.916-2.3-11.848,1.443-6.891-1.047-8.907-4.494-11.7-.965-.782-1.966-1.591-2.977-2.583-4.866-4.769-4.165-7.236-2.764-12.149.626-2.2-.366-2.913-1.867-3.994a9.13,9.13,0,0,1-4.363-6.655,12.317,12.317,0,0,1,2.522-10.2,11.939,11.939,0,0,1,9.309-3.969h.078c5.749.03,6.783,4.222,7.614,7.59a10.42,10.42,0,0,0,1.584,4.1,5.821,5.821,0,0,0,3.253,1.721c2.107.579,4.5,1.234,6.253,6.036a20.677,20.677,0,0,1,1.079,8.052c-.055,2.964-.091,4.923,2.715,6.488a17.556,17.556,0,0,1,2.968,2.164l-.461.524a16.892,16.892,0,0,0-2.848-2.077c-3.173-1.768-3.128-4.127-3.072-7.112a19.812,19.812,0,0,0-1.037-7.8c-1.633-4.464-3.742-5.043-5.781-5.6a6.466,6.466,0,0,1-3.6-1.942,10.855,10.855,0,0,1-1.73-4.384c-.853-3.457-1.736-7.032-6.939-7.057h-.074a11.247,11.247,0,0,0-8.778,3.724,11.618,11.618,0,0,0-2.362,9.628,8.523,8.523,0,0,0,4.079,6.2c1.553,1.117,2.893,2.081,2.132,4.753-1.365,4.791-1.987,6.979,2.579,11.456.99.971,1.976,1.768,2.932,2.541,3.5,2.834,6.267,5.075,4.738,12.383-.984,4.706-.265,8.49,2.14,11.245,5.145,5.9,16.518,5.58,19.877,5.345l.049.7C238.765,920.156,237.721,920.207,236.457,920.207Z" transform="translate(-200.045 -851.43)" fill="#124c64"/><g transform="translate(9.544 15.842)"><g transform="translate(2.974)"><path d="M224.791,892.1q-6.011-12.233-12.7-24.113-2.264-4.026-4.6-8.012a.462.462,0,0,0-.8.466q7.5,12.8,14.245,26.009,1.553,3.047,3.061,6.116c.263.533,1.06.067.8-.466Z" transform="translate(-206.621 -859.752)" fill="#124c64"/></g><g transform="translate(0 14.445)"><path d="M205.5,868.267l10.338,1.073,1.487.154c.592.061.588-.864,0-.925L206.988,867.5l-1.489-.154c-.59-.061-.586.862,0,.923Z" transform="translate(-205.058 -867.341)" fill="#124c64"/></g></g><g transform="translate(10.192 5.578)"><g transform="translate(0 17.753)"><path d="M207.537,867.484a1.912,1.912,0,1,1,2.136-1.9A2.031,2.031,0,0,1,207.537,867.484Zm0-3.1a1.22,1.22,0,1,0,1.437,1.2A1.336,1.336,0,0,0,207.537,864.385Z" transform="translate(-205.399 -863.686)" fill="#124c64"/></g><g transform="translate(4.222 2.69)"><path d="M209.753,860.048a2.137,2.137,0,1,1,1.07-3.988,2.142,2.142,0,0,1,.784,2.92h0A2.138,2.138,0,0,1,209.753,860.048Zm0-3.575a1.438,1.438,0,0,0-.721,2.684,1.441,1.441,0,0,0,1.966-.525h0a1.439,1.439,0,0,0-1.245-2.159Z" transform="translate(-207.617 -855.773)" fill="#124c64"/></g><g transform="translate(10.302 44.011)"><path d="M213.388,882.041a2.3,2.3,0,1,1,2.577-2.281A2.444,2.444,0,0,1,213.388,882.041Zm0-3.862a1.605,1.605,0,1,0,1.879,1.582A1.752,1.752,0,0,0,213.388,878.179Z" transform="translate(-210.811 -877.48)" fill="#124c64"/></g><g transform="translate(2.779)"><path d="M208,856.648a1.144,1.144,0,1,1,1.144-1.144A1.146,1.146,0,0,1,208,856.648Zm0-1.59a.445.445,0,1,0,.445.445A.446.446,0,0,0,208,855.059Z" transform="translate(-206.859 -854.36)" fill="#124c64"/></g></g></g><g transform="translate(67.037 58.703)"><path d="M249.685,917.125c-5.393,0-10.209-.546-11.8-1.685-2.265-1.614-3.238-6.847-2.212-11.913.744-3.68,3.718-12.516,15.2-15.082,6.823-1.523,7.411-4.433,8.229-8.463a33.686,33.686,0,0,1,.864-3.573c1.9-6.067,4.441-6.455,9.5-7.228,2.281-.348,2.589-2,3.017-4.293.444-2.383,1-5.349,4.22-7.493,3.86-2.564,8.18-3.421,11.545-2.281,2.9.982,5.081,3.385,6.309,6.954,1.871,5.439-1.268,8.755-3.788,11.42a12.481,12.481,0,0,0-2.444,3.13,7.442,7.442,0,0,0-.027,4.1c.44,2.677.988,6.008-2.49,9.467a12.061,12.061,0,0,1-7.268,3.35c-2.254.385-3.615.617-3.647,3.28-.074,6.065-2.713,16.025-8.14,18.134C263.092,916.377,255.993,917.125,249.685,917.125Zm35.4-61.808a14.776,14.776,0,0,0-8,2.661c-2.975,1.978-3.478,4.666-3.921,7.038-.424,2.281-.826,4.433-3.6,4.856-4.925.752-7.171,1.094-8.943,6.748a33.512,33.512,0,0,0-.847,3.5c-.836,4.127-1.5,7.384-8.76,9.008-11.085,2.475-13.95,10.991-14.669,14.538-1.074,5.3.169,9.946,1.934,11.2h0c3.265,2.326,21.72,1.959,28.213-.569,5.311-2.063,7.632-12.411,7.694-17.492.04-3.246,1.982-3.577,4.228-3.959a11.447,11.447,0,0,0,6.891-3.156c3.225-3.206,2.73-6.209,2.3-8.859a8.024,8.024,0,0,1,.074-4.492,12.883,12.883,0,0,1,2.578-3.333c2.517-2.659,5.37-5.675,3.636-10.714-1.171-3.4-3.147-5.6-5.873-6.518A9.109,9.109,0,0,0,285.086,855.317Z" transform="translate(-235.261 -854.62)" fill="#124c64"/><g transform="translate(8.024 16.32)"><path d="M240.245,909.614c2.37-2.829,4.831-5.581,7.207-8.406q8.857-10.534,17.3-21.4,6.133-7.887,12.035-15.947c.352-.48-.449-.942-.8-.466q-9.922,13.566-20.511,26.63-6.585,8.144-13.413,16.091c-.822.952-1.669,1.885-2.477,2.848-.379.453.272,1.11.655.653Z" transform="translate(-239.476 -863.193)" fill="#124c64"/></g></g><g transform="translate(29.926)"><path d="M257.773,945.171l-32.584-.56-.1-.1c-4.342-4.23-13.714-15.244-6.937-26.114a27.535,27.535,0,0,1,10.485-9.758c4.572-2.73,7.333-4.38,5.429-13.619l-.4-1.911c-3.084-14.831-4.782-23,10.864-29.573,11.669-4.9,11.355-9.531,10.955-15.391a29.909,29.909,0,0,1,.063-6.676,20.524,20.524,0,0,1,9.8-14.458,23.081,23.081,0,0,1,19.805-1.829c3.847,1.319,6.52,4.968,7.525,10.274,1.561,8.246-1.188,18.671-6,22.761-3.291,2.8-1.839,5.4.171,9.014,2.45,4.4,5.5,9.88,1.881,18.336-3.356,7.843-9.311,10.422-14.1,12.5-4.887,2.117-8.416,3.645-7.847,9.4.175,1.77.426,3.6.691,5.53.173,1.262.35,2.545.508,3.84l-.695.084c-.156-1.289-.333-2.568-.506-3.828-.265-1.94-.516-3.773-.695-5.557-.617-6.259,3.5-8.043,8.267-10.108,4.913-2.128,10.485-4.542,13.731-12.13,3.482-8.138.525-13.451-1.852-17.719-2.006-3.607-3.737-6.722-.011-9.885,4.647-3.95,7.289-14.07,5.768-22.1-.676-3.571-2.45-8.161-7.064-9.743a22.4,22.4,0,0,0-19.215,1.765,19.828,19.828,0,0,0-9.474,13.963,29.465,29.465,0,0,0-.057,6.527c.4,5.894.75,10.986-11.382,16.082-15.115,6.35-13.556,13.849-10.449,28.788l.4,1.909c2,9.727-1.253,11.671-5.757,14.361a26.941,26.941,0,0,0-10.249,9.528c-6.459,10.359,2.469,20.966,6.733,25.149l32.306.554Z" transform="translate(-215.766 -823.782)" fill="#124c64"/><g transform="translate(15.335 11.519)"><path d="M224.662,938.8q1.979-4.563,3.967-9.122,4.894-11.233,9.826-22.453,6.288-14.3,12.646-28.573,6.162-13.809,12.457-27.553c2.954-6.413,5.9-12.849,9.137-19.125q.371-.722.756-1.439c.28-.523-.518-.992-.8-.466-3.1,5.785-5.825,11.781-8.583,17.732-4.137,8.922-8.178,17.89-12.195,26.867q-6.436,14.391-12.781,28.826-5.194,11.8-10.35,23.622c-1.6,3.683-3.3,7.342-4.812,11.064-.021.051-.046.1-.067.154-.234.541.562,1.013.8.466Z" transform="translate(-223.822 -829.833)" fill="#124c64"/><g transform="translate(8.002 39.28)"><g transform="translate(21.959)"><path d="M240.006,852.595l19.044-1.053,2.711-.15c.59-.032.594-.957,0-.923q-9.523.525-19.044,1.053-1.356.074-2.711.15c-.592.032-.6.958,0,.923Z" transform="translate(-239.561 -850.468)" fill="#124c64"/></g><g transform="translate(0 48.817)"><path d="M228.466,878.969l15.048-1.692,2.107-.238c.584-.065.592-.99,0-.923l-15.05,1.692-2.105.236c-.584.067-.592.992,0,.925Z" transform="translate(-228.025 -876.112)" fill="#124c64"/></g></g><g transform="translate(6.362 35.845)"><path d="M227.208,849.371q2.162,4.854,4.325,9.708l6.864,15.41,1.591,3.573c.242.543,1.039.072.8-.466q-2.162-4.857-4.325-9.71-3.432-7.7-6.864-15.41l-1.591-3.571c-.242-.542-1.037-.074-.8.466Z" transform="translate(-227.164 -848.663)" fill="#124c64"/></g></g><g transform="translate(47.638 10.053)"><path d="M243.4,836.173a2.552,2.552,0,0,1-1.452-.436c-1.378-.94-1.548-3.1-.379-4.822a4.278,4.278,0,0,1,2.193-1.7,2.63,2.63,0,0,1,3.581,2.439,4.284,4.284,0,0,1-.773,2.661h0a4.286,4.286,0,0,1-2.193,1.7A3.173,3.173,0,0,1,243.4,836.173Zm1.334-6.413a2.478,2.478,0,0,0-.76.126,3.574,3.574,0,0,0-1.827,1.424c-.954,1.4-.866,3.128.192,3.849a2.059,2.059,0,0,0,1.824.19,3.573,3.573,0,0,0,1.827-1.424h0a3.569,3.569,0,0,0,.655-2.221,2.064,2.064,0,0,0-.847-1.628A1.871,1.871,0,0,0,244.733,829.76Z" transform="translate(-240.791 -829.063)" fill="#124c64"/></g><g transform="translate(50.566 21.717)"><path d="M244.174,838.879a1.845,1.845,0,1,1,1.845-1.843A1.846,1.846,0,0,1,244.174,838.879Zm0-2.99a1.146,1.146,0,1,0,1.146,1.148A1.149,1.149,0,0,0,244.174,835.889Z" transform="translate(-242.329 -835.19)" fill="#124c64"/></g><g transform="translate(58.59 58.883)"><path d="M249.8,861.224a3.255,3.255,0,1,1,3.255-3.255A3.259,3.259,0,0,1,249.8,861.224Zm0-5.812a2.557,2.557,0,1,0,2.557,2.557A2.558,2.558,0,0,0,249.8,855.413Z" transform="translate(-246.544 -854.714)" fill="#124c64"/></g></g></g><g transform="translate(234.574 812.899)"><g transform="translate(28.183)"><path d="M215.3,895.2c-28.468,25.139-27.431,67.993-23.215,94.931h92.039c7.47-27.279,13.249-70.911-15.339-96.157l17.085-70.334s4.658-15.806-1.5-18.077l-32.592-12.031-1.036-17.06H222.5l-1.036,17.06-32.592,12.031c-6.154,2.271,0,16.8,0,16.8Z" transform="translate(-186.138 -756.682)" fill="#ffcd91"/><g transform="translate(3.964 20.813)"><g transform="translate(29.49 14.683)"><path d="M220.292,788.486a84.407,84.407,0,0,1-15.57-1.256,1.266,1.266,0,0,1,.51-2.48,90.047,90.047,0,0,0,19.868,1.1,1.265,1.265,0,0,1,.114,2.528C223.49,788.452,221.846,788.486,220.292,788.486Z" transform="translate(-203.712 -784.724)" fill="#ffa06d"/></g><g transform="translate(8.563 74.741)"><path d="M234.412,820.841a1.265,1.265,0,0,1-.006-2.53c6.71-.034,13.5-.242,20.171-.613a1.265,1.265,0,0,1,.141,2.526c-6.716.375-13.546.583-20.3.617Zm-20.239-.417-.061,0c-12.573-.592-20.222-1.62-20.3-1.63a1.266,1.266,0,0,1,.341-2.509c.074.011,7.626,1.024,20.075,1.61a1.266,1.266,0,0,1-.057,2.53Z" transform="translate(-192.719 -816.274)" fill="#ffa06d"/></g><g transform="translate(0 166.185)"><path d="M249.432,871.033c-6.272,0-12.886-.167-19.659-.5a1.268,1.268,0,0,1-1.2-1.327,1.25,1.25,0,0,1,1.327-1.2c6.731.327,13.3.493,19.535.493h.649a1.266,1.266,0,0,1,0,2.532h-.649Zm20.879-.683a1.265,1.265,0,0,1-.088-2.526c6.421-.449,12.448-1.129,17.915-2.022a1.266,1.266,0,1,1,.407,2.5c-5.543.9-11.648,1.591-18.143,2.046C270.37,870.35,270.341,870.35,270.31,870.35Zm-60.681-1.228c-.038,0-.078,0-.116-.006-12.073-1.095-20.131-2.273-20.211-2.284a1.266,1.266,0,0,1-1.068-1.437,1.253,1.253,0,0,1,1.435-1.066c.08.01,8.075,1.178,20.072,2.267a1.266,1.266,0,0,1-.112,2.526Z" transform="translate(-188.221 -864.311)" fill="#ffa06d"/></g><g transform="translate(44.953)"><path d="M220.964,990.356a1.264,1.264,0,0,1-1.262-1.218l-.318-8.5a1.264,1.264,0,0,1,1.216-1.312,1.278,1.278,0,0,1,1.312,1.218l.318,8.5a1.267,1.267,0,0,1-1.218,1.312Zm-1.072-28.733a1.265,1.265,0,0,1-1.264-1.218l-.754-20.232a1.265,1.265,0,0,1,2.528-.093l.754,20.231a1.262,1.262,0,0,1-1.216,1.31Zm-1.51-40.463a1.264,1.264,0,0,1-1.262-1.218l-.756-20.23a1.264,1.264,0,0,1,1.216-1.312,1.24,1.24,0,0,1,1.312,1.217l.756,20.231a1.267,1.267,0,0,1-1.218,1.312Zm-1.51-40.463a1.264,1.264,0,0,1-1.264-1.218l-.754-20.232a1.265,1.265,0,1,1,2.528-.093l.754,20.231a1.264,1.264,0,0,1-1.216,1.312Zm-1.51-40.461a1.265,1.265,0,0,1-1.264-1.218l-.754-20.233a1.265,1.265,0,0,1,1.218-1.31,1.239,1.239,0,0,1,1.31,1.216l.754,20.231a1.264,1.264,0,0,1-1.216,1.312Zm-1.51-40.463a1.264,1.264,0,0,1-1.262-1.218l-.756-20.232a1.265,1.265,0,1,1,2.528-.1l.756,20.231a1.266,1.266,0,0,1-1.218,1.312Z" transform="translate(-211.836 -777.011)" fill="#ffa06d"/></g></g><g transform="translate(35.858)"><g transform="translate(6.739)"><path d="M216.4,781.984h0a7.889,7.889,0,0,1-7.889-7.89v-.126a7.889,7.889,0,0,1,7.889-7.89h0a7.889,7.889,0,0,1,7.889,7.89v.126A7.889,7.889,0,0,1,216.4,781.984Z" transform="translate(-208.515 -766.077)" fill="#124c64"/></g><rect width="7.388" height="14.549" transform="translate(10.934 13.479)" fill="#124c64"/><path d="M233.725,776.474H205.48l-.506,8.326H234.23Z" transform="translate(-204.975 -756.682)" fill="#124c64"/></g></g><g transform="translate(0 41.419)"><path d="M199.272,793.265a8.289,8.289,0,0,0-7.321,6.387c-.963,3.4-6.8,39.536-10.759,69.98-3.786,29.1-9.859,44.089-9.859,44.089l35.881,2.014L228.2,878.7Z" transform="translate(-171.333 -782.929)" fill="#ea526f"/><path d="M239.935,843.072s8,12.825,9.937,20.593,10.032,50.061,5.743,73.144-25.741,41.862-29.919,43.258-40.764,0-40.764,0-20.675-56.461,23.626-100.986c0,0-25.206-67.565-24.541-74.686s15.128-13.518,29.586-16.379l13.837,19.19,3.286,6.109Z" transform="translate(-163.399 -787.672)" fill="#ef7e93"/><g transform="translate(75.01 85.867)"><path d="M211.546,834.639l8.361-.023a.837.837,0,0,0,0-1.673l-8.361.021a.838.838,0,0,0,0,1.675Z" transform="translate(-210.737 -832.943)" fill="#fceade"/><g transform="translate(1.822 25.731)"><path d="M212.5,848.156l8.361-.023a.837.837,0,0,0,0-1.673l-8.361.023a.837.837,0,0,0,0,1.673Z" transform="translate(-211.694 -846.46)" fill="#fceade"/></g><g transform="translate(2.64 48.628)"><path d="M212.931,860.184l8.363-.023a.837.837,0,0,0,0-1.673l-8.363.023a.837.837,0,0,0,0,1.673Z" transform="translate(-212.124 -858.488)" fill="#fceade"/></g></g><g transform="translate(16.364)"><path d="M195.569,794.288a80.07,80.07,0,0,1,18.294-5.772l-.394-.16,12.021,16.67c.588.817,1.23,1.612,1.772,2.459.716,1.117,1.281,2.36,1.909,3.529.417.777.824,1.559,1.253,2.328a1.122,1.122,0,0,1,.192.421c.3.889.556,1.8.834,2.694l7.161,23.144a19.945,19.945,0,0,0,1.639,4.544,122.316,122.316,0,0,1,6.986,13.076,51.828,51.828,0,0,1,3.442,11.109c.885,4.321,1.654,8.669,2.351,13.025a263.294,263.294,0,0,1,3.613,36.65,99.365,99.365,0,0,1-.946,17.412,57.094,57.094,0,0,1-6.539,18.471,82.347,82.347,0,0,1-10.877,15.218,64.612,64.612,0,0,1-9.668,9.071,11.157,11.157,0,0,1-2.842,1.719,12.011,12.011,0,0,1-3.008.4c-3.916.257-7.858.227-11.781.2-8.123-.049-16.245-.272-24.364-.558q-.757-.026-1.517-.055l.337.257a57.1,57.1,0,0,1-1.7-5.842,105.612,105.612,0,0,1-2.637-15.72,107.1,107.1,0,0,1,.236-22.35,94.3,94.3,0,0,1,24.549-53.5q1.508-1.648,3.086-3.234a.34.34,0,0,0,.089-.339q-4.537-12.013-9.076-24.023-.634-1.673-1.264-3.345c-.158-.415-.832-.236-.672.187q3.9,10.319,7.8,20.641.945,2.5,1.89,5l.506,1.34a1.056,1.056,0,0,1,.116.306c0,.021.03.05.027.069-.013.059-.124-.139-.145-.1-.126.257-.495.5-.7.718a99.92,99.92,0,0,0-14.5,18.943,95.834,95.834,0,0,0-12.387,37.217,108.408,108.408,0,0,0,.7,29.957c.52,3.225,1.18,6.43,2.012,9.59a33.5,33.5,0,0,0,1.331,4.472c.027.063.046.129.069.192a.361.361,0,0,0,.335.255q9.608.369,19.221.531c4.609.082,9.219.137,13.828.051,1.694-.032,3.39-.076,5.081-.2a10.866,10.866,0,0,0,2.833-.428,12.108,12.108,0,0,0,2.954-1.789,51.641,51.641,0,0,0,4.367-3.653,85.086,85.086,0,0,0,10.879-12.254,71.448,71.448,0,0,0,9.4-17.041,60.358,60.358,0,0,0,3.5-17.641c.761-12.467-.426-25.069-2.06-37.421-1.161-8.787-2.517-17.622-4.546-26.257-1.2-5.13-3.693-9.946-6.189-14.553q-1.582-2.915-3.291-5.762c-.213-.354-.472-.7-.655-1.076.069.141-.063-.2-.093-.306-2.149-7.152-4.416-14.27-6.625-21.4-.8-2.595-1.5-5.252-2.418-7.811a20.677,20.677,0,0,0-1.42-2.734c-.653-1.216-1.239-2.515-1.985-3.676-1.6-2.494-3.489-4.841-5.22-7.241q-3.643-5.054-7.289-10.106l-1.3-1.8a.367.367,0,0,0-.394-.16,80.707,80.707,0,0,0-18.459,5.842c-.407.19-.053.79.352.6Z" transform="translate(-179.929 -787.835)" fill="#124c64"/></g></g></g><g transform="translate(244.627 1034.247)"><g transform="translate(3.731 20.053)"><path d="M224.222,894.538l1.1,0,0-1.647-41.744.053a5.012,5.012,0,0,0,.013,10.024l41.744-.055,0-1.426-1.1,0Z" transform="translate(-178.574 -892.889)" fill="#ffa06d"/><g transform="translate(4.251 1.649)"><path d="M222.49,893.755l.01,6.946-38.3.051a3.429,3.429,0,0,1-3.388-3.468,3.521,3.521,0,0,1,.986-2.459,3.339,3.339,0,0,1,2.393-1.02Z" transform="translate(-180.807 -893.755)" fill="#fff"/></g><g transform="translate(8.094 3.408)"><path d="M220.668,894.679l0,1.062-37.314.048a.529.529,0,0,1-.529-.529v0a.531.531,0,0,1,.527-.531Z" transform="translate(-182.826 -894.679)" fill="#e9cec2"/></g><g transform="translate(8.096 6.023)"><path d="M220.671,896.053l0,1.062-37.314.047a.531.531,0,0,1-.531-.529v0a.532.532,0,0,1,.529-.531Z" transform="translate(-182.827 -896.053)" fill="#e9cec2"/></g></g><g transform="translate(0 10.032)"><path d="M222.262,889.275l1.1,0,0-1.649-41.742.055a5.012,5.012,0,0,0,.011,10.024l41.744-.055,0-1.428-1.1,0Z" transform="translate(-176.614 -887.625)" fill="#106384"/><g transform="translate(4.251 1.65)"><path d="M220.53,888.492l.009,6.946-38.3.049a3.427,3.427,0,0,1-3.388-3.466,3.519,3.519,0,0,1,.988-2.461,3.33,3.33,0,0,1,2.391-1.018Z" transform="translate(-178.847 -888.492)" fill="#fff"/></g><g transform="translate(8.094 3.409)"><path d="M218.708,889.416l0,1.062-37.315.048a.532.532,0,0,1-.529-.529v0a.532.532,0,0,1,.529-.529Z" transform="translate(-180.866 -889.416)" fill="#e9cec2"/></g><g transform="translate(8.098 6.023)"><path d="M218.71,890.789l0,1.064L181.4,891.9a.53.53,0,0,1-.529-.529v0a.53.53,0,0,1,.527-.531Z" transform="translate(-180.868 -890.789)" fill="#e9cec2"/></g></g><g transform="translate(7.277)"><path d="M226.085,884l1.1,0,0-1.647-41.742.053a5.012,5.012,0,1,0,.011,10.024l41.744-.055,0-1.426h-1.1Z" transform="translate(-180.437 -882.355)" fill="#ea526f"/><g transform="translate(4.251 1.649)"><path d="M224.353,883.221l.01,6.946-38.3.05a3.427,3.427,0,0,1-3.388-3.466,3.511,3.511,0,0,1,.988-2.459,3.323,3.323,0,0,1,2.391-1.02Z" transform="translate(-182.67 -883.221)" fill="#fff"/></g><g transform="translate(8.094 3.408)"><path d="M222.531,884.145l0,1.062-37.314.048a.531.531,0,0,1-.529-.529v0a.532.532,0,0,1,.529-.531Z" transform="translate(-184.689 -884.145)" fill="#e9cec2"/></g><g transform="translate(8.098 6.023)"><path d="M222.533,885.519l0,1.062-37.315.048a.529.529,0,0,1-.529-.529v0a.531.531,0,0,1,.527-.531Z" transform="translate(-184.691 -885.519)" fill="#e9cec2"/></g></g></g><g transform="translate(252.883 1005.162)"><g transform="translate(2.315)"><g transform="translate(0 0.157)"><g transform="translate(0 2.988)"><rect width="3.006" height="22.661" transform="translate(0 0.455) rotate(-8.71)" fill="#d76751"/></g><g transform="translate(0)"><path d="M185.139,870.147l-2.971.455.654-2.269.339-1.174.675,1.019Z" transform="translate(-182.167 -867.159)" fill="#f49d8b"/></g><g transform="translate(3.182 23.76)"><rect width="3.006" height="1.646" transform="translate(0 0.455) rotate(-8.71)" fill="#1b3431"/></g><g transform="translate(3.432 25.387)"><path d="M186.942,881.824l-2.576.394a.2.2,0,0,1-.228-.168l-.168-1.1,2.972-.457.168,1.1A.2.2,0,0,1,186.942,881.824Z" transform="translate(-183.97 -880.495)" fill="#df615c"/></g><g transform="translate(0.654)"><path d="M183.525,868.178l-1.014.155.339-1.174Z" transform="translate(-182.511 -867.159)" fill="#1b3431"/></g><g transform="translate(3.004 22.593)"><rect width="3.006" height="1.181" transform="matrix(0.988, -0.151, 0.151, 0.988, 0, 0.455)" fill="#ba4131"/></g><g transform="translate(0.905 4.17)"><path d="M182.645,869.613l2.541,16.588a.23.23,0,0,0,.263.192h0a.232.232,0,0,0,.192-.263L183.1,869.543a.229.229,0,0,0-.263-.19h0A.228.228,0,0,0,182.645,869.613Z" transform="translate(-182.643 -869.349)" fill="#ba4131"/></g><g transform="translate(2.068 3.989)"><path d="M183.256,869.52l2.541,16.588a.228.228,0,0,0,.261.192h0a.23.23,0,0,0,.192-.263l-2.541-16.588a.23.23,0,0,0-.261-.192h0A.231.231,0,0,0,183.256,869.52Z" transform="translate(-183.254 -869.255)" fill="#ba4131"/></g></g><g transform="translate(5.337)"><g transform="translate(0 3.248)"><rect width="3.006" height="22.661" transform="translate(0 0.01) rotate(-0.188)" fill="#5a918e"/></g><path d="M187.977,870.325l-3.006.01.983-2.147.509-1.111.517,1.108Z" transform="translate(-184.971 -867.076)" fill="#f49d8b"/><g transform="translate(0.069 24.262)"><rect width="3.006" height="1.646" transform="translate(0 0.01) rotate(-0.188)" fill="#1b3431"/></g><g transform="translate(0.074 25.909)"><path d="M187.82,882l-2.606.008a.2.2,0,0,1-.2-.2l0-1.112,3.006-.01,0,1.112A.2.2,0,0,1,187.82,882Z" transform="translate(-185.01 -880.687)" fill="#df615c"/></g><g transform="translate(0.983)"><path d="M186.513,868.184l-1.026,0,.509-1.111Z" transform="translate(-185.488 -867.076)" fill="#1b3431"/></g><g transform="translate(0.065 23.082)"><rect width="3.006" height="1.181" transform="translate(0 0.01) rotate(-0.188)" fill="#285b5c"/></g><g transform="translate(0.752 4.141)"><path d="M185.366,869.482l.053,16.782a.232.232,0,0,0,.23.228h0a.23.23,0,0,0,.23-.23l-.055-16.78a.231.231,0,0,0-.23-.23h0A.228.228,0,0,0,185.366,869.482Z" transform="translate(-185.366 -869.252)" fill="#285b5c"/></g><g transform="translate(1.926 4.138)"><path d="M185.983,869.48l.055,16.78a.228.228,0,0,0,.23.229h0a.227.227,0,0,0,.228-.23l-.053-16.78a.23.23,0,0,0-.232-.228h0A.229.229,0,0,0,185.983,869.48Z" transform="translate(-185.983 -869.25)" fill="#285b5c"/></g></g><g transform="translate(7.208 0.135)"><g transform="translate(0.158 3.009)"><rect width="22.661" height="3.006" transform="translate(0 22.436) rotate(-81.914)" fill="#ed9033"/></g><g transform="translate(3.345)"><path d="M190.687,870.58l-2.976-.423,1.282-1.983.664-1.026.352,1.171Z" transform="translate(-187.711 -867.148)" fill="#f49d8b"/></g><g transform="translate(0.158 23.815)"><rect width="3.006" height="1.646" transform="translate(0.232 0) rotate(8.086)" fill="#1b3431"/></g><g transform="translate(0 25.444)"><path d="M188.7,882.208l-2.579-.365a.2.2,0,0,1-.169-.226l.156-1.1,2.975.423-.156,1.1A.2.2,0,0,1,188.7,882.208Z" transform="translate(-185.954 -880.514)" fill="#df615c"/></g><g transform="translate(4.627)"><path d="M189.4,868.318l-1.016-.144.664-1.026Z" transform="translate(-188.384 -867.148)" fill="#1b3431"/></g><g transform="translate(0.389 22.646)"><rect width="1.181" height="3.006" transform="translate(0 1.169) rotate(-81.911)" fill="#c67022"/></g><g transform="translate(1.565 4.023)"><path d="M189.139,869.457l-2.36,16.615a.233.233,0,0,0,.2.261h0a.23.23,0,0,0,.259-.2l2.36-16.615a.227.227,0,0,0-.194-.259h0A.231.231,0,0,0,189.139,869.457Z" transform="translate(-186.776 -869.261)" fill="#c67022"/></g><g transform="translate(2.73 4.187)"><path d="M189.75,869.545l-2.36,16.615a.23.23,0,0,0,.194.259h0a.232.232,0,0,0,.261-.194l2.36-16.615a.232.232,0,0,0-.2-.261h0A.23.23,0,0,0,189.75,869.545Z" transform="translate(-187.388 -869.347)" fill="#c67022"/></g></g></g><g transform="translate(0 11.442)"><path d="M197.853,873.618l-.242,2.188-.1.877L196,890.276H183.244L181.9,878.2l-.266-2.393-.242-2.187Z" transform="translate(-180.552 -872.608)" fill="#ffcd91"/><path d="M197.5,874.767l-.1.877-15.612,1.516-.266-2.393Z" transform="translate(-180.437 -871.57)" fill="#ffa06d"/><path d="M198.788,876.284h-17.5l-.337-3.2h18.173Z" transform="translate(-180.951 -873.087)" fill="#ffcd91"/></g></g></g></svg>