<svg xmlns="http://www.w3.org/2000/svg" xmlns:xlink="http://www.w3.org/1999/xlink" width="1328" height="496" viewBox="0 0 1328 496">
  <defs>
    <clipPath id="clip-path">
      <rect id="Rect치ngulo_306558" data-name="Rect치ngulo 306558" width="30.354" height="54.613" fill="none"/>
    </clipPath>
  </defs>
  <g id="Grupo_1015053" data-name="Grupo 1015053" transform="translate(-136 -12196)">
    <rect id="Rect치ngulo_344693" data-name="Rect치ngulo 344693" width="1328" height="496" transform="translate(136 12196)" fill="#0ce6ea"/>
    <g id="ICONO2" transform="matrix(0.788, 0.616, -0.616, 0.788, 1369.191, 12220.447)">
      <g id="XMLID_659_" transform="translate(0 0)">
        <g id="Grupo_80114" data-name="Grupo 80114" transform="translate(1.255 1.246)">
          <g id="Grupo_80108" data-name="Grupo 80108" transform="translate(57.364 4.977)">
            <path id="Trazado_628702" data-name="Trazado 628702" d="M7.9,3.657A3.954,3.954,0,1,1,3.664.011,3.951,3.951,0,0,1,7.9,3.657Z" transform="translate(0 0)" fill="#eee"/>
          </g>
          <g id="Grupo_80109" data-name="Grupo 80109" transform="translate(38.911 17.758)">
            <path id="Trazado_628703" data-name="Trazado 628703" d="M11.419,1.849c4.471,2.9,8.682,9.924,9.426,25.807.178,3.519-1.942,6.636-4.9,7.246a58.588,58.588,0,0,1-11.873.967c2.515-1.4,2.715-3.05,2.715-3.05S8.4,8.916,0,1.016C-.007,1.016,5.892-1.752,11.419,1.849Z" transform="translate(0 0)" fill="#a9b0d4"/>
          </g>
          <g id="Grupo_80110" data-name="Grupo 80110" transform="translate(19.444 16.251)">
            <path id="Trazado_628704" data-name="Trazado 628704" d="M13.2,0a8.856,8.856,0,0,1,6.271,2.515c8.4,7.9,6.785,31.8,6.785,31.8s-.2,1.652-2.715,3.05c-1.875,1.042-5.029,1.949-10.341,1.949s-8.451-.9-10.326-1.949H2.855c-2.515-1.4-2.73-3.05-2.73-3.05S-1.49,10.43,6.909,2.507A8.949,8.949,0,0,1,13.2,0Z" transform="translate(0 0)" fill="#c9cde2"/>
          </g>
          <g id="Grupo_80111" data-name="Grupo 80111" transform="translate(28.679 0)">
            <path id="Trazado_628705" data-name="Trazado 628705" d="M4.243.011A3.952,3.952,0,0,1,3.953,7.9a2,2,0,0,1-.3-.015A3.95,3.95,0,1,1,4.243.011Z" transform="translate(0)" fill="#eee"/>
          </g>
          <g id="Grupo_80112" data-name="Grupo 80112" transform="translate(5.499 17.755)">
            <path id="Trazado_628706" data-name="Trazado 628706" d="M9.442,1.852C14.873-1.674,20.646.9,20.854,1c-8.4,7.923-6.785,31.811-6.785,31.811s.216,1.652,2.73,3.05A58.267,58.267,0,0,1,4.911,34.9c-2.953-.61-5.066-3.727-4.9-7.246C.753,11.776,4.986,4.761,9.442,1.852Z" transform="translate(0 0)" fill="#a9b0d4"/>
          </g>
          <g id="Grupo_80113" data-name="Grupo 80113" transform="translate(0 4.977)">
            <path id="Trazado_628707" data-name="Trazado 628707" d="M4.243.011A3.954,3.954,0,1,1,.01,3.657,3.94,3.94,0,0,1,4.243.011Z" transform="translate(0 0)" fill="#eee"/>
          </g>
        </g>
        <g id="Grupo_80126" data-name="Grupo 80126" transform="translate(0 0)">
          <g id="Grupo_80115" data-name="Grupo 80115" transform="translate(26.356 16.24)">
            <path id="Trazado_628708" data-name="Trazado 628708" d="M13.8,5.029a1.229,1.229,0,0,1-.856-.342,7.572,7.572,0,0,0-5.408-2.18A7.641,7.641,0,0,0,2.107,4.672,1.253,1.253,0,1,1,.4,2.842,10.182,10.182,0,0,1,7.53,0a10.1,10.1,0,0,1,7.127,2.857,1.249,1.249,0,0,1,.052,1.771A1.209,1.209,0,0,1,13.8,5.029Z" transform="translate(0 0)" fill="#2e2e72"/>
          </g>
          <g id="Grupo_80116" data-name="Grupo 80116" transform="translate(22.311 53.615)">
            <path id="Trazado_628709" data-name="Trazado 628709" d="M11.583,4.457c-4.731,0-8.392-.7-10.891-2.09A1.258,1.258,0,0,1,0,1.251,1.241,1.241,0,0,1,1.242,0a1.3,1.3,0,0,1,.625.156C3.958,1.333,7.32,1.95,11.583,1.95c4.24,0,7.61-.618,9.731-1.793a1.254,1.254,0,0,1,1.213,2.195C20,3.751,16.315,4.457,11.583,4.457Z" transform="translate(0 0)" fill="#2e2e72"/>
          </g>
          <g id="Grupo_80117" data-name="Grupo 80117" transform="translate(38.907 17.739)">
            <path id="Trazado_628710" data-name="Trazado 628710" d="M5.321,38.384a1.251,1.251,0,0,1-.61-2.343c1.845-1.027,2.076-2.105,2.091-2.157C6.8,33.756,8.267,10.59.4,3.188A1.238,1.238,0,0,1,.016,2.079a1.256,1.256,0,0,1,.707-.937c.268-.126,6.6-3.02,12.64.922,5.981,3.891,9.344,12.907,9.991,26.8.208,4.121-2.336,7.789-5.9,8.533A60.966,60.966,0,0,1,5.321,38.384ZM3.468,2.861c7.209,9.255,5.885,30.353,5.818,31.3a4.014,4.014,0,0,1-.662,1.666,48.5,48.5,0,0,0,8.31-.885c2.381-.491,4.062-3.05,3.913-5.959-.6-12.863-3.66-21.44-8.853-24.818h0A10.832,10.832,0,0,0,3.468,2.861Z" transform="translate(0 0)" fill="#2e2e72"/>
          </g>
          <g id="Grupo_80118" data-name="Grupo 80118" transform="translate(5.496 17.769)">
            <path id="Trazado_628711" data-name="Trazado 628711" d="M18.058,38.354a61.03,61.03,0,0,1-12.148-.989c-3.549-.736-6.085-4.4-5.9-8.526.655-13.882,4.025-22.9,10.006-26.8C16.086-1.9,22.581,1.075,22.648,1.1a1.254,1.254,0,0,1,.32,2.046c-7.878,7.432-6.413,30.583-6.39,30.821v-.007a4.123,4.123,0,0,0,2.09,2.046,1.251,1.251,0,0,1-.61,2.343Zm-1-35.865a10.259,10.259,0,0,0-5.669,1.644C6.192,7.517,3.127,16.095,2.517,28.95c-.134,2.909,1.547,5.468,3.913,5.959a50.138,50.138,0,0,0,8.317.885,4.043,4.043,0,0,1-.655-1.585c-.074-1.012-1.4-22.11,5.81-31.379A12.186,12.186,0,0,0,17.053,2.488Z" transform="translate(0 0)" fill="#2e2e72"/>
          </g>
          <g id="Grupo_80119" data-name="Grupo 80119" transform="translate(26.357 18.747)">
            <path id="Trazado_628712" data-name="Trazado 628712" d="M1.259,2.515A1.242,1.242,0,0,1,.4,2.173L.388,2.158a1.25,1.25,0,1,1,1.771-.03A1.229,1.229,0,0,1,1.259,2.515Z" transform="translate(0 0)" fill="#2e2e72"/>
          </g>
          <g id="Grupo_80120" data-name="Grupo 80120" transform="translate(32.644 7.908)">
            <path id="Trazado_628713" data-name="Trazado 628713" d="M1.25,17.6A1.248,1.248,0,0,1,0,16.352V1.25a1.25,1.25,0,1,1,2.5,0v15.1A1.248,1.248,0,0,1,1.25,17.6Z" transform="translate(0 0)" fill="#2e2e72"/>
          </g>
          <g id="Grupo_80121" data-name="Grupo 80121" transform="translate(28.686 0)">
            <path id="Trazado_628714" data-name="Trazado 628714" d="M5.208,10.408a3.191,3.191,0,0,1-.461-.022A5.124,5.124,0,0,1,1.257,8.592a5.2,5.2,0,0,1,.551-7.328,5.2,5.2,0,1,1,3.4,9.143ZM5.193,2.5A2.712,2.712,0,0,0,2.5,5.007,2.7,2.7,0,0,0,4.992,7.893,1.1,1.1,0,0,0,5.2,7.9,2.7,2.7,0,0,0,7.893,5.408V5.4a2.693,2.693,0,0,0-.647-1.964A2.72,2.72,0,0,0,5.394,2.5Z" transform="translate(0 0)" fill="#2e2e72"/>
          </g>
          <g id="Grupo_80122" data-name="Grupo 80122" transform="translate(6.952 11.617)">
            <path id="Trazado_628715" data-name="Trazado 628715" d="M12.643,13.893a1.244,1.244,0,0,1-.885-.365L.368,2.139A1.252,1.252,0,0,1,2.139.368l11.39,11.39a1.248,1.248,0,0,1,0,1.771A1.219,1.219,0,0,1,12.643,13.893Z" transform="translate(0 0)" fill="#2e2e72"/>
          </g>
          <g id="Grupo_80123" data-name="Grupo 80123" transform="translate(0 4.967)">
            <path id="Trazado_628716" data-name="Trazado 628716" d="M5.208,10.417c-.134,0-.26-.007-.394-.015a5.209,5.209,0,0,1-4.8-5.587A5.165,5.165,0,0,1,1.808,1.259,5.119,5.119,0,0,1,5.587.017,5.156,5.156,0,0,1,9.158,1.825,5.121,5.121,0,0,1,10.386,5.6a5.213,5.213,0,0,1-5.178,4.821ZM5.193,2.509a2.7,2.7,0,0,0-2.686,2.5A2.721,2.721,0,0,0,3.154,6.98a2.693,2.693,0,0,0,3.8.283,2.712,2.712,0,0,0,.93-1.852V5.4a2.608,2.608,0,0,0-.632-1.942,2.677,2.677,0,0,0-1.86-.937A.881.881,0,0,0,5.193,2.509Z" transform="translate(0 0)" fill="#2e2e72"/>
          </g>
          <g id="Grupo_80124" data-name="Grupo 80124" transform="translate(46.932 11.617)">
            <path id="Trazado_628717" data-name="Trazado 628717" d="M1.254,13.893a1.25,1.25,0,0,1-.885-2.135L11.758.368a1.252,1.252,0,0,1,1.771,1.771L2.139,13.529A1.244,1.244,0,0,1,1.254,13.893Z" transform="translate(0 0)" fill="#2e2e72"/>
          </g>
          <g id="Grupo_80125" data-name="Grupo 80125" transform="translate(57.373 4.971)">
            <path id="Trazado_628718" data-name="Trazado 628718" d="M5.2,10.413A5.171,5.171,0,0,1,1.808,9.149,5.137,5.137,0,0,1,.015,5.585a5.2,5.2,0,0,1,10.378-.774h0a5.206,5.206,0,0,1-4.8,5.58A3.509,3.509,0,0,1,5.2,10.413Zm.015-7.908a1.807,1.807,0,0,0-.2.007A2.7,2.7,0,0,0,3.452,7.252,2.651,2.651,0,0,0,5.416,7.9a2.7,2.7,0,0,0-.2-5.394Z" transform="translate(0 0)" fill="#2e2e72"/>
          </g>
        </g>
      </g>
    </g>
    <g id="Grupo_987220" data-name="Grupo 987220" transform="matrix(0.819, -0.574, 0.574, 0.819, 1349.926, 12600.887)">
      <path id="Trazado_628673" data-name="Trazado 628673" d="M24.6,0H0V5.095H28.553V0Z" transform="translate(0.9 48.618)" fill="#abb0d3"/>
      <path id="Trazado_628674" data-name="Trazado 628674" d="M0,0V5.095H28.553V0Z" transform="translate(0.9 0.9)" fill="#abb0d3"/>
      <path id="Trazado_628675" data-name="Trazado 628675" d="M20.65,0V21.316H0Z" transform="translate(4.852 27.302)" fill="#cacde1"/>
      <path id="Trazado_628676" data-name="Trazado 628676" d="M20.65,0V21.307L0,0Z" transform="translate(4.852 5.995)" fill="#cacde1"/>
      <path id="Trazado_628677" data-name="Trazado 628677" d="M0,0,20.65,21.307,0,42.623Z" transform="translate(4.852 5.995)" fill="#eee"/>
      <g id="Grupo_80081" data-name="Grupo 80081" transform="translate(0 0)">
        <g id="Grupo_80080" data-name="Grupo 80080" transform="translate(0 0)" clip-path="url(#clip-path)">
          <path id="Trazado_628678" data-name="Trazado 628678" d="M29.454,6.9H25.5a.9.9,0,1,1,0-1.8h3.052V1.8H1.8V5.095H4.852a.9.9,0,0,1,0,1.8H.9A.9.9,0,0,1,0,6V.9A.9.9,0,0,1,.9,0H29.454a.9.9,0,0,1,.9.9V6a.9.9,0,0,1-.9.9" transform="translate(0 0)" fill="#323270"/>
          <path id="Trazado_628679" data-name="Trazado 628679" d="M29.454,6.9H.9A.9.9,0,0,1,0,6V.9A.9.9,0,0,1,.9,0H4.852a.9.9,0,0,1,0,1.8H1.8V5.095H28.553V1.8H25.5a.9.9,0,1,1,0-1.8h3.952a.9.9,0,0,1,.9.9V6a.9.9,0,0,1-.9.9" transform="translate(0 47.718)" fill="#323270"/>
          <path id="Trazado_628680" data-name="Trazado 628680" d="M21.55,44.423H.9a.9.9,0,0,1-.9-.9V.9A.9.9,0,0,1,.9,0H21.55a.9.9,0,0,1,.9.9V43.523a.9.9,0,0,1-.9.9M1.8,42.623H20.65V1.8H1.8Z" transform="translate(3.952 5.095)" fill="#323270"/>
          <path id="Trazado_628681" data-name="Trazado 628681" d="M.9,44.423A.9.9,0,0,1,.254,42.9L20.3,22.207.254,1.527A.9.9,0,1,1,1.547.274L22.2,21.581a.9.9,0,0,1,0,1.253L1.547,44.15a.9.9,0,0,1-.646.274" transform="translate(3.951 5.095)" fill="#323270"/>
        </g>
      </g>
    </g>
  </g>
</svg>
