<svg xmlns="http://www.w3.org/2000/svg" width="78" height="78" viewBox="0 0 78 78">
  <g id="layer1" transform="translate(-678.001 -452.997)">
    <path id="path41414" d="M688.761,471a1.957,1.957,0,0,0-1.76,1.942V494.4a1.95,1.95,0,0,0,1.95,1.95H710.4a1.95,1.95,0,0,0,1.379-3.329l-21.45-21.45a1.951,1.951,0,0,0-1.569-.564Zm2.141,6.65,14.793,14.793H690.9Z" transform="translate(8.55 17.099)" fill="#12263f"/>
    <path id="path41402" d="M680.332,453.034A1.949,1.949,0,0,0,678,454.946v74.1a1.95,1.95,0,0,0,1.95,1.95h74.1a1.95,1.95,0,0,0,1.379-3.329l-74.1-74.1A1.951,1.951,0,0,0,680.332,453.034Zm1.569,6.619L749.344,527.1H734.551v-5.85a1.95,1.95,0,0,0-3.9,0v5.85h-3.9v-1.95a1.95,1.95,0,0,0-3.9,0v1.95h-3.9v-5.85a1.95,1.95,0,0,0-3.9,0v5.85h-3.9v-1.95a1.95,1.95,0,0,0-3.9,0v1.95h-3.9v-5.85a1.95,1.95,0,0,0-3.9,0v5.85h-3.9v-1.95a1.95,1.95,0,0,0-3.9,0v1.95H681.9v-5.85h5.85a1.95,1.95,0,0,0,0-3.9H681.9v-3.9h1.95a1.95,1.95,0,0,0,0-3.9H681.9v-3.9h5.85a1.95,1.95,0,0,0,0-3.9H681.9v-3.9h1.95a1.95,1.95,0,0,0,0-3.9H681.9v-3.9h1.95a1.95,1.95,0,0,0,0-3.9H681.9v-3.9h5.85a1.95,1.95,0,0,0,0-3.9H681.9v-3.9h1.95a1.95,1.95,0,0,0,0-3.9H681.9Z" transform="translate(0 0)" fill="#12263f"/>
  </g>
</svg>
