<svg xmlns="http://www.w3.org/2000/svg" width="56.685" height="56.685" viewBox="0 0 56.685 56.685">
  <g id="capas" transform="translate(0 0)">
    <g id="Grupo_1008138" data-name="Grupo 1008138" transform="translate(0 0.001)">
      <path id="Trazado_735331" data-name="Trazado 735331" d="M56.685,28.341a3.81,3.81,0,0,0-1.915-3.288L51.613,23.2l3.159-1.877a3.779,3.779,0,0,0,0-6.571C50.827,12.4,37.448,4.451,30.853.671a5.039,5.039,0,0,0-5.035.008S7.883,11.213,1.915,14.747a3.78,3.78,0,0,0,0,6.574L5.071,23.2,1.915,25.054a3.78,3.78,0,0,0,0,6.574L5.071,33.5,1.915,35.361a3.78,3.78,0,0,0,0,6.574C7.018,44.97,19.566,52.42,25.831,56.012a5.021,5.021,0,0,0,5.025,0c6.263-3.591,18.811-11.04,23.916-14.078a3.779,3.779,0,0,0,0-6.573L51.614,33.5l3.159-1.877A3.818,3.818,0,0,0,56.685,28.341ZM3.231,19.11a1.275,1.275,0,0,1-.654-1.073,1.261,1.261,0,0,1,.652-1.071C9.189,13.436,27.1,2.917,27.1,2.918a2.446,2.446,0,0,1,2.476-.009C36.15,6.68,49.516,14.621,53.454,16.963a1.206,1.206,0,0,1,0,2.145c-5.1,3.032-17.631,10.474-23.879,14.054a2.456,2.456,0,0,1-2.463,0C20.862,29.582,8.329,22.141,3.231,19.11ZM53.456,37.579a1.205,1.205,0,0,1,0,2.143c-5.1,3.032-17.631,10.474-23.879,14.054a2.456,2.456,0,0,1-2.463,0C20.862,50.195,8.329,42.753,3.231,39.722a1.275,1.275,0,0,1-.654-1.073,1.261,1.261,0,0,1,.652-1.071L7.6,35.006c5.909,3.5,13.7,8.1,18.231,10.7a5.022,5.022,0,0,0,5.025,0c4.524-2.594,12.319-7.2,18.228-10.7Zm0-8.164c-5.1,3.032-17.631,10.474-23.879,14.054a2.456,2.456,0,0,1-2.463,0C20.862,39.888,8.329,32.447,3.231,29.416a1.275,1.275,0,0,1-.654-1.073,1.261,1.261,0,0,1,.652-1.071L7.6,24.7c5.909,3.5,13.7,8.1,18.231,10.7a5.022,5.022,0,0,0,5.025,0c4.524-2.594,12.319-7.2,18.228-10.7l4.372,2.573a1.205,1.205,0,0,1,0,2.143Z" transform="translate(0 -0.001)" fill="#12263f"/>
    </g>
  </g>
</svg>
