<svg xmlns="http://www.w3.org/2000/svg" xmlns:xlink="http://www.w3.org/1999/xlink" width="477.429" height="377.384" viewBox="0 0 477.429 377.384">
  <defs>
    <clipPath id="clip-path">
      <path id="Trazado_113926" data-name="Trazado 113926" d="M48.264,0A48.263,48.263,0,1,1,0,48.264,48.263,48.263,0,0,1,48.264,0Z" transform="translate(0 -0.001)" fill="#1448d3"/>
    </clipPath>
  </defs>
  <g id="Grupo_1015053" data-name="Grupo 1015053" transform="translate(-915 -410.615)">
    <g id="Grupo_987329" data-name="Grupo 987329" transform="translate(10133.821 11787.895)">
      <path id="Rect치ngulo_33771" data-name="Rect치ngulo 33771" d="M94.71,0h0a94.71,94.71,0,0,1,94.71,94.71V306.151a0,0,0,0,1,0,0H0a0,0,0,0,1,0,0V94.71A94.71,94.71,0,0,1,94.71,0Z" transform="translate(-8944.001 -11340.384)" fill="#ff6e33"/>
      <g id="Grupo_80252" data-name="Grupo 80252" transform="translate(-8837.919 -11377.279)">
        <g id="Grupo_80252-2" data-name="Grupo 80252" clip-path="url(#clip-path)">
          <path id="Trazado_113845" data-name="Trazado 113845" d="M0,1.27A1.27,1.27,0,1,1,1.27,2.54,1.27,1.27,0,0,1,0,1.27" transform="translate(93.986 -0.001)" fill="#1448d3"/>
          <path id="Trazado_113846" data-name="Trazado 113846" d="M10.076,1.27a1.27,1.27,0,1,1,1.27,1.27,1.27,1.27,0,0,1-1.27-1.27" transform="translate(72.162 -0.001)" fill="#1448d3"/>
          <path id="Trazado_113847" data-name="Trazado 113847" d="M20.151,1.27a1.27,1.27,0,1,1,1.27,1.27,1.27,1.27,0,0,1-1.27-1.27" transform="translate(50.339 -0.001)" fill="#1448d3"/>
          <path id="Trazado_113848" data-name="Trazado 113848" d="M30.225,1.27a1.27,1.27,0,1,1,1.27,1.27,1.27,1.27,0,0,1-1.27-1.27" transform="translate(28.516 -0.001)" fill="#1448d3"/>
          <path id="Trazado_113849" data-name="Trazado 113849" d="M40.3,1.27a1.27,1.27,0,1,1,1.27,1.27A1.27,1.27,0,0,1,40.3,1.27" transform="translate(6.692 -0.001)" fill="#1448d3"/>
          <path id="Trazado_113850" data-name="Trazado 113850" d="M50.376,1.27a1.27,1.27,0,1,1,1.27,1.27,1.27,1.27,0,0,1-1.27-1.27" transform="translate(-15.131 -0.001)" fill="#1448d3"/>
          <path id="Trazado_113851" data-name="Trazado 113851" d="M60.45,1.27a1.27,1.27,0,1,1,1.27,1.27,1.27,1.27,0,0,1-1.27-1.27" transform="translate(-36.953 -0.001)" fill="#1448d3"/>
          <path id="Trazado_113852" data-name="Trazado 113852" d="M70.526,1.27A1.27,1.27,0,1,1,71.8,2.54a1.27,1.27,0,0,1-1.27-1.27" transform="translate(-58.778 -0.001)" fill="#1448d3"/>
          <path id="Trazado_113853" data-name="Trazado 113853" d="M80.6,1.27a1.27,1.27,0,1,1,1.27,1.27A1.27,1.27,0,0,1,80.6,1.27" transform="translate(-80.6 -0.001)" fill="#1448d3"/>
          <path id="Trazado_113854" data-name="Trazado 113854" d="M0,11.345a1.27,1.27,0,1,1,1.27,1.27A1.27,1.27,0,0,1,0,11.345" transform="translate(93.986 1.672)" fill="#1448d3"/>
          <path id="Trazado_113855" data-name="Trazado 113855" d="M10.076,11.345a1.27,1.27,0,1,1,1.27,1.27,1.27,1.27,0,0,1-1.27-1.27" transform="translate(72.162 1.672)" fill="#1448d3"/>
          <path id="Trazado_113856" data-name="Trazado 113856" d="M20.151,11.345a1.27,1.27,0,1,1,1.27,1.27,1.27,1.27,0,0,1-1.27-1.27" transform="translate(50.339 1.672)" fill="#1448d3"/>
          <path id="Trazado_113857" data-name="Trazado 113857" d="M30.225,11.345a1.27,1.27,0,1,1,1.27,1.27,1.27,1.27,0,0,1-1.27-1.27" transform="translate(28.516 1.672)" fill="#1448d3"/>
          <path id="Trazado_113858" data-name="Trazado 113858" d="M40.3,11.345a1.27,1.27,0,1,1,1.27,1.27,1.27,1.27,0,0,1-1.27-1.27" transform="translate(6.692 1.672)" fill="#1448d3"/>
          <path id="Trazado_113859" data-name="Trazado 113859" d="M50.376,11.345a1.27,1.27,0,1,1,1.27,1.27,1.27,1.27,0,0,1-1.27-1.27" transform="translate(-15.131 1.672)" fill="#1448d3"/>
          <path id="Trazado_113860" data-name="Trazado 113860" d="M60.45,11.345a1.27,1.27,0,1,1,1.27,1.27,1.27,1.27,0,0,1-1.27-1.27" transform="translate(-36.953 1.672)" fill="#1448d3"/>
          <path id="Trazado_113861" data-name="Trazado 113861" d="M70.526,11.345a1.27,1.27,0,1,1,1.27,1.27,1.27,1.27,0,0,1-1.27-1.27" transform="translate(-58.778 1.672)" fill="#1448d3"/>
          <path id="Trazado_113862" data-name="Trazado 113862" d="M80.6,11.345a1.27,1.27,0,1,1,1.27,1.27,1.27,1.27,0,0,1-1.27-1.27" transform="translate(-80.6 1.672)" fill="#1448d3"/>
          <path id="Trazado_113863" data-name="Trazado 113863" d="M0,21.42a1.27,1.27,0,1,1,1.27,1.27A1.27,1.27,0,0,1,0,21.42" transform="translate(93.986 3.345)" fill="#1448d3"/>
          <path id="Trazado_113864" data-name="Trazado 113864" d="M10.076,21.42a1.27,1.27,0,1,1,1.27,1.27,1.27,1.27,0,0,1-1.27-1.27" transform="translate(72.162 3.345)" fill="#1448d3"/>
          <path id="Trazado_113865" data-name="Trazado 113865" d="M20.151,21.42a1.27,1.27,0,1,1,1.27,1.27,1.27,1.27,0,0,1-1.27-1.27" transform="translate(50.339 3.345)" fill="#1448d3"/>
          <path id="Trazado_113866" data-name="Trazado 113866" d="M30.225,21.42a1.27,1.27,0,1,1,1.27,1.27,1.27,1.27,0,0,1-1.27-1.27" transform="translate(28.516 3.345)" fill="#1448d3"/>
          <path id="Trazado_113867" data-name="Trazado 113867" d="M40.3,21.42a1.27,1.27,0,1,1,1.27,1.27,1.27,1.27,0,0,1-1.27-1.27" transform="translate(6.692 3.345)" fill="#1448d3"/>
          <path id="Trazado_113868" data-name="Trazado 113868" d="M50.376,21.42a1.27,1.27,0,1,1,1.27,1.27,1.27,1.27,0,0,1-1.27-1.27" transform="translate(-15.131 3.345)" fill="#1448d3"/>
          <path id="Trazado_113869" data-name="Trazado 113869" d="M60.45,21.42a1.27,1.27,0,1,1,1.27,1.27,1.27,1.27,0,0,1-1.27-1.27" transform="translate(-36.953 3.345)" fill="#1448d3"/>
          <path id="Trazado_113870" data-name="Trazado 113870" d="M70.526,21.42a1.27,1.27,0,1,1,1.27,1.27,1.27,1.27,0,0,1-1.27-1.27" transform="translate(-58.778 3.345)" fill="#1448d3"/>
          <path id="Trazado_113871" data-name="Trazado 113871" d="M80.6,21.42a1.27,1.27,0,1,1,1.27,1.27,1.27,1.27,0,0,1-1.27-1.27" transform="translate(-80.6 3.345)" fill="#1448d3"/>
          <path id="Trazado_113872" data-name="Trazado 113872" d="M0,31.495a1.27,1.27,0,1,1,1.27,1.27A1.27,1.27,0,0,1,0,31.495" transform="translate(93.986 5.019)" fill="#1448d3"/>
          <path id="Trazado_113873" data-name="Trazado 113873" d="M10.076,31.495a1.27,1.27,0,1,1,1.27,1.27,1.27,1.27,0,0,1-1.27-1.27" transform="translate(72.162 5.019)" fill="#1448d3"/>
          <path id="Trazado_113874" data-name="Trazado 113874" d="M20.151,31.495a1.27,1.27,0,1,1,1.27,1.27,1.27,1.27,0,0,1-1.27-1.27" transform="translate(50.339 5.019)" fill="#1448d3"/>
          <path id="Trazado_113875" data-name="Trazado 113875" d="M30.225,31.495a1.27,1.27,0,1,1,1.27,1.27,1.27,1.27,0,0,1-1.27-1.27" transform="translate(28.516 5.019)" fill="#1448d3"/>
          <path id="Trazado_113876" data-name="Trazado 113876" d="M40.3,31.495a1.27,1.27,0,1,1,1.27,1.27,1.27,1.27,0,0,1-1.27-1.27" transform="translate(6.692 5.019)" fill="#1448d3"/>
          <path id="Trazado_113877" data-name="Trazado 113877" d="M50.376,31.495a1.27,1.27,0,1,1,1.27,1.27,1.27,1.27,0,0,1-1.27-1.27" transform="translate(-15.131 5.019)" fill="#1448d3"/>
          <path id="Trazado_113878" data-name="Trazado 113878" d="M60.45,31.495a1.27,1.27,0,1,1,1.27,1.27,1.27,1.27,0,0,1-1.27-1.27" transform="translate(-36.953 5.019)" fill="#1448d3"/>
          <path id="Trazado_113879" data-name="Trazado 113879" d="M70.526,31.495a1.27,1.27,0,1,1,1.27,1.27,1.27,1.27,0,0,1-1.27-1.27" transform="translate(-58.778 5.019)" fill="#1448d3"/>
          <path id="Trazado_113880" data-name="Trazado 113880" d="M80.6,31.495a1.27,1.27,0,1,1,1.27,1.27,1.27,1.27,0,0,1-1.27-1.27" transform="translate(-80.6 5.019)" fill="#1448d3"/>
          <path id="Trazado_113881" data-name="Trazado 113881" d="M0,41.57a1.27,1.27,0,1,1,1.27,1.27A1.27,1.27,0,0,1,0,41.57" transform="translate(93.986 6.692)" fill="#1448d3"/>
          <path id="Trazado_113882" data-name="Trazado 113882" d="M10.076,41.57a1.27,1.27,0,1,1,1.27,1.27,1.27,1.27,0,0,1-1.27-1.27" transform="translate(72.162 6.692)" fill="#1448d3"/>
          <path id="Trazado_113883" data-name="Trazado 113883" d="M20.151,41.57a1.27,1.27,0,1,1,1.27,1.27,1.27,1.27,0,0,1-1.27-1.27" transform="translate(50.339 6.692)" fill="#1448d3"/>
          <path id="Trazado_113884" data-name="Trazado 113884" d="M30.225,41.57a1.27,1.27,0,1,1,1.27,1.27,1.27,1.27,0,0,1-1.27-1.27" transform="translate(28.516 6.692)" fill="#1448d3"/>
          <path id="Trazado_113885" data-name="Trazado 113885" d="M40.3,41.57a1.27,1.27,0,1,1,1.27,1.27,1.27,1.27,0,0,1-1.27-1.27" transform="translate(6.692 6.692)" fill="#1448d3"/>
          <path id="Trazado_113886" data-name="Trazado 113886" d="M50.376,41.57a1.27,1.27,0,1,1,1.27,1.27,1.27,1.27,0,0,1-1.27-1.27" transform="translate(-15.131 6.692)" fill="#1448d3"/>
          <path id="Trazado_113887" data-name="Trazado 113887" d="M60.45,41.57a1.27,1.27,0,1,1,1.27,1.27,1.27,1.27,0,0,1-1.27-1.27" transform="translate(-36.953 6.692)" fill="#1448d3"/>
          <path id="Trazado_113888" data-name="Trazado 113888" d="M70.526,41.57a1.27,1.27,0,1,1,1.27,1.27,1.27,1.27,0,0,1-1.27-1.27" transform="translate(-58.778 6.692)" fill="#1448d3"/>
          <path id="Trazado_113889" data-name="Trazado 113889" d="M80.6,41.57a1.27,1.27,0,1,1,1.27,1.27,1.27,1.27,0,0,1-1.27-1.27" transform="translate(-80.6 6.692)" fill="#1448d3"/>
          <path id="Trazado_113890" data-name="Trazado 113890" d="M0,51.645a1.27,1.27,0,1,1,1.27,1.27A1.27,1.27,0,0,1,0,51.645" transform="translate(93.986 8.365)" fill="#1448d3"/>
          <path id="Trazado_113891" data-name="Trazado 113891" d="M10.076,51.645a1.27,1.27,0,1,1,1.27,1.27,1.27,1.27,0,0,1-1.27-1.27" transform="translate(72.162 8.365)" fill="#1448d3"/>
          <path id="Trazado_113892" data-name="Trazado 113892" d="M20.151,51.645a1.27,1.27,0,1,1,1.27,1.27,1.27,1.27,0,0,1-1.27-1.27" transform="translate(50.339 8.365)" fill="#1448d3"/>
          <path id="Trazado_113893" data-name="Trazado 113893" d="M30.225,51.645a1.27,1.27,0,1,1,1.27,1.27,1.27,1.27,0,0,1-1.27-1.27" transform="translate(28.516 8.365)" fill="#1448d3"/>
          <path id="Trazado_113894" data-name="Trazado 113894" d="M40.3,51.645a1.27,1.27,0,1,1,1.27,1.27,1.27,1.27,0,0,1-1.27-1.27" transform="translate(6.692 8.365)" fill="#1448d3"/>
          <path id="Trazado_113895" data-name="Trazado 113895" d="M50.376,51.645a1.27,1.27,0,1,1,1.27,1.27,1.27,1.27,0,0,1-1.27-1.27" transform="translate(-15.131 8.365)" fill="#1448d3"/>
          <path id="Trazado_113896" data-name="Trazado 113896" d="M60.45,51.645a1.27,1.27,0,1,1,1.27,1.27,1.27,1.27,0,0,1-1.27-1.27" transform="translate(-36.953 8.365)" fill="#1448d3"/>
          <path id="Trazado_113897" data-name="Trazado 113897" d="M70.526,51.645a1.27,1.27,0,1,1,1.27,1.27,1.27,1.27,0,0,1-1.27-1.27" transform="translate(-58.778 8.365)" fill="#1448d3"/>
          <path id="Trazado_113898" data-name="Trazado 113898" d="M80.6,51.645a1.27,1.27,0,1,1,1.27,1.27,1.27,1.27,0,0,1-1.27-1.27" transform="translate(-80.6 8.365)" fill="#1448d3"/>
          <path id="Trazado_113899" data-name="Trazado 113899" d="M0,61.72a1.27,1.27,0,1,1,1.27,1.27A1.27,1.27,0,0,1,0,61.72" transform="translate(93.986 10.039)" fill="#1448d3"/>
          <path id="Trazado_113900" data-name="Trazado 113900" d="M10.076,61.72a1.27,1.27,0,1,1,1.27,1.27,1.27,1.27,0,0,1-1.27-1.27" transform="translate(72.162 10.039)" fill="#1448d3"/>
          <path id="Trazado_113901" data-name="Trazado 113901" d="M20.151,61.72a1.27,1.27,0,1,1,1.27,1.27,1.27,1.27,0,0,1-1.27-1.27" transform="translate(50.339 10.039)" fill="#1448d3"/>
          <path id="Trazado_113902" data-name="Trazado 113902" d="M30.225,61.72a1.27,1.27,0,1,1,1.27,1.27,1.27,1.27,0,0,1-1.27-1.27" transform="translate(28.516 10.039)" fill="#1448d3"/>
          <path id="Trazado_113903" data-name="Trazado 113903" d="M40.3,61.72a1.27,1.27,0,1,1,1.27,1.27,1.27,1.27,0,0,1-1.27-1.27" transform="translate(6.692 10.039)" fill="#1448d3"/>
          <path id="Trazado_113904" data-name="Trazado 113904" d="M50.376,61.72a1.27,1.27,0,1,1,1.27,1.27,1.27,1.27,0,0,1-1.27-1.27" transform="translate(-15.131 10.039)" fill="#1448d3"/>
          <path id="Trazado_113905" data-name="Trazado 113905" d="M60.45,61.72a1.27,1.27,0,1,1,1.27,1.27,1.27,1.27,0,0,1-1.27-1.27" transform="translate(-36.953 10.039)" fill="#1448d3"/>
          <path id="Trazado_113906" data-name="Trazado 113906" d="M70.526,61.72a1.27,1.27,0,1,1,1.27,1.27,1.27,1.27,0,0,1-1.27-1.27" transform="translate(-58.778 10.039)" fill="#1448d3"/>
          <path id="Trazado_113907" data-name="Trazado 113907" d="M80.6,61.72a1.27,1.27,0,1,1,1.27,1.27,1.27,1.27,0,0,1-1.27-1.27" transform="translate(-80.6 10.039)" fill="#1448d3"/>
          <path id="Trazado_113908" data-name="Trazado 113908" d="M0,71.8a1.27,1.27,0,1,1,1.27,1.27A1.27,1.27,0,0,1,0,71.8" transform="translate(93.986 11.712)" fill="#1448d3"/>
          <path id="Trazado_113909" data-name="Trazado 113909" d="M10.076,71.8a1.27,1.27,0,1,1,1.27,1.27,1.27,1.27,0,0,1-1.27-1.27" transform="translate(72.162 11.712)" fill="#1448d3"/>
          <path id="Trazado_113910" data-name="Trazado 113910" d="M20.151,71.8a1.27,1.27,0,1,1,1.27,1.27,1.27,1.27,0,0,1-1.27-1.27" transform="translate(50.339 11.712)" fill="#1448d3"/>
          <path id="Trazado_113911" data-name="Trazado 113911" d="M30.225,71.8a1.27,1.27,0,1,1,1.27,1.27,1.27,1.27,0,0,1-1.27-1.27" transform="translate(28.516 11.712)" fill="#1448d3"/>
          <path id="Trazado_113912" data-name="Trazado 113912" d="M40.3,71.8a1.27,1.27,0,1,1,1.27,1.27A1.27,1.27,0,0,1,40.3,71.8" transform="translate(6.692 11.712)" fill="#1448d3"/>
          <path id="Trazado_113913" data-name="Trazado 113913" d="M50.376,71.8a1.27,1.27,0,1,1,1.27,1.27,1.27,1.27,0,0,1-1.27-1.27" transform="translate(-15.131 11.712)" fill="#1448d3"/>
          <path id="Trazado_113914" data-name="Trazado 113914" d="M60.45,71.8a1.27,1.27,0,1,1,1.27,1.27,1.27,1.27,0,0,1-1.27-1.27" transform="translate(-36.953 11.712)" fill="#1448d3"/>
          <path id="Trazado_113915" data-name="Trazado 113915" d="M70.526,71.8a1.27,1.27,0,1,1,1.27,1.27,1.27,1.27,0,0,1-1.27-1.27" transform="translate(-58.778 11.712)" fill="#1448d3"/>
          <path id="Trazado_113916" data-name="Trazado 113916" d="M80.6,71.8a1.27,1.27,0,1,1,1.27,1.27A1.27,1.27,0,0,1,80.6,71.8" transform="translate(-80.6 11.712)" fill="#1448d3"/>
          <path id="Trazado_113917" data-name="Trazado 113917" d="M0,81.871a1.27,1.27,0,1,1,1.27,1.27A1.27,1.27,0,0,1,0,81.871" transform="translate(93.986 13.385)" fill="#1448d3"/>
          <path id="Trazado_113918" data-name="Trazado 113918" d="M10.076,81.871a1.27,1.27,0,1,1,1.27,1.27,1.27,1.27,0,0,1-1.27-1.27" transform="translate(72.162 13.385)" fill="#1448d3"/>
          <path id="Trazado_113919" data-name="Trazado 113919" d="M20.151,81.871a1.27,1.27,0,1,1,1.27,1.27,1.27,1.27,0,0,1-1.27-1.27" transform="translate(50.339 13.385)" fill="#1448d3"/>
          <path id="Trazado_113920" data-name="Trazado 113920" d="M30.225,81.871a1.27,1.27,0,1,1,1.27,1.27,1.27,1.27,0,0,1-1.27-1.27" transform="translate(28.516 13.385)" fill="#1448d3"/>
          <path id="Trazado_113921" data-name="Trazado 113921" d="M40.3,81.871a1.27,1.27,0,1,1,1.27,1.27,1.27,1.27,0,0,1-1.27-1.27" transform="translate(6.692 13.385)" fill="#1448d3"/>
          <path id="Trazado_113922" data-name="Trazado 113922" d="M50.376,81.871a1.27,1.27,0,1,1,1.27,1.27,1.27,1.27,0,0,1-1.27-1.27" transform="translate(-15.131 13.385)" fill="#1448d3"/>
          <path id="Trazado_113923" data-name="Trazado 113923" d="M60.45,81.871a1.27,1.27,0,1,1,1.27,1.27,1.27,1.27,0,0,1-1.27-1.27" transform="translate(-36.953 13.385)" fill="#1448d3"/>
          <path id="Trazado_113924" data-name="Trazado 113924" d="M70.526,81.871a1.27,1.27,0,1,1,1.27,1.27,1.27,1.27,0,0,1-1.27-1.27" transform="translate(-58.778 13.385)" fill="#1448d3"/>
          <path id="Trazado_113925" data-name="Trazado 113925" d="M80.6,81.871a1.27,1.27,0,1,1,1.27,1.27,1.27,1.27,0,0,1-1.27-1.27" transform="translate(-80.6 13.385)" fill="#1448d3"/>
        </g>
      </g>
    </g>
    <g id="Grupo_987224" data-name="Grupo 987224" transform="translate(1106.529 -428.295)">
      <path id="Trazado_99953" data-name="Trazado 99953" d="M-119.282,1123.863c-44.663-21.023-80.6-141.4-5.237-191.3s160.159-17.8,178.3,9.769,28.513,51.829,60.713,47.8c36.289-4.535,90.2,84.966,2.531,133.727Z" transform="translate(14.581 4.707)" fill="#ffcd91" opacity="0.34"/>
      <path id="Trazado_99960" data-name="Trazado 99960" d="M4.22,915.45c-42.111-1.7-26.169,65.6,22.681,62.458S38.765,916.846,4.22,915.45Z" transform="translate(107.065 10.304)" fill="#ffcd91" opacity="0.34"/>
      <g id="Grupo_56084" data-name="Grupo 56084" transform="translate(72.998 977.288)">
        <g id="Grupo_56083" data-name="Grupo 56083" transform="translate(0)">
          <g id="Grupo_56063" data-name="Grupo 56063" transform="translate(0 56.188)">
            <g id="Grupo_56052" data-name="Grupo 56052">
              <path id="Trazado_100991" data-name="Trazado 100991" d="M10.19,1055.174c-5.258,0-14.069-.853-18.622-6.069-2.729-3.125-3.553-7.381-2.453-12.648,1.538-7.357-1.119-9.509-4.8-12.488-1.031-.835-2.1-1.7-3.179-2.758-5.195-5.091-4.446-7.724-2.952-12.968.669-2.349-.39-3.111-1.993-4.264a9.756,9.756,0,0,1-4.659-7.1,13.161,13.161,0,0,1,2.693-10.888,12.742,12.742,0,0,1,9.938-4.235h.083c6.137.029,7.242,4.506,8.128,8.1a11.127,11.127,0,0,0,1.691,4.374,6.206,6.206,0,0,0,3.473,1.837c2.25.617,4.8,1.317,6.675,6.444a22.039,22.039,0,0,1,1.153,8.6c-.058,3.164-.1,5.255,2.9,6.925a18.751,18.751,0,0,1,3.169,2.312l-.492.559a17.937,17.937,0,0,0-3.041-2.217c-3.387-1.888-3.338-4.405-3.28-7.591a21.144,21.144,0,0,0-1.106-8.327c-1.745-4.766-4-5.383-6.173-5.981A6.9,6.9,0,0,1-6.5,994.712a11.6,11.6,0,0,1-1.847-4.68c-.91-3.691-1.853-7.506-7.407-7.534h-.08a12.005,12.005,0,0,0-9.371,3.975,12.418,12.418,0,0,0-2.523,10.279,9.1,9.1,0,0,0,4.357,6.621c1.657,1.192,3.088,2.221,2.276,5.075-1.457,5.115-2.121,7.449,2.755,12.23,1.054,1.035,2.108,1.887,3.129,2.713,3.738,3.025,6.689,5.416,5.058,13.218-1.051,5.026-.283,9.064,2.284,12,5.492,6.3,17.633,5.956,21.221,5.708l.052.744C12.653,1055.119,11.538,1055.174,10.19,1055.174Z" transform="translate(28.683 -981.753)" fill="#124c64"/>
            </g>
            <g id="Grupo_56057" data-name="Grupo 56057" transform="translate(10.189 16.911)">
              <g id="Grupo_56054" data-name="Grupo 56054" transform="translate(3.176)">
                <g id="Grupo_56053" data-name="Grupo 56053">
                  <path id="Trazado_100992" data-name="Trazado 100992" d="M-1.058,1026.7q-6.418-13.057-13.56-25.742-2.417-4.3-4.914-8.552a.493.493,0,0,0-.851.5q8,13.659,15.206,27.766,1.659,3.253,3.268,6.528c.279.57,1.131.071.851-.5Z" transform="translate(20.455 -992.164)" fill="#124c64"/>
                </g>
              </g>
              <g id="Grupo_56056" data-name="Grupo 56056" transform="translate(0 15.42)">
                <g id="Grupo_56055" data-name="Grupo 56055">
                  <path id="Trazado_100993" data-name="Trazado 100993" d="M-21.939,1002.647q5.519.57,11.036,1.144l1.589.166c.63.065.625-.923,0-.988q-5.519-.572-11.036-1.144l-1.589-.166c-.63-.065-.627.923,0,.988Z" transform="translate(22.41 -1001.656)" fill="#124c64"/>
                </g>
              </g>
            </g>
            <g id="Grupo_56062" data-name="Grupo 56062" transform="translate(10.881 5.953)">
              <g id="Grupo_56058" data-name="Grupo 56058" transform="translate(0 18.95)">
                <path id="Trazado_100994" data-name="Trazado 100994" d="M-19.7,1001.14a2.168,2.168,0,0,1-2.281-2.029,2.168,2.168,0,0,1,2.281-2.027,2.168,2.168,0,0,1,2.282,2.027A2.169,2.169,0,0,1-19.7,1001.14Zm0-3.311a1.427,1.427,0,0,0-1.535,1.281,1.427,1.427,0,0,0,1.535,1.282,1.428,1.428,0,0,0,1.537-1.282A1.428,1.428,0,0,0-19.7,997.83Z" transform="translate(21.984 -997.084)" fill="#124c64"/>
              </g>
              <g id="Grupo_56059" data-name="Grupo 56059" transform="translate(4.508 2.871)">
                <path id="Trazado_100995" data-name="Trazado 100995" d="M-16.93,991.749a2.276,2.276,0,0,1-1.139-.3,2.27,2.27,0,0,1-1.061-1.385,2.264,2.264,0,0,1,.226-1.732,2.271,2.271,0,0,1,1.387-1.064,2.267,2.267,0,0,1,1.73.227,2.288,2.288,0,0,1,.837,3.119h0A2.284,2.284,0,0,1-16.93,991.749Zm.006-3.817a1.555,1.555,0,0,0-.4.053,1.52,1.52,0,0,0-.931.716,1.51,1.51,0,0,0-.154,1.163,1.519,1.519,0,0,0,.715.932,1.537,1.537,0,0,0,2.1-.56h0a1.54,1.54,0,0,0-.562-2.1A1.529,1.529,0,0,0-16.923,987.932Z" transform="translate(19.209 -987.185)" fill="#124c64"/>
              </g>
              <g id="Grupo_56060" data-name="Grupo 56060" transform="translate(10.997 46.984)">
                <path id="Trazado_100996" data-name="Trazado 100996" d="M-12.461,1019.21a2.611,2.611,0,0,1-2.753-2.433,2.611,2.611,0,0,1,2.753-2.435,2.609,2.609,0,0,1,2.75,2.435A2.609,2.609,0,0,1-12.461,1019.21Zm0-4.123a1.87,1.87,0,0,0-2.006,1.689,1.869,1.869,0,0,0,2.006,1.686,1.867,1.867,0,0,0,2-1.686A1.868,1.868,0,0,0-12.461,1015.088Z" transform="translate(15.214 -1014.342)" fill="#124c64"/>
              </g>
              <g id="Grupo_56061" data-name="Grupo 56061" transform="translate(2.968)">
                <path id="Trazado_100997" data-name="Trazado 100997" d="M-18.935,987.859a1.222,1.222,0,0,1-1.222-1.222,1.222,1.222,0,0,1,1.222-1.22,1.221,1.221,0,0,1,1.22,1.22A1.222,1.222,0,0,1-18.935,987.859Zm0-1.7a.475.475,0,0,0-.476.474.476.476,0,0,0,.476.476.475.475,0,0,0,.474-.476A.475.475,0,0,0-18.935,986.164Z" transform="translate(20.157 -985.418)" fill="#124c64"/>
              </g>
            </g>
          </g>
          <g id="Grupo_56067" data-name="Grupo 56067" transform="translate(71.565 62.668)">
            <g id="Grupo_56064" data-name="Grupo 56064" transform="translate(0)">
              <path id="Trazado_100998" data-name="Trazado 100998" d="M30.773,1052.47c-5.758,0-10.9-.585-12.6-1.8-2.419-1.724-3.457-7.31-2.362-12.717.794-3.928,3.968-13.362,16.228-16.1,7.282-1.626,7.911-4.733,8.785-9.035a35.855,35.855,0,0,1,.921-3.816c2.032-6.476,4.743-6.891,10.146-7.716,2.435-.372,2.765-2.138,3.221-4.582.474-2.545,1.064-5.712,4.5-8,4.123-2.739,8.733-3.653,12.326-2.435,3.094,1.048,5.425,3.614,6.735,7.424,2,5.806-1.353,9.347-4.045,12.193a13.327,13.327,0,0,0-2.609,3.338c-.541,1.266-.3,2.71-.029,4.383.471,2.857,1.056,6.413-2.658,10.105a12.874,12.874,0,0,1-7.758,3.579c-2.406.409-3.86.656-3.894,3.5-.08,6.475-2.9,17.108-8.689,19.361C45.084,1051.671,37.506,1052.469,30.773,1052.47Zm37.792-65.983a15.762,15.762,0,0,0-8.536,2.839c-3.177,2.113-3.713,4.982-4.186,7.514-.453,2.433-.884,4.732-3.84,5.183-5.257.8-7.656,1.17-9.548,7.2a36.188,36.188,0,0,0-.9,3.739c-.892,4.405-1.6,7.883-9.352,9.615-11.834,2.643-14.892,11.735-15.659,15.519-1.147,5.663.179,10.619,2.065,11.964h0c3.484,2.482,23.187,2.089,30.118-.609,5.669-2.2,8.146-13.25,8.215-18.672.042-3.465,2.115-3.819,4.513-4.227a12.238,12.238,0,0,0,7.357-3.37c3.442-3.421,2.914-6.629,2.45-9.459-.281-1.712-.546-3.328.081-4.8a13.76,13.76,0,0,1,2.75-3.557c2.687-2.839,5.732-6.059,3.882-11.437-1.251-3.634-3.359-5.975-6.269-6.959A9.73,9.73,0,0,0,68.565,986.487Z" transform="translate(-15.374 -985.742)" fill="#124c64"/>
            </g>
            <g id="Grupo_56066" data-name="Grupo 56066" transform="translate(8.566 17.423)">
              <g id="Grupo_56065" data-name="Grupo 56065">
                <path id="Trazado_100999" data-name="Trazado 100999" d="M21.467,1046.025c2.531-3.02,5.159-5.96,7.695-8.976q9.456-11.242,18.471-22.845,6.547-8.418,12.849-17.024c.375-.513-.481-1.006-.853-.5q-10.594,14.483-21.9,28.427-7.032,8.7-14.321,17.18c-.877,1.017-1.782,2.011-2.643,3.039-.406.484.289,1.186.7.7Z" transform="translate(-20.647 -996.468)" fill="#124c64"/>
              </g>
            </g>
          </g>
          <g id="Grupo_56082" data-name="Grupo 56082" transform="translate(31.949)">
            <g id="Grupo_56068" data-name="Grupo 56068" transform="translate(0)">
              <path id="Trazado_101000" data-name="Trazado 101000" d="M35.829,1076.751l-34.785-.6-.107-.1c-4.636-4.516-14.641-16.273-7.4-27.878,3.707-5.945,7.857-8.424,11.192-10.417,4.88-2.914,7.826-4.675,5.8-14.538l-.422-2.04c-3.293-15.831-5.105-24.554,11.6-31.57,12.457-5.234,12.121-10.175,11.694-16.431a32.009,32.009,0,0,1,.068-7.125,21.907,21.907,0,0,1,10.464-15.435,24.631,24.631,0,0,1,21.141-1.953c4.108,1.407,6.961,5.3,8.034,10.966,1.667,8.8-1.269,19.933-6.408,24.3-3.512,2.984-1.962,5.768.184,9.623,2.615,4.7,5.869,10.547,2.008,19.574-3.582,8.372-9.94,11.125-15.048,13.339-5.216,2.26-8.985,3.892-8.377,10.032.187,1.891.455,3.84.737,5.9.185,1.348.375,2.718.543,4.1l-.741.091c-.167-1.377-.356-2.742-.541-4.087-.283-2.071-.551-4.027-.741-5.934-.66-6.68,3.734-8.585,8.824-10.789,5.245-2.273,11.194-4.849,14.659-12.95,3.717-8.687.56-14.36-1.975-18.916-2.143-3.848-3.991-7.173-.013-10.554,4.961-4.215,7.781-15.019,6.156-23.593-.721-3.811-2.615-8.71-7.54-10.4a23.911,23.911,0,0,0-20.514,1.884A21.17,21.17,0,0,0,34.2,966.159a31.443,31.443,0,0,0-.06,6.967c.427,6.293.8,11.728-12.15,17.168-16.135,6.779-14.472,14.784-11.155,30.732l.422,2.041c2.136,10.383-1.335,12.457-6.145,15.329-3.265,1.951-7.329,4.379-10.942,10.17-6.9,11.061,2.636,22.383,7.188,26.848l34.488.591Z" transform="translate(9.015 -947.163)" fill="#124c64"/>
            </g>
            <g id="Grupo_56078" data-name="Grupo 56078" transform="translate(16.37 12.298)">
              <g id="Grupo_56070" data-name="Grupo 56070" transform="translate(0)">
                <g id="Grupo_56069" data-name="Grupo 56069">
                  <path id="Trazado_101001" data-name="Trazado 101001" d="M1.961,1071.055q2.11-4.873,4.235-9.74,5.224-11.993,10.489-23.968,6.713-15.27,13.5-30.5,6.576-14.739,13.3-29.413c3.155-6.847,6.295-13.716,9.753-20.417q.4-.77.807-1.537c.3-.559-.552-1.057-.851-.5-3.309,6.174-6.218,12.576-9.165,18.929-4.415,9.526-8.729,19.1-13.018,28.684q-6.871,15.363-13.643,30.771-5.546,12.6-11.049,25.219c-1.714,3.931-3.525,7.836-5.138,11.811-.023.055-.047.111-.071.164-.25.577.6,1.08.853.5Z" transform="translate(-1.063 -954.734)" fill="#124c64"/>
                </g>
              </g>
              <g id="Grupo_56075" data-name="Grupo 56075" transform="translate(8.543 41.931)">
                <g id="Grupo_56072" data-name="Grupo 56072" transform="translate(23.443)">
                  <g id="Grupo_56071" data-name="Grupo 56071">
                    <path id="Trazado_101002" data-name="Trazado 101002" d="M21.23,982.819,41.559,981.7l2.893-.161c.632-.034.635-1.022,0-.986l-20.329,1.124-2.893.161c-.632.034-.637,1.022,0,.986Z" transform="translate(-20.754 -980.547)" fill="#124c64"/>
                  </g>
                </g>
                <g id="Grupo_56074" data-name="Grupo 56074" transform="translate(0 52.114)">
                  <g id="Grupo_56073" data-name="Grupo 56073">
                    <path id="Trazado_101003" data-name="Trazado 101003" d="M6.793,1015.681l16.065-1.808,2.25-.253c.624-.07.63-1.057,0-.986q-8.033.9-16.067,1.806l-2.248.253c-.624.07-.632,1.057,0,.988Z" transform="translate(-6.322 -1012.63)" fill="#124c64"/>
                  </g>
                </g>
              </g>
              <g id="Grupo_56077" data-name="Grupo 56077" transform="translate(6.791 38.265)">
                <g id="Grupo_56076" data-name="Grupo 56076">
                  <path id="Trazado_101004" data-name="Trazado 101004" d="M5.291,979.045q2.31,5.183,4.618,10.365,3.665,8.226,7.328,16.45.85,1.908,1.7,3.814c.258.578,1.109.078.853-.5q-2.31-5.183-4.618-10.365-3.665-8.224-7.328-16.449l-1.7-3.814c-.258-.58-1.109-.078-.853.5Z" transform="translate(-5.244 -978.29)" fill="#124c64"/>
                </g>
              </g>
            </g>
            <g id="Grupo_56079" data-name="Grupo 56079" transform="translate(50.855 10.731)">
              <path id="Trazado_101005" data-name="Trazado 101005" d="M25.078,961.361a2.733,2.733,0,0,1-1.551-.466c-1.472-1-1.652-3.31-.4-5.146a4.57,4.57,0,0,1,2.341-1.811,2.81,2.81,0,0,1,3.824,2.6,4.579,4.579,0,0,1-.827,2.841h0a4.571,4.571,0,0,1-2.341,1.811A3.394,3.394,0,0,1,25.078,961.361Zm1.423-6.847a2.7,2.7,0,0,0-.811.133,3.81,3.81,0,0,0-1.949,1.52c-1.018,1.5-.926,3.34.2,4.11a2.2,2.2,0,0,0,1.948.2,3.829,3.829,0,0,0,1.949-1.519h0a3.814,3.814,0,0,0,.7-2.373,2.2,2.2,0,0,0-.9-1.737A1.992,1.992,0,0,0,26.5,954.514Z" transform="translate(-22.293 -953.769)" fill="#124c64"/>
            </g>
            <g id="Grupo_56080" data-name="Grupo 56080" transform="translate(53.981 23.184)">
              <path id="Trazado_101006" data-name="Trazado 101006" d="M26.186,965.374a1.97,1.97,0,1,1,1.97-1.969A1.972,1.972,0,0,1,26.186,965.374Zm0-3.192a1.223,1.223,0,1,0,1.223,1.223A1.225,1.225,0,0,0,26.186,962.182Z" transform="translate(-24.217 -961.435)" fill="#124c64"/>
            </g>
            <g id="Grupo_56081" data-name="Grupo 56081" transform="translate(62.547 62.859)">
              <path id="Trazado_101007" data-name="Trazado 101007" d="M32.965,992.811a3.475,3.475,0,1,1,3.475-3.476A3.479,3.479,0,0,1,32.965,992.811Zm0-6.205a2.729,2.729,0,1,0,2.729,2.729A2.732,2.732,0,0,0,32.965,986.606Z" transform="translate(-29.49 -985.86)" fill="#124c64"/>
            </g>
          </g>
        </g>
      </g>
      <g id="Grupo_56117" data-name="Grupo 56117" transform="translate(-36.063 976.478)">
        <g id="Grupo_56116" data-name="Grupo 56116">
          <g id="Grupo_56096" data-name="Grupo 56096" transform="translate(60.078 36.147)">
            <g id="Grupo_56085" data-name="Grupo 56085">
              <path id="Trazado_101008" data-name="Trazado 101008" d="M-56.769,1016.151c3.382,0,9.051-.549,11.98-3.9,1.754-2.011,2.286-4.75,1.577-8.137-.989-4.733.721-6.118,3.088-8.034.663-.537,1.35-1.093,2.045-1.774,3.341-3.276,2.859-4.969,1.9-8.343-.429-1.512.252-2,1.283-2.744a6.275,6.275,0,0,0,3-4.571,8.463,8.463,0,0,0-1.733-7,8.2,8.2,0,0,0-6.392-2.724h-.054c-3.949.019-4.659,2.9-5.231,5.211a7.169,7.169,0,0,1-1.087,2.815,4,4,0,0,1-2.235,1.181c-1.447.4-3.088.848-4.293,4.147a14.169,14.169,0,0,0-.742,5.53c.037,2.035.063,3.382-1.865,4.456a12.048,12.048,0,0,0-2.039,1.486l.317.361a11.575,11.575,0,0,1,1.957-1.428c2.178-1.214,2.147-2.833,2.11-4.883a13.585,13.585,0,0,1,.711-5.357c1.121-3.065,2.57-3.463,3.97-3.847a4.433,4.433,0,0,0,2.474-1.335,7.452,7.452,0,0,0,1.187-3.01c.586-2.373,1.192-4.829,4.766-4.847h.052A7.724,7.724,0,0,1-34,971.955a7.991,7.991,0,0,1,1.623,6.613,5.854,5.854,0,0,1-2.8,4.259c-1.066.767-1.987,1.429-1.464,3.264.939,3.293,1.366,4.793-1.772,7.868-.679.666-1.356,1.215-2.013,1.746-2.4,1.946-4.3,3.484-3.254,8.5.676,3.232.182,5.832-1.47,7.722-3.533,4.051-11.343,3.832-13.651,3.671l-.034.479C-58.355,1016.115-57.637,1016.151-56.769,1016.151Z" transform="translate(58.837 -968.917)" fill="#124c64"/>
            </g>
            <g id="Grupo_56090" data-name="Grupo 56090" transform="translate(5.963 10.88)">
              <g id="Grupo_56087" data-name="Grupo 56087">
                <g id="Grupo_56086" data-name="Grupo 56086">
                  <path id="Trazado_101009" data-name="Trazado 101009" d="M-55.13,997.831q4.128-8.4,8.725-16.561,1.555-2.765,3.159-5.5a.318.318,0,0,1,.549.32q-5.151,8.786-9.784,17.862-1.065,2.093-2.1,4.2c-.18.367-.728.046-.547-.32Z" transform="translate(55.166 -975.615)" fill="#124c64"/>
                </g>
              </g>
              <g id="Grupo_56089" data-name="Grupo 56089" transform="translate(5.829 9.92)">
                <g id="Grupo_56088" data-name="Grupo 56088">
                  <path id="Trazado_101010" data-name="Trazado 101010" d="M-43.152,982.359l-7.1.736-1.022.106c-.406.042-.4-.593,0-.635l7.1-.736,1.022-.106c.406-.042.4.593,0,.635Z" transform="translate(51.578 -981.722)" fill="#124c64"/>
                </g>
              </g>
            </g>
            <g id="Grupo_56095" data-name="Grupo 56095" transform="translate(9.459 3.83)">
              <g id="Grupo_56091" data-name="Grupo 56091" transform="translate(7.68 12.191)">
                <path id="Trazado_101011" data-name="Trazado 101011" d="M-48.286,980.084a1.4,1.4,0,0,1,1.468-1.3,1.4,1.4,0,0,1,1.468,1.3,1.4,1.4,0,0,1-1.468,1.3A1.4,1.4,0,0,1-48.286,980.084Zm.481,0a.919.919,0,0,0,.988.825.919.919,0,0,0,.988-.825.918.918,0,0,0-.988-.824A.918.918,0,0,0-47.805,980.084Z" transform="translate(48.286 -978.78)" fill="#124c64"/>
              </g>
              <g id="Grupo_56092" data-name="Grupo 56092" transform="translate(4.781 1.846)">
                <path id="Trazado_101012" data-name="Trazado 101012" d="M-49.876,974.615h0a1.474,1.474,0,0,1,.539-2.006,1.457,1.457,0,0,1,1.113-.146,1.463,1.463,0,0,1,.892.685,1.449,1.449,0,0,1,.146,1.113,1.458,1.458,0,0,1-.684.892,1.457,1.457,0,0,1-.731.2A1.471,1.471,0,0,1-49.876,974.615Zm.778-1.589a.989.989,0,0,0-.361,1.35h0a.989.989,0,0,0,1.35.361.99.99,0,0,0,.46-.6.982.982,0,0,0-.1-.749.982.982,0,0,0-.6-.46,1,1,0,0,0-.258-.034A.97.97,0,0,0-49.1,973.026Z" transform="translate(50.071 -972.412)" fill="#124c64"/>
              </g>
              <g id="Grupo_56093" data-name="Grupo 56093" transform="translate(0 30.227)">
                <path id="Trazado_101013" data-name="Trazado 101013" d="M-53.014,991.449a1.679,1.679,0,0,1,1.771-1.566,1.679,1.679,0,0,1,1.771,1.566,1.68,1.68,0,0,1-1.771,1.566A1.68,1.68,0,0,1-53.014,991.449Zm.481,0a1.2,1.2,0,0,0,1.29,1.085,1.2,1.2,0,0,0,1.29-1.085,1.2,1.2,0,0,0-1.29-1.087A1.2,1.2,0,0,0-52.533,991.449Z" transform="translate(53.014 -989.883)" fill="#124c64"/>
              </g>
              <g id="Grupo_56094" data-name="Grupo 56094" transform="translate(7.136)">
                <path id="Trazado_101014" data-name="Trazado 101014" d="M-48.621,972.06a.786.786,0,0,1,.786-.784.786.786,0,0,1,.785.784.786.786,0,0,1-.785.786A.787.787,0,0,1-48.621,972.06Zm.479,0a.308.308,0,0,0,.307.307.308.308,0,0,0,.305-.307.307.307,0,0,0-.305-.305A.308.308,0,0,0-48.142,972.06Z" transform="translate(48.621 -971.275)" fill="#124c64"/>
              </g>
            </g>
          </g>
          <g id="Grupo_56100" data-name="Grupo 56100" transform="translate(0 40.316)">
            <g id="Grupo_56097" data-name="Grupo 56097">
              <path id="Trazado_101015" data-name="Trazado 101015" d="M-76.337,1012.921c-3.728-1.449-5.539-8.289-5.59-12.456-.023-1.829-.957-1.988-2.5-2.251a8.275,8.275,0,0,1-4.992-2.3c-2.388-2.375-2.013-4.664-1.71-6.5a5.112,5.112,0,0,0-.018-2.82,8.579,8.579,0,0,0-1.678-2.147c-1.732-1.831-3.887-4.11-2.6-7.844a7.137,7.137,0,0,1,4.332-4.776c2.312-.783,5.278-.195,7.93,1.566,2.212,1.472,2.593,3.509,2.9,5.146.294,1.572.505,2.709,2.071,2.948,3.476.531,5.221.8,6.527,4.964a23.059,23.059,0,0,1,.595,2.454c.56,2.766.967,4.766,5.651,5.812a13.041,13.041,0,0,1,10.44,10.357c.7,3.479.036,7.073-1.52,8.182-1.095.781-4.4,1.158-8.107,1.158C-68.946,1014.41-73.823,1013.9-76.337,1012.921Zm-14.608-40.642a6.592,6.592,0,0,0-4.033,4.477c-1.191,3.46.768,5.531,2.5,7.358a8.811,8.811,0,0,1,1.771,2.289,5.519,5.519,0,0,1,.052,3.085c-.3,1.821-.638,3.884,1.576,6.085a7.884,7.884,0,0,0,4.732,2.169c1.543.262,2.877.489,2.9,2.719.044,3.489,1.637,10.594,5.284,12.012,4.459,1.736,17.136,1.988,19.376.392h0c1.213-.866,2.066-4.053,1.329-7.7a12.57,12.57,0,0,0-10.074-9.984c-4.989-1.114-5.442-3.353-6.015-6.186a23.358,23.358,0,0,0-.582-2.406c-1.218-3.882-2.761-4.118-6.143-4.634-1.9-.289-2.178-1.769-2.469-3.335-.3-1.629-.65-3.475-2.693-4.834a10.153,10.153,0,0,0-5.492-1.826A6.267,6.267,0,0,0-90.945,972.279Z" transform="translate(95.822 -971.484)" fill="#124c64"/>
            </g>
            <g id="Grupo_56099" data-name="Grupo 56099" transform="translate(9.916 11.208)">
              <g id="Grupo_56098" data-name="Grupo 56098">
                <path id="Trazado_101016" data-name="Trazado 101016" d="M-64.56,1010.266c-1.628-1.943-3.319-3.835-4.95-5.775q-6.082-7.234-11.882-14.7-4.213-5.417-8.267-10.952c-.24-.331.31-.648.549-.322q6.815,9.318,14.087,18.289,4.522,5.595,9.212,11.051c.564.655,1.145,1.295,1.7,1.956.26.312-.187.763-.45.45Z" transform="translate(89.718 -978.384)" fill="#124c64"/>
              </g>
            </g>
          </g>
          <g id="Grupo_56115" data-name="Grupo 56115" transform="translate(13.474)">
            <g id="Grupo_56101" data-name="Grupo 56101">
              <path id="Trazado_101017" data-name="Trazado 101017" d="M-63.25,1030.033l22.378-.385.068-.067c2.984-2.9,9.42-10.468,4.764-17.933a18.913,18.913,0,0,0-7.2-6.7c-3.14-1.875-5.034-3.008-3.728-9.353l.271-1.312c2.118-10.185,3.285-15.8-7.461-20.31-8.015-3.367-7.8-6.546-7.523-10.57a20.7,20.7,0,0,0-.044-4.584,14.1,14.1,0,0,0-6.731-9.93,15.85,15.85,0,0,0-13.6-1.256c-2.641.9-4.477,3.411-5.167,7.055-1.072,5.664.815,12.823,4.121,15.633,2.261,1.918,1.264,3.71-.117,6.191C-84.9,979.532-87,983.292-84.514,989.1c2.3,5.386,6.394,7.159,9.68,8.583,3.356,1.454,5.781,2.5,5.39,6.454-.12,1.217-.292,2.471-.474,3.8-.119.867-.24,1.748-.349,2.636l.476.058c.109-.885.229-1.764.349-2.63.182-1.332.354-2.591.476-3.816.426-4.3-2.4-5.524-5.676-6.943-3.376-1.462-7.2-3.119-9.431-8.33-2.391-5.589-.361-9.238,1.272-12.17,1.377-2.476,2.567-4.615.008-6.788-3.192-2.713-5.006-9.663-3.962-15.178.465-2.453,1.683-5.6,4.852-6.691a15.381,15.381,0,0,1,13.2,1.212,13.625,13.625,0,0,1,6.507,9.59,20.348,20.348,0,0,1,.039,4.482c-.276,4.048-.515,7.544,7.817,11.044,10.38,4.362,9.309,9.511,7.177,19.771l-.273,1.313c-1.374,6.679.859,8.015,3.954,9.863a18.5,18.5,0,0,1,7.04,6.543c4.435,7.115-1.7,14.4-4.625,17.27l-22.188.382Z" transform="translate(87.527 -946.664)" fill="#124c64"/>
            </g>
            <g id="Grupo_56111" data-name="Grupo 56111" transform="translate(6.466 7.911)">
              <g id="Grupo_56103" data-name="Grupo 56103" transform="translate(2.004)">
                <g id="Grupo_56102" data-name="Grupo 56102">
                  <path id="Trazado_101018" data-name="Trazado 101018" d="M-48.766,1026.368q-1.357-3.133-2.724-6.266-3.362-7.714-6.749-15.42-4.318-9.822-8.684-19.623-4.232-9.483-8.556-18.923c-2.029-4.405-4.05-8.825-6.275-13.136q-.256-.495-.518-.988c-.193-.359.354-.681.547-.32,2.128,3.973,4,8.091,5.895,12.178,2.841,6.129,5.617,12.287,8.375,18.453q4.422,9.883,8.778,19.8,3.567,8.1,7.107,16.223c1.1,2.529,2.268,5.042,3.306,7.6.015.036.031.07.047.106.161.37-.387.7-.549.32Z" transform="translate(82.313 -951.535)" fill="#124c64"/>
                </g>
              </g>
              <g id="Grupo_56108" data-name="Grupo 56108" transform="translate(0 26.976)">
                <g id="Grupo_56105" data-name="Grupo 56105">
                  <g id="Grupo_56104" data-name="Grupo 56104">
                    <path id="Trazado_101019" data-name="Trazado 101019" d="M-68.3,969.6l-13.078-.723-1.862-.1c-.406-.023-.408-.658,0-.635l13.08.723,1.86.1c.408.021.409.656,0,.634Z" transform="translate(83.547 -968.142)" fill="#124c64"/>
                  </g>
                </g>
                <g id="Grupo_56107" data-name="Grupo 56107" transform="translate(18.244 33.527)">
                  <g id="Grupo_56106" data-name="Grupo 56106">
                    <path id="Trazado_101020" data-name="Trazado 101020" d="M-60.229,990.743l-10.336-1.161-1.447-.164c-.4-.044-.406-.679,0-.633l10.336,1.161,1.447.164c.4.044.406.679,0,.633Z" transform="translate(72.315 -988.782)" fill="#124c64"/>
                  </g>
                </g>
              </g>
              <g id="Grupo_56110" data-name="Grupo 56110" transform="translate(22.373 24.617)">
                <g id="Grupo_56109" data-name="Grupo 56109">
                  <path id="Trazado_101021" data-name="Trazado 101021" d="M-60.417,967.176q-1.486,3.333-2.971,6.668L-68.1,984.427-69.2,986.88c-.166.372-.713.05-.547-.32l2.969-6.668,4.716-10.583,1.093-2.454c.166-.372.713-.049.547.322Z" transform="translate(69.774 -966.69)" fill="#124c64"/>
                </g>
              </g>
            </g>
            <g id="Grupo_56112" data-name="Grupo 56112" transform="translate(15.905 6.903)">
              <path id="Trazado_101022" data-name="Trazado 101022" d="M-75.694,955.69a2.942,2.942,0,0,1-1.5-1.165h0a2.954,2.954,0,0,1-.533-1.829,1.886,1.886,0,0,1,.791-1.481,1.889,1.889,0,0,1,1.67-.192,2.941,2.941,0,0,1,1.5,1.165,2.381,2.381,0,0,1-.258,3.311,1.755,1.755,0,0,1-1,.3A2.193,2.193,0,0,1-75.694,955.69Zm-.976-4.079a1.419,1.419,0,0,0-.582,1.117,2.464,2.464,0,0,0,.45,1.527h0a2.454,2.454,0,0,0,1.254.976,1.413,1.413,0,0,0,1.252-.13,1.912,1.912,0,0,0,.133-2.645,2.472,2.472,0,0,0-1.254-.978,1.741,1.741,0,0,0-.523-.086A1.277,1.277,0,0,0-76.67,951.611Z" transform="translate(77.736 -950.914)" fill="#124c64"/>
            </g>
            <g id="Grupo_56113" data-name="Grupo 56113" transform="translate(15.864 14.915)">
              <path id="Trazado_101023" data-name="Trazado 101023" d="M-77.761,957.113a1.269,1.269,0,0,1,1.267-1.267,1.269,1.269,0,0,1,1.267,1.267,1.269,1.269,0,0,1-1.267,1.267A1.269,1.269,0,0,1-77.761,957.113Zm.481,0a.787.787,0,0,0,.786.788.787.787,0,0,0,.786-.788.787.787,0,0,0-.786-.786A.787.787,0,0,0-77.28,957.113Z" transform="translate(77.761 -955.846)" fill="#124c64"/>
            </g>
            <g id="Grupo_56114" data-name="Grupo 56114" transform="translate(8.417 40.439)">
              <path id="Trazado_101024" data-name="Trazado 101024" d="M-82.346,973.8a2.24,2.24,0,0,1,2.237-2.237,2.239,2.239,0,0,1,2.235,2.237,2.239,2.239,0,0,1-2.235,2.235A2.24,2.24,0,0,1-82.346,973.8Zm.481,0a1.756,1.756,0,0,0,1.756,1.754,1.755,1.755,0,0,0,1.754-1.754,1.756,1.756,0,0,0-1.754-1.756A1.756,1.756,0,0,0-81.865,973.8Z" transform="translate(82.346 -971.559)" fill="#124c64"/>
            </g>
          </g>
        </g>
      </g>
      <g id="Grupo_56134" data-name="Grupo 56134" transform="translate(-191.529 926.044)">
        <g id="Grupo_56121" data-name="Grupo 56121" transform="translate(0 146.083)">
          <g id="Grupo_56118" data-name="Grupo 56118" transform="translate(12.823)">
            <path id="Trazado_101025" data-name="Trazado 101025" d="M-182.863,1007.092h18.877a.773.773,0,0,0,.773-.773.773.773,0,0,0-.773-.771h-18.877a.771.771,0,0,0-.772.771A.772.772,0,0,0-182.863,1007.092Z" transform="translate(183.635 -1005.547)" fill="#124c64"/>
          </g>
          <g id="Grupo_56119" data-name="Grupo 56119" transform="translate(5.271)">
            <path id="Trazado_101026" data-name="Trazado 101026" d="M-187.512,1007.092h4.719a.773.773,0,0,0,.773-.773.773.773,0,0,0-.773-.771h-4.719a.772.772,0,0,0-.772.771A.773.773,0,0,0-187.512,1007.092Z" transform="translate(188.284 -1005.547)" fill="#124c64"/>
          </g>
          <g id="Grupo_56120" data-name="Grupo 56120">
            <path id="Trazado_101027" data-name="Trazado 101027" d="M-190.756,1007.092h2.6a.773.773,0,0,0,.772-.773.772.772,0,0,0-.772-.771h-2.6a.773.773,0,0,0-.773.771A.773.773,0,0,0-190.756,1007.092Z" transform="translate(191.529 -1005.547)" fill="#124c64"/>
          </g>
        </g>
        <g id="Grupo_56122" data-name="Grupo 56122" transform="translate(121.022 48.671)">
          <path id="Trazado_101028" data-name="Trazado 101028" d="M-116.254,947.122h5.731a.772.772,0,0,0,.772-.771.771.771,0,0,0-.772-.772h-5.731a.771.771,0,0,0-.772.772A.772.772,0,0,0-116.254,947.122Z" transform="translate(117.026 -945.579)" fill="#124c64"/>
        </g>
        <g id="Grupo_56123" data-name="Grupo 56123" transform="translate(99.453 26.88)">
          <path id="Trazado_101029" data-name="Trazado 101029" d="M-126.337,940.965l-3.741-3.741a.771.771,0,0,1,0-1.092l3.741-3.743a.772.772,0,0,1,.546-.226h0a.772.772,0,0,1,.546.226l3.743,3.743a.772.772,0,0,1,.226.546.772.772,0,0,1-.226.546l-3.743,3.741a.772.772,0,0,1-.546.226A.772.772,0,0,1-126.337,940.965Zm.546-6.936-2.649,2.649,2.649,2.649,2.649-2.649Z" transform="translate(130.305 -932.164)" fill="#124c64"/>
        </g>
        <g id="Grupo_56124" data-name="Grupo 56124" transform="translate(307.917 6.369)">
          <path id="Trazado_101030" data-name="Trazado 101030" d="M-1.971,924.654a5.118,5.118,0,1,1,5.118,5.118A5.123,5.123,0,0,1-1.971,924.654Zm1.543,0a3.574,3.574,0,1,0,3.575-3.574A3.578,3.578,0,0,0-.428,924.654Z" transform="translate(1.971 -919.537)" fill="#124c64"/>
        </g>
        <g id="Grupo_56127" data-name="Grupo 56127" transform="translate(80.093 8.387)">
          <g id="Grupo_56125" data-name="Grupo 56125">
            <path id="Trazado_101031" data-name="Trazado 101031" d="M-141.45,926.207a.772.772,0,0,0,.546-.227l3.882-3.882a.771.771,0,0,0,0-1.092.77.77,0,0,0-1.092,0L-142,924.888a.772.772,0,0,0,0,1.092A.767.767,0,0,0-141.45,926.207Z" transform="translate(142.223 -920.779)" fill="#124c64"/>
          </g>
          <g id="Grupo_56126" data-name="Grupo 56126">
            <path id="Trazado_101032" data-name="Trazado 101032" d="M-137.568,926.207a.77.77,0,0,0,.546-.227.771.771,0,0,0,0-1.092l-3.882-3.882a.77.77,0,0,0-1.092,0,.772.772,0,0,0,0,1.092l3.884,3.882A.769.769,0,0,0-137.568,926.207Z" transform="translate(142.223 -920.779)" fill="#124c64"/>
          </g>
        </g>
        <g id="Grupo_56130" data-name="Grupo 56130" transform="translate(130.563)">
          <g id="Grupo_56128" data-name="Grupo 56128">
            <path id="Trazado_101033" data-name="Trazado 101033" d="M-110.38,921.043a.767.767,0,0,0,.546-.226l3.882-3.882a.773.773,0,0,0,0-1.093.772.772,0,0,0-1.092,0l-3.882,3.882a.771.771,0,0,0,0,1.092A.767.767,0,0,0-110.38,921.043Z" transform="translate(111.153 -915.616)" fill="#124c64"/>
          </g>
          <g id="Grupo_56129" data-name="Grupo 56129" transform="translate(0 0)">
            <path id="Trazado_101034" data-name="Trazado 101034" d="M-106.5,921.043a.764.764,0,0,0,.546-.226.77.77,0,0,0,0-1.091l-3.882-3.882a.771.771,0,0,0-1.092,0,.771.771,0,0,0,0,1.092l3.882,3.882A.77.77,0,0,0-106.5,921.043Z" transform="translate(111.153 -915.617)" fill="#124c64"/>
          </g>
        </g>
        <g id="Grupo_56133" data-name="Grupo 56133" transform="translate(333.638 0.17)">
          <g id="Grupo_56131" data-name="Grupo 56131" transform="translate(0)">
            <path id="Trazado_101035" data-name="Trazado 101035" d="M14.636,921.148a.767.767,0,0,0,.546-.226l3.884-3.884a.772.772,0,0,0-1.092-1.091L14.09,919.83a.772.772,0,0,0,.546,1.318Z" transform="translate(-13.864 -915.721)" fill="#124c64"/>
          </g>
          <g id="Grupo_56132" data-name="Grupo 56132" transform="translate(0)">
            <path id="Trazado_101036" data-name="Trazado 101036" d="M18.52,921.148a.772.772,0,0,0,.546-1.318l-3.884-3.884a.772.772,0,0,0-1.092,1.093l3.884,3.882A.765.765,0,0,0,18.52,921.148Z" transform="translate(-13.864 -915.721)" fill="#124c64"/>
          </g>
        </g>
      </g>
      <g id="Grupo_56169" data-name="Grupo 56169" transform="translate(-17.173 898.916)">
        <g id="Grupo_56163" data-name="Grupo 56163">
          <g id="Grupo_56138" data-name="Grupo 56138">
            <g id="Grupo_56135" data-name="Grupo 56135" transform="translate(0.51 0.523)">
              <rect id="Rect치ngulo_5364" data-name="Rect치ngulo 5364" width="72.841" height="78.649" fill="#95f7ff"/>
            </g>
            <g id="Grupo_56137" data-name="Grupo 56137">
              <g id="Grupo_56136" data-name="Grupo 56136">
                <path id="Trazado_101037" data-name="Trazado 101037" d="M-83.683,977.616h71.723a3.615,3.615,0,0,1,.991,0,.471.471,0,0,0,.127,0l-.473.473V900.625a4.077,4.077,0,0,1,0-1.053.458.458,0,0,0,0-.133l.473.471H-82.567a3.618,3.618,0,0,1-.991,0,.459.459,0,0,0-.125,0l.471-.471v75.453c0,1.007.088,2.058,0,3.062,0,.044,0,.089,0,.135a.471.471,0,0,1-.942,0V902.634c0-1.005-.088-2.058,0-3.062,0-.044,0-.089,0-.133a.478.478,0,0,1,.471-.471H-13.81a23.017,23.017,0,0,1,2.841,0,1.1,1.1,0,0,0,.127,0,.479.479,0,0,1,.471.471v75.453c0,1.007.086,2.058,0,3.062a1.244,1.244,0,0,0,0,.135.479.479,0,0,1-.471.471H-80.717a23.333,23.333,0,0,1-2.841,0,1.069,1.069,0,0,0-.125,0A.472.472,0,0,1-83.683,977.616Z" transform="translate(84.193 -898.916)" fill="#495abf"/>
              </g>
            </g>
          </g>
          <g id="Grupo_56162" data-name="Grupo 56162" transform="translate(6.255 9.254)">
            <g id="Grupo_56144" data-name="Grupo 56144" transform="translate(30.688)">
              <g id="Grupo_56141" data-name="Grupo 56141" transform="translate(9.037 0.559)">
                <g id="Grupo_56139" data-name="Grupo 56139" transform="translate(0 30.641)">
                  <path id="Trazado_101038" data-name="Trazado 101038" d="M-55.887,924.247a.428.428,0,0,1,.427-.427h6.844a.428.428,0,0,1,.427.427.429.429,0,0,1-.427.429H-55.46A.429.429,0,0,1-55.887,924.247Zm13.686,0a.429.429,0,0,1,.429-.427h6.842a.429.429,0,0,1,.429.427.43.43,0,0,1-.429.429h-6.842A.43.43,0,0,1-42.2,924.247Z" transform="translate(55.887 -923.82)" fill="#f3c4d2"/>
                </g>
                <g id="Grupo_56140" data-name="Grupo 56140" transform="translate(2.241)">
                  <path id="Trazado_101039" data-name="Trazado 101039" d="M-50.657,912.186l-.14-.227a.428.428,0,0,1,.076-.543v-6.031a.428.428,0,0,1,.427-.427.428.428,0,0,1,.427.427v6.576a.428.428,0,0,1-.31.411.411.411,0,0,1-.117.016A.432.432,0,0,1-50.657,912.186Zm-3.715-6.064-.071-.112a.431.431,0,0,1,.14-.591.424.424,0,0,1,.59.14l.07.114a.43.43,0,0,1-.138.59.429.429,0,0,1-.226.063A.424.424,0,0,1-54.372,906.122Z" transform="translate(54.507 -904.957)" fill="#f3c4d2"/>
                </g>
              </g>
              <g id="Grupo_56143" data-name="Grupo 56143">
                <g id="Grupo_56142" data-name="Grupo 56142">
                  <path id="Trazado_101040" data-name="Trazado 101040" d="M-60.982,964.845h30.05l-.471.471-.309-17.084-.491-27.194-.11-6.2.471.471a10.365,10.365,0,0,1-4.483-1.53,11.513,11.513,0,0,1-5.208-8.572l.455.346-12.358,1.3.455-.6a26.944,26.944,0,0,1,.64,5.692c.047,3.273-.45,6.853-2.5,9.516a8.94,8.94,0,0,1-5.1,3.194l.281-.692a54.355,54.355,0,0,1,4.563,8.241,7.208,7.208,0,0,1,.806,3.444c-.094.978-.281,1.951-.458,2.916-1.275,7-2.869,13.94-4.422,20.878q-.67,3-1.351,5.993c-.135.591-1.044.341-.91-.25q1.7-7.431,3.311-14.879c.755-3.483,1.5-6.967,2.177-10.464.375-1.953,1.08-4.115.443-6.067a41.408,41.408,0,0,0-4.972-9.334.476.476,0,0,1,.281-.694c6.858-1.636,7.453-9.612,6.631-15.414-.086-.611-.184-1.226-.325-1.827a.48.48,0,0,1,.455-.6l12.358-1.3a.469.469,0,0,1,.455.346,10.64,10.64,0,0,0,4.906,8.086,9.837,9.837,0,0,0,3.876,1.324.481.481,0,0,1,.471.471l.309,17.082.491,27.2.112,6.2a.479.479,0,0,1-.473.471h-30.05A.471.471,0,0,1-60.982,964.845Z" transform="translate(61.45 -904.613)" fill="#495abf"/>
                </g>
              </g>
            </g>
            <g id="Grupo_56161" data-name="Grupo 56161" transform="translate(0 4.685)">
              <g id="Grupo_56155" data-name="Grupo 56155" transform="translate(0.39)">
                <g id="Grupo_56146" data-name="Grupo 56146">
                  <g id="Grupo_56145" data-name="Grupo 56145">
                    <path id="Trazado_101041" data-name="Trazado 101041" d="M-57.4,908.439H-79.647a.471.471,0,0,1,0-.942H-57.4a.471.471,0,0,1,0,.942Z" transform="translate(80.102 -907.497)" fill="#495abf"/>
                  </g>
                </g>
                <g id="Grupo_56148" data-name="Grupo 56148" transform="translate(0 4.584)">
                  <g id="Grupo_56147" data-name="Grupo 56147">
                    <path id="Trazado_101042" data-name="Trazado 101042" d="M-61.824,911.261H-79.647a.471.471,0,0,1,0-.942h17.823a.471.471,0,0,1,0,.942Z" transform="translate(80.102 -910.319)" fill="#495abf"/>
                  </g>
                </g>
                <g id="Grupo_56150" data-name="Grupo 56150" transform="translate(0 9.168)">
                  <g id="Grupo_56149" data-name="Grupo 56149">
                    <path id="Trazado_101043" data-name="Trazado 101043" d="M-55.45,914.083h-24.2a.471.471,0,0,1,0-.942h24.2a.471.471,0,0,1,0,.942Z" transform="translate(80.102 -913.141)" fill="#495abf"/>
                  </g>
                </g>
                <g id="Grupo_56152" data-name="Grupo 56152" transform="translate(0 13.752)">
                  <g id="Grupo_56151" data-name="Grupo 56151">
                    <path id="Trazado_101044" data-name="Trazado 101044" d="M-57.531,916.905H-79.647a.471.471,0,0,1,0-.942h22.116a.471.471,0,0,1,0,.942Z" transform="translate(80.102 -915.963)" fill="#495abf"/>
                  </g>
                </g>
                <g id="Grupo_56154" data-name="Grupo 56154" transform="translate(0 18.336)">
                  <g id="Grupo_56153" data-name="Grupo 56153">
                    <path id="Trazado_101045" data-name="Trazado 101045" d="M-61.954,919.729H-79.647a.472.472,0,0,1,0-.944h17.693a.472.472,0,0,1,0,.944Z" transform="translate(80.102 -918.785)" fill="#495abf"/>
                  </g>
                </g>
              </g>
              <g id="Grupo_56160" data-name="Grupo 56160" transform="translate(0 42.018)">
                <g id="Grupo_56157" data-name="Grupo 56157">
                  <g id="Grupo_56156" data-name="Grupo 56156">
                    <path id="Trazado_101046" data-name="Trazado 101046" d="M-59.074,934.306H-79.887a.471.471,0,0,1,0-.942h20.813a.471.471,0,0,1,0,.942Z" transform="translate(80.342 -933.364)" fill="#495abf"/>
                  </g>
                </g>
                <g id="Grupo_56159" data-name="Grupo 56159" transform="translate(0 5.984)">
                  <g id="Grupo_56158" data-name="Grupo 56158">
                    <path id="Trazado_101047" data-name="Trazado 101047" d="M-55.69,937.99h-24.2a.471.471,0,0,1,0-.942h24.2a.471.471,0,0,1,0,.942Z" transform="translate(80.342 -937.048)" fill="#495abf"/>
                  </g>
                </g>
              </g>
            </g>
          </g>
        </g>
        <g id="Grupo_56168" data-name="Grupo 56168" transform="translate(32.801 5.096)">
          <g id="Grupo_56167" data-name="Grupo 56167">
            <g id="Grupo_56164" data-name="Grupo 56164" transform="translate(0.472 0.469)">
              <circle id="Elipse_13" data-name="Elipse 13" cx="3.657" cy="3.657" r="3.657" fill="#fff"/>
            </g>
            <g id="Grupo_56166" data-name="Grupo 56166">
              <g id="Grupo_56165" data-name="Grupo 56165">
                <path id="Trazado_101048" data-name="Trazado 101048" d="M-63.056,906.179a3.219,3.219,0,0,0,2.091,2.994,3.223,3.223,0,0,0,3.57-.987,3.212,3.212,0,0,0,.258-3.642,3.209,3.209,0,0,0-3.309-1.5,3.225,3.225,0,0,0-2.61,3.135.472.472,0,0,1-.944,0,4.189,4.189,0,0,1,2.692-3.869,4.148,4.148,0,0,1,4.61,1.233,4.172,4.172,0,0,1,.375,4.747,4.178,4.178,0,0,1-4.326,1.943A4.172,4.172,0,0,1-64,906.179.472.472,0,0,1-63.056,906.179Z" transform="translate(64 -902.053)" fill="#495abf"/>
              </g>
            </g>
          </g>
        </g>
      </g>
      <g id="Grupo_56170" data-name="Grupo 56170" transform="translate(-174.906 1096.431)">
        <ellipse id="Elipse_14" data-name="Elipse 14" cx="187.629" cy="23.493" rx="187.629" ry="23.493" fill="#dcbfff"/>
      </g>
      <g id="Grupo_56182" data-name="Grupo 56182" transform="translate(-141.711 983.933)">
        <g id="Grupo_56179" data-name="Grupo 56179">
          <g id="Grupo_56172" data-name="Grupo 56172" transform="translate(37.275 34.589)">
            <path id="Trazado_101049" data-name="Trazado 101049" d="M-107.126,972.779c-13.4,18.156-27.382,39.224-30.785,61.992-.042.346.51.458.59.115a135.3,135.3,0,0,1,5.929-18.229c8.812-2.425,17.464-4.417,22.092-13.166,4.72-8.991,4.121-20.716,3.223-30.511C-106.141,972.456-106.853,972.43-107.126,972.779Z" transform="translate(137.913 -972.547)" fill="#7ac4e2"/>
            <g id="Grupo_56171" data-name="Grupo 56171" transform="translate(6.628 5.719)">
              <path id="Trazado_101050" data-name="Trazado 101050" d="M-133.809,1014.289c6.023-13.513,13.754-27.084,23.581-38.2.065-.075.169.033.107.109-6.433,7.914-11.322,16.533-16.1,25.3,4.438-4.506,9.3-8.543,13.507-13.32.083-.094.213.041.135.135-4.175,5.01-8.736,10.453-14.173,14.161q-2.19,4.035-4.422,8.088c.365-.2.742-.387,1.118-.57.065-.033.123.065.057.1-.414.211-.825.432-1.252.614-.707,1.277-1.405,2.555-2.133,3.829C-133.541,1014.823-133.935,1014.575-133.809,1014.289Z" transform="translate(133.833 -976.067)" fill="#263238"/>
              <path id="Trazado_101051" data-name="Trazado 101051" d="M-131.032,999.344a79.285,79.285,0,0,0,10.291-6.87c.088-.072.216.05.127.125a54.37,54.37,0,0,1-10.269,7C-131.05,999.682-131.2,999.438-131.032,999.344Z" transform="translate(135.537 -965.837)" fill="#263238"/>
            </g>
          </g>
          <g id="Grupo_56174" data-name="Grupo 56174" transform="translate(34.759)">
            <path id="Trazado_101052" data-name="Trazado 101052" d="M-138.5,1044.683c.026.276.5.271.489-.023.07-7.5.007-15.029.12-22.561,1.92-3.876,6.043-6.022,8.91-9.127a39.916,39.916,0,0,0,5.348-7.446,53.475,53.475,0,0,0,6.2-20.683c.793-8.02-2.251-34.484-5.632-33.565-1.754.476-7.427,13.583-8.933,17.917a125.083,125.083,0,0,0-5.336,21.972C-140.066,1008.81-139.837,1026.927-138.5,1044.683Z" transform="translate(139.462 -951.254)" fill="#7ac4e2"/>
            <g id="Grupo_56173" data-name="Grupo 56173" transform="translate(0.845 4.628)">
              <path id="Trazado_101053" data-name="Trazado 101053" d="M-138.874,1010.559l.032-.029c.411-9.487,2.549-19.067,4.55-28.268,2.156-9.912,4.675-19.246,9.776-28.087.094-.164.338-.019.253.148a104.33,104.33,0,0,0-7.854,21.559c.343-.534.757-1.041,1.113-1.547.14-.2.468-.013.33.193a14.042,14.042,0,0,1-1.593,2.251.128.128,0,0,1-.067.029c-1.756,7.086-3.016,14.332-4.1,21.562.081-.093.159-.19.24-.279.055-.06.148.016.109.085-.133.24-.283.477-.429.716-.544,3.671-1.048,7.332-1.555,10.963,6.533-5.585,12.113-12.167,15.261-20.277.015-.037.075-.023.062.016-3.083,8.413-7.943,15.891-15.427,21q-.2,1.467-.411,2.929c-.029.2-.351.149-.351-.047,0-.864.044-1.73.078-2.6A.2.2,0,0,1-138.874,1010.559Z" transform="translate(138.942 -954.103)" fill="#263238"/>
              <path id="Trazado_101054" data-name="Trazado 101054" d="M-137,989.224c4.993-7.451,9.657-14.688,13.31-22.923.041-.093.2-.026.162.068-3.078,8.184-7.389,16.476-13.223,23.049C-136.865,989.553-137.1,989.376-137,989.224Z" transform="translate(140.141 -946.514)" fill="#263238"/>
              <path id="Trazado_101055" data-name="Trazado 101055" d="M-132.91,969.377c2.068-3.658,4.249-7.221,6.2-10.952.055-.1.2-.013.154.089a57.015,57.015,0,0,1-6.031,11.049A.185.185,0,0,1-132.91,969.377Z" transform="translate(142.691 -951.432)" fill="#263238"/>
              <path id="Trazado_101056" data-name="Trazado 101056" d="M-133.406,966.13a.033.033,0,0,1,0,.065A.033.033,0,0,1-133.406,966.13Z" transform="translate(142.379 -946.593)" fill="#263238"/>
            </g>
          </g>
          <g id="Grupo_56176" data-name="Grupo 56176" transform="translate(9.713 11.334)">
            <path id="Trazado_101057" data-name="Trazado 101057" d="M-133.943,1018.644a76.287,76.287,0,0,1-1.753,14.771c.078.535.154,1.067.232,1.618a70.438,70.438,0,0,0,2.643-16.466.5.5,0,0,0,.023-.508l0-.016a109.077,109.077,0,0,0-1.655-22.309c-2.321-13.78-7.394-27-17-37.332a.685.685,0,0,0-1.061.219c-3.877,9.86-2.526,21.626.778,31.463a57.557,57.557,0,0,0,7.62,14.943C-140.823,1009.659-136.621,1013.581-133.943,1018.644Z" transform="translate(154.881 -958.231)" fill="#7ac4e2"/>
            <g id="Grupo_56175" data-name="Grupo 56175" transform="translate(4.178 4.687)">
              <path id="Trazado_101058" data-name="Trazado 101058" d="M-151.927,961.213c9.106,14.782,15.445,32.306,16.22,49.766.013.309-.507.392-.551.075-.216-1.569-.455-3.124-.707-4.672l-.016-.006c-3.767-3.609-7.636-7.415-10.334-11.926-.047-.078.068-.172.13-.1,3.278,3.746,6.337,7.584,10.039,10.924-.653-3.86-1.425-7.659-2.341-11.4-.244-.279-.481-.565-.72-.846-.158-.185.106-.455.27-.27l.219.242a131.714,131.714,0,0,0-4.763-15.118c-2.318-2.766-4.909-5.156-6.6-8.487a.07.07,0,0,1,.12-.07c1.358,1.905,2.672,3.822,4.212,5.59.614.7,1.288,1.363,1.923,2.05a116.232,116.232,0,0,0-7.456-15.542A.2.2,0,0,1-151.927,961.213Z" transform="translate(152.309 -961.116)" fill="#263238"/>
              <path id="Trazado_101059" data-name="Trazado 101059" d="M-150.858,972.42c2.945,3.962,6.3,7.742,9.035,11.837.08.117-.093.237-.19.146-3.515-3.3-6.491-7.8-9.043-11.868C-151.135,972.409-150.942,972.3-150.858,972.42Z" transform="translate(153.079 -954.089)" fill="#263238"/>
              <path id="Trazado_101060" data-name="Trazado 101060" d="M-145.062,980.264l.125.125a.1.1,0,0,1-.135.135l-.125-.125A.1.1,0,0,1-145.062,980.264Z" transform="translate(156.731 -949.178)" fill="#263238"/>
            </g>
          </g>
          <g id="Grupo_56178" data-name="Grupo 56178" transform="translate(0 43.642)">
            <path id="Trazado_101061" data-name="Trazado 101061" d="M-160.856,979.012c.731,7.6,4.732,16.687,9.61,22.548a23.936,23.936,0,0,0,7.794,6.082c3.376,1.67,6.909,3.593,10.4,4.964a68.231,68.231,0,0,1,3.683,13.081c.112-.382.224-.778.338-1.16-2.242-19.253-14.7-35.709-30.638-46.274A.774.774,0,0,0-160.856,979.012Z" transform="translate(160.861 -978.12)" fill="#7ac4e2"/>
            <g id="Grupo_56177" data-name="Grupo 56177" transform="translate(5.47 6.346)">
              <path id="Trazado_101062" data-name="Trazado 101062" d="M-157.454,982.261c-.112-.1.041-.3.162-.211a65.211,65.211,0,0,1,20.307,25.027c.115.263-.245.494-.4.231-.741-1.3-1.5-2.56-2.264-3.8h-.01c-3.639-.684-7.082-3.244-9.784-5.674-.073-.067.036-.172.109-.109a22.4,22.4,0,0,0,4.6,3.234c1.483.752,3.08,1.226,4.623,1.831-1.348-2.141-2.753-4.193-4.22-6.183a42.448,42.448,0,0,1-10.932-6.145c-.1-.076-.011-.245.1-.177a109.141,109.141,0,0,0,10.161,5.432,90.884,90.884,0,0,0-7.173-8.364c-1.236-.653-2.49-1.308-3.687-2.006-.1-.057-.034-.224.078-.187a13.235,13.235,0,0,1,2.83,1.391C-154.386,985.1-155.867,983.661-157.454,982.261Z" transform="translate(157.493 -982.027)" fill="#263238"/>
              <path id="Trazado_101063" data-name="Trazado 101063" d="M-157.2,986.269a4.55,4.55,0,0,1,.612.439c.058.05-.016.127-.076.1a4.279,4.279,0,0,1-.64-.362C-157.415,986.375-157.313,986.2-157.2,986.269Z" transform="translate(157.581 -979.388)" fill="#263238"/>
            </g>
          </g>
        </g>
        <g id="Grupo_56181" data-name="Grupo 56181" transform="translate(13.03 78.233)">
          <g id="Grupo_56180" data-name="Grupo 56180" transform="translate(0 6.132)">
            <path id="Trazado_101064" data-name="Trazado 101064" d="M-109.17,1051.728h-43.669l3.525-39.768.774-8.771h35.071l.774,8.771Z" transform="translate(152.839 -1003.189)" fill="#ffa06d"/>
            <path id="Trazado_101065" data-name="Trazado 101065" d="M-114.05,1011.96h-36.619l.774-8.771h35.071Z" transform="translate(154.194 -1003.189)" fill="#fd6e33"/>
          </g>
          <rect id="Rect치ngulo_5365" data-name="Rect치ngulo 5365" width="39.249" height="8.68" transform="translate(2.21)" fill="#ffcd91"/>
        </g>
      </g>
      <g id="Grupo_56236" data-name="Grupo 56236" transform="translate(-158.445 949.908)">
        <g id="Grupo_56187" data-name="Grupo 56187" transform="translate(92.872 79.002)">
          <g id="Grupo_56186" data-name="Grupo 56186" transform="translate(40.687 65.806)">
            <path id="Trazado_101066" data-name="Trazado 101066" d="M-67.613,1131.781c2.645-.968,62.357-48.691,63.485-51.95.435-1.234-6.009-10.336-14.106-21.114-1.748-2.328-3.567-4.72-5.43-7.139-12.068-15.724-25.238-32.125-25.238-32.125l-40.038,31.807,26.343,31.25,5.776,6.865s-14.691,28.5-15.542,32.2S-70.256,1132.751-67.613,1131.781Z" transform="translate(88.941 -1019.453)" fill="#ffcd91"/>
            <path id="Trazado_101067" data-name="Trazado 101067" d="M-73.929,1119.433c2.645-.968,62.357-48.691,63.485-51.95.521-1.506-9.1-14.629-19.537-28.253l-38.933,30.932,5.776,6.865s-14.691,28.5-15.542,32.2S-76.572,1120.4-73.929,1119.433Z" transform="translate(95.257 -1007.104)" fill="#fff"/>
            <g id="Grupo_56185" data-name="Grupo 56185" transform="translate(16.071 39.265)">
              <path id="Trazado_101068" data-name="Trazado 101068" d="M-73.929,1116.688c2.645-.968,62.357-48.691,63.485-51.95.435-1.234-6.009-10.336-14.106-21.114l-38.587,30.657s-14.691,28.5-15.542,32.2S-76.572,1117.658-73.929,1116.688Z" transform="translate(79.186 -1043.625)" fill="#0ce6ea"/>
              <g id="Grupo_56184" data-name="Grupo 56184" transform="translate(0 13.549)">
                <g id="Grupo_56183" data-name="Grupo 56183" transform="translate(2.6)">
                  <path id="Trazado_101069" data-name="Trazado 101069" d="M-76.418,1105.167c9.815-8.247,50.173-40.577,60.5-47.981.083-.062.127-.007.049.062-9.548,8.385-50.166,40.389-60.418,48.084C-76.5,1105.493-76.624,1105.34-76.418,1105.167Z" transform="translate(78.023 -1048.724)" fill="#263238"/>
                  <path id="Trazado_101070" data-name="Trazado 101070" d="M-77.418,1080.048a10.293,10.293,0,0,1,7.942-2.341,9.975,9.975,0,0,1,6.509,3.556c.045.062-.063.151-.122.1a11.892,11.892,0,0,0-14.228-1.186A.081.081,0,0,1-77.418,1080.048Z" transform="translate(77.447 -1035.954)" fill="#263238"/>
                  <path id="Trazado_101071" data-name="Trazado 101071" d="M-71.023,1066.8c3.964-3.257,9.738-5.556,14.845-4.269.2.05.125.33-.042.364a70.941,70.941,0,0,0-14.477,4.453A.322.322,0,0,1-71.023,1066.8Z" transform="translate(81.384 -1045.595)" fill="#263238"/>
                  <path id="Trazado_101072" data-name="Trazado 101072" d="M-72.333,1069.066c3.962-3.259,9.737-5.556,14.845-4.269.2.051.123.33-.044.364a71,71,0,0,0-14.477,4.453A.322.322,0,0,1-72.333,1069.066Z" transform="translate(80.566 -1044.181)" fill="#263238"/>
                  <path id="Trazado_101073" data-name="Trazado 101073" d="M-73.644,1071.329c3.962-3.258,9.737-5.555,14.845-4.269.2.05.123.33-.044.364a70.972,70.972,0,0,0-14.477,4.452A.322.322,0,0,1-73.644,1071.329Z" transform="translate(79.747 -1042.768)" fill="#263238"/>
                  <path id="Trazado_101074" data-name="Trazado 101074" d="M-74.955,1073.594c3.962-3.258,9.737-5.555,14.845-4.269.2.05.125.33-.044.364a71,71,0,0,0-14.477,4.452A.322.322,0,0,1-74.955,1073.594Z" transform="translate(78.929 -1041.354)" fill="#263238"/>
                  <path id="Trazado_101075" data-name="Trazado 101075" d="M-44.82,1052.957c4.506-3.579,10.076,3.416,5.564,7S-49.332,1056.542-44.82,1052.957Z" transform="translate(96.776 -1051.966)" fill="#fff"/>
                </g>
                <path id="Trazado_101076" data-name="Trazado 101076" d="M-73.948,1067.446c4.392,1.061,9.088.184,13.518-.122a.627.627,0,0,0,.463-.9.135.135,0,0,0,.032-.214,26.915,26.915,0,0,0-11.827-7.336c-2.646-.747-6.515-.348-7.2,2.955C-79.607,1064.953-76.511,1066.826-73.948,1067.446Zm-2.838-3.171c-3.085-4.678,3.523-4.472,5.451-3.845a29.083,29.083,0,0,1,3.624,1.533,80.431,80.431,0,0,1,7,4.132c-2.185.016-4.348.221-6.53.318C-69.841,1066.531-75.085,1066.853-76.786,1064.275Z" transform="translate(79.047 -1047.852)" fill="#263238"/>
                <path id="Trazado_101077" data-name="Trazado 101077" d="M-54.635,1055.123c-2.406-2.365-5.841-.546-7.627,1.546a26.9,26.9,0,0,0-5.754,12.674.135.135,0,0,0,.146.159.628.628,0,0,0,.885.49c3.851-2.208,8.244-4.09,11.3-7.414C-53.893,1060.637-52.361,1057.359-54.635,1055.123Zm-7.193,10.328c-1.87,1.132-3.782,2.165-5.607,3.366a80.474,80.474,0,0,1,3.523-7.328,28.944,28.944,0,0,1,2.16-3.288c1.254-1.594,6.632-5.439,6.668.164C-55.064,1061.455-59.6,1064.1-61.828,1065.451Z" transform="translate(85.935 -1050.691)" fill="#263238"/>
              </g>
            </g>
          </g>
          <path id="Trazado_101078" data-name="Trazado 101078" d="M-113.739,1015.392c2.744,20.8,54.006,80.849,59.929,87.737l1.35,1.568,42.4-32.587-.489-.629-37.34-48.893,111.378,11.2-28.849-32.522s-3.431,1.979-10.562.937c-24.582-3.6-93.438-23.78-106.507-23.253C-99.284,979.646-116.257,996.307-113.739,1015.392Z" transform="translate(113.989 -978.942)" fill="#37474f"/>
          <path id="Trazado_101079" data-name="Trazado 101079" d="M-81.506,994.631a49.653,49.653,0,0,1,3.851,4.937c1.319,1.73,2.661,3.444,3.978,5.175l.039.052c-.234-.507-.463-1.017-.7-1.519-.832-1.724-1.5-3.5-2.482-5.151a.09.09,0,0,1,.154-.094c1.012,1.636,2.185,3.19,3.051,4.912.408.811.793,1.629,1.152,2.463.2.455.4.913.575,1.376a6.738,6.738,0,0,1,.244.666c.59.8,1.173,1.611,1.74,2.433,1.257,1.821,2.367,3.746,3.64,5.552.068.1-.086.187-.156.1-1.288-1.7-2.734-3.283-4.041-4.969-1.332-1.717-2.6-3.481-3.845-5.258-1.218-1.735-2.412-3.486-3.627-5.222a52.01,52.01,0,0,1-3.673-5.364C-81.647,994.649-81.565,994.573-81.506,994.631Z" transform="translate(134.199 -969.159)" fill="#263238"/>
        </g>
        <g id="Grupo_56228" data-name="Grupo 56228" transform="translate(103.928)">
          <g id="Grupo_56192" data-name="Grupo 56192" transform="translate(14.976 43.11)">
            <g id="Grupo_56190" data-name="Grupo 56190" transform="translate(0 0.576)">
              <path id="Trazado_101080" data-name="Trazado 101080" d="M16.938,968.663c-6.109,23.955-18.255,52.552-23.253,57.12-6.324,5.78-47.491,15.666-49.536,15.838-5.065.388-14.313-36.224-8.915-36.872,8.218-.986,38.035-1.892,39.864-3.681,1.9-1.873,14.845-17.418,28.2-35.017C12.515,953.89,20.73,953.8,16.938,968.663Z" transform="translate(117.669 -957.201)" fill="#f7a9a0"/>
              <g id="Grupo_56189" data-name="Grupo 56189" transform="translate(0 46.981)">
                <path id="Trazado_101081" data-name="Trazado 101081" d="M-32.042,1021.7c-.609.291-9.259,4.384-14.581,5.789-3.97,1.048-15.48,3.759-17.069-.5-1.087-2.9,5.494-5.292,10.11-7.087,2.432-.945,5.458-3.393,4.785-4.959-1.174-2.736-7.438-.166-11.571,2.1-7.99,4.391-18.687,12.383-23.406,8.268-1.782-1.554.4-4.258,3.553-6.881-5.091,3.025-10.5,5.476-12.552,3.827-1.176-.939-1.2-2.191-.5-3.6-1.561.466-2.927.335-3.856-.7-1.59-1.745-.736-4.245,1.111-6.783a1.947,1.947,0,0,1-1.459-1.009c-3.327-5.348,14.319-20.048,20.329-21.32,17.685-3.757,36.2-2.536,36.2-2.536C-34.176,992-32.027,1021.686-32.042,1021.7Z" transform="translate(97.963 -986.123)" fill="#f7a9a0"/>
                <g id="Grupo_56188" data-name="Grupo 56188" transform="translate(1.804 4.582)">
                  <path id="Trazado_101082" data-name="Trazado 101082" d="M-64.117,997.676a29.854,29.854,0,0,0-11.839,4.233c-4.527,2.836-7.568,6.208-11.392,9.587-.1.088.034.247.136.159,1.821-1.606,9.355-7.627,11.3-8.989A28.426,28.426,0,0,1-64.1,997.747C-64.057,997.741-64.072,997.67-64.117,997.676Z" transform="translate(102.765 -983.492)" fill="#263238"/>
                  <path id="Trazado_101083" data-name="Trazado 101083" d="M-62.462,993.035c-4.652,1.154-9.418,2.316-13.76,4.4-4.751,2.279-8.52,6.091-12.222,9.758q-3.333,3.3-6.52,6.751c-.089.1.039.255.135.159q5.638-5.685,11.611-11.023a37.61,37.61,0,0,1,12.635-7.545c2.669-.944,5.4-1.683,8.137-2.417C-62.4,993.1-62.41,993.022-62.462,993.035Z" transform="translate(98.012 -986.391)" fill="#263238"/>
                  <path id="Trazado_101084" data-name="Trazado 101084" d="M-66.082,988.944c-4.513.814-8.45,1.509-12.483,3.821-5.339,3.059-10.55,8.3-12.38,10.164-2.019,2.055-3.968,4.175-5.885,6.326-.078.088.071.226.153.138a149.574,149.574,0,0,1,14.023-13.237,29.686,29.686,0,0,1,7.779-4.8,53.361,53.361,0,0,1,8.8-2.385A.016.016,0,0,0-66.082,988.944Z" transform="translate(96.852 -988.944)" fill="#263238"/>
                </g>
              </g>
            </g>
            <g id="Grupo_56191" data-name="Grupo 56191" transform="translate(59.88)">
              <path id="Trazado_101085" data-name="Trazado 101085" d="M-61.1,1003.172l11.624,40.153s34.291-8.905,40.676-15.469S9.9,986.91,13.685,970.192,8.963,953.686.9,964.09-27.21,999.7-28.31,1000.23-61.1,1003.172-61.1,1003.172Z" transform="translate(61.1 -956.845)" fill="#25ced1"/>
              <path id="Trazado_101086" data-name="Trazado 101086" d="M-49.29,1007.894c-1.412-4.735-2.861-9.462-4.1-14.249-.7-2.721-1.42-5.438-2.1-8.166-.026-.1.148-.161.182-.059,1.6,4.7,3.2,9.41,4.592,14.179,1.381,4.745,2.8,9.48,4.124,14.244.75,2.708,1.416,5.429,2,8.182.011.053-.075.084-.1.031C-46.438,1017.41-47.871,1012.662-49.29,1007.894Z" transform="translate(64.607 -939.039)" fill="#124c64"/>
              <path id="Trazado_101087" data-name="Trazado 101087" d="M-52.274,985.031c.089,0,.192-.019.281-.023a2.846,2.846,0,0,0,0,.333,15.416,15.416,0,0,0,1,5.255,16.447,16.447,0,0,0,2.745,4.6,11.435,11.435,0,0,0,4.232,3.228,16.665,16.665,0,0,0,5.2,1.309,29.909,29.909,0,0,0,4.285.112l.32-.013c.268-.01.525-.019.793-.042,1.8-.1,3.6-.31,5.4-.531a102.085,102.085,0,0,1,10.8-1.089,20.156,20.156,0,0,1,5.4.544,9.974,9.974,0,0,1,3.652,1.725l-.07.156a9.86,9.86,0,0,0-3.626-1.712,20.18,20.18,0,0,0-5.351-.521A105.739,105.739,0,0,0-28,999.479c-1.8.219-3.6.427-5.4.544-.179.006-.346.026-.525.032l-.307.011a29.251,29.251,0,0,1-4.617-.088,16.994,16.994,0,0,1-5.276-1.317,11.922,11.922,0,0,1-4.337-3.288,16.4,16.4,0,0,1-2.8-4.677,15.715,15.715,0,0,1-.75-2.625,17.882,17.882,0,0,1-.266-2.721A2.631,2.631,0,0,1-52.274,985.031Zm11.329,4.557a19.117,19.117,0,0,0,2.068,5.024,19.4,19.4,0,0,0,3.311,4.311c.333.322.677.629,1.035.924a1.681,1.681,0,0,0,.3.219,15.909,15.909,0,0,0,3.135,1.961,27.69,27.69,0,0,0,5.14,1.784c3.505.884,7.112,1.392,10.456,2.781a17.513,17.513,0,0,1,3.176,1.665.578.578,0,0,1,.084-.132,18.124,18.124,0,0,0-3.189-1.689c-3.371-1.4-6.99-1.922-10.482-2.805a26.875,26.875,0,0,1-5.1-1.787,16.866,16.866,0,0,1-2.911-1.788,2.367,2.367,0,0,1-.289-.221,15.533,15.533,0,0,1-1.205-1.057,18.9,18.9,0,0,1-3.272-4.275,19.083,19.083,0,0,1-2.04-4.974,20.332,20.332,0,0,1-.543-5.349.187.187,0,0,1,.01-.089,1.617,1.617,0,0,0-.257.021l0,.065A19.826,19.826,0,0,0-40.945,989.588Z" transform="translate(66.607 -939.837)" fill="#fff"/>
              <path id="Trazado_101088" data-name="Trazado 101088" d="M-54.659,1039.332l1.158,3.995s34.3-8.91,40.681-15.463,18.7-40.949,22.486-57.671c2.766-12.223-1.041-15.4-6.431-12.155C-11.366,978.13-38.888,1016.238-54.659,1039.332Z" transform="translate(65.122 -956.847)" opacity="0.1"/>
            </g>
          </g>
          <g id="Grupo_56194" data-name="Grupo 56194" transform="translate(115.547 42.781)">
            <g id="Grupo_56193" data-name="Grupo 56193">
              <path id="Trazado_101089" data-name="Trazado 101089" d="M37.348,1048.041c-.192.195-72.679-15.682-73.35-16.527-.939-1.189,12.016-55.694,25.683-71.961,3.418-4.067,14.3-3.786,19.168.318C32.985,980.217,38.035,1047.337,37.348,1048.041Z" transform="translate(36.05 -956.644)" fill="#25ced1"/>
            </g>
          </g>
          <g id="Grupo_56206" data-name="Grupo 56206" transform="translate(81.378 44.668)">
            <g id="Grupo_56205" data-name="Grupo 56205">
              <g id="Grupo_56202" data-name="Grupo 56202" transform="translate(0 0.642)">
                <path id="Trazado_101090" data-name="Trazado 101090" d="M9.23,963.008c15.029,11.561,54.64,58.3,46.36,69.389-8.34,11.169-65.029,7.4-81.587,2.625-4.927-1.42,7.713-32.756,12.969-34.309,4.376-1.291,28.947,5.377,29.389,3.954.5-1.608-4.94-11.97-13.72-30.9C-7.48,951.931,2.592,957.9,9.23,963.008Z" transform="translate(75.798 -958.201)" fill="#ffa06d"/>
                <g id="Grupo_56201" data-name="Grupo 56201" transform="translate(0 33.001)">
                  <g id="Grupo_56200" data-name="Grupo 56200" transform="translate(0.351)">
                    <path id="Trazado_101091" data-name="Trazado 101091" d="M-20.886,982.594c-11.351.291-14.222,2.109-23.932-2.734-6.372-3.179-11.137-.473-6.808,5.536,7.082,9.826,21.807,12.527,27.183,11.995Z" transform="translate(59.103 -978.517)" fill="#ffcd91"/>
                    <g id="Grupo_56195" data-name="Grupo 56195" transform="translate(0 4.004)">
                      <path id="Trazado_101092" data-name="Trazado 101092" d="M12.592,986.861S-1.022,982-13.152,981.114c-8.387-.614-26.783.086-41.081,20.716-3.39,4.894-4.753,14.272,3.689,8.291,6-4.248,8.515-8.754,12.453-10.589,0,0-.317,12.134,4.719,15.341a109.794,109.794,0,0,0,13.754,7.44,23.231,23.231,0,0,0,1.623-2.45s4.985,2.552,13.216.372Z" transform="translate(56.869 -980.981)" fill="#ffcd91"/>
                    </g>
                    <g id="Grupo_56199" data-name="Grupo 56199" transform="translate(11.655 4.828)">
                      <path id="Trazado_101093" data-name="Trazado 101093" d="M-25.729,981.489c-3.523,2.649-10.9,8.387-15.3,15.18-4.885,7.544-12.263,23.393-6.657,26.942,4.111,2.6,7.461-3.2,7.461-3.2s-1.67,7.195,2.558,8.733c3.851,1.4,6.174-3.242,6.174-3.242s-.262,4.537,3.708,5.173c4.776.765,4.542-8.871,10.048-12.277C-16.495,1018.031-25.729,981.489-25.729,981.489Z" transform="translate(49.694 -981.489)" fill="#ffcd91"/>
                      <g id="Grupo_56198" data-name="Grupo 56198" transform="translate(9.383 18.999)">
                        <g id="Grupo_56196" data-name="Grupo 56196">
                          <path id="Trazado_101094" data-name="Trazado 101094" d="M-35.8,993.2c-2.906,3.034-7.735,11.618-8.119,19.745-.008.185.125.291.169.124a88.162,88.162,0,0,1,8.021-19.823C-35.7,993.2-35.766,993.164-35.8,993.2Z" transform="translate(43.917 -993.185)" fill="#263238"/>
                        </g>
                        <g id="Grupo_56197" data-name="Grupo 56197" transform="translate(8.665 5.152)">
                          <path id="Trazado_101095" data-name="Trazado 101095" d="M-31.657,996.372c-2.237,2.875-6.819,11.944-6.926,20.193,0,.185.14.281.175.112a94.584,94.584,0,0,1,6.824-20.264C-31.561,996.369-31.627,996.335-31.657,996.372Z" transform="translate(38.583 -996.356)" fill="#263238"/>
                        </g>
                      </g>
                    </g>
                  </g>
                  <path id="Trazado_101096" data-name="Trazado 101096" d="M-37.971,992.359c-3.439,1.663-5.5,3.827-8.2,6.45a50.349,50.349,0,0,1-4.17,3.721c-1.342,1.04-3.314,2.6-5.089,1.616a3.007,3.007,0,0,1-1.155-2.844,14.645,14.645,0,0,1,1.306-4.443c.026-.054-.065-.1-.093-.047a20.917,20.917,0,0,0-1.566,4.024,4.879,4.879,0,0,0,.14,2.877c.861,1.905,3.255,1.779,4.831.955a16.138,16.138,0,0,0,2.619-1.848c.793-.648,1.555-1.335,2.3-2.039,1.527-1.446,2.969-2.979,4.478-4.441a47.823,47.823,0,0,1,4.675-3.869C-37.834,992.423-37.9,992.326-37.971,992.359Z" transform="translate(57.085 -969.878)" fill="#263238"/>
                  <path id="Trazado_101097" data-name="Trazado 101097" d="M-47.9,1006.335a114.585,114.585,0,0,1,5.555-13.9.052.052,0,0,0-.086-.057c-2.376,3.138-5.731,10.984-6.411,13.432-.671,2.419-1.4,5.49-.983,8,.624,3.778,3.249,4.079,4.206,4.111a4.964,4.964,0,0,0,3.129-1.059,10.005,10.005,0,0,0,2.463-3.221c.029-.058-.05-.117-.088-.058-1.062,1.7-2.994,3.535-5.092,3.6a3.49,3.49,0,0,1-2.545-.874,4.51,4.51,0,0,1-1.106-2.943A20.936,20.936,0,0,1-47.9,1006.335Z" transform="translate(61.544 -969.878)" fill="#263238"/>
                </g>
              </g>
              <g id="Grupo_56204" data-name="Grupo 56204" transform="translate(57.62)">
                <path id="Trazado_101098" data-name="Trazado 101098" d="M-9.725,1001.332l-11.4,39.686s70.952,4.045,74.886-8.84S23.411,977.083,9.192,965.491c-16.478-13.434-17.365-7.79-12,5.645,5.616,14.067,15.289,34.154,15.289,34.154Z" transform="translate(21.917 -957.805)" fill="#25ced1"/>
                <path id="Trazado_101099" data-name="Trazado 101099" d="M7.152,996.148a16.768,16.768,0,0,0,5.2-1.306,29.047,29.047,0,0,0,3.816-1.959,2,2,0,0,0,.281-.166c.231-.128.461-.27.679-.411,1.524-.947,3.01-1.985,4.482-3.034,1.717-1.217,3.419-2.484,5.162-3.676a1.47,1.47,0,0,1,.127.154c-1.741,1.2-3.444,2.472-5.161,3.7-1.472,1.064-2.958,2.1-4.495,3.062-.14.089-.281.179-.435.268-.089.052-.179.115-.281.167a31.626,31.626,0,0,1-4.085,2.112A16.686,16.686,0,0,1,7.165,996.4a10.392,10.392,0,0,1-1.267.026c-.039-.089-.078-.167-.115-.257A12.029,12.029,0,0,0,7.152,996.148Zm-13.728-33.2a15.237,15.237,0,0,0-2.177-1.55c.026.128.05.244.089.383a14.207,14.207,0,0,1,1.909,1.384,15.818,15.818,0,0,1,3.38,4.149,28.157,28.157,0,0,1,2.164,4.93c.6,1.7,1.127,3.445,1.7,5.161a37.92,37.92,0,0,0,2.074,5.032,20.084,20.084,0,0,0,3.073,4.482,19.461,19.461,0,0,0,4.212,3.445,19.648,19.648,0,0,0,4.969,2.216,12.581,12.581,0,0,0,1.345.307,2.927,2.927,0,0,0,.359.065,17.064,17.064,0,0,0,3.7.218,26.369,26.369,0,0,0,5.365-.871c1.78-.448,3.535-1,5.3-1.486-.039-.05-.076-.089-.115-.141-1.741.461-3.483,1-5.237,1.447a26.686,26.686,0,0,1-5.328.858,15.946,15.946,0,0,1-3.406-.192,1.847,1.847,0,0,1-.359-.063,11.869,11.869,0,0,1-1.574-.346,19.46,19.46,0,0,1-4.906-2.2,19.023,19.023,0,0,1-4.162-3.406,20.575,20.575,0,0,1-3.021-4.444,36.3,36.3,0,0,1-2.05-5.006c-.575-1.7-1.088-3.445-1.689-5.161a28.773,28.773,0,0,0-2.177-4.982A16.838,16.838,0,0,0-4.667,964.9,16.1,16.1,0,0,0-6.575,962.944Zm-4.725,38.916c0,.551.013,1.09.052,1.641.013.051.013.114.024.179a21.178,21.178,0,0,0,.59,3.572,19.365,19.365,0,0,0,2.035,5.034A18.1,18.1,0,0,0-5.18,1016.5c2.677,2.486,5.9,4.214,8.876,6.262a26.225,26.225,0,0,1,4.162,3.432,16.393,16.393,0,0,1,2.112,2.688,1.457,1.457,0,0,1,.206.309,14.923,14.923,0,0,1,.768,1.4,19.076,19.076,0,0,1,1.587,5.148,20.321,20.321,0,0,1,.294,3.406h.231a19.4,19.4,0,0,0-.307-3.445,19.462,19.462,0,0,0-1.626-5.2c-.192-.409-.409-.807-.64-1.2-.065-.1-.128-.218-.192-.32A17.445,17.445,0,0,0,8,1026.05a26.41,26.41,0,0,0-4.2-3.444c-2.984-2.05-6.2-3.779-8.863-6.225a17.833,17.833,0,0,1-3.406-4.175,19.553,19.553,0,0,1-2.035-4.993,21.148,21.148,0,0,1-.627-3.689c0-.063-.013-.128-.013-.179-.039-.5-.052-.986-.052-1.486a18.474,18.474,0,0,1,.154-2.381l-.089-.026A21.825,21.825,0,0,0-11.3,1001.859Zm-3.432,16.507a9.685,9.685,0,0,0,3.5,4.124,20.421,20.421,0,0,0,4.891,2.382,106.26,106.26,0,0,0,10.513,2.714c1.754.411,3.509.846,5.239,1.358.255.076.512.153.768.244a1.321,1.321,0,0,1,.307.1,30.466,30.466,0,0,1,3.983,1.574,16.582,16.582,0,0,1,4.417,3.023,11.668,11.668,0,0,1,2.869,4.482,2.071,2.071,0,0,1,.089.281c.091-.011.18-.011.283-.024l-.115-.346a11.894,11.894,0,0,0-2.945-4.573,16.889,16.889,0,0,0-4.495-3.073,32.261,32.261,0,0,0-4.277-1.663c-.1-.026-.219-.065-.322-.091l-.5-.153c-1.728-.525-3.5-.948-5.263-1.358a107.45,107.45,0,0,1-10.489-2.675,20.227,20.227,0,0,1-4.852-2.344,9.512,9.512,0,0,1-3.445-4.047,10.878,10.878,0,0,1-.832-5.263,13.959,13.959,0,0,1,1.639-5.11c.755-1.459,1.663-2.856,2.547-4.251.026-.052.065-.1.091-.154a35.332,35.332,0,0,0,2.087-3.7l-.078-.013a34.426,34.426,0,0,1-2.022,3.534,1.315,1.315,0,0,1-.1.154c-.91,1.433-1.845,2.856-2.638,4.366a13.862,13.862,0,0,0-1.678,5.161A11.066,11.066,0,0,0-14.733,1018.366Z" transform="translate(25.358 -955.565)" fill="#fff"/>
                <g id="Grupo_56203" data-name="Grupo 56203" transform="translate(0 26.667)">
                  <path id="Trazado_101100" data-name="Trazado 101100" d="M24.463,993.847a81.276,81.276,0,0,0-10.945-4.209,78.778,78.778,0,0,0-11.316-2.5c-2.182-.341-4.373-.577-6.566-.827a.052.052,0,0,0-.01.1,101.217,101.217,0,0,1,11.408,2.4q5.607,1.462,11.15,3.127c2.092.629,4.155,1.356,6.225,2.055A.079.079,0,0,0,24.463,993.847Z" transform="translate(32.349 -966.674)" fill="#124c64"/>
                  <path id="Trazado_101101" data-name="Trazado 101101" d="M-13.949,990.944c.359.034,20.089,3.116,20.75,3.3-.125-.27-5.127-9.662-5.871-11.034-.075-.138-.141-.276-.214-.414C.267,982.2-.184,981.611-.61,981q-.816-1.175-1.623-2.357c-.018-.023.018-.052.036-.028.573.759,1.15,1.517,1.72,2.281.263.352.515.713.765,1.075-.5-.975-.986-1.954-1.473-2.937-.776-1.569-1.5-3.158-2.224-4.753-.023-.052.054-.083.08-.034,1.473,2.737,3.031,5.426,4.513,8.158s7.1,12.774,7.064,12.769c-.029.034-21.807-3.861-22.233-3.962A.135.135,0,0,1-13.949,990.944Z" transform="translate(26.306 -974.222)" fill="#124c64"/>
                  <path id="Trazado_101102" data-name="Trazado 101102" d="M-11.025,1007.4c1.244-4.425,2.456-8.861,3.866-13.24.8-2.489,1.589-4.982,2.414-7.462.031-.094.2-.054.172.044-1.074,4.491-2.162,8.993-3.442,13.434-1.274,4.418-2.51,8.848-3.84,13.25q-1.135,3.754-2.5,7.431a.048.048,0,0,1-.091-.024C-13.515,1016.3-12.28,1011.854-11.025,1007.4Z" transform="translate(26.091 -966.467)" fill="#124c64"/>
                  <path id="Trazado_101103" data-name="Trazado 101103" d="M-21.611,1011.4c.5-1.246,1.093-3.023,1.642-4.246.145-.323.38-.3.276.031-.351,1.114-.591,2.342-.934,3.482.993.033,1.985.044,2.978.086,1.148.049,2.3.1,3.442.148q3.372.134,6.744.2,6.83.129,13.663-.034a264.009,264.009,0,0,0,27.327-1.927c2.534-.325,5.063-.7,7.578-1.15a73.981,73.981,0,0,0,7.383-1.589c.065-.019.1.093.032.119a42,42,0,0,1-6.334,1.91q-3.394.733-6.827,1.269c-4.556.7-9.149,1.158-13.744,1.491q-13.672.992-27.4.828-3.84-.041-7.68-.174c-1.29-.044-2.583-.088-3.873-.158S-21.7,1011.611-21.611,1011.4Z" transform="translate(21.613 -954.132)" fill="#124c64"/>
                </g>
              </g>
            </g>
          </g>
          <g id="Grupo_56212" data-name="Grupo 56212" transform="translate(0 84.61)">
            <g id="Grupo_56211" data-name="Grupo 56211">
              <g id="Grupo_56209" data-name="Grupo 56209" transform="translate(37.988 51.706)">
                <g id="Grupo_56207" data-name="Grupo 56207">
                  <rect id="Rect치ngulo_5366" data-name="Rect치ngulo 5366" width="83.787" height="3.752" fill="#c7c7c7"/>
                </g>
                <g id="Grupo_56208" data-name="Grupo 56208">
                  <path id="Trazado_101104" data-name="Trazado 101104" d="M-83.8,1014.225v3.753h56.954l-2.871-3.753Z" transform="translate(83.796 -1014.225)" fill="#a6a6a6"/>
                </g>
              </g>
              <g id="Grupo_56210" data-name="Grupo 56210">
                <path id="Trazado_101105" data-name="Trazado 101105" d="M-18.726,1037.854h-81.658l-6.8-55.46h81.658Z" transform="translate(107.182 -982.395)" fill="#c7c7c7"/>
                <path id="Trazado_101106" data-name="Trazado 101106" d="M-73.073,1001.375a4.866,4.866,0,0,1-4.883,4.971,5.078,5.078,0,0,1-5.058-4.971,4.867,4.867,0,0,1,4.885-4.969A5.076,5.076,0,0,1-73.073,1001.375Z" transform="translate(122.272 -973.646)" fill="#fff"/>
              </g>
            </g>
          </g>
          <g id="Grupo_56227" data-name="Grupo 56227" transform="translate(125.128)">
            <g id="Grupo_56226" data-name="Grupo 56226">
              <g id="Grupo_56214" data-name="Grupo 56214" transform="translate(11.749 29.1)">
                <g id="Grupo_56213" data-name="Grupo 56213" transform="translate(0.008)">
                  <path id="Trazado_101107" data-name="Trazado 101107" d="M-15.089,977.37c3.319-.044,9.837-6.629,12.219-12,.162-.37-.689-4.035-1.511-8.538-.487-2.734-.967-5.791-1.2-8.611L-22.914,954A45.081,45.081,0,0,1-20.3,964.685a6.3,6.3,0,0,1-.024,1.168c0,.054-.011.119-.01.193C-20.508,968.275-20.286,977.438-15.089,977.37Z" transform="translate(22.914 -948.222)" fill="#ffcd91"/>
                </g>
                <path id="Trazado_101108" data-name="Trazado 101108" d="M-20.318,965.694a1.447,1.447,0,0,0-.015.193,11.272,11.272,0,0,0,1.831-.057C-8.465,964.76-7.029,952.3-6.836,948.479l-16.083,5.356a45.487,45.487,0,0,1,2.628,10.693A7.682,7.682,0,0,1-20.318,965.694Z" transform="translate(22.919 -948.062)" fill="#263238"/>
              </g>
              <g id="Grupo_56225" data-name="Grupo 56225">
                <g id="Grupo_56215" data-name="Grupo 56215">
                  <path id="Trazado_101109" data-name="Trazado 101109" d="M-3.385,937.318c3.272,5.71,4.076,24.176.614,29.124-5.021,7.175-15.255,10.086-21.859,3.59-6.4-6.3-7.022-30.381-2.968-35.085C-21.624,928.018-8.221,928.884-3.385,937.318Z" transform="translate(30.152 -930.307)" fill="#ffcd91"/>
                </g>
                <g id="Grupo_56223" data-name="Grupo 56223" transform="translate(0.931 17.118)">
                  <path id="Trazado_101110" data-name="Trazado 101110" d="M-19.9,943.548a16.132,16.132,0,0,1-1.594-.43,2.668,2.668,0,0,1-1.542-.749.85.85,0,0,1,.06-1.036,2.108,2.108,0,0,1,2.1-.375,3.1,3.1,0,0,1,1.879,1.2A.908.908,0,0,1-19.9,943.548Z" transform="translate(33.572 -940.846)" fill="#263238"/>
                  <path id="Trazado_101111" data-name="Trazado 101111" d="M-28.447,944.242a15.524,15.524,0,0,0,1.563-.533,2.677,2.677,0,0,0,1.49-.848.851.851,0,0,0-.127-1.03,2.108,2.108,0,0,0-2.123-.237,3.092,3.092,0,0,0-1.8,1.321A.907.907,0,0,0-28.447,944.242Z" transform="translate(29.579 -940.485)" fill="#263238"/>
                  <path id="Trazado_101112" data-name="Trazado 101112" d="M-20.111,951.442c-.276.314-.543.736-.991.807a3.282,3.282,0,0,1-1.358-.213.044.044,0,0,0-.049.068,1.674,1.674,0,0,0,1.626.556,1.324,1.324,0,0,0,.9-1.171C-19.974,951.416-20.072,951.4-20.111,951.442Z" transform="translate(33.987 -934.244)" fill="#263238"/>
                  <g id="Grupo_56217" data-name="Grupo 56217" transform="translate(5.037 0.515)">
                    <g id="Grupo_56216" data-name="Grupo 56216">
                      <path id="Trazado_101113" data-name="Trazado 101113" d="M-19.224,954.226a4.232,4.232,0,0,1-2.68,2.092,5.259,5.259,0,0,1-1.516.184,1.352,1.352,0,0,1-.292-.011c-.091,0-.174-.008-.275-.021a.31.31,0,0,1-.271-.258v-.01a.57.57,0,0,1,0-.129l0-.008-.006-.109c-.1-.955-.114-2.415-.114-2.415-.336.2-2.056,1.137-2.066.635a63.8,63.8,0,0,1,.681-12.917.114.114,0,0,1,.227.015c.219,3.988-.265,7.989-.107,12a7.442,7.442,0,0,1,1.949-.755c.138.028-.019,2.823.06,3.249a.121.121,0,0,0,.011.044,5.877,5.877,0,0,0,4.274-1.686C-19.261,954.046-19.155,954.122-19.224,954.226Z" transform="translate(26.478 -941.163)" fill="#263238"/>
                    </g>
                  </g>
                  <g id="Grupo_56218" data-name="Grupo 56218" transform="translate(8.623 13.546)">
                    <path id="Trazado_101114" data-name="Trazado 101114" d="M-24.27,950.967a5.029,5.029,0,0,0,2.125,1.405,2.269,2.269,0,0,0,1.377-.016c.971-.336.928-1.247.687-2.013a5.415,5.415,0,0,0-.533-1.158A6.52,6.52,0,0,1-24.27,950.967Z" transform="translate(24.27 -949.185)" fill="#263238"/>
                    <path id="Trazado_101115" data-name="Trazado 101115" d="M-22.962,951.927a2.27,2.27,0,0,0,1.377-.016c.971-.336.928-1.247.687-2.013A2.339,2.339,0,0,0-22.962,951.927Z" transform="translate(25.087 -948.74)" fill="#ff9abb"/>
                  </g>
                  <g id="Grupo_56220" data-name="Grupo 56220" transform="translate(11.06 4.514)">
                    <g id="Grupo_56219" data-name="Grupo 56219">
                      <path id="Trazado_101116" data-name="Trazado 101116" d="M-22.752,944.506c0-.047.1.049.107.1.091,1.233.4,2.632,1.559,2.921.036.01.039.071,0,.07C-22.466,947.55-22.863,945.69-22.752,944.506Z" transform="translate(22.77 -943.082)" fill="#263238"/>
                      <path id="Trazado_101117" data-name="Trazado 101117" d="M-21.793,943.648c1.962-.361,2.539,3.59.721,3.923C-22.861,947.9-23.437,943.95-21.793,943.648Z" transform="translate(22.773 -943.625)" fill="#263238"/>
                    </g>
                  </g>
                  <g id="Grupo_56222" data-name="Grupo 56222" transform="translate(1.303 5.394)">
                    <g id="Grupo_56221" data-name="Grupo 56221">
                      <path id="Trazado_101118" data-name="Trazado 101118" d="M-26.856,944.854c-.016-.045-.086.071-.078.122.227,1.217.283,2.648-.762,3.224-.031.018-.018.078.021.067C-26.354,947.869-26.446,945.97-26.856,944.854Z" transform="translate(29.441 -943.743)" fill="#263238"/>
                      <path id="Trazado_101119" data-name="Trazado 101119" d="M-27.479,944.169c-1.988.153-1.537,4.119.307,3.977C-25.359,948.006-25.813,944.041-27.479,944.169Z" transform="translate(28.777 -944.166)" fill="#263238"/>
                    </g>
                  </g>
                </g>
                <path id="Trazado_101120" data-name="Trazado 101120" d="M-.6,955.837l-.013,0c-1.006.138-2.739-3.182-3.311-3.21a2.472,2.472,0,0,1-1.706-.856c-.141-.388-.923-6.9-1.987-10.109s-4.6-5.593-7.851-4.967-4.8,3.83-7.125,3.825c-2.342-.016-3.375-2.237-4.789-1.754s-2.461,3.138-2.683,5.383c.305-4.235,1.114-7.7,2.411-9.21,5.981-6.927,19.384-6.054,24.218,2.377C-1.452,940.766-.383,948.877-.6,955.837Z" transform="translate(30.206 -930.307)" fill="#263238"/>
                <g id="Grupo_56224" data-name="Grupo 56224" transform="translate(26.27 16.542)">
                  <path id="Trazado_101121" data-name="Trazado 101121" d="M-13.977,946.271s2.835-6.592,5.744-5.7,1.611,9.868-1.22,11.645a3.186,3.186,0,0,1-4.527-.812Z" transform="translate(13.98 -940.491)" fill="#ffcd91"/>
                  <path id="Trazado_101122" data-name="Trazado 101122" d="M-9.268,942.121c.047-.015.071.052.032.078-1.97,1.317-2.69,3.546-3.054,5.778a1.759,1.759,0,0,1,2.479-1.006c.065.029.029.128-.034.128a1.96,1.96,0,0,0-1.974,1.106,9.586,9.586,0,0,0-.658,1.918c-.06.213-.429.182-.4-.055l.008-.054C-13.493,947.285-12.156,943.006-9.268,942.121Z" transform="translate(14.58 -939.474)" fill="#263238"/>
                </g>
              </g>
            </g>
          </g>
        </g>
        <g id="Grupo_56235" data-name="Grupo 56235" transform="translate(0 93.311)">
          <g id="Grupo_56234" data-name="Grupo 56234">
            <g id="Grupo_56232" data-name="Grupo 56232" transform="translate(0 88.151)">
              <path id="Trazado_101123" data-name="Trazado 101123" d="M-171.074,1063.606c.976,2.64,48.893,62.2,52.154,63.316,1.235.431,10.317-6.041,21.067-14.174,2.323-1.756,4.709-3.583,7.123-5.453,15.685-12.118,32.043-25.342,32.043-25.342l-31.936-39.934-31.164,26.442-6.847,5.8s-28.544-14.6-32.254-15.438S-172.052,1060.965-171.074,1063.606Z" transform="translate(171.162 -1042.018)" fill="#ffcd91"/>
              <path id="Trazado_101124" data-name="Trazado 101124" d="M-171.074,1057.2c.976,2.64,48.893,62.2,52.154,63.315,1.507.517,14.6-9.144,28.19-19.627l-31.057-38.834-6.847,5.8s-28.544-14.6-32.254-15.438S-172.052,1054.561-171.074,1057.2Z" transform="translate(171.162 -1035.614)" fill="#fff"/>
              <g id="Grupo_56231" data-name="Grupo 56231" transform="translate(0 16.186)">
                <path id="Trazado_101125" data-name="Trazado 101125" d="M-171.074,1057.2c.976,2.64,48.893,62.2,52.154,63.315,1.235.431,10.317-6.041,21.067-14.174l-30.781-38.489s-28.544-14.6-32.254-15.438S-172.052,1054.561-171.074,1057.2Z" transform="translate(171.162 -1051.799)" fill="#0ce6ea"/>
                <g id="Grupo_56230" data-name="Grupo 56230" transform="translate(2.923)">
                  <g id="Grupo_56229" data-name="Grupo 56229" transform="translate(0 2.695)">
                    <path id="Trazado_101126" data-name="Trazado 101126" d="M-169.129,1054.7c8.278,9.785,40.738,50.041,48.176,60.343.06.085.006.128-.062.05-8.418-9.521-40.55-50.036-48.279-60.263C-169.456,1054.611-169.3,1054.487-169.129,1054.7Z" transform="translate(169.363 -1053.049)" fill="#263238"/>
                    <path id="Trazado_101127" data-name="Trazado 101127" d="M-161.128,1053.67a10.29,10.29,0,0,1,2.367,7.933,9.968,9.968,0,0,1-3.535,6.52c-.062.046-.151-.063-.1-.122a11.892,11.892,0,0,0,1.14-14.232A.08.08,0,0,1-161.128,1053.67Z" transform="translate(173.704 -1053.641)" fill="#263238"/>
                    <path id="Trazado_101128" data-name="Trazado 101128" d="M-147.289,1060.02c3.27,3.95,5.588,9.719,4.316,14.831-.049.2-.33.125-.364-.042a70.921,70.921,0,0,0-4.5-14.462A.322.322,0,0,1-147.289,1060.02Z" transform="translate(182.786 -1049.733)" fill="#263238"/>
                    <path id="Trazado_101129" data-name="Trazado 101129" d="M-149.557,1058.715c3.27,3.952,5.586,9.719,4.316,14.832-.049.2-.33.125-.364-.044a70.923,70.923,0,0,0-4.5-14.462A.322.322,0,0,1-149.557,1058.715Z" transform="translate(181.37 -1050.546)" fill="#263238"/>
                    <path id="Trazado_101130" data-name="Trazado 101130" d="M-151.825,1057.413c3.27,3.951,5.586,9.719,4.316,14.831-.049.2-.33.125-.364-.042a70.928,70.928,0,0,0-4.5-14.462A.322.322,0,0,1-151.825,1057.413Z" transform="translate(179.954 -1051.36)" fill="#263238"/>
                    <path id="Trazado_101131" data-name="Trazado 101131" d="M-154.093,1056.108c3.27,3.952,5.586,9.719,4.316,14.832-.049.2-.33.125-.364-.044a71.025,71.025,0,0,0-4.5-14.462A.322.322,0,0,1-154.093,1056.108Z" transform="translate(178.537 -1052.174)" fill="#263238"/>
                    <path id="Trazado_101132" data-name="Trazado 101132" d="M-131.914,1086.178c3.595,4.495-3.384,10.087-6.983,5.586S-135.514,1081.677-131.914,1086.178Z" transform="translate(187.76 -1034.362)" fill="#fff"/>
                  </g>
                  <path id="Trazado_101133" data-name="Trazado 101133" d="M-146.342,1057.1c-1.048,4.4-.156,9.09.166,13.518a.624.624,0,0,0,.9.458.135.135,0,0,0,.214.034,26.917,26.917,0,0,0,7.3-11.853c.738-2.648.327-6.514-2.977-7.188C-143.866,1051.43-145.731,1054.532-146.342,1057.1Zm3.161-2.847c4.669-3.1,4.483,3.509,3.861,5.438a29.063,29.063,0,0,1-1.52,3.629,80.686,80.686,0,0,1-4.11,7.016c-.024-2.187-.236-4.348-.341-6.53C-145.414,1061.2-145.754,1055.959-143.181,1054.25Z" transform="translate(183.427 -1051.982)" fill="#263238"/>
                  <path id="Trazado_101134" data-name="Trazado 101134" d="M-131.388,1076.357c2.357-2.412.526-5.843-1.571-7.622a26.9,26.9,0,0,0-12.691-5.713.135.135,0,0,0-.159.148.625.625,0,0,0-.487.885c2.219,3.845,4.116,8.231,7.449,11.28C-136.9,1077.115-133.616,1078.637-131.388,1076.357Zm-10.351-7.16c-1.139-1.865-2.178-3.773-3.384-5.6a80.73,80.73,0,0,1,7.339,3.5,28.929,28.929,0,0,1,3.294,2.149c1.6,1.248,5.461,6.615-.143,6.668C-137.719,1075.949-140.382,1071.418-141.738,1069.2Z" transform="translate(183.718 -1045.091)" fill="#263238"/>
                </g>
              </g>
            </g>
            <g id="Grupo_56233" data-name="Grupo 56233" transform="translate(51.041)">
              <path id="Trazado_101135" data-name="Trazado 101135" d="M-139.74,1096.319l33.235,44.84,112.15-77.82,10.814-7.508s3.062,2.06,7.672,4.61c6.4,3.538,15.784,8.019,24.085,9.243,13.923,2.06,37.169,1.839,48.9-13.853,9.883-13.213,4.516-30.451,4.516-30.451l-15.287-6.564s-36.177-30.142-59.61-31.05c-9.953-.395-24.446,7.147-37.868,15.029S-139.74,1096.319-139.74,1096.319Z" transform="translate(139.74 -987.751)" fill="#37474f"/>
              <path id="Trazado_101136" data-name="Trazado 101136" d="M-43.582,1038.692s3.062,2.06,7.672,4.61c8.148-9.756,25.4-27.473,25.924-28.1Z" transform="translate(199.78 -970.612)" fill="#263238"/>
              <path id="Trazado_101137" data-name="Trazado 101137" d="M-8.7,1000.666c2.162,1.5,4.254,3.1,6.387,4.639,2.1,1.516,4.266,2.94,6.26,4.6,2.029,1.683,3.951,3.481,5.862,5.3.923.875,1.837,1.758,2.729,2.664a24.9,24.9,0,0,1,2.6,2.826c.068.1-.07.21-.159.151a29.339,29.339,0,0,1-2.9-2.359c-1.014-.851-2.014-1.715-3.021-2.573-1.944-1.652-3.926-3.258-5.867-4.917s-3.713-3.449-5.62-5.115c-2.043-1.787-4.2-3.449-6.319-5.138C-8.778,1000.7-8.739,1000.635-8.7,1000.666Z" transform="translate(221.527 -979.692)" fill="#263238"/>
              <path id="Trazado_101138" data-name="Trazado 101138" d="M-134.853,1053.61c2.159,2.329,4.154,4.834,6.166,7.29s4.024,4.945,6.017,7.433c3.986,4.979,8.005,9.935,11.923,14.969,2.152,2.765,4.275,5.55,6.277,8.429.089.128-.115.273-.218.159-4.288-4.714-8.208-9.745-12.186-14.72s-7.955-9.98-11.865-15.024c-2.139-2.76-4.344-5.506-6.311-8.391C-135.129,1053.638-134.946,1053.51-134.853,1053.61Z" transform="translate(142.657 -946.652)" fill="#263238"/>
              <path id="Trazado_101139" data-name="Trazado 101139" d="M-78.248,1066.023c5.58-4.4,11.366-8.549,17.15-12.673,5.757-4.1,11.509-8.219,17.352-12.2,1.676-1.143,3.369-2.261,5.058-3.385s3.444-2.157,5.1-3.322c.1-.067.182.093.088.159-1.517,1.088-2.95,2.308-4.443,3.439-1.423,1.077-2.836,2.169-4.272,3.231-2.8,2.074-5.632,4.11-8.457,6.153q-8.594,6.213-17.334,12.232c-3.311,2.269-6.6,4.548-9.988,6.707C-78.2,1066.494-78.44,1066.174-78.248,1066.023Z" transform="translate(178.091 -958.607)" fill="#263238"/>
              <path id="Trazado_101140" data-name="Trazado 101140" d="M-100.328,1046.927c5.156-4.274,10.684-8.116,16.086-12.066,5.468-4,10.906-8.031,16.393-12l16.335-11.808c5.278-3.816,10.529-7.693,16.1-11.07,3.051-1.849,6.179-3.562,9.4-5.106a61.5,61.5,0,0,1,9.711-3.967.091.091,0,0,1,.067.167c-2.748,1.535-5.633,2.826-8.414,4.306q-4.123,2.2-8.119,4.62c-5.534,3.354-10.76,7.165-16.01,10.94-10.9,7.841-21.781,15.713-32.761,23.445-6.143,4.326-12.162,8.894-18.542,12.87C-100.283,1047.385-100.512,1047.08-100.328,1046.927Z" transform="translate(164.307 -985.778)" fill="#263238"/>
            </g>
          </g>
        </g>
      </g>
    </g>
  </g>
</svg>
