<svg xmlns="http://www.w3.org/2000/svg" width="77" height="77.075" viewBox="0 0 77 77.075">
  <path id="filtrar" d="M2.406,13.363H39.042a11.207,11.207,0,0,0,21.89,0H74.594a2.406,2.406,0,1,0,0-4.812H60.931a11.206,11.206,0,0,0-21.888,0H2.406a2.406,2.406,0,1,0,0,4.812Zm41.189-2.4c0-.009,0-.017,0-.026a6.392,6.392,0,0,1,12.785-.006v.035a6.393,6.393,0,0,1-12.785,0Zm31,52.252H60.931a11.206,11.206,0,0,0-21.888,0H2.406a2.406,2.406,0,0,0,0,4.813H39.042a11.207,11.207,0,0,0,21.89,0H74.594a2.406,2.406,0,0,0,0-4.812Zm-24.606,8.8a6.4,6.4,0,0,1-6.393-6.378v-.009c0-.009,0-.017,0-.026A6.392,6.392,0,0,1,56.379,65.6v.035a6.4,6.4,0,0,1-6.393,6.383ZM74.594,35.883H37.958a11.207,11.207,0,0,0-21.89,0H2.406a2.406,2.406,0,0,0,0,4.813H16.069a11.206,11.206,0,0,0,21.888,0H74.594a2.406,2.406,0,0,0,0-4.812Zm-41.189,2.4c0,.009,0,.017,0,.026a6.392,6.392,0,0,1-12.785.006v-.035a6.393,6.393,0,0,1,12.785,0Z" transform="translate(0 0.248)" fill="#12263f"/>
</svg>
