<svg xmlns="http://www.w3.org/2000/svg" width="72" height="71.99" viewBox="0 0 72 71.99">
  <g id="trazar" transform="translate(0.005 -0.146)">
    <path id="Trazado_735329" data-name="Trazado 735329" d="M64.85,57.744A63.352,63.352,0,0,0,51.067,28.831a7.186,7.186,0,0,0-10.434-9.862A63.549,63.549,0,0,0,14.42,7.33,7.211,7.211,0,1,0,14.031,9.7,61.133,61.133,0,0,1,39.2,20.89,7.182,7.182,0,0,0,49.23,30.37,60.939,60.939,0,0,1,62.48,58.13a7.19,7.19,0,1,0,2.37-.386ZM7.225,12.173a4.8,4.8,0,1,1,4.8-4.8A4.8,4.8,0,0,1,7.225,12.173ZM45.6,28.962a4.8,4.8,0,1,1,4.8-4.8A4.8,4.8,0,0,1,45.6,28.962ZM64.789,69.737a4.8,4.8,0,1,1,4.8-4.8A4.8,4.8,0,0,1,64.789,69.737Zm0,0" transform="translate(0 0)" fill="#12263f"/>
    <path id="Trazado_735330" data-name="Trazado 735330" d="M1.422,160.375a1.2,1.2,0,0,0-1.2,1.2v45.572a1.2,1.2,0,0,0,1.2,1.2H46.993a1.2,1.2,0,0,0,1.2-1.2A46.823,46.823,0,0,0,1.422,160.375Zm1.2,45.572V162.79a44.433,44.433,0,0,1,43.158,43.157Zm0,0" transform="translate(-0.193 -136.21)" fill="#12263f"/>
  </g>
</svg>
