<svg xmlns="http://www.w3.org/2000/svg" width="87.483" height="72.971" viewBox="0 0 87.483 72.971">
  <path id="escaner-de-codigo-de-barras" d="M51.47,45.2A2.734,2.734,0,0,1,54.2,42.47H71.418a8.819,8.819,0,0,1,8.809,8.809V65.786a2.734,2.734,0,0,1-5.468,0V51.279a3.345,3.345,0,0,0-3.341-3.341H54.2A2.734,2.734,0,0,1,51.47,45.2ZM33.279,109.972H16.066a3.345,3.345,0,0,1-3.341-3.341V92.125a2.734,2.734,0,0,0-5.468,0v14.507a8.819,8.819,0,0,0,8.809,8.809H33.279a2.734,2.734,0,0,0,0-5.468ZM9.991,68.519a2.734,2.734,0,0,0,2.734-2.734V51.278a3.345,3.345,0,0,1,3.341-3.341H33.279a2.734,2.734,0,1,0,0-5.468H16.066a8.819,8.819,0,0,0-8.809,8.809V65.786A2.734,2.734,0,0,0,9.99,68.519Zm67.5,20.873a2.734,2.734,0,0,0-2.734,2.734v14.507a3.345,3.345,0,0,1-3.341,3.341H54.2a2.734,2.734,0,1,0,0,5.468H71.418a8.819,8.819,0,0,0,8.809-8.809V92.125a2.734,2.734,0,0,0-2.734-2.734Zm7.257-13.17H2.734a2.734,2.734,0,0,0,0,5.468H84.75a2.734,2.734,0,0,0,0-5.468ZM23.478,89.392a2.734,2.734,0,0,0-2.734,2.734v3.446a6.388,6.388,0,0,0,6.381,6.381H60.358a6.389,6.389,0,0,0,6.381-6.381V92.125a2.734,2.734,0,0,0-5.468,0v3.446a.926.926,0,0,1-.914.913H27.126a.926.926,0,0,1-.913-.913V92.125a2.734,2.734,0,0,0-2.734-2.734ZM64.005,68.519a2.734,2.734,0,0,0,2.734-2.734V62.339a6.388,6.388,0,0,0-6.381-6.381H27.126a6.388,6.388,0,0,0-6.381,6.381v3.446a2.734,2.734,0,1,0,5.468,0V62.339a.926.926,0,0,1,.913-.913H60.358a.926.926,0,0,1,.914.913v3.446A2.734,2.734,0,0,0,64.005,68.519Z" transform="translate(0 -42.47)" fill="#12263f"/>
</svg>
