<svg xmlns="http://www.w3.org/2000/svg" width="96.317" height="76" viewBox="0 0 96.317 76">
  <g id="capas_2_" data-name="capas (2)" transform="translate(0.001 -0.5)">
    <path id="Trazado_735332" data-name="Trazado 735332" d="M96.309,38.967a1.88,1.88,0,0,0-1-1.838l-17.62-9.237,17.3-5.347a1.881,1.881,0,0,0,.318-3.463L60.273.715A1.882,1.882,0,0,0,58.844.584L1.325,18.36a1.882,1.882,0,0,0-.317,3.464l12.1,6.342q2.865,1.5,5.838,2.7L1.316,36.411a1.881,1.881,0,0,0-.309,3.46l17.621,9.237-17.3,5.347a1.881,1.881,0,0,0-.317,3.463L36.043,76.286a1.884,1.884,0,0,0,1.429.131l21.452-6.63a1.881,1.881,0,1,0-1.111-3.595L37.1,72.593,6.793,56.7l16.56-5.119,12.69,6.653a1.874,1.874,0,0,0,1.429.131L63.908,50.2l.018-.005,8.665-2.679,16.933,8.877L72.21,61.742a1.881,1.881,0,1,0,1.11,3.595l21.671-6.7a1.881,1.881,0,0,0,.318-3.463L77.688,45.94l17.3-5.347A1.881,1.881,0,0,0,96.309,38.967Zm-19.09-7.074-14.84,14.84-18.761,5.8L64.037,32.111l8.554-2.644ZM28.555,30.046A21.709,21.709,0,0,0,39.81,24.013a22.463,22.463,0,0,0,9.106,7.52A60.173,60.173,0,0,1,28.555,30.046Zm8.432,5.216L24.376,47.873l-7.869-4.125L26.793,33.462A64.651,64.651,0,0,0,36.986,35.262Zm5.037.284c.384.007.766.013,1.149.013a64.073,64.073,0,0,0,13.354-1.406L42.021,48.659a1.886,1.886,0,0,0-.36.507l-5.1,5.1-8.7-4.56ZM6.792,20.609l52.422-16.2L89.524,20.3l-17.3,5.348h-.005L61.1,29.079q-2.066.639-4.153,1.126L53,29.05a18.81,18.81,0,0,1-11.286-9.074,1.881,1.881,0,0,0-3.132-.255A18.055,18.055,0,0,1,24.274,26.7H18.738q-1.965-.863-3.887-1.867Zm13.87,13.662-7.648,7.647L6.764,38.641ZM72.22,43.692l-.007,0-2.133.659,10.63-10.63,8.814,4.621Zm0,0" transform="translate(0)" fill="#12263f"/>
    <path id="Trazado_735333" data-name="Trazado 735333" d="M340.362,337.449a1.879,1.879,0,1,0,1.332.551A1.9,1.9,0,0,0,340.362,337.449Zm0,0" transform="translate(-274.806 -273.563)" fill="#12263f"/>
  </g>
</svg>
