<svg xmlns="http://www.w3.org/2000/svg" width="77.984" height="77.974" viewBox="0 0 77.984 77.974">
  <path id="redes-sociales" d="M63.944,49.939A14.009,14.009,0,0,0,50.465,60.147l-6.81-1.267a21.848,21.848,0,0,0-5.4-17.469L54.941,24.722A14.009,14.009,0,1,0,53.218,23l-16.683,16.7a21.848,21.848,0,0,0-17.463-5.4L17.8,27.482a14.009,14.009,0,1,0-3.8.53,13.653,13.653,0,0,0,1.416-.073l1.258,6.8A21.927,21.927,0,1,0,43.235,61.28l6.8,1.255a13.639,13.639,0,0,0-.1,1.413A14.009,14.009,0,1,0,63.944,49.939ZM2.426,14A11.573,11.573,0,1,1,14,25.575,11.573,11.573,0,0,1,2.426,14ZM63.944,2.43A11.573,11.573,0,1,1,52.371,14,11.573,11.573,0,0,1,63.944,2.43ZM21.917,75.52A19.491,19.491,0,1,1,41.408,56.03,19.491,19.491,0,0,1,21.917,75.52Zm42.027,0A11.573,11.573,0,1,1,75.517,63.948,11.573,11.573,0,0,1,63.944,75.52Z" transform="translate(0.027 0.017)" fill="#12263f"/>
</svg>
